<?xml version="1.0" encoding="utf-8"?>
<!-- Generator: Adobe Illustrator 23.0.3, SVG Export Plug-In . SVG Version: 6.00 Build 0)  -->
<svg version="1.1" id="Layer_1" xmlns="http://www.w3.org/2000/svg" xmlns:xlink="http://www.w3.org/1999/xlink" x="0px" y="0px"
	 viewBox="0 0 300 180" style="enable-background:new 0 0 300 180;" xml:space="preserve">
<style type="text/css">
	.st0{fill:none;}
</style>
<g>
	<rect x="32" y="46.5773201" class="st0" width="289.7422791" height="101.4226837"/>
	<path d="M91.4995117,31.3164063c-23.9394531,0-49.4194336,17.3598633-49.4194336,39.0600586
		c0,9.659668,3.9199219,16.2397461,13.7197266,16.2397461c7.2802734,0,12.1801758-5.1796875,12.1801758-10.3598633
		c0-3.2197266-2.800293-3.6401367-2.800293-6.7197266c0-2.3803711,1.6801758-4.4799805,4.2001953-4.4799805
		c3.0800781,0,4.8999023,2.0996094,4.8999023,5.7397461c0,9.6601563-8.8198242,18.4799805-19.3198242,18.4799805
		C42.7797852,89.2763672,32,82.8364258,32,69.5366211c0-24.6401367,33.4599609-40.4599609,59.3598633-40.4599609
		c6.0200195,0,11.0600586,0.4199219,16.0996094,1.3999023c3.9204102-2.3798828,8.2602539-3.6401367,11.8999023-3.6401367
		c4.0600586,0,8.4003906,1.4003906,8.4003906,2.6601563c0,1.3999023-1.6801758,2.7998047-2.6601563,2.7998047
		c-1.5400391,0-1.8198242-3.2197266-5.7402344-3.2197266c-2.5195313,0-3.9199219,0.9799805-6.159668,2.7998047
		c12.1796875,3.5,20.0200195,10.6401367,20.0200195,19.8798828c0,16.1000977-14.9799805,21.5600586-15.5400391,21.7001953
		c0.699707,0.2797852,13.8598633,5.0400391,13.8598633,17.9204102c0,17.21875-15.6796875,26.3193359-27.8598633,26.3193359
		c-11.4799805,0-17.0800781-6.4404297-17.0800781-12.1806641c0-5.3193359,4.6201172-7.8398438,5.6000977-7.8398438
		c0.4199219,0,0.8398438,0.2802734,0.8398438,0.7011719c0,0.8398438-1.5400391,3.6386719-1.5400391,7.6992188
		s3.5,8.8203125,9.6601563,8.8203125c9.7998047,0,15.9599609-10.3603516,15.9599609-26.7402344
		c0-9.1000977-4.6201172-12.7397461-4.6201172-12.7397461s-3.7797852,1.3999023-6.8598633,1.3999023
		c-1.9599609,0-4.8999023-0.8398438-4.8999023-3.0800781c0-1.9599609,1.9599609-3.3598633,5.3198242-3.3598633
		c2.2402344,0,5.8798828,1.1201172,6.8598633,1.6801758c0,0,6.4399414-6.0200195,6.4399414-19.8803711
		c0-7.2797852-2.0996094-13.0195313-9.5195313-16.7998047c-14.9799805,16.2402344-16.1000977,51.7998047-28,71.6801758
		c-7,11.7597656-18.4799805,16.7988281-28.1401367,16.7988281c-11.3398438,0-14.8398438-5.7392578-14.8398438-8.1191406
		c0-1.4003906,0.840332-2.5195313,2.2402344-2.5195313s2.1000977,1.1191406,2.1000977,2.0996094
		c0,1.5400391,1.6796875,5.1796875,7.4199219,5.1796875c7.8398438,0,12.0395508-5.7402344,17.4995117-17.2197266
		c8.9599609-18.7602539,18.6201172-56.1396484,35.9799805-70.2797852
		C100.1796875,31.7363281,96.5395508,31.3164063,91.4995117,31.3164063z"/>
	<path d="M151.6992188,51.4765625c-0.5605469,0.1401367-1.3999023,0.1401367-1.9599609,0.1401367
		c-2.3798828-0.1401367-4.3398438-0.7001953-4.3398438-0.7001953l1.2597656-1.6801758c0,0,1.6801758,0.5600586,4.0600586,0.5600586
		c3.0795898,0,8.1196289-0.5600586,14.1401367-3.2197266l0.6992188,1.2597656c0,0-3.0800781,1.9599609-5.7392578,6.8598633
		c-3.7802734,6.8603516-13.7202148,40.0400391-13.7202148,49.9794922c0,3.5,1.2602539,4.3398438,2.6601563,4.3398438
		c3.3598633,0,7.2797852-4.1992188,7.2797852-4.1992188l1.1201172,1.1191406c0,0-7.9799805,8.6806641-14.2797852,8.6806641
		c-5.0400391,0-8.6801758-3.6396484-8.6801758-8.5400391c0-6.859375,5.6000977-24.0795898,11.3398438-46.4794922
		C146.519043,55.5366211,149.0390625,53.15625,151.6992188,51.4765625z"/>
	<path d="M199.0185547,92.4960938c0,12.5996094-11.3398438,22.4003906-22.1201172,22.4003906
		c-8.5400391,0-15.2597656-4.0605469-15.2597656-12.3203125c0-11.8999023,9.9394531-22.5400391,21.8398438-22.5400391
		C192.578125,80.0361328,199.0185547,84.65625,199.0185547,92.4960938z M172.6982422,105.515625
		c0,4.2011719,1.3994141,6.8603516,4.2001953,6.8603516c5.5996094,0,11.2001953-12.4599609,11.2001953-23.9394531
		c0-4.2001953-1.2607422-6.1601563-4.3398438-6.1601563C178.1582031,82.2763672,172.6982422,93.1962891,172.6982422,105.515625z"/>
	<path d="M239.3378906,98.9365234c-1.6796875,6.4404297-3.2197266,17.2197266-5.1796875,27.1591797
		c-2.2402344,11.7607422-10.0800781,19.6005859-22.4003906,19.6005859c-7.9794922,0-14.4199219-4.4804688-14.4199219-11.7597656
		c0-4.3408203,3.3603516-7.9804688,6.8603516-7.9804688c2.7998047,0,4.3398438,1.8203125,4.3398438,4.2001953
		c0,3.9199219-4.2001953,5.3203125-4.2001953,8.8203125c0,2.7998047,2.5205078,4.7597656,5.1806641,4.7597656
		c8.1191406,0,14.2792969-18.9003906,18.3398438-38.2207031c-2.5205078,3.78125-8.6806641,9.1005859-14,9.1005859
		c-6.8603516,0-11.4804688-4.0595703-11.4804688-10.3603516c0-13.2993164,13.8603516-24.0795898,23.1005859-24.0795898
		c5.3193359,0,8.1191406,2.800293,8.5400391,6.4399414c0.9794922-2.7998047,3.2197266-4.7597656,7.9794922-5.4599609
		c4.4804688-0.5600586,6.7197266-2.3798828,6.7197266-2.3798828l0.8398438,1.6801758c0,0-2.7998047,1.9599609-5.4599609,6.0200195
		C241.4384766,90.8164063,240.4580078,94.3164063,239.3378906,98.9365234z M228.9785156,100.3359375
		c1.2597656-2.6601563,2.9394531-9.5195313,2.9394531-11.7597656c0-3.3598633-1.2597656-5.8798828-5.0400391-5.8798828
		c-6.859375,0-12.0400391,11.8994141-12.0400391,21.7001953c0,3.7792969,1.1201172,6.1601563,3.640625,6.1601563
		C221.5585938,110.5566406,226.4580078,105.65625,228.9785156,100.3359375z"/>
</g>
<g>
</g>
<g>
</g>
<g>
</g>
<g>
</g>
<g>
</g>
<g>
</g>
<g>
</g>
<g>
</g>
<g>
</g>
<g>
</g>
<g>
</g>
<g>
</g>
<g>
</g>
<g>
</g>
<g>
</g>
<g>
</g>
</svg>
