<?xml version="1.0" encoding="UTF-8"?><svg id="Layer_1" xmlns="http://www.w3.org/2000/svg" viewBox="0 0 1100.74 385.44"><defs><style>.cls-1{letter-spacing:-.02em;}.cls-2{letter-spacing:-.04em;}.cls-3{letter-spacing:0em;}.cls-4{letter-spacing:0em;}.cls-5{font-size:43px;}.cls-5,.cls-6{font-family:KaushanScript-Regular, 'Kaushan Script';}.cls-7{letter-spacing:0em;}.cls-8{letter-spacing:0em;}.cls-9{letter-spacing:-.02em;}.cls-10{letter-spacing:-.05em;}.cls-11{letter-spacing:-.02em;}.cls-12{letter-spacing:-.04em;}.cls-13{letter-spacing:-.02em;}.cls-14{letter-spacing:-.01em;}.cls-6{font-size:90px;}.cls-15{letter-spacing:0em;}</style></defs><text class="cls-6" transform="translate(21.11 77.13)"><tspan x="0" y="0">“</tspan><tspan class="cls-12" x="38.07" y="0">L</tspan><tspan class="cls-3" x="79.38" y="0">i</tspan><tspan class="cls-15" x="99.99" y="0">f</tspan><tspan x="130.41" y="0">e is a journey you only g</tspan><tspan class="cls-4" x="982.78" y="0">e</tspan><tspan x="1018.51" y="0">t </tspan><tspan x="-8.01" y="108">to ma</tspan><tspan class="cls-1" x="195.93" y="108">k</tspan><tspan x="240.21" y="108">e once. </tspan><tspan class="cls-2" x="503.54" y="108">L</tspan><tspan class="cls-4" x="544.49" y="108">e</tspan><tspan x="580.22" y="108">t</tspan><tspan class="cls-11" x="611.9" y="108">’</tspan><tspan x="628.01" y="108">s ma</tspan><tspan class="cls-9" x="791.72" y="108">k</tspan><tspan x="836" y="108">e your </tspan><tspan x="149.35" y="216">journey a gre</tspan><tspan class="cls-13" x="618.25" y="216">a</tspan><tspan x="659.01" y="216">t one!”</tspan></text><text class="cls-5" transform="translate(348.09 369.66)"><tspan class="cls-7" x="0" y="0">D</tspan><tspan x="33.24" y="0">amon </tspan><tspan class="cls-10" x="138.76" y="0">L</tspan><tspan x="158.33" y="0">e</tspan><tspan class="cls-8" x="175.7" y="0">a</tspan><tspan x="195.56" y="0">ch, </tspan><tspan class="cls-14" x="256.41" y="0">F</tspan><tspan x="279.5" y="0">ounder</tspan></text></svg>