<?xml version="1.0" encoding="UTF-8"?><svg id="Layer_1" xmlns="http://www.w3.org/2000/svg" viewBox="0 0 216 83.66"><defs><style>.cls-1{fill:#ee3a42;}.cls-1,.cls-2{stroke-width:0px;}.cls-2{fill:#00263d;}</style></defs><path class="cls-2" d="m4.97,82.28c-1.6-.92-2.83-2.22-3.68-3.9C.43,76.7,0,74.73,0,72.47s.43-4.2,1.28-5.88,2.08-2.98,3.68-3.88c1.6-.91,3.47-1.36,5.61-1.36,1.47,0,2.85.23,4.14.69,1.29.46,2.37,1.1,3.22,1.91l-1.28,2.87c-.98-.79-1.95-1.37-2.92-1.73-.97-.36-2-.54-3.1-.54-2.1,0-3.72.68-4.87,2.05s-1.73,3.32-1.73,5.87.57,4.54,1.71,5.91,2.77,2.06,4.89,2.06c1.1,0,2.13-.18,3.1-.54.97-.36,1.94-.93,2.92-1.73l1.28,2.87c-.86.82-1.93,1.45-3.22,1.91-1.29.46-2.67.69-4.14.69-2.14,0-4.01-.46-5.61-1.38Z"/><path class="cls-2" d="m29.59,83.38v-21.76h14.55v3.12h-10.7v6.02h10.06v3.12h-10.06v6.39h10.7v3.12h-14.55Z"/><path class="cls-2" d="m73.63,83.38h-4.16l-2.78-7.24c-.24-.67-.62-1.14-1.13-1.41-.51-.26-1.17-.4-1.99-.4h-3.94v9.05h-3.91v-21.76h9.32c2.46,0,4.34.54,5.62,1.62,1.28,1.08,1.92,2.63,1.92,4.65,0,1.45-.38,2.67-1.15,3.68-.76,1.01-1.85,1.73-3.25,2.16,1.28.27,2.21,1.16,2.78,2.69l2.66,6.97Zm-9.14-12.1c1.49,0,2.59-.27,3.3-.82.71-.55,1.07-1.39,1.07-2.51s-.35-1.92-1.05-2.46c-.7-.54-1.81-.81-3.32-.81h-4.92v6.6h4.92Z"/><path class="cls-2" d="m90.23,83.38v-18.52h-7.09v-3.24h18.19v3.24h-7.12v18.52h-3.97Z"/><path class="cls-2" d="m111.99,83.38v-21.76h3.94v21.76h-3.94Z"/><path class="cls-2" d="m128.59,83.38v-21.76h14.21v3.15h-10.3v5.96h9.69v3.18h-9.69v9.48h-3.91Z"/><path class="cls-2" d="m154.02,83.38v-21.76h3.94v21.76h-3.94Z"/><path class="cls-2" d="m170.61,83.38v-21.76h14.55v3.12h-10.7v6.02h10.06v3.12h-10.06v6.39h10.7v3.12h-14.55Z"/><path class="cls-2" d="m196.74,61.62h8.01c3.56,0,6.33.95,8.3,2.84,1.97,1.9,2.95,4.56,2.95,8.01s-.98,6.15-2.95,8.05-4.73,2.86-8.3,2.86h-8.01v-21.76Zm7.76,18.55c5.01,0,7.52-2.57,7.52-7.7s-2.51-7.64-7.52-7.64h-3.82v15.34h3.82Z"/><path class="cls-1" d="m82.87,9.61c5.43,0,10.49,2.71,13.52,7.25l.15.22,6.62-7.19.02-.02-.11-.14C98.12,3.55,90.76,0,82.87,0,68.62,0,57.02,11.6,57.02,25.86s11.6,25.86,25.86,25.86c7.88,0,15.24-3.55,20.19-9.73l.11-.14-6.61-7.18-.03-.04-.15.22c-3.03,4.54-8.08,7.25-13.52,7.25-8.96,0-16.25-7.29-16.25-16.25s7.29-16.25,16.25-16.25"/><path class="cls-1" d="m29.3,13.94l5.19,11.92v.02s-13.01,0-13.01,0L32.65.22C32.32.09,31.99,0,31.63,0h-7.28C23.21,0,22.21.67,21.78,1.71L.13,51.43l-.13.29h10.22l7.16-16.45h21.2s7.11,16.32,7.11,16.32l.06.13h10.22L34.41,2.21l-5.11,11.74Z"/><path class="cls-1" d="m115.68,0c-2.58,0-4.68,2.1-4.68,4.68v14.08h9.4v-9.36h28.13V0h-32.85Z"/><path class="cls-1" d="m120.4,30.56h0s16.41,0,16.41,0l6.69-8.48c.09-.1.14-.23.14-.37,0-.3-.24-.55-.55-.55h-22.7s0,0,0,0h0s-9.4,0-9.4,0v25.89c0,2.58,2.1,4.67,4.68,4.67h32.85v-9.4h-28.13v-11.77Z"/><path class="cls-1" d="m164.09,21.16l-6.69,8.48c-.09.1-.14.23-.14.37,0,.3.24.55.55.55h25.97s4.81,0,4.81,0c1.21-.03,2.33-.51,3.24-1.41.83-.85,1.31-1.98,1.34-3.15v-.2s0-7.67,0-7.67l-9.39-9.4v12.44h-19.68Z"/><path class="cls-1" d="m214.62,22.93s0,0-.01,0L192.47.78c-.5-.5-1.18-.76-1.86-.76-.03,0-.05,0-.08,0h-4.14c-1.45,0-2.62,1.18-2.62,2.62v2.7l4.94,4.95s.04.05.06.07l15.93,15.93-13.94,13.93,1.27,10.73c0,.13.06.26.16.36.21.21.56.21.77,0l18.36-18.36,3.4-3.4c.84-.88,1.29-2,1.3-3.28,0-1.24-.49-2.42-1.38-3.32"/><path class="cls-1" d="m200.48.47V0h2.58v.46h-1.01v2.63h-.56V.47h-1.01Zm5.63-.46h.43v3.08h-.49V1.02l-.83,1.59h-.36l-.83-1.55v2.04h-.5V0h.44l1.07,2.05L206.11,0Z"/></svg>