<?xml version="1.0" encoding="utf-8"?>
<!-- Generator: Adobe Illustrator 21.0.0, SVG Export Plug-In . SVG Version: 6.00 Build 0)  -->
<svg version="1.1" id="Layer_1" xmlns="http://www.w3.org/2000/svg" xmlns:xlink="http://www.w3.org/1999/xlink" x="0px" y="0px"
	 viewBox="0 0 350.6501465 117.557251" style="enable-background:new 0 0 350.6501465 117.557251;" xml:space="preserve">
<style type="text/css">
	.st0{fill:#354C75;}
	.st1{fill:none;}
	.st2{fill:none;stroke:#8A181A;stroke-width:2;stroke-miterlimit:10;}
	.st3{fill:#8A181A;}
</style>
<g>
	<path class="st0" d="M343.0898132,42.8384705c0,0-0.246521-0.2838593-0.7241821-0.8338318
		c-0.2388-0.2749939-0.5354004-0.6165161-0.8878479-1.0223389c-0.3889465-0.3704987-0.8394775-0.7996979-1.3495483-1.2855835
		c-2.0673218-1.9086304-5.4038391-4.3963013-10.037323-6.8856659c-4.6201782-2.5095844-10.5030823-5.0453053-17.4429016-7.3838825
		c-6.9364014-2.3465576-14.9023132-4.5847626-23.7057495-6.522644c-8.800415-1.9479523-18.4138794-3.7023926-28.6422119-5.1371155
		c-10.2278137-1.437149-21.0605469-2.6134796-32.2933044-3.4829865
		c-22.4697266-1.7048492-46.5275879-2.2300873-70.5420837-1.4015656
		c-24.0070343,0.8219604-47.9759979,2.9803314-70.1613007,6.6614685
		c-11.0890045,1.841217-21.7325134,4.0618439-31.6544418,6.7392731c-9.9142227,2.676651-19.1381226,5.7972565-27.1575165,9.6054535
		c-3.9928818,1.9145679-7.7242737,3.9673176-10.826561,6.4249439c-3.1359777,2.4092865-5.600585,5.1729279-7.2789373,7.8960724
		c-0.833847,1.3782806-1.2551117,2.8522797-1.4083176,4.2546082c-0.0236435,0.3188171-0.047081,0.6347656-0.0702972,0.9478149
		c0.0117798,0.4203644,0.0234528,0.8368378,0.0350189,1.2493591c0.0450668,0.3096161,0.0896988,0.6162567,0.1339035,0.9199066
		c0.0467224,0.3102875,0.1631012,0.6556244,0.2362671,0.9794006c0.7645035,2.6204529,2.384285,4.8685608,4.0782547,6.668335
		c3.4435492,3.621933,6.9654455,5.7940674,9.2831488,7.2748871c1.1793137,0.7297516,2.1029129,1.2634125,2.7343063,1.6090088
		c0.6266861,0.3539886,0.9501343,0.5366974,0.9501343,0.5366974l-0.9431458,1.8945923c0,0-0.3447266-0.1621399-1.0126343-0.4762726
		c-0.6722183-0.3057098-1.6597519-0.7818909-2.9330139-1.4443512c-2.5262146-1.3464966-6.2875891-3.3420715-10.3713293-7.1184387
		c-2.0004578-1.8994904-4.1180806-4.3596039-5.3707433-7.7855072c-0.1352081-0.4406128-0.2975006-0.8514252-0.4078445-1.3340607
		c-0.1019135-0.4893341-0.2034607-0.9979095-0.2878113-1.4944c-0.0369339-0.4110413-0.0742264-0.826004-0.1118622-1.2448425
		L4.9128728,51.568222c-0.0084839-0.2619324-0.0007629-0.1257019-0.0019226-0.2081299l0.0058441-0.1853333l0.0128632-0.3721619
		c0.0113144-0.2484589,0.0143051-0.4994354,0.0354767-0.7491913c0.2079773-2.0072174,0.9360886-3.9599457,1.8670959-5.7900391
		c0.9651108-1.8164215,2.1874013-3.5347748,3.7357869-4.9460144c1.5033112-1.4525452,3.1627045-2.7616882,4.9269943-3.9708099
		c3.5385427-2.4028473,7.4034033-4.564394,11.5681677-6.4941425c8.3328323-3.8498077,17.7391968-6.9137268,27.8052063-9.5221558
		c10.0710373-2.6060944,20.8230667-4.7321167,32.0034561-6.4702454c22.3656464-3.473587,46.445755-5.3887782,70.5349884-5.964889
		c24.0886383-0.5820923,48.2056274,0.193985,70.7027588,2.1351161c11.2481079,0.9876709,22.0910645,2.278595,32.3244629,3.8245239
		c10.2339172,1.5434875,19.8489075,3.4009857,28.6466675,5.4439697c8.8006592,2.0328369,16.7607422,4.3582611,23.6874084,6.7816315
		c6.9300842,2.4153137,12.8002319,5.0177155,17.4048462,7.5807972c4.6182556,2.5430756,7.9350891,5.0699463,9.9862061,7.0033569
		c0.5056458,0.4918213,0.9523315,0.9262695,1.3378906,1.3012848c0.3482361,0.4094391,0.6412659,0.7539978,0.8772278,1.0314331
		C342.8462524,42.5520782,343.0898132,42.8384705,343.0898132,42.8384705z"/>
</g>
<g>
	<rect x="14.4001551" y="39.6027527" class="st1" width="336.25" height="47.1656952"/>
	<path class="st0" d="M40.6323547,82.6825256v-1.8852539c4.0898438-0.4790039,4.5693359-0.8945313,3.8022461-3.2270508
		l-3.3227539-9.1381836H27.8198547c-0.8945313,2.4604492-1.6616211,4.9204102-2.5561523,7.4125977
		c-1.3740234,4.0581055-0.7670898,4.5375977,3.8022461,4.9526367v1.8852539H15.7099924v-1.8852539
		c3.8979483-0.5429688,4.729003-0.8305664,6.869628-6.2944336l12.3974609-31.5043945l1.8530273-0.6074219
		c3.6743164,10.097168,7.9560547,22.206543,11.7265625,32.4633789c1.7250977,5.0483398,2.6201172,5.5595703,6.6137695,5.9428711
		v1.8852539H40.6323547z M34.7534485,49.8041077h-0.1279297C32.6763,55.1400452,30.7593079,60.5077209,28.874054,65.6522522
		h11.3432617L34.7534485,49.8041077z"/>
	<path class="st0" d="M99.3442688,73.0648499c-0.2875977,1.8535156-1.5336914,7.7646484-2.0766602,9.6176758H68.0952454v-1.8530273
		c5.5595703-0.4155273,6.1030273-0.862793,6.1030273-5.8154297V51.0502014c0-5.2719727-0.543457-5.4316406-5.3359375-5.847168
		v-1.8535156h26.9355469c0.0639648,1.3740234,0.2875977,5.5917969,0.5112305,8.8828125l-1.9492188,0.2558594
		c-0.5429688-2.6201172-1.0541992-3.8662109-1.8852539-5.2084961c-0.7348633-1.3100586-2.2685547-1.7250977-6.5820313-1.7250977
		h-5.1762695c-1.8530273,0-1.9492188,0.159668-1.9492188,1.8847656v13.6435547h5.9750977
		c5.4638672,0,5.7197266-0.5429688,6.4223633-4.5688477H93.1138v11.5664063h-1.9492188
		c-0.8305664-4.3134766-1.1181641-4.5693359-6.4223633-4.5693359h-5.9750977v11.215332
		c0,2.84375,0.4794922,4.2177734,1.5341797,4.984375c1.1821289,0.7670898,3.2587891,0.7670898,6.421875,0.7670898
		c4.5693359,0,6.3266602-0.4794922,7.6367188-2.0131836c1.0224609-1.0541992,2.2045898-3.1313477,2.9716797-5.6235352
		L99.3442688,73.0648499z"/>
	<path class="st0" d="M133.70755,42.3910217c9.96875,0,19.362793,7.8920898,19.362793,20.1298828
		c0,13.1640625-9.1381836,21.1201172-20.1933594,21.1201172c-10.4804688,0-19.3950195-8.3710938-19.3950195-20.1298828
		c0-11.0229492,7.7324219-21.1201172,20.1938477-21.1201172H133.70755z M132.2378235,44.7875061
		c-6.5820313,0-13.0366211,5.4316406-13.0366211,16.9663086c0,11.375,6.5185547,19.4907227,15.0493164,19.4907227
		c6.8378906,0,13.0683594-5.4316406,13.0683594-17.1259766c0-12.8129883-7.0610352-19.3310547-15.0170898-19.3310547H132.2378235z"
		/>
	<path class="st0" d="M209.0034485,45.2030334c-3.418457,0.159668-5.0483398,0.9262695-5.3999023,3.4189453
		c-0.0957031,1.8530273-0.2236328,4.5688477-0.2236328,10.3842773v24.1557617h-1.9169922l-25.4335938-31.6328125h-0.1279297
		v15.081543c0,5.4638672,0.1918945,8.4033203,0.2558594,10.1923828c0.4150391,3.0996094,1.8847656,3.7387695,5.9111328,3.9941406
		v1.8852539h-14.5703125v-1.8852539c3.4829102-0.1279297,5.0166016-0.8945313,5.3999023-3.8662109
		c0.159668-1.9169922,0.4155273-4.8564453,0.4155273-10.3203125V53.3187561c0-4.4414063-0.1279297-4.4414063-1.2143555-5.9428711
		c-1.2460938-1.4702148-2.6518555-1.8852539-5.5595703-2.1728516v-1.8535156h8.7226563l25.2739258,30.8339844h0.1601563V59.0062561
		c0-5.8154297-0.1601563-8.53125-0.3515625-10.1289063c-0.4155273-2.7480469-1.8852539-3.5146484-6.0390625-3.6743164v-1.8535156
		h14.6977539V45.2030334z"/>
	<path class="st0" d="M222.6958313,82.6825256v-1.8852539c5.0488281-0.3193359,5.5917969-0.6069336,5.5917969-5.7832031V50.9544983
		c0-5.1123047-0.5429688-5.3359375-5.5917969-5.7514648v-1.8535156h15.7207031v1.8535156
		c-4.9848633,0.4155273-5.5595703,0.6391602-5.5595703,5.7514648v24.0595703c0,5.2402344,0.574707,5.4638672,5.5595703,5.7832031
		v1.8852539H222.6958313z"/>
	<path class="st0" d="M274.5649719,82.6825256v-1.8852539c4.0898438-0.4790039,4.5693359-0.8945313,3.8027344-3.2270508
		l-3.3232422-9.1381836h-13.2919922c-0.8945313,2.4604492-1.6611328,4.9204102-2.5556641,7.4125977
		c-1.3740234,4.0581055-0.7675781,4.5375977,3.8017578,4.9526367v1.8852539h-13.3554688v-1.8852539
		c3.8974609-0.5429688,4.7285156-0.8305664,6.8691406-6.2944336l12.3974609-31.5043945l1.8535156-0.6074219
		c3.6738281,10.097168,7.9560547,22.206543,11.7265625,32.4633789c1.7246094,5.0483398,2.6201172,5.5595703,6.6132813,5.9428711
		v1.8852539H274.5649719z M268.6860657,49.8041077h-0.1279297c-1.9492188,5.3359375-3.8662109,10.7036133-5.7509766,15.8481445
		h11.3427734L268.6860657,49.8041077z"/>
	<path class="st0" d="M343.9497375,45.2030334c-3.4189453,0.159668-5.0488281,0.9262695-5.4003906,3.4189453
		c-0.0957031,1.8530273-0.2236328,4.5688477-0.2236328,10.3842773v24.1557617h-1.9169922l-25.4335938-31.6328125h-0.1279297
		v15.081543c0,5.4638672,0.1914063,8.4033203,0.2558594,10.1923828c0.4150391,3.0996094,1.8847656,3.7387695,5.9111328,3.9941406
		v1.8852539h-14.5703125v-1.8852539c3.4824219-0.1279297,5.0166016-0.8945313,5.3994141-3.8662109
		c0.1601563-1.9169922,0.4160156-4.8564453,0.4160156-10.3203125V53.3187561c0-4.4414063-0.1279297-4.4414063-1.2138672-5.9428711
		c-1.2470703-1.4702148-2.6523438-1.8852539-5.5605469-2.1728516v-1.8535156h8.7236328l25.2734375,30.8339844h0.1601563V59.0062561
		c0-5.8154297-0.1601563-8.53125-0.3515625-10.1289063c-0.4150391-2.7480469-1.8847656-3.5146484-6.0390625-3.6743164v-1.8535156
		h14.6982422V45.2030334z"/>
</g>
<line class="st2" x1="343.0898132" y1="103.9421921" x2="240.0212555" y2="103.9421921"/>
<line class="st1" x1="8.4001551" y1="53.6027527" x2="344.6501465" y2="53.6027527"/>
<g>
</g>
<g>
	<rect x="14.1333389" y="95.204834" class="st1" width="223.7315521" height="17.4732819"/>
	<path class="st3" d="M21.4111633,96.6244202c2.9453125,0,5.0454102,0.5551758,6.4575195,1.9311523
		c1.1225586,1.0986328,1.9311523,2.7763672,1.9311523,4.9243164c0,2.7158203-1.050293,4.7919922-2.800293,6.1196289
		c-1.7260742,1.3276367-3.9223633,1.8828125-6.7226563,1.8828125h-5.3832998v-0.7001953
		c2.015624-0.1328125,2.1967764-0.2412109,2.1967764-2.1723633v-9.112793c0-1.9311523-0.1811523-2.003418-1.9672842-2.1601563
		v-0.7124023H21.4111633z M18.8647766,108.4164124c0,1.7260742,0.7602539,2.1728516,2.5102539,2.1728516
		c4.4536133,0,6.4091797-3.2348633,6.4091797-6.8193359c0-2.28125-0.9052734-4.3691406-2.8242188-5.4677734
		c-1.0380859-0.6035156-2.3779297-0.8447266-3.8745117-0.8447266c-1.0864258,0-1.6899414,0.1083984-1.9072266,0.2895508
		c-0.2290039,0.1811523-0.3134766,0.3984375-0.3134766,1.2792969V108.4164124z"/>
	<path class="st3" d="M35.2910461,111.4823303v-0.7119141c1.9072266-0.1210938,2.1123047-0.2294922,2.1123047-2.1850586v-9.0883789
		c0-1.9311523-0.2050781-2.015625-2.1123047-2.1723633v-0.7001953h5.9384766v0.7001953
		c-1.8828125,0.1567383-2.1000977,0.2412109-2.1000977,2.1723633v9.0883789c0,1.9794922,0.2172852,2.0639648,2.1000977,2.1850586
		v0.7119141H35.2910461z"/>
	<path class="st3" d="M61.429718,105.254303c-1.4121094,0.2172852-1.496582,0.2895508-1.496582,1.6171875v1.9677734
		c0,0.7602539,0.0117188,1.496582,0.1567383,2.1484375c-1.4604492,0.3618164-3.3193359,0.8569336-5.1416016,0.8569336
		c-4.9487305,0-8.2675781-3.2109375-8.2675781-7.6884766c0-5.3588867,4.284668-7.8935547,8.581543-7.8935547
		c1.9311523,0,3.7294922,0.4946289,4.465332,0.699707c0.0605469,0.8085938,0.1811523,2.1000977,0.3623047,3.5849609
		l-0.6757813,0.1083984c-0.6035156-2.8603516-2.3051758-3.512207-4.4418945-3.512207
		c-3.5605469,0-6.1313477,2.5224609-6.1313477,6.7470703c0,3.2709961,1.9916992,7.0727539,6.4453125,7.0727539
		c0.8569336,0,1.5688477-0.1811523,2.0878906-0.4462891c0.519043-0.2416992,0.784668-0.4951172,0.784668-1.4970703v-1.7983398
		c0-1.6293945-0.1811523-1.762207-2.4257813-1.9672852v-0.6757813h5.6967773V105.254303z"/>
	<path class="st3" d="M66.58255,111.4823303v-0.7119141c1.9072266-0.1210938,2.1123047-0.2294922,2.1123047-2.1850586v-9.0883789
		c0-1.9311523-0.2050781-2.015625-2.1123047-2.1723633v-0.7001953h5.9384766v0.7001953
		c-1.8828125,0.1567383-2.1000977,0.2412109-2.1000977,2.1723633v9.0883789c0,1.9794922,0.2172852,2.0639648,2.1000977,2.1850586
		v0.7119141H66.58255z"/>
	<path class="st3" d="M89.8847961,100.1366272c-0.2172852-1.0859375-0.3984375-1.6293945-0.6640625-1.9912109
		c-0.3618164-0.53125-0.6757813-0.6879883-2.4018555-0.6879883h-1.7255859v11.1762695
		c0,1.7983398,0.1806641,2.015625,2.4018555,2.1367188v0.7119141h-6.4814453v-0.7119141
		c2.1362305-0.1210938,2.3291016-0.3139648,2.3291016-2.1367188V97.457428h-1.6049805
		c-1.7260742,0-2.1967773,0.1567383-2.4863281,0.6635742c-0.253418,0.3862305-0.4345703,1.0141602-0.7001953,2.015625h-0.7363281
		c0.0844727-1.3393555,0.2172852-2.7998047,0.265625-4.0673828h0.4951172
		c0.3378906,0.5068359,0.6274414,0.5551758,1.2548828,0.5551758h8.9677734c0.6035156,0,0.7363281-0.1328125,1.0742188-0.5551758
		h0.53125c0,1.0742188,0.1083984,2.7036133,0.2294922,3.9589844L89.8847961,100.1366272z"/>
	<path class="st3" d="M103.2798157,111.4823303v-0.7119141c1.5449219-0.1811523,1.7260742-0.3383789,1.4365234-1.2192383
		l-1.2553711-3.4521484h-5.0209961c-0.3378906,0.9296875-0.6274414,1.8588867-0.9658203,2.800293
		c-0.519043,1.5327148-0.2895508,1.7138672,1.4365234,1.8710938v0.7119141h-5.0454102v-0.7119141
		c1.4726563-0.2055664,1.7866211-0.3139648,2.5952148-2.3779297l4.6831055-11.9008789l0.7001953-0.2290039
		c1.3876953,3.8139648,3.0053711,8.3881836,4.4291992,12.2626953c0.6518555,1.9067383,0.9897461,2.1000977,2.4985352,2.2451172
		v0.7119141H103.2798157z M101.0591125,99.0624084h-0.0483398c-0.7363281,2.015625-1.4604492,4.043457-2.1723633,5.9868164h4.284668
		L101.0591125,99.0624084z"/>
	<path class="st3" d="M124.9682922,107.8978577c-0.1328125,0.6875-0.6274414,2.8842773-0.8208008,3.5844727h-10.2954102v-0.7119141
		c1.9072266-0.1210938,2.1123047-0.253418,2.1123047-2.1850586v-9.0883789c0-1.9067383-0.1567383-2.015625-2.0878906-2.1723633
		v-0.7001953h5.9140625v0.7001953c-1.8588867,0.1328125-2.1000977,0.2412109-2.1000977,2.1723633v8.9316406
		c0,1.2431641,0.1328125,1.6655273,0.5551758,1.9311523c0.4462891,0.253418,1.2553711,0.2895508,2.269043,0.2895508
		c1.2553711,0,2.015625-0.1083984,2.534668-0.6635742c0.4223633-0.4584961,0.8208008-1.1464844,1.1826172-2.1967773
		L124.9682922,107.8978577z"/>
	<path class="st3" d="M145.0683899,96.6244202c2.9453125,0,5.0454102,0.5551758,6.4575195,1.9311523
		c1.1225586,1.0986328,1.9311523,2.7763672,1.9311523,4.9243164c0,2.7158203-1.050293,4.7919922-2.800293,6.1196289
		c-1.7260742,1.3276367-3.9223633,1.8828125-6.7226563,1.8828125h-5.3833008v-0.7001953
		c2.015625-0.1328125,2.1967773-0.2412109,2.1967773-2.1723633v-9.112793c0-1.9311523-0.1811523-2.003418-1.9672852-2.1601563
		v-0.7124023H145.0683899z M142.5220032,108.4164124c0,1.7260742,0.7602539,2.1728516,2.5102539,2.1728516
		c4.4536133,0,6.4091797-3.2348633,6.4091797-6.8193359c0-2.28125-0.9052734-4.3691406-2.8242188-5.4677734
		c-1.0380859-0.6035156-2.3779297-0.8447266-3.8745117-0.8447266c-1.0864258,0-1.6899414,0.1083984-1.9072266,0.2895508
		c-0.2290039,0.1811523-0.3134766,0.3984375-0.3134766,1.2792969V108.4164124z"/>
	<path class="st3" d="M170.5600891,107.8495178c-0.1088867,0.699707-0.5795898,2.9326172-0.784668,3.6328125h-11.0195313v-0.7001953
		c2.1000977-0.1567383,2.3051758-0.3256836,2.3051758-2.1967773v-9.0522461c0-1.9912109-0.2050781-2.0517578-2.015625-2.2084961
		v-0.7001953h10.1748047c0.0239258,0.519043,0.1083984,2.1123047,0.1928711,3.3554688l-0.7363281,0.0966797
		c-0.2050781-0.9897461-0.3979492-1.4604492-0.7119141-1.9672852c-0.2773438-0.4951172-0.8569336-0.6518555-2.4863281-0.6518555
		h-1.9550781c-0.7001953,0-0.7363281,0.0600586-0.7363281,0.7119141v5.1538086h2.2568359
		c2.0639648,0,2.1606445-0.2050781,2.4262695-1.7260742h0.7358398v4.3696289h-0.7358398
		c-0.3139648-1.6293945-0.4228516-1.7260742-2.4262695-1.7260742h-2.2568359v4.2363281
		c0,1.0742188,0.1811523,1.5932617,0.5791016,1.8828125c0.4467773,0.2895508,1.2314453,0.2895508,2.4262695,0.2895508
		c1.7260742,0,2.3896484-0.1806641,2.8842773-0.7602539c0.3867188-0.3984375,0.8330078-1.1826172,1.1225586-2.1240234
		L170.5600891,107.8495178z"/>
	<path class="st3" d="M183.4121399,100.1004944c-0.3745117-1.4121094-0.8691406-3.0053711-2.8847656-3.0053711
		c-1.8344727,0-2.559082,1.3637695-2.559082,2.5107422c0,1.7260742,1.1469727,2.534668,2.8725586,3.4277344
		c1.6538086,0.8085938,3.9589844,1.8344727,3.9589844,4.4780273c0,2.4741211-2.015625,4.3330078-4.9726563,4.3330078
		c-0.965332,0-1.7260742-0.2294922-2.2568359-0.3862305c-0.519043-0.1572266-0.8569336-0.3623047-1.0625-0.4467773
		c-0.1928711-0.519043-0.4707031-2.3295898-0.6274414-3.5244141l0.7241211-0.1450195
		c0.3740234,1.3881836,1.3037109,3.6210938,3.6333008,3.6210938c1.7861328,0,2.7998047-1.0981445,2.7998047-2.7519531
		c0-1.7739258-1.2792969-2.5585938-2.980957-3.4760742c-1.3520508-0.7119141-3.7416992-1.8105469-3.7416992-4.4414063
		c0-2.1728516,1.7260742-4.03125,4.6108398-4.03125c0.8930664,0,1.7983398,0.1806641,2.8481445,0.5429688
		c0.0722656,0.8085938,0.2050781,1.6777344,0.3862305,3.1743164L183.4121399,100.1004944z"/>
	<path class="st3" d="M190.0713196,111.4823303v-0.7119141c1.9072266-0.1210938,2.1123047-0.2294922,2.1123047-2.1850586v-9.0883789
		c0-1.9311523-0.2050781-2.015625-2.1123047-2.1723633v-0.7001953h5.9384766v0.7001953
		c-1.8828125,0.1567383-2.1000977,0.2412109-2.1000977,2.1723633v9.0883789c0,1.9794922,0.2172852,2.0639648,2.1000977,2.1850586
		v0.7119141H190.0713196z"/>
	<path class="st3" d="M216.2099915,105.254303c-1.4121094,0.2172852-1.496582,0.2895508-1.496582,1.6171875v1.9677734
		c0,0.7602539,0.0117188,1.496582,0.1567383,2.1484375c-1.4604492,0.3618164-3.3193359,0.8569336-5.1416016,0.8569336
		c-4.9487305,0-8.2675781-3.2109375-8.2675781-7.6884766c0-5.3588867,4.284668-7.8935547,8.581543-7.8935547
		c1.9311523,0,3.7294922,0.4946289,4.465332,0.699707c0.0605469,0.8085938,0.1811523,2.1000977,0.3623047,3.5849609
		l-0.6757813,0.1083984c-0.6035156-2.8603516-2.3051758-3.512207-4.4418945-3.512207
		c-3.5605469,0-6.1313477,2.5224609-6.1313477,6.7470703c0,3.2709961,1.9916992,7.0727539,6.4453125,7.0727539
		c0.8569336,0,1.5688477-0.1811523,2.0878906-0.4462891c0.519043-0.2416992,0.784668-0.4951172,0.784668-1.4970703v-1.7983398
		c0-1.6293945-0.1811523-1.762207-2.4257813-1.9672852v-0.6757813h5.6967773V105.254303z"/>
	<path class="st3" d="M237.0054016,97.3246155c-1.2915039,0.0605469-1.9072266,0.3500977-2.0400391,1.2915039
		c-0.0361328,0.699707-0.0844727,1.7260742-0.0844727,3.9223633v9.125h-0.7241211l-9.6074219-11.9492188h-0.0483398v5.6967773
		c0,2.0639648,0.0722656,3.1743164,0.0966797,3.8505859c0.1567383,1.1704102,0.7119141,1.4121094,2.2329102,1.5087891v0.7119141
		h-5.5039063v-0.7119141c1.3154297-0.0483398,1.8950195-0.3383789,2.0395508-1.4604492
		c0.0605469-0.7246094,0.1572266-1.8349609,0.1572266-3.8989258v-5.0209961c0-1.6772461-0.0483398-1.6772461-0.4584961-2.2446289
		c-0.4711914-0.5551758-1.0019531-0.7124023-2.1005859-0.8208008v-0.7001953h3.2954102l9.546875,11.6474609h0.0605469v-5.7333984
		c0-2.1962891-0.0605469-3.2226563-0.1328125-3.8256836c-0.1567383-1.0380859-0.7119141-1.3276367-2.28125-1.3881836v-0.7001953
		h5.5522461V97.3246155z"/>
</g>
<g>
</g>
<g>
</g>
<g>
</g>
<g>
</g>
<g>
</g>
<g>
</g>
</svg>
