<?xml version="1.0" encoding="utf-8"?>
<!-- Generator: Adobe Illustrator 14.0.0, SVG Export Plug-In . SVG Version: 6.00 Build 43363)  -->
<!DOCTYPE svg PUBLIC "-//W3C//DTD SVG 1.1//EN" "http://www.w3.org/Graphics/SVG/1.1/DTD/svg11.dtd">
<svg version="1.1" id="Layer_1" xmlns="http://www.w3.org/2000/svg" xmlns:xlink="http://www.w3.org/1999/xlink" x="0px" y="0px"
	 width="1800px" height="600px" viewBox="0 0 1800 600" enable-background="new 0 0 1800 600" xml:space="preserve">
<path d="M1725.159,306.343c-55.609-19.588-116.997-32.261-176.093-26.23c-29.13,2.972-55.942,12.104-82.631,23.772
	c-27.52,12.029-55.455,25.714-85.896,27.801c-12.922,0.887-33.892-1.875-40.277-15.115c-0.984-2.043-1.678-5.058-1.915-8.265
	c6.727-1.008,22.488-10.025,12.494-17.003c-8.048-5.616-18.084,4.407-20.583,11.26c-0.739,2.026-1.192,3.924-1.406,5.708
	c-7.268,6.77-15.886,12.489-23.984,17.997c-12.955,8.81-26.651,17.375-41.384,22.876c-8.956,3.345-20.068,6.199-29.549,4.05
	c-10.685-2.423-14.85-14.964-14.699-24.722c0.172-11.132,10.258-35.991-7.249-39.693c-10.932-2.312-19.932,6.973-25.188,17.113
	c-0.763-7.487-3.293-14.481-11.165-12.781c-3.263,0.706-5.7,2.33-7.529,4.53c-0.127-3.685-0.642-7.184-2.026-9.875
	c-1.289-2.503-2.836-3.451-5.694-3.136c-3.296,0.36-6.478,2.441-9.453,3.784c-4.533,2.041-9.058,4.096-13.601,6.112
	c-22.09,9.799-46.548,18.688-70.414,9.522c-0.283-0.108-0.847-0.11-1.421-0.039c-0.006-0.008-0.01-0.018-0.014-0.027
	c-0.484-0.967-4.256-0.657-3.747,0.412c2.64,5.555,4.042,12.18,3.458,18.339c-0.261,2.732-0.876,6.474-2.911,8.517
	c-3.775,3.793-7.096-0.915-8.244-4.622c-2.891-9.317-3.76-26.459,4.28-33.744c1.271-1.151-2.603-1.304-3.222-0.995
	c-3.214,1.607-5.949,4.093-8.118,7.081c-24.18,15.957-50.322,29.005-78.017,37.675c-16.461,5.153-35.319,8.659-45.312-8.792
	c-3.418-5.976-5.051-12.95-4.037-19.824c1.215-8.232,9.591-19.547,18.67-10.755c0.781,0.757,4.26,0.243,3.641-0.401
	c-10.06-10.451-26.095-1.314-31.116,10.147c-14.328,24.804-35.361,51.87-62.24,63.159c-37.74,15.851-48.877-26.985-51.492-54.974
	c-0.352-3.769-0.62-7.618-0.808-11.512c2.565-2.49,5.074-5.024,7.47-7.629c11.549-12.555,20.137-27.304,25.203-43.6
	c3.039-9.783,6.299-28.806-8.278-30.839c-9.955-1.387-15.99,7.03-19.554,15.165c-4.839,11.046-7.667,23.64-10.276,35.38
	c-2.591,11.667-3.888,23.799-3.71,35.886c-7.112,6.291-14.684,12.082-22.366,17.465c-12.371,8.67-26.061,16.872-41.118,19.615
	c-12.065,2.199-27.367-0.262-35.524-10.319c-2.707-3.338-4.236-7.267-4.881-11.399c5.175-1.805,10.121-4.196,14.232-7.553
	c5.406-4.41,8.017-10.69,4.136-17.069c-5.196-8.537-15.337-5.517-21.348,0.397c-6.279,6.177-8.973,16.047-7.509,24.983
	c-6.161,1.63-12.506,2.65-18.798,3.297c-11.967,1.229-35.002,2.023-49.081-5.475c0.024-0.303,0.056-0.604,0.078-0.907
	c0.447-6.175-0.543-30.573-12.835-25.492c-4.068,1.683-3.95,6.791-3.447,10.535c0.907,6.75,4.922,11.696,10.622,15.162
	c0.189,0.114,0.384,0.218,0.574,0.33c-0.254,2.678-0.667,5.345-1.198,7.976c-2.716,13.451-5.817,26.84-9.209,40.144
	c-8.296-21.639-17.263-43.031-25.233-64.808c-0.464-1.266-4.829-1.139-5.375,0c-5.609,11.715-12.088,22.942-18.369,34.292
	c-1.807-7.075-3.829-14.113-5.731-21.13c-2.78-10.25-4.829-20.945-8.26-30.974c-0.832-2.429-7.677-1.683-9.223-0.483
	c-26.341,20.445-57.023,38.65-90.691,42.616c-35.677,4.204-71.467-5.347-104.714-17.502
	c-55.189-20.178-110.471-49.325-171.056-43.172c-28.107,2.855-55.375,13.396-75.105,34.114c-0.549,0.578,2.676,1.166,3.431,0.379
	c45.627-47.703,117.672-36.181,173.254-15.946c57.51,20.937,116.194,52.423,179.448,43.851c32.189-4.363,58.516-20.96,85.6-37.218
	c1.469,8.545,4.062,17.176,6.188,25.41c2.937,11.379,5.795,22.9,9.435,34.067c0.847,2.598,9.402,3.299,10.422,0.563
	c5.298-14.212,11.234-28.106,17.673-41.814c8.184,23.139,15.665,46.709,25.564,69.146c0.722,1.639,6.507,1.519,6.886-0.372
	c3.73-18.627,9.308-37.686,11.094-56.675c8.465,3.713,18.026,5.098,27.122,5.654c12.354,0.753,24.869-0.123,37.001-2.56
	c1.427-0.286,2.88-0.596,4.343-0.93c1.051,4.339,3.133,8.36,6.33,11.497c9.702,9.521,25.354,12.116,38.423,11.068
	c16.257-1.304,31.785-9.611,45.129-18.492c8.326-5.543,16.495-11.707,24.199-18.365c0.343,8.304,1.389,16.559,3.21,24.602
	c3.32,14.658,10.848,29.908,25.187,36.401c33.113,14.994,66.308-19.622,84.417-43.143c3.275-4.254,6.333-8.652,9.229-13.157
	c0.353,5.704,2.545,11.563,5.71,15.699c5.645,7.376,14.833,10.668,23.847,11.318c19.918,1.438,40.54-7.333,58.427-15.084
	c16.022-6.946,32.091-14.908,46.807-24.598c-5.035,11.171-3.373,25.756,8.615,31.151c6.018,2.708,13.066,0.219,15.615-5.959
	c2.908-7.053,1.138-16.276-1.929-23.302c14.864,5.248,30.826,4.519,45.974,0.467c9.333-2.498,18.309-6.13,27.153-9.974
	c4.604-2.002,9.186-4.061,13.772-6.102c1.636-0.726,6.59-3.526,6.894-2.52c-0.055-0.179-1.071,3.066-1.089,3.157
	c-0.401,1.839-0.478,3.852-0.624,5.722c-0.407,5.175-0.653,10.366-0.806,15.553l-0.438,14.946c-0.048,1.632-0.284,3.29,0.197,4.843
	c0.151,0.491,1.258,2.298,1.261,2.211c-0.041,1.964,7.007,2.042,7.049,0c-0.002,0.103,1.045-1.375,1.227-1.88
	c0.563-1.57,0.492-2.981,0.511-4.665c0.055-4.925,0.11-9.845,0.165-14.768c0.023-2.11,0.19-4.576,0.33-7.17
	c0.653-2.021,1.533-3.958,2.744-5.753c1.685-2.494,5.901-6.025,9.359-3.777c1.39,0.904,1.633,5.665,1.777,7.064
	c0.54,5.226,0.52,10.472,0.345,15.716c-0.042,1.337,4.644,1.41,4.853,0c1.438-9.727,6.045-18.473,13.605-24.827
	c2.941-2.475,4.84-3.678,8.809-3.219c4.344,0.5,6.671,2.649,7.276,7.172c0.661,4.934-2.145,9.86-3.678,14.394
	c-5.48,16.208-5.65,35.474,13.233,41.732c27.302,9.05,58.495-10.999,80.002-25.567c7.539-5.108,15.466-10.416,22.521-16.478
	c2.019,21.344,44.007,22.98,59.956,20.835c33.171-4.463,62.864-20.718,93.317-33.492c36.557-15.335,74.737-21.066,114.272-18.758
	c43.379,2.532,85.121,13.607,126.385,26.561C1723.495,307.563,1726.844,306.938,1725.159,306.343z M600.054,318.795
	c-4.173-3.508-6.857-8.224-7.075-14.539c-0.068-1.999-0.128-7.428,2.637-6.181c1.637,0.736,2.997,6.62,3.348,8.059
	C599.987,310.304,600.254,314.555,600.054,318.795z M687.246,300.837c2.534-5.049,6.759-6.791,9.945-1.106
	c1.398,2.494,2.039,5.302,1.284,8.111c-1.802,6.692-9.708,10.563-15.539,12.952C682.484,313.942,684.279,306.748,687.246,300.837z
	 M803.903,240.681c2.611-7.246,13.334-27.653,21.99-12.666c6.415,11.109-1.253,27.87-5.97,38.062
	c-5.833,12.602-14.159,23.641-23.821,33.487C795.486,279.736,797.331,258.927,803.903,240.681z M1341.487,294.554
	c3.204-3.436,8.87-2.919,8.142,2.828c-0.645,5.098-6.684,8.367-11.361,9.271C1338.158,301.97,1339.057,297.162,1341.487,294.554z"/>
</svg>
