<?xml version="1.0" encoding="utf-8"?>
<!-- Generator: Adobe Illustrator 23.1.0, SVG Export Plug-In . SVG Version: 6.00 Build 0)  -->
<svg version="1.1" id="Layer_1" xmlns="http://www.w3.org/2000/svg" xmlns:xlink="http://www.w3.org/1999/xlink" x="0px" y="0px"
	 viewBox="0 0 163 14" style="enable-background:new 0 0 163 14;" xml:space="preserve">
<style type="text/css">
	.st0{fill:none;}
	.st1{fill:#8B0000;}
</style>
<g>
	<rect x="1.6918844" y="2.2462173" class="st0" width="160.3081207" height="10.7537823"/>
	<path class="st1" d="M5.8774414,2.8984375l1.4511719,3.4541016c1.1513672,2.7705078,1.9311523,4.5336914,2.1591797,4.9775391
		c-0.2280273-0.0478516-0.4077148-0.0600586-0.6357422-0.0600586s-0.4438477,0.0239258-0.6357422,0.0600586
		C7.9404297,10.418457,7.4609375,9.2670898,6.980957,8.1157227C6.465332,8.0795898,5.9375,8.0917969,5.421875,8.0917969
		c-0.4916992,0-1.0073242,0.0239258-1.4750977,0.0239258c-0.671875,1.6191406-0.9716797,2.5185547-1.1635742,3.2143555
		c-0.1796875-0.0478516-0.2998047-0.0600586-0.4438477-0.0600586c-0.1435547,0-0.2875977,0.012207-0.4433594,0.0600586
		c0.9951172-2.1831055,2.6982422-6.0087891,3.7539063-8.4316406H5.8774414z M4.1743164,7.5639648
		c0.2880859,0,0.7436523,0.0239258,1.3193359,0.0239258c0.2758789,0,0.8999023-0.0239258,1.3193359-0.0239258L5.4819336,4.5175781
		L4.1743164,7.5639648z"/>
	<path class="st1" d="M12.921875,3.1142578c0.7197266,0,1.3554688-0.0239258,2.1347656-0.0595703
		c-0.0356445,0.1435547-0.0356445,0.2519531-0.0356445,0.3598633c0,0.1318359,0.0117188,0.2514648,0.0356445,0.359375
		c-1.1391602-0.0957031-1.4990234-0.1557617-3.1542969-0.1557617c-0.0117188,0.6357422-0.0478516,1.0556641-0.0478516,1.5473633
		l0.012207,1.559082c1.1152344,0,1.7509766-0.0239258,2.9145508-0.1201172
		c-0.0244141,0.1079102-0.0361328,0.2397461-0.0361328,0.3720703c0,0.1318359,0.0117188,0.2514648,0.0361328,0.359375
		c-0.3598633-0.0356445-1.5952148-0.1079102-2.9145508-0.1079102l-0.012207,1.5952148
		c0,0.3359375,0.0239258,1.8349609,0.0239258,1.9428711h0.2880859c1.546875,0,2.5063477-0.0717773,2.9501953-0.1557617
		c-0.0239258,0.1557617-0.0356445,0.2880859-0.0356445,0.3720703c0,0.1079102,0,0.2636719,0.0356445,0.3476563
		c-0.7792969-0.0361328-1.4389648-0.0600586-2.1586914-0.0600586s-1.4033203,0.0239258-2.1826172,0.0600586
		c0.0478516-1.0556641,0.0957031-2.1347656,0.0957031-2.9624023V5.9931641c0-0.5761719,0-1.3076172-0.0957031-2.9384766
		C11.5546875,3.090332,12.2026367,3.1142578,12.921875,3.1142578z"/>
	<path class="st1" d="M25.1826172,7.1923828c0,2.6865234-1.8110352,4.293457-4.4975586,4.293457
		c-2.6386719,0-4.4853516-1.5712891-4.4853516-4.293457c0-2.6147461,1.7270508-4.2939453,4.4853516-4.2939453
		C23.371582,2.8984375,25.1826172,4.5058594,25.1826172,7.1923828z M20.6850586,11.0419922
		c2.0629883,0,3.3222656-1.4033203,3.3222656-3.8496094c0-2.4589844-1.2592773-3.8500977-3.3344727-3.8500977
		c-2.0268555,0-3.2978516,1.3793945-3.2978516,3.8500977C17.375,9.6386719,18.6342773,11.0419922,20.6850586,11.0419922z"/>
	<path class="st1" d="M27.1791992,2.8984375c1.8588867,2.0751953,4.1733398,4.5336914,6.0683594,6.4887695v-0.815918
		c0-1.8466797-0.0356445-4.3056641-0.0957031-5.5166016c0.144043,0.0356445,0.2758789,0.0595703,0.4077148,0.0595703
		s0.2636719-0.0239258,0.3837891-0.0595703c-0.0600586,0.6357422-0.1918945,2.8422852-0.1918945,4.1254883
		c0,1.8588867,0.0239258,4.0180664,0.0239258,4.3056641h-0.1557617c-1.5830078-1.8349609-3.5981445-4.0415039-6.0566406-6.6323242
		c-0.0361328,0.8276367-0.0361328,1.0673828-0.0361328,2.5307617c0,0.371582,0,0.8754883,0.012207,1.4990234l0.0478516,1.6552734
		c0.0117188,0.4794922,0.0478516,0.7436523,0.0478516,0.7915039c-0.1318359-0.0478516-0.2758789-0.0600586-0.4199219-0.0600586
		c-0.1435547,0-0.2875977,0.012207-0.4433594,0.0600586c0.0957031-0.4077148,0.2514648-4.0297852,0.2514648-5.097168V4.8535156
		c0-0.8037109,0-1.3793945-0.0356445-1.9550781H27.1791992z"/>
	<path class="st1" d="M36.6948242,3.1142578c0.1918945,0,0.3959961-0.0239258,0.5878906-0.0595703
		c-0.0483398,1.0673828-0.0961914,2.1347656-0.0961914,2.9501953v2.3745117c0,0.815918,0.0478516,1.8950195,0.0961914,2.9506836
		c-0.2041016-0.0478516-0.3959961-0.0600586-0.5878906-0.0600586s-0.3598633,0.012207-0.5874023,0.0600586
		c0.0478516-1.0556641,0.0957031-2.1230469,0.0957031-2.9506836V6.0048828c0-0.8276367-0.0478516-1.8950195-0.0957031-2.9501953
		C36.3349609,3.090332,36.5029297,3.1142578,36.6948242,3.1142578z"/>
	<path class="st1" d="M42.5493164,2.8984375l1.4511719,3.4541016c1.1513672,2.7705078,1.9311523,4.5336914,2.1591797,4.9775391
		c-0.2280273-0.0478516-0.4077148-0.0600586-0.6357422-0.0600586s-0.4438477,0.0239258-0.6357422,0.0600586
		c-0.2758789-0.9116211-0.7553711-2.0629883-1.2353516-3.2143555c-0.515625-0.0361328-1.043457-0.0239258-1.559082-0.0239258
		c-0.4916992,0-1.0073242,0.0239258-1.4750977,0.0239258c-0.671875,1.6191406-0.9716797,2.5185547-1.1635742,3.2143555
		c-0.1796875-0.0478516-0.2998047-0.0600586-0.4438477-0.0600586c-0.1435547,0-0.2875977,0.012207-0.4433594,0.0600586
		c0.9951172-2.1831055,2.6982422-6.0087891,3.7539063-8.4316406H42.5493164z M40.8461914,7.5639648
		c0.2880859,0,0.7436523,0.0239258,1.3193359,0.0239258c0.2758789,0,0.8999023-0.0239258,1.3193359-0.0239258l-1.3310547-3.0463867
		L40.8461914,7.5639648z"/>
	<path class="st1" d="M47.8549805,2.8984375c1.8588867,2.0751953,4.1733398,4.5336914,6.0683594,6.4887695v-0.815918
		c0-1.8466797-0.0356445-4.3056641-0.0957031-5.5166016c0.144043,0.0356445,0.2758789,0.0595703,0.4077148,0.0595703
		s0.2636719-0.0239258,0.3837891-0.0595703c-0.0600586,0.6357422-0.1918945,2.8422852-0.1918945,4.1254883
		c0,1.8588867,0.0239258,4.0180664,0.0239258,4.3056641h-0.1557617c-1.5830078-1.8349609-3.5981445-4.0415039-6.0566406-6.6323242
		c-0.0361328,0.8276367-0.0361328,1.0673828-0.0361328,2.5307617c0,0.371582,0,0.8754883,0.012207,1.4990234l0.0478516,1.6552734
		c0.0117188,0.4794922,0.0478516,0.7436523,0.0478516,0.7915039c-0.1318359-0.0478516-0.2758789-0.0600586-0.4199219-0.0600586
		c-0.1435547,0-0.2875977,0.012207-0.4433594,0.0600586c0.0957031-0.4077148,0.2514648-4.0297852,0.2514648-5.097168V4.8535156
		c0-0.8037109,0-1.3793945-0.0356445-1.9550781H47.8549805z"/>
	<path class="st1" d="M60.706543,3.1142578c0.1918945,0,0.3959961-0.0239258,0.5878906-0.0595703
		c-0.0483398,1.1870117-0.0961914,2.0268555-0.0961914,2.9384766v0.5874023
		c1.2475586,0.0239258,2.0869141,0.0361328,2.5068359,0.0361328s1.2592773-0.012207,2.5063477-0.0361328v-0.371582
		c0-1.1757813-0.0356445-1.5712891-0.0957031-3.1542969C66.34375,3.090332,66.5112305,3.1142578,66.703125,3.1142578
		s0.3959961-0.0239258,0.5878906-0.0595703c-0.0478516,1.0673828-0.0957031,2.1347656-0.0957031,2.9501953v2.3745117
		c0,0.815918,0.0478516,1.8950195,0.0957031,2.9506836c-0.2041016-0.0478516-0.3959961-0.0600586-0.5878906-0.0600586
		s-0.359375,0.012207-0.5874023,0.0600586c0.0478516-1.0556641,0.0957031-2.1230469,0.0957031-2.9506836V7.1445313
		c0.0961914,0-1.7866211-0.0244141-2.5063477-0.0244141c-0.2998047,0-1.1274414,0.012207-2.5068359,0.0244141v1.2348633
		c0,0.815918,0.0478516,1.8950195,0.0961914,2.9506836c-0.2041016-0.0478516-0.3959961-0.0600586-0.5878906-0.0600586
		s-0.3598633,0.012207-0.5874023,0.0600586c0.0478516-1.0556641,0.0957031-2.1230469,0.0957031-2.9506836V6.0048828
		c0-0.8276367-0.0478516-1.8950195-0.0957031-2.9501953C60.3466797,3.090332,60.5146484,3.1142578,60.706543,3.1142578z"/>
	<path class="st1" d="M71.6015625,3.1142578c0.7197266,0,1.3554688-0.0239258,2.1347656-0.0595703
		c-0.0356445,0.1435547-0.0356445,0.2519531-0.0356445,0.3598633c0,0.1318359,0.0117188,0.2514648,0.0356445,0.359375
		c-1.1391602-0.0957031-1.4990234-0.1557617-3.1542969-0.1557617c-0.0117188,0.6357422-0.0478516,1.0556641-0.0478516,1.5473633
		l0.012207,1.559082c1.1152344,0,1.7509766-0.0239258,2.9145508-0.1201172
		c-0.0244141,0.1079102-0.0361328,0.2397461-0.0361328,0.3720703c0,0.1318359,0.0117188,0.2514648,0.0361328,0.359375
		c-0.3598633-0.0356445-1.5952148-0.1079102-2.9145508-0.1079102l-0.012207,1.5952148
		c0,0.3359375,0.0239258,1.8349609,0.0239258,1.9428711h0.2880859c1.546875,0,2.5063477-0.0717773,2.9501953-0.1557617
		c-0.0239258,0.1557617-0.0356445,0.2880859-0.0356445,0.3720703c0,0.1079102,0,0.2636719,0.0356445,0.3476563
		c-0.7792969-0.0361328-1.4389648-0.0600586-2.1586914-0.0600586s-1.4033203,0.0239258-2.1826172,0.0600586
		c0.0478516-1.0556641,0.0957031-2.1347656,0.0957031-2.9624023V5.9931641c0-0.5761719,0-1.3076172-0.0957031-2.9384766
		C70.234375,3.090332,70.8823242,3.1142578,71.6015625,3.1142578z"/>
	<path class="st1" d="M78.5610352,2.8984375l1.4511719,3.4541016c1.1513672,2.7705078,1.9311523,4.5336914,2.1591797,4.9775391
		c-0.2280273-0.0478516-0.4077148-0.0600586-0.6357422-0.0600586s-0.4438477,0.0239258-0.6357422,0.0600586
		c-0.2758789-0.9116211-0.7553711-2.0629883-1.2353516-3.2143555c-0.515625-0.0361328-1.043457-0.0239258-1.559082-0.0239258
		c-0.4916992,0-1.0073242,0.0239258-1.4750977,0.0239258c-0.671875,1.6191406-0.9716797,2.5185547-1.1635742,3.2143555
		c-0.1796875-0.0478516-0.2998047-0.0600586-0.4438477-0.0600586c-0.1435547,0-0.2875977,0.012207-0.4433594,0.0600586
		c0.9951172-2.1831055,2.6982422-6.0087891,3.7539063-8.4316406H78.5610352z M76.8579102,7.5639648
		c0.2880859,0,0.7436523,0.0239258,1.3193359,0.0239258c0.2758789,0,0.8999023-0.0239258,1.3193359-0.0239258l-1.3310547-3.0463867
		L76.8579102,7.5639648z"/>
	<path class="st1" d="M84.0463867,3.1142578c0.1918945,0,0.3959961-0.0239258,0.5878906-0.0595703
		c-0.0600586,1.2709961-0.0961914,2.1708984-0.0961914,3.262207c0,1.1274414,0.0361328,3.8735352,0.0361328,4.4492188h0.2998047
		c1.5351563,0,2.21875-0.0595703,3.0102539-0.1557617c-0.0356445,0.144043-0.0600586,0.2519531-0.0600586,0.3598633
		c0,0.1201172,0.0244141,0.2397461,0.0600586,0.3598633c-0.9233398-0.0361328-1.4873047-0.0600586-2.206543-0.0600586
		c-0.7319336,0-1.4511719,0.0239258-2.21875,0.0600586c0.0478516-1.0556641,0.0957031-2.1230469,0.0957031-2.9506836V6.0048828
		c0-0.8276367-0.0478516-1.8950195-0.0957031-2.9501953C83.6865234,3.090332,83.8544922,3.1142578,84.0463867,3.1142578z"/>
	<path class="st1" d="M90.609375,3.1142578c1.0195313,0,1.9912109-0.0239258,3.0947266-0.0595703
		c-0.0483398,0.1557617-0.0600586,0.2519531-0.0600586,0.3837891s0.0239258,0.2519531,0.0600586,0.371582
		c-0.671875-0.0957031-1.715332-0.1318359-2.5668945-0.1318359l-0.0239258,1.1035156
		c-0.012207,0.4438477-0.012207,0.8276367-0.012207,1.1630859v2.4228516c0,0.7675781,0.0483398,1.7631836,0.0961914,2.9624023
		c-0.2280273-0.0361328-0.3959961-0.0600586-0.5878906-0.0600586s-0.3955078,0.0239258-0.5874023,0.0600586
		c0.0478516-1.0673828,0.0957031-2.1347656,0.0957031-2.9506836V5.9448242c0-0.3476563,0-0.7314453-0.0117188-1.175293
		l-0.0239258-1.0913086c-0.9594727,0-1.9790039,0.0717773-2.5668945,0.1318359
		c0.0361328-0.1196289,0.0600586-0.2519531,0.0600586-0.3837891s-0.0239258-0.2280273-0.0600586-0.371582
		C88.6308594,3.090332,89.590332,3.1142578,90.609375,3.1142578z"/>
	<path class="st1" d="M95.6142578,3.1142578c0.1918945,0,0.3959961-0.0239258,0.5878906-0.0595703
		C96.1542969,4.2416992,96.105957,5.081543,96.105957,5.9931641v0.5874023
		c1.2475586,0.0239258,2.0874023,0.0361328,2.5063477,0.0361328c0.4199219,0,1.2597656-0.012207,2.5068359-0.0361328v-0.371582
		c0-1.1757813-0.0361328-1.5712891-0.0957031-3.1542969c0.2275391,0.0356445,0.3955078,0.0595703,0.5878906,0.0595703
		c0.1914063,0,0.3955078-0.0239258,0.5878906-0.0595703c-0.0488281,1.0673828-0.0966797,2.1347656-0.0966797,2.9501953v2.3745117
		c0,0.815918,0.0478516,1.8950195,0.0966797,2.9506836c-0.2041016-0.0478516-0.3964844-0.0600586-0.5878906-0.0600586
		c-0.1923828,0-0.3603516,0.012207-0.5878906,0.0600586c0.0478516-1.0556641,0.0957031-2.1230469,0.0957031-2.9506836V7.1445313
		c0.0957031,0-1.7871094-0.0244141-2.5068359-0.0244141c-0.2998047,0-1.1269531,0.012207-2.5063477,0.0244141v1.2348633
		c0,0.815918,0.0483398,1.8950195,0.0961914,2.9506836c-0.2041016-0.0478516-0.3959961-0.0600586-0.5878906-0.0600586
		s-0.3598633,0.012207-0.5874023,0.0600586c0.0478516-1.0556641,0.0957031-2.1230469,0.0957031-2.9506836V6.0048828
		c0-0.8276367-0.0478516-1.8950195-0.0957031-2.9501953C95.2543945,3.090332,95.4223633,3.1142578,95.6142578,3.1142578z"/>
	<path class="st1" d="M112.2929688,4.5537109c0,0.7197266-0.5878906,1.4750977-1.6425781,2.0986328
		c0.7314453,0.9238281,1.390625,1.8349609,2.1103516,2.6147461c0.5751953-0.7797852,1.0429688-1.5229492,1.4267578-2.3745117
		c0.1083984,0.2275391,0.2763672,0.3476563,0.4560547,0.4794922c-0.4794922,0.7675781-0.9833984,1.4633789-1.6191406,2.230957
		l1.5351563,1.7270508c-0.3232422-0.0361328-0.515625-0.0600586-0.7558594-0.0600586
		c-0.2392578,0-0.4189453,0.0239258-0.6953125,0.0600586c-0.1318359-0.2280273-0.4072266-0.5996094-0.7558594-1.0195313
		c-0.8632813,0.8632813-1.6308594,1.175293-2.578125,1.175293c-1.3671875,0-2.3027344-0.8037109-2.3027344-2.0146484
		c0-0.9956055,0.8398438-2.0151367,2.1826172-2.5908203c-0.4677734-0.6713867-0.8037109-1.2592773-0.8037109-1.8710938
		c0-1.0073242,0.7675781-1.7988281,1.8476563-1.7988281C111.6689453,3.2104492,112.2929688,3.7021484,112.2929688,4.5537109z
		 M110.2177734,10.9223633c0.7324219,0,1.2832031-0.2519531,1.8955078-0.8637695
		c-0.8154297-0.9711914-1.5234375-1.8710938-2.2548828-2.8901367c-1.0556641,0.6352539-1.4033203,1.2592773-1.4033203,2.074707
		C108.4550781,10.1186523,109.1982422,10.9223633,110.2177734,10.9223633z M110.4462891,6.4008789
		c0.7792969-0.4799805,1.2226563-1.2236328,1.2226563-1.859375c0-0.5874023-0.3837891-0.9951172-0.9707031-0.9951172
		c-0.5878906,0-1.0078125,0.4677734-1.0078125,1.1274414C109.6904297,5.1054688,109.9658203,5.7768555,110.4462891,6.4008789z"/>
	<path class="st1" d="M121.8466797,3.1142578c0.7314453,0,1.4267578-0.0239258,2.2900391-0.0595703
		c-0.0351563,0.1435547-0.0351563,0.2519531-0.0351563,0.3598633c0,0.1318359,0,0.2036133,0.0351563,0.359375
		c-0.7675781-0.0957031-2.8662109-0.1557617-3.3457031-0.1557617c0,0.0600586-0.0244141,1.1875-0.0244141,1.715332
		l0.0126953,1.3671875c1.0195313,0,2.0869141-0.0239258,3.09375-0.1201172
		c-0.0117188,0.1079102-0.0478516,0.2280273-0.0478516,0.3598633c0,0.0957031,0.0117188,0.1679688,0.0478516,0.3598633
		c-0.7792969-0.0600586-1.4267578-0.0961914-3.09375-0.0961914v1.175293c0,0.815918,0.0478516,1.8950195,0.0957031,2.9506836
		c-0.2041016-0.0361328-0.3955078-0.0600586-0.5878906-0.0600586c-0.1914063,0-0.359375,0.012207-0.5878906,0.0600586
		c0.0478516-1.0556641,0.0966797-2.1230469,0.0966797-2.9506836V6.0048828c0-0.8276367-0.0488281-1.8950195-0.0966797-2.9501953
		C120.4794922,3.090332,121.1269531,3.1142578,121.8466797,3.1142578z"/>
	<path class="st1" d="M126.2871094,3.1142578c0.1923828,0,0.3955078-0.0239258,0.5878906-0.0595703
		c-0.0478516,1.0673828-0.0957031,2.1347656-0.0957031,2.9501953v2.3745117c0,0.815918,0.0478516,1.8950195,0.0957031,2.9506836
		c-0.2041016-0.0478516-0.3955078-0.0600586-0.5878906-0.0600586c-0.1914063,0-0.359375,0.012207-0.5878906,0.0600586
		c0.0478516-1.0556641,0.0966797-2.1230469,0.0966797-2.9506836V6.0048828c0-0.8276367-0.0488281-1.8950195-0.0966797-2.9501953
		C125.9277344,3.090332,126.0957031,3.1142578,126.2871094,3.1142578z"/>
	<path class="st1" d="M131.2900391,3.1142578c1.0195313,0,1.9912109-0.0239258,3.0947266-0.0595703
		c-0.0478516,0.1557617-0.0605469,0.2519531-0.0605469,0.3837891s0.0244141,0.2519531,0.0605469,0.371582
		c-0.671875-0.0957031-1.7148438-0.1318359-2.5664063-0.1318359l-0.0244141,1.1035156
		c-0.0117188,0.4438477-0.0117188,0.8276367-0.0117188,1.1630859v2.4228516c0,0.7675781,0.0478516,1.7631836,0.0957031,2.9624023
		c-0.2275391-0.0361328-0.3955078-0.0600586-0.5878906-0.0600586c-0.1914063,0-0.3955078,0.0239258-0.5878906,0.0600586
		c0.0488281-1.0673828,0.0966797-2.1347656,0.0966797-2.9506836V5.9448242c0-0.3476563,0-0.7314453-0.0126953-1.175293
		l-0.0234375-1.0913086c-0.9599609,0-1.9794922,0.0717773-2.5664063,0.1318359
		c0.0351563-0.1196289,0.0595703-0.2519531,0.0595703-0.3837891s-0.0244141-0.2280273-0.0595703-0.371582
		C129.3115234,3.090332,130.2705078,3.1142578,131.2900391,3.1142578z"/>
	<path class="st1" d="M136.1152344,2.8984375c1.8583984,2.0751953,4.1738281,4.5336914,6.0683594,6.4887695v-0.815918
		c0-1.8466797-0.0361328-4.3056641-0.0957031-5.5166016c0.1435547,0.0356445,0.2753906,0.0595703,0.4082031,0.0595703
		c0.1318359,0,0.2636719-0.0239258,0.3828125-0.0595703C142.8193359,3.6904297,142.6875,5.8969727,142.6875,7.1801758
		c0,1.8588867,0.0244141,4.0180664,0.0244141,4.3056641h-0.15625c-1.5830078-1.8349609-3.5976563-4.0415039-6.0566406-6.6323242
		c-0.0361328,0.8276367-0.0361328,1.0673828-0.0361328,2.5307617c0,0.371582,0,0.8754883,0.0117188,1.4990234l0.0478516,1.6552734
		c0.0126953,0.4794922,0.0488281,0.7436523,0.0488281,0.7915039c-0.1328125-0.0478516-0.2763672-0.0600586-0.4199219-0.0600586
		c-0.1445313,0-0.2880859,0.012207-0.4443359,0.0600586c0.0966797-0.4077148,0.2519531-4.0297852,0.2519531-5.097168V4.8535156
		c0-0.8037109,0-1.3793945-0.0361328-1.9550781H136.1152344z"/>
	<path class="st1" d="M147.1904297,3.1142578c0.7197266,0,1.3544922-0.0239258,2.1347656-0.0595703
		c-0.0361328,0.1435547-0.0361328,0.2519531-0.0361328,0.3598633c0,0.1318359,0.0117188,0.2514648,0.0361328,0.359375
		c-1.1396484-0.0957031-1.4990234-0.1557617-3.1542969-0.1557617c-0.0126953,0.6357422-0.0478516,1.0556641-0.0478516,1.5473633
		l0.0117188,1.559082c1.1152344,0,1.7509766-0.0239258,2.9140625-0.1201172
		c-0.0234375,0.1079102-0.0361328,0.2397461-0.0361328,0.3720703c0,0.1318359,0.0126953,0.2514648,0.0361328,0.359375
		c-0.359375-0.0356445-1.5947266-0.1079102-2.9140625-0.1079102l-0.0117188,1.5952148
		c0,0.3359375,0.0234375,1.8349609,0.0234375,1.9428711h0.2880859c1.546875,0,2.5068359-0.0717773,2.9501953-0.1557617
		c-0.0234375,0.1557617-0.0361328,0.2880859-0.0361328,0.3720703c0,0.1079102,0,0.2636719,0.0361328,0.3476563
		c-0.7792969-0.0361328-1.4394531-0.0600586-2.1582031-0.0600586c-0.7197266,0-1.4033203,0.0239258-2.1835938,0.0600586
		c0.0478516-1.0556641,0.0966797-2.1347656,0.0966797-2.9624023V5.9931641c0-0.5761719,0-1.3076172-0.0966797-2.9384766
		C145.8232422,3.090332,146.4707031,3.1142578,147.1904297,3.1142578z"/>
	<path class="st1" d="M155.0849609,3.4624023c-0.15625,0.2875977-0.2275391,0.5634766-0.3232422,1.0073242h-0.1445313
		c-0.2880859-0.7553711-0.7675781-1.1274414-1.4267578-1.1274414c-0.9121094,0-1.5478516,0.6235352-1.5478516,1.4873047
		c0,0.8037109,0.3837891,1.2714844,1.8476563,1.8110352c1.4267578,0.5395508,1.9306641,1.1152344,1.9306641,2.1469727
		c0,1.546875-1.1757813,2.6982422-2.9384766,2.6982422c-0.7675781,0-1.3671875-0.1918945-1.9785156-0.6835938
		c0.1074219-0.2758789,0.1796875-0.527832,0.2275391-1.0673828H150.875
		c0.3720703,0.7797852,1.0439453,1.2475586,1.8955078,1.2475586c1.0068359,0,1.7148438-0.7197266,1.7148438-1.7392578
		c0-0.8037109-0.4794922-1.2592773-1.4873047-1.6430664c-1.4150391-0.5517578-2.2910156-1.0317383-2.2910156-2.4345703
		c0-1.3793945,1.0673828-2.2670898,2.6025391-2.2670898C154.0771484,2.8984375,154.6054688,3.0786133,155.0849609,3.4624023z"/>
	<path class="st1" d="M161.0849609,3.4624023c-0.15625,0.2875977-0.2275391,0.5634766-0.3232422,1.0073242h-0.1445313
		c-0.2880859-0.7553711-0.7675781-1.1274414-1.4267578-1.1274414c-0.9121094,0-1.5478516,0.6235352-1.5478516,1.4873047
		c0,0.8037109,0.3837891,1.2714844,1.8476563,1.8110352c1.4267578,0.5395508,1.9306641,1.1152344,1.9306641,2.1469727
		c0,1.546875-1.1757813,2.6982422-2.9384766,2.6982422c-0.7675781,0-1.3671875-0.1918945-1.9785156-0.6835938
		c0.1074219-0.2758789,0.1796875-0.527832,0.2275391-1.0673828H156.875
		c0.3720703,0.7797852,1.0439453,1.2475586,1.8955078,1.2475586c1.0068359,0,1.7148438-0.7197266,1.7148438-1.7392578
		c0-0.8037109-0.4794922-1.2592773-1.4873047-1.6430664c-1.4150391-0.5517578-2.2910156-1.0317383-2.2910156-2.4345703
		c0-1.3793945,1.0673828-2.2670898,2.6025391-2.2670898C160.0771484,2.8984375,160.6054688,3.0786133,161.0849609,3.4624023z"/>
</g>
<g>
</g>
<g>
</g>
<g>
</g>
<g>
</g>
<g>
</g>
<g>
</g>
<g>
</g>
<g>
</g>
<g>
</g>
<g>
</g>
<g>
</g>
<g>
</g>
<g>
</g>
<g>
</g>
<g>
</g>
</svg>
