<?xml version="1.0" encoding="utf-8"?>
<!-- Generator: Adobe Illustrator 23.1.0, SVG Export Plug-In . SVG Version: 6.00 Build 0)  -->
<svg version="1.1" id="Layer_1" xmlns="http://www.w3.org/2000/svg" xmlns:xlink="http://www.w3.org/1999/xlink" x="0px" y="0px"
	 viewBox="0 0 350.6501465 117.557251" style="enable-background:new 0 0 350.6501465 117.557251;" xml:space="preserve">
<style type="text/css">
	.st0{fill:#FFFFFF;}
	.st1{fill:none;}
	.st2{fill:none;stroke:#FFFFFF;stroke-width:2;stroke-miterlimit:10;}
</style>
<g>
	<path class="st0" d="M343.0898132,42.8384705c-2.5160522-3.1369934-5.7340698-5.6171417-9.1056213-7.7606659
		c-3.3862305-2.1408539-6.9732666-3.9528522-10.6497498-5.5400105c-7.340332-3.2180176-15.0023193-5.6415863-22.720459-7.7724457
		c-15.4829102-4.1501617-31.3106995-6.8920135-47.2008972-8.9166718
		c-31.8082886-3.9701843-63.9398193-4.999084-95.9484253-3.9658203c-16.006073,0.5504608-31.9920502,1.6798553-47.8874969,3.5330048
		c-15.8887939,1.8657532-31.7095184,4.4149628-47.228241,8.1533508c-7.7522888,1.8799133-15.4288788,4.0683289-22.8939972,6.7753296
		c-3.7328186,1.3498688-7.4005432,2.8558197-10.9635239,4.5445099c-3.5501175,1.7017841-7.0236511,3.5757008-10.1288834,5.8873005
		c-1.5443954,1.1585083-3.0030661,2.4060059-4.3077765,3.750885c-0.6647568,0.6617432-1.2402649,1.3911438-1.8147583,2.0958099
		c-0.5973816,0.690567-1.1201172,1.4176331-1.6075134,2.1597748c-0.9580841,1.4889679-1.5087814,3.1440277-1.666008,4.7905273
		c-0.1541214,1.6467133,0.0374298,3.3363953,0.6772003,4.967926c1.2737503,3.2786865,3.9249878,6.1854553,6.8959494,8.6274719
		c2.9925995,2.4593048,6.3535233,4.5639496,9.8187103,6.4813385l-0.9431458,1.8945923
		c-3.6863403-1.6957245-7.3260498-3.5892639-10.6822348-6.0406494c-1.6889191-1.2048645-3.2918701-2.5757904-4.760498-4.1304321
		c-1.4610977-1.5567017-2.7883-3.3304901-3.7310185-5.3937988c-0.943161-2.0505676-1.4581375-4.4186554-1.2880707-6.7720032
		c0.2264938-2.3525085,1.1014862-4.5457458,2.1732559-6.5066833c0.5695953-0.9614868,1.1855168-1.8892517,1.875855-2.7367401
		c0.6985016-0.84375,1.4901047-1.5868835,2.2753754-2.3088684c1.5811691-1.4405212,3.2716904-2.6945648,5.0032644-3.8469391
		c6.9488754-4.5608082,14.4437485-7.8163166,22.0845413-10.5063801c7.6458206-2.6831207,15.4430695-4.8165436,23.2962494-6.6356659
		c15.7162018-3.61409,31.6540985-6.0106201,47.6398468-7.7210999c15.9904327-1.6969147,32.0446777-2.6639857,48.1050873-3.0503078
		c32.1141357-0.7045898,64.303009,0.6603241,96.1358337,4.9677424c15.9017029,2.1933136,31.7322388,5.1043854,47.2037964,9.4233246
		c7.7126465,2.2153168,15.3651123,4.7231445,22.6888733,8.0244446c3.6677551,1.6285858,7.2445068,3.481966,10.6158752,5.662508
		C337.4075928,37.1557312,340.6064758,39.6754456,343.0898132,42.8384705z"/>
</g>
<g>
	<rect x="14.4001551" y="39.6027527" class="st1" width="336.25" height="47.1656952"/>
	<path class="st0" d="M40.6323547,82.6825256v-1.8852539c4.0898438-0.4790039,4.5693359-0.8945313,3.8022461-3.2270508
		l-3.3227539-9.1381836H27.8198547c-0.8945313,2.4604492-1.6616211,4.9204102-2.5561523,7.4125977
		c-1.3740234,4.0581055-0.7670898,4.5375977,3.8022461,4.9526367v1.8852539H15.7099924v-1.8852539
		c3.8979483-0.5429688,4.729003-0.8305664,6.869628-6.2944336l12.3974609-31.5043945l1.8530273-0.6074219
		c3.6743164,10.097168,7.9560547,22.206543,11.7265625,32.4633789c1.7250977,5.0483398,2.6201172,5.5595703,6.6137695,5.9428711
		v1.8852539H40.6323547z M34.7534485,49.8041077h-0.1279297C32.6763,55.1400452,30.7593079,60.5077209,28.874054,65.6522522
		h11.3432617L34.7534485,49.8041077z"/>
	<path class="st0" d="M99.3442688,73.0648499c-0.2875977,1.8535156-1.5336914,7.7646484-2.0766602,9.6176758H68.0952454v-1.8530273
		c5.5595703-0.4155273,6.1030273-0.862793,6.1030273-5.8154297V51.0502014c0-5.2719727-0.543457-5.4316406-5.3359375-5.847168
		v-1.8535156h26.9355469c0.0639648,1.3740234,0.2875977,5.5917969,0.5112305,8.8828125l-1.9492188,0.2558594
		c-0.5429688-2.6201172-1.0541992-3.8662109-1.8852539-5.2084961c-0.7348633-1.3100586-2.2685547-1.7250977-6.5820313-1.7250977
		h-5.1762695c-1.8530273,0-1.9492188,0.159668-1.9492188,1.8847656v13.6435547h5.9750977
		c5.4638672,0,5.7197266-0.5429688,6.4223633-4.5688477H93.1138v11.5664063h-1.9492188
		c-0.8305664-4.3134766-1.1181641-4.5693359-6.4223633-4.5693359h-5.9750977v11.215332
		c0,2.84375,0.4794922,4.2177734,1.5341797,4.984375c1.1821289,0.7670898,3.2587891,0.7670898,6.421875,0.7670898
		c4.5693359,0,6.3266602-0.4794922,7.6367188-2.0131836c1.0224609-1.0541992,2.2045898-3.1313477,2.9716797-5.6235352
		L99.3442688,73.0648499z"/>
	<path class="st0" d="M133.70755,42.3910217c9.96875,0,19.362793,7.8920898,19.362793,20.1298828
		c0,13.1640625-9.1381836,21.1201172-20.1933594,21.1201172c-10.4804688,0-19.3950195-8.3710938-19.3950195-20.1298828
		c0-11.0229492,7.7324219-21.1201172,20.1938477-21.1201172H133.70755z M132.2378235,44.7875061
		c-6.5820313,0-13.0366211,5.4316406-13.0366211,16.9663086c0,11.375,6.5185547,19.4907227,15.0493164,19.4907227
		c6.8378906,0,13.0683594-5.4316406,13.0683594-17.1259766c0-12.8129883-7.0610352-19.3310547-15.0170898-19.3310547H132.2378235z"
		/>
	<path class="st0" d="M209.0034485,45.2030334c-3.418457,0.159668-5.0483398,0.9262695-5.3999023,3.4189453
		c-0.0957031,1.8530273-0.2236328,4.5688477-0.2236328,10.3842773v24.1557617h-1.9169922l-25.4335938-31.6328125h-0.1279297
		v15.081543c0,5.4638672,0.1918945,8.4033203,0.2558594,10.1923828c0.4150391,3.0996094,1.8847656,3.7387695,5.9111328,3.9941406
		v1.8852539h-14.5703125v-1.8852539c3.4829102-0.1279297,5.0166016-0.8945313,5.3999023-3.8662109
		c0.159668-1.9169922,0.4155273-4.8564453,0.4155273-10.3203125V53.3187561c0-4.4414063-0.1279297-4.4414063-1.2143555-5.9428711
		c-1.2460938-1.4702148-2.6518555-1.8852539-5.5595703-2.1728516v-1.8535156h8.7226563l25.2739258,30.8339844h0.1601563V59.0062561
		c0-5.8154297-0.1601563-8.53125-0.3515625-10.1289063c-0.4155273-2.7480469-1.8852539-3.5146484-6.0390625-3.6743164v-1.8535156
		h14.6977539V45.2030334z"/>
	<path class="st0" d="M222.6958313,82.6825256v-1.8852539c5.0488281-0.3193359,5.5917969-0.6069336,5.5917969-5.7832031V50.9544983
		c0-5.1123047-0.5429688-5.3359375-5.5917969-5.7514648v-1.8535156h15.7207031v1.8535156
		c-4.9848633,0.4155273-5.5595703,0.6391602-5.5595703,5.7514648v24.0595703c0,5.2402344,0.574707,5.4638672,5.5595703,5.7832031
		v1.8852539H222.6958313z"/>
	<path class="st0" d="M274.5649719,82.6825256v-1.8852539c4.0898438-0.4790039,4.5693359-0.8945313,3.8027344-3.2270508
		l-3.3232422-9.1381836h-13.2919922c-0.8945313,2.4604492-1.6611328,4.9204102-2.5556641,7.4125977
		c-1.3740234,4.0581055-0.7675781,4.5375977,3.8017578,4.9526367v1.8852539h-13.3554688v-1.8852539
		c3.8974609-0.5429688,4.7285156-0.8305664,6.8691406-6.2944336l12.3974609-31.5043945l1.8535156-0.6074219
		c3.6738281,10.097168,7.9560547,22.206543,11.7265625,32.4633789c1.7246094,5.0483398,2.6201172,5.5595703,6.6132813,5.9428711
		v1.8852539H274.5649719z M268.6860657,49.8041077h-0.1279297c-1.9492188,5.3359375-3.8662109,10.7036133-5.7509766,15.8481445
		h11.3427734L268.6860657,49.8041077z"/>
	<path class="st0" d="M343.9497375,45.2030334c-3.4189453,0.159668-5.0488281,0.9262695-5.4003906,3.4189453
		c-0.0957031,1.8530273-0.2236328,4.5688477-0.2236328,10.3842773v24.1557617h-1.9169922l-25.4335938-31.6328125h-0.1279297
		v15.081543c0,5.4638672,0.1914063,8.4033203,0.2558594,10.1923828c0.4150391,3.0996094,1.8847656,3.7387695,5.9111328,3.9941406
		v1.8852539h-14.5703125v-1.8852539c3.4824219-0.1279297,5.0166016-0.8945313,5.3994141-3.8662109
		c0.1601563-1.9169922,0.4160156-4.8564453,0.4160156-10.3203125V53.3187561c0-4.4414063-0.1279297-4.4414063-1.2138672-5.9428711
		c-1.2470703-1.4702148-2.6523438-1.8852539-5.5605469-2.1728516v-1.8535156h8.7236328l25.2734375,30.8339844h0.1601563V59.0062561
		c0-5.8154297-0.1601563-8.53125-0.3515625-10.1289063c-0.4150391-2.7480469-1.8847656-3.5146484-6.0390625-3.6743164v-1.8535156
		h14.6982422V45.2030334z"/>
</g>
<line class="st2" x1="343.0897522" y1="103.9150543" x2="280.0636597" y2="103.8340836"/>
<line class="st1" x1="8.4001551" y1="53.6027527" x2="344.6501465" y2="53.6027527"/>
<g>
</g>
<g>
	<rect x="14.4001551" y="95.204834" class="st1" width="265.6634521" height="17.4732819"/>
	<path class="st0" d="M31.1968079,97.341217c-1.9042969,0.1586914-2.1362305,0.2441406-2.1362305,2.1484375v9.3383789
		c0,1.9042969,0.2319336,1.965332,2.1362305,2.1118164v0.7202148h-6.1157227v-0.7202148
		c2.0141602-0.1464844,2.2094727-0.2319336,2.2094727-2.1118164v-4.5776367h-8.0810547v4.5776367
		c0,1.8554688,0.1953125,1.965332,2.1240234,2.1118164v0.7202148h-6.0058584v-0.7202148
		c1.9042959-0.1464844,2.1118155-0.2075195,2.1118155-2.1118164v-9.3383789c0-1.9042969-0.2075195-1.9897461-2.1606436-2.1484375
		v-0.7080078h5.9204092v0.7080078c-1.7944336,0.1586914-1.9897461,0.2685547-1.9897461,2.1484375v3.6987305h8.0810547v-3.6987305
		c0-1.8798828-0.1708984-1.9897461-2.0141602-2.1484375v-0.7080078h5.9204102V97.341217z"/>
	<path class="st0" d="M48.4966125,107.9857483c-0.1098633,0.7080078-0.5859375,2.9663086-0.793457,3.6743164H36.558136v-0.7080078
		c2.1240234-0.1586914,2.331543-0.3295898,2.331543-2.2216797v-9.1552734c0-2.0141602-0.2075195-2.0751953-2.0385742-2.2338867
		v-0.7080078h10.2905273c0.0244141,0.5249023,0.1098633,2.1362305,0.1953125,3.3935547l-0.7446289,0.0976563
		c-0.2075195-1.0009766-0.402832-1.4770508-0.7202148-1.9897461c-0.2807617-0.5004883-0.8666992-0.6591797-2.5146484-0.6591797
		h-1.9775391c-0.7080078,0-0.7446289,0.0610352-0.7446289,0.7202148v5.2124023h2.2827148
		c2.0874023,0,2.1850586-0.2075195,2.4536133-1.7456055h0.7446289v4.4189453h-0.7446289
		c-0.3173828-1.6479492-0.4272461-1.7456055-2.4536133-1.7456055h-2.2827148v4.284668
		c0,1.0864258,0.1831055,1.6113281,0.5859375,1.9042969c0.4516602,0.2929688,1.2451172,0.2929688,2.4536133,0.2929688
		c1.7456055,0,2.4169922-0.1831055,2.9174805-0.769043c0.390625-0.402832,0.8422852-1.1962891,1.1352539-2.1484375
		L48.4966125,107.9857483z"/>
	<path class="st0" d="M62.8545227,111.6600647v-0.7202148c1.5625-0.1831055,1.7456055-0.3417969,1.4526367-1.2329102
		l-1.2695313-3.4912109h-5.078125c-0.3417969,0.9399414-0.6347656,1.8798828-0.9765625,2.8320313
		c-0.5249023,1.550293-0.2929688,1.7333984,1.4526367,1.8920898v0.7202148h-5.1025391v-0.7202148
		c1.4892578-0.2075195,1.8066406-0.3173828,2.6245117-2.4047852l4.7363281-12.0361328l0.7080078-0.2319336
		c1.4038086,3.8574219,3.0395508,8.4838867,4.4799805,12.4023438c0.6591797,1.9287109,1.0009766,2.1240234,2.5268555,2.2705078
		v0.7202148H62.8545227z M60.608429,99.0990295h-0.0488281c-0.7446289,2.0385742-1.4770508,4.0893555-2.1972656,6.0546875h4.3334961
		L60.608429,99.0990295z"/>
	<path class="st0" d="M84.7807922,108.0345764c-0.1342773,0.6958008-0.6347656,2.9174805-0.8300781,3.6254883H73.5381165v-0.7202148
		c1.9287109-0.1220703,2.1362305-0.2563477,2.1362305-2.2094727v-9.1918945c0-1.9287109-0.1586914-2.0385742-2.1118164-2.1972656
		v-0.7080078h5.9814453v0.7080078c-1.8798828,0.1342773-2.1240234,0.2441406-2.1240234,2.1972656v9.0332031
		c0,1.2573242,0.1342773,1.6845703,0.5615234,1.953125c0.4516602,0.2563477,1.2695313,0.2929688,2.2949219,0.2929688
		c1.2695313,0,2.0385742-0.1098633,2.5634766-0.6713867c0.4272461-0.4638672,0.8300781-1.159668,1.1962891-2.2216797
		L84.7807922,108.0345764z"/>
	<path class="st0" d="M100.3349915,100.1854553c-0.2197266-1.0986328-0.402832-1.6479492-0.6713867-2.0141602
		c-0.3662109-0.5371094-0.6835938-0.6958008-2.4291992-0.6958008H95.4888v11.3037109
		c0,1.8188477,0.1831055,2.0385742,2.4291992,2.1606445v0.7202148h-6.5551758v-0.7202148
		c2.1606445-0.1220703,2.355957-0.3173828,2.355957-2.1606445V97.4754944h-1.6235352
		c-1.7456055,0-2.2216797,0.1586914-2.5146484,0.6713867c-0.2563477,0.390625-0.4394531,1.0253906-0.7080078,2.0385742h-0.7446289
		c0.0854492-1.3549805,0.2197266-2.8320313,0.2685547-4.1137695h0.5004883
		c0.3417969,0.5126953,0.6347656,0.5615234,1.2695313,0.5615234h9.0698242c0.6103516,0,0.7446289-0.1342773,1.0864258-0.5615234
		h0.5371094c0,1.0864258,0.1098633,2.734375,0.2319336,4.0039063L100.3349915,100.1854553z"/>
	<path class="st0" d="M122.273468,97.341217c-1.9042969,0.1586914-2.1362305,0.2441406-2.1362305,2.1484375v9.3383789
		c0,1.9042969,0.2319336,1.965332,2.1362305,2.1118164v0.7202148h-6.1157227v-0.7202148
		c2.0141602-0.1464844,2.2094727-0.2319336,2.2094727-2.1118164v-4.5776367h-8.0810547v4.5776367
		c0,1.8554688,0.1953125,1.965332,2.1240234,2.1118164v0.7202148h-6.0058594v-0.7202148
		c1.9042969-0.1464844,2.1118164-0.2075195,2.1118164-2.1118164v-9.3383789c0-1.9042969-0.2075195-1.9897461-2.1606445-2.1484375
		v-0.7080078h5.9204102v0.7080078c-1.7944336,0.1586914-1.9897461,0.2685547-1.9897461,2.1484375v3.6987305h8.0810547v-3.6987305
		c0-1.8798828-0.1708984-1.9897461-2.0141602-2.1484375v-0.7080078h5.9204102V97.341217z"/>
	<path class="st0" d="M152.2832336,102.4803772c-1.5991211,0.1586914-1.9042969,0.5615234-2.6733398,1.7211914
		c-0.5615234,0.8911133-1.1352539,1.8554688-1.965332,3.112793c0.9033203,0.9033203,3.0517578,3.3081055,3.6865234,4.5532227
		l-0.1586914,0.2685547c-1.0864258-0.1342773-2.331543-0.6835938-2.6245117-0.9765625
		c-0.2685547-0.3417969-1.2695313-1.4770508-1.965332-2.2460938c-1.7089844,2.2949219-3.3203125,3.0883789-4.9926758,3.0883789
		c-2.9174805,0-4.5532227-2.1972656-4.5532227-4.2236328c0-2.1484375,1.4892578-3.0517578,3.4912109-4.5532227
		c-1.0498047-0.9521484-1.6845703-1.9042969-1.6845703-3.1494141c0-2.0629883,1.7211914-3.5522461,3.7719727-3.5522461
		c1.8066406,0,3.3447266,1.3061523,3.3325195,3.1738281c0,0.9521484-0.4760742,1.5991211-0.9521484,2.0141602
		c-0.4394531,0.378418-0.9399414,0.8178711-1.7944336,1.4282227c0.769043,0.6591797,2.4047852,2.0629883,3.8330078,3.5400391
		c0.5615234-0.8422852,0.9277344-1.6357422,1.3793945-2.746582c0.4272461-1.0498047,0.1342773-1.2695313-1.4770508-1.4526367
		v-0.7202148h5.3466797V102.4803772z M142.1147766,110.4637756c1.6235352,0,3.0517578-1.0986328,3.8452148-2.2216797
		c-1.0620117-1.2451172-2.5512695-2.6733398-4.7973633-4.4433594c-1.6601563,1.1352539-2.2949219,2.2216797-2.2949219,3.3935547
		c0,2.1728516,1.6967773,3.2714844,3.2226563,3.2714844H142.1147766z M142.3345032,97.341217
		c-1.1108398,0-1.9287109,0.9277344-1.9287109,2.331543c0,1.1352539,0.7324219,1.965332,2.1362305,2.9663086
		c1.159668-0.8666992,1.7456055-1.7700195,1.7700195-2.9052734c-0.0244141-1.2817383-0.8422852-2.3925781-1.953125-2.3925781
		H142.3345032z"/>
	<path class="st0" d="M175.4692688,100.1488342c-0.2319336-0.9765625-0.3173828-1.3793945-0.6347656-1.8798828
		c-0.3417969-0.6347656-0.8178711-0.793457-2.5146484-0.793457h-1.9775391c-0.6835938,0-0.7446289,0.0610352-0.7446289,0.6958008
		v5.46875h2.4658203c2.0629883,0,2.1606445-0.1831055,2.4780273-1.7089844h0.7202148v4.4921875h-0.7202148
		c-0.3173828-1.6357422-0.4150391-1.8554688-2.4780273-1.8554688h-2.4658203v4.1625977
		c0,1.953125,0.2197266,2.0629883,2.4047852,2.2094727v0.7202148h-6.237793v-0.7202148
		c1.8798828-0.1220703,2.0874023-0.2563477,2.0874023-2.2094727v-9.1918945c0-1.953125-0.2075195-2.0385742-2.0141602-2.1972656
		v-0.7080078h10.1318359c0.012207,0.9277344,0.1342773,2.331543,0.2197266,3.4423828L175.4692688,100.1488342z"/>
	<path class="st0" d="M181.7461243,111.6600647v-0.7202148c1.9287109-0.1220703,2.1362305-0.2319336,2.1362305-2.2094727v-9.1918945
		c0-1.953125-0.2075195-2.0385742-2.1362305-2.1972656v-0.7080078h6.0058594v0.7080078
		c-1.9042969,0.1586914-2.1240234,0.2441406-2.1240234,2.1972656v9.1918945c0,2.0019531,0.2197266,2.0874023,2.1240234,2.2094727
		v0.7202148H181.7461243z"/>
	<path class="st0" d="M205.308136,100.1854553c-0.2197266-1.0986328-0.402832-1.6479492-0.6713867-2.0141602
		c-0.3662109-0.5371094-0.6835938-0.6958008-2.4291992-0.6958008h-1.7456055v11.3037109
		c0,1.8188477,0.1831055,2.0385742,2.4291992,2.1606445v0.7202148h-6.5551758v-0.7202148
		c2.1606445-0.1220703,2.355957-0.3173828,2.355957-2.1606445V97.4754944h-1.6235352
		c-1.7456055,0-2.2216797,0.1586914-2.5146484,0.6713867c-0.2563477,0.390625-0.4394531,1.0253906-0.7080078,2.0385742h-0.7446289
		c0.0854492-1.3549805,0.2197266-2.8320313,0.2685547-4.1137695h0.5004883
		c0.3417969,0.5126953,0.6347656,0.5615234,1.2695313,0.5615234h9.0698242c0.6103516,0,0.7446289-0.1342773,1.0864258-0.5615234
		h0.5371094c0,1.0864258,0.1098633,2.734375,0.2319336,4.0039063L205.308136,100.1854553z"/>
	<path class="st0" d="M227.1733704,97.341217c-1.3061523,0.0610352-1.9287109,0.3540039-2.0629883,1.3061523
		c-0.0366211,0.7080078-0.0854492,1.7456055-0.0854492,3.9672852v9.2285156h-0.7324219l-9.7167969-12.0849609h-0.0488281v5.7617188
		c0,2.0874023,0.0732422,3.2104492,0.0976563,3.894043c0.1586914,1.184082,0.7202148,1.4282227,2.2583008,1.5258789v0.7202148
		h-5.5664063v-0.7202148c1.3305664-0.0488281,1.9165039-0.3417969,2.0629883-1.4770508
		c0.0610352-0.7324219,0.1586914-1.8554688,0.1586914-3.9428711v-5.078125c0-1.6967773-0.0488281-1.6967773-0.4638672-2.2705078
		c-0.4760742-0.5615234-1.0131836-0.7202148-2.1240234-0.8300781v-0.7080078h3.3325195l9.6557617,11.7797852h0.0610352v-5.7983398
		c0-2.2216797-0.0610352-3.2592773-0.1342773-3.8696289c-0.1586914-1.0498047-0.7202148-1.3427734-2.3071289-1.4038086v-0.7080078
		h5.6152344V97.341217z"/>
	<path class="st0" d="M244.1430969,107.9857483c-0.109375,0.7080078-0.5859375,2.9663086-0.7929688,3.6743164h-11.1450195
		v-0.7080078c2.1240234-0.1586914,2.331543-0.3295898,2.331543-2.2216797v-9.1552734
		c0-2.0141602-0.2075195-2.0751953-2.0385742-2.2338867v-0.7080078h10.2905273
		c0.0244141,0.5249023,0.109375,2.1362305,0.1953125,3.3935547l-0.7451172,0.0976563
		c-0.2070313-1.0009766-0.4023438-1.4770508-0.7197266-1.9897461c-0.28125-0.5004883-0.8671875-0.6591797-2.5146484-0.6591797
		h-1.9775391c-0.7080078,0-0.7451172,0.0610352-0.7451172,0.7202148v5.2124023h2.2832031
		c2.0869141,0,2.1845703-0.2075195,2.453125-1.7456055h0.7451172v4.4189453h-0.7451172
		c-0.3173828-1.6479492-0.4267578-1.7456055-2.453125-1.7456055h-2.2832031v4.284668
		c0,1.0864258,0.1835938,1.6113281,0.5859375,1.9042969c0.4521484,0.2929688,1.2451172,0.2929688,2.4541016,0.2929688
		c1.7451172,0,2.4169922-0.1831055,2.9169922-0.769043c0.390625-0.402832,0.8427734-1.1962891,1.1357422-2.1484375
		L244.1430969,107.9857483z"/>
	<path class="st0" d="M257.1333313,100.1488342c-0.3779297-1.4282227-0.8789063-3.0395508-2.9169922-3.0395508
		c-1.8554688,0-2.5878906,1.3793945-2.5878906,2.5390625c0,1.7456055,1.1591797,2.5634766,2.9052734,3.4667969
		c1.671875,0.8178711,4.0039063,1.8554688,4.0039063,4.5288086c0,2.5024414-2.0390625,4.3823242-5.0292969,4.3823242
		c-0.9765625,0-1.7451172-0.2319336-2.2822266-0.390625c-0.5253906-0.1586914-0.8671875-0.3662109-1.0742188-0.4516602
		c-0.1953125-0.5249023-0.4765625-2.355957-0.6347656-3.5644531l0.7324219-0.1464844
		c0.3779297,1.4038086,1.3183594,3.6621094,3.6738281,3.6621094c1.8066406,0,2.8320313-1.1108398,2.8320313-2.7832031
		c0-1.7944336-1.2939453-2.5878906-3.0146484-3.515625c-1.3671875-0.7202148-3.7841797-1.8310547-3.7841797-4.4921875
		c0-2.1972656,1.7451172-4.0771484,4.6630859-4.0771484c0.9023438,0,1.8183594,0.1831055,2.8808594,0.5493164
		c0.0722656,0.8178711,0.2070313,1.6967773,0.390625,3.2104492L257.1333313,100.1488342z"/>
	<path class="st0" d="M271.8579407,100.1488342c-0.3779297-1.4282227-0.8789063-3.0395508-2.9169922-3.0395508
		c-1.8554688,0-2.5878906,1.3793945-2.5878906,2.5390625c0,1.7456055,1.1591797,2.5634766,2.9052734,3.4667969
		c1.671875,0.8178711,4.0039063,1.8554688,4.0039063,4.5288086c0,2.5024414-2.0390625,4.3823242-5.0292969,4.3823242
		c-0.9765625,0-1.7460938-0.2319336-2.2832031-0.390625c-0.5244141-0.1586914-0.8662109-0.3662109-1.0742188-0.4516602
		c-0.1953125-0.5249023-0.4755859-2.355957-0.6347656-3.5644531l0.7324219-0.1464844
		c0.3789063,1.4038086,1.3183594,3.6621094,3.6748047,3.6621094c1.8066406,0,2.8320313-1.1108398,2.8320313-2.7832031
		c0-1.7944336-1.2939453-2.5878906-3.0146484-3.515625c-1.3671875-0.7202148-3.7851563-1.8310547-3.7851563-4.4921875
		c0-2.1972656,1.7460938-4.0771484,4.6640625-4.0771484c0.9023438,0,1.8183594,0.1831055,2.8808594,0.5493164
		c0.0722656,0.8178711,0.2070313,1.6967773,0.390625,3.2104492L271.8579407,100.1488342z"/>
</g>
<g>
</g>
<g>
</g>
<g>
</g>
<g>
</g>
<g>
</g>
<g>
</g>
</svg>
