<?xml version="1.0" encoding="utf-8"?>
<!-- Generator: Adobe Illustrator 23.0.3, SVG Export Plug-In . SVG Version: 6.00 Build 0)  -->
<svg version="1.1" id="Layer_1" xmlns="http://www.w3.org/2000/svg" xmlns:xlink="http://www.w3.org/1999/xlink" x="0px" y="0px"
	 viewBox="0 0 150 150" style="enable-background:new 0 0 150 150;" xml:space="preserve">
<style type="text/css">
	.st0{fill:#8B0000;}
	.st1{fill:#FFFFFF;}
</style>
<rect y="-0.2" class="st0" width="150" height="150"/>
<path class="st1" d="M117.8,76.6c0-0.2,0-0.4,0-0.6c0-1,0-1.9-0.1-2.9l6-4.5c1.6-1.2,1.2-3.8-0.8-4.4l-7.6-2.4
	c-0.3-0.9-0.7-1.9-1.1-2.8l4.4-6.7c1.1-1.7-0.2-4-2.2-3.9l-8.4,0.4c-0.5-0.6-1.1-1.2-1.6-1.8l1.9-8.2c0.5-2-1.5-3.7-3.4-2.9l-8,3.4
	c-0.6-0.4-1.2-0.7-1.8-1L94,29.6c-0.3-2-2.7-3-4.2-1.6l-6.5,6c-0.6-0.1-1.2-0.2-1.8-0.3l-4-7.9c-0.9-1.8-3.6-1.8-4.5,0l-4.1,7.9
	c-0.6,0.1-1.2,0.2-1.8,0.3l-6.7-6c-1.5-1.4-4-0.5-4.2,1.5L55,38.2c-0.6,0.3-1.2,0.7-1.8,1l-8-3.4c-1.9-0.8-3.9,0.9-3.5,2.9l1.9,8.3
	c-0.6,0.6-1.1,1.2-1.6,1.8l-8.3-0.4c-2.1-0.1-3.4,2.2-2.3,3.9l4.4,6.8c-0.4,0.9-0.8,1.8-1.1,2.8l-7.6,2.3c-2,0.6-2.4,3.2-0.8,4.4
	l6,4.6c-0.1,1-0.1,1.9-0.1,2.9c0,0.2,0,0.4,0,0.6l-5.9,4.5c-1.6,1.2-1.2,3.8,0.8,4.4l6.8,2.1c0.4,1.3,0.8,2.6,1.3,3.9l-3.8,5.8
	c-1.1,1.7,0.2,4,2.2,3.9l6.7-0.3c0.9,1.3,1.9,2.5,2.9,3.6l-1.5,6.4c-0.5,2,1.5,3.7,3.4,2.9l5.8-2.4c1.4,0.9,2.8,1.8,4.3,2.6l0.8,6.2
	c0.3,2,2.7,3,4.2,1.6l4.5-4.2c1.7,0.4,3.4,0.7,5.1,0.9l2.8,5.4c0.9,1.8,3.6,1.8,4.5,0l2.8-5.4c1.7-0.2,3.5-0.5,5.1-0.9l4.5,4.2
	c1.5,1.4,4,0.5,4.2-1.5l0.8-6.2c1.5-0.8,2.9-1.6,4.3-2.6l5.8,2.5c1.9,0.8,3.9-0.9,3.5-2.9l-1.4-6.4c1-1.1,2-2.4,2.9-3.6l6.6,0.4
	c2.1,0.1,3.4-2.2,2.3-3.9l-3.8-5.9c0.5-1.3,0.9-2.6,1.3-3.9l6.8-2.1c2-0.6,2.4-3.2,0.8-4.4L117.8,76.6z M96.9,59.6l-24.6,34
	c-0.5,0.7-1.3,1.2-2.2,1.3c-0.1,0-0.2,0-0.3,0c-0.8,0-1.5-0.3-2-0.8L53.6,81.7c-1.3-1.1-1.4-3.1-0.3-4.4c1.1-1.3,3.1-1.4,4.4-0.3
	l11.6,10.2L91.9,56c1-1.4,2.9-1.7,4.3-0.7C97.6,56.3,97.9,58.2,96.9,59.6z"/>
</svg>
