<?xml version="1.0" encoding="utf-8"?>
<!-- Generator: Adobe Illustrator 23.0.3, SVG Export Plug-In . SVG Version: 6.00 Build 0)  -->
<svg version="1.1" id="Layer_1" xmlns="http://www.w3.org/2000/svg" xmlns:xlink="http://www.w3.org/1999/xlink" x="0px" y="0px"
	 viewBox="0 0 150 150" style="enable-background:new 0 0 150 150;" xml:space="preserve">
<style type="text/css">
	.st0{fill:#8B0000;}
	.st1{fill:#FFFFFF;}
</style>
<rect class="st0" width="150" height="150"/>
<g>
	<circle class="st1" cx="69.3" cy="41.7" r="4.1"/>
	<circle class="st1" cx="77.9" cy="47.7" r="1.9"/>
	<circle class="st1" cx="77.1" cy="31.1" r="3.6"/>
	<path class="st1" d="M107.5,110.9L84.3,87.8c-0.6-0.6-1-1.4-1-2.3V71.8c0-3,0.8-6,2.2-8.6c0.6-1,1.2-2.2,1.8-3.3c1.3-2.3-0.4-5-3-5
		H75h-9c-2.5,0-4.1,2.6-3,4.9l1.9,3.8c1.2,2.4,1.8,5.1,1.8,7.8v14.2c0,0.9-0.3,1.7-1,2.3L42.6,111c-4.3,4.3-1.2,11.5,4.8,11.5H75
		h27.7C108.7,122.5,111.7,115.2,107.5,110.9z"/>
</g>
</svg>
