<svg id="Layer_1" data-name="Layer 1" xmlns="http://www.w3.org/2000/svg" viewBox="0 0 1650 160.81"><defs><style>.cls-1{fill:#354b75;}</style></defs><title>clienbanner</title><path class="cls-1" d="M1725.16,306.34c-55.61-19.59-117-32.26-176.09-26.23-29.13,3-56,12.11-82.63,23.77-27.52,12-55.46,25.72-85.9,27.81-12.92.88-33.89-1.88-40.28-15.12a24.16,24.16,0,0,1-1.91-8.26c6.72-1,22.49-10,12.49-17-8-5.61-18.08,4.41-20.58,11.26a25.94,25.94,0,0,0-1.41,5.71c-7.27,6.77-15.88,12.49-24,18-13,8.81-26.65,17.37-41.39,22.87-9,3.35-20.06,6.2-29.54,4.05-10.69-2.42-14.85-15-14.7-24.72.17-11.13,10.25-36-7.25-39.69-10.93-2.31-19.93,7-25.19,17.11-.76-7.49-3.29-14.48-11.17-12.78a13.14,13.14,0,0,0-7.53,4.53c-.12-3.68-.64-7.18-2-9.87-1.29-2.51-2.84-3.45-5.69-3.14-3.3.36-6.48,2.44-9.46,3.78-4.53,2-9.06,4.1-13.6,6.12-22.09,9.8-46.55,18.68-70.41,9.52a3.54,3.54,0,0,0-1.42,0l0,0c-.48-1-4.25-.66-3.75.41a35.86,35.86,0,0,1,3.46,18.34c-.26,2.73-.87,6.48-2.91,8.52-3.77,3.79-7.09-.92-8.24-4.62-2.89-9.32-3.76-26.46,4.28-33.75,1.27-1.15-2.61-1.3-3.22-1A22.68,22.68,0,0,0,1047,299c-24.18,16-50.32,29-78,37.67-16.46,5.16-35.32,8.66-45.31-8.79a31,31,0,0,1-4-19.82c1.22-8.23,9.59-19.55,18.67-10.76.78.76,4.26.25,3.64-.4-10.06-10.45-26.09-1.31-31.11,10.15-14.33,24.8-35.36,51.87-62.24,63.16-37.74,15.85-48.88-27-51.5-55-.35-3.76-.62-7.61-.8-11.51,2.56-2.49,5.07-5,7.47-7.63a114.31,114.31,0,0,0,25.2-43.6c3-9.78,6.3-28.8-8.28-30.84-9.95-1.38-16,7-19.55,15.17-4.84,11.05-7.67,23.64-10.28,35.38a155.59,155.59,0,0,0-3.71,35.89,251.38,251.38,0,0,1-22.36,17.46c-12.38,8.67-26.07,16.87-41.12,19.62-12.07,2.19-27.37-.27-35.53-10.32a23.76,23.76,0,0,1-4.88-11.4,46.61,46.61,0,0,0,14.23-7.56c5.41-4.41,8-10.69,4.14-17.06-5.2-8.54-15.34-5.52-21.35.39-6.28,6.18-9,16.05-7.51,25A121.78,121.78,0,0,1,654,327.47c-12,1.23-35,2-49.09-5.47,0-.31.06-.61.08-.91.45-6.17-.54-30.57-12.83-25.49-4.07,1.68-4,6.79-3.45,10.53.91,6.75,4.92,11.7,10.62,15.17.19.11.39.21.58.33a79.38,79.38,0,0,1-1.2,8c-2.72,13.45-5.82,26.84-9.21,40.15-8.3-21.64-17.26-43-25.23-64.81-.47-1.27-4.83-1.14-5.38,0-5.61,11.71-12.09,22.94-18.37,34.29-1.8-7.08-3.83-14.11-5.73-21.13-2.78-10.25-4.83-21-8.26-31-.83-2.43-7.68-1.69-9.22-.49-26.34,20.45-57,38.65-90.69,42.62-35.68,4.2-71.47-5.35-104.72-17.5-55.19-20.18-110.47-49.33-171-43.18-28.11,2.86-55.38,13.4-75.11,34.12-.55.58,2.68,1.16,3.43.38,45.63-47.71,117.68-36.18,173.26-15.95,57.51,20.94,116.19,52.42,179.45,43.85,32.18-4.36,58.51-21,85.6-37.22,1.46,8.55,4.06,17.18,6.18,25.41,2.94,11.38,5.8,22.9,9.44,34.07.85,2.6,9.4,3.3,10.42.56,5.3-14.21,11.23-28.1,17.67-41.81,8.19,23.14,15.67,46.71,25.57,69.15.72,1.64,6.5,1.52,6.88-.38,3.73-18.62,9.31-37.68,11.1-56.67,8.46,3.71,18,5.1,27.12,5.65a143.55,143.55,0,0,0,37-2.56c1.43-.28,2.88-.59,4.34-.93a23.87,23.87,0,0,0,6.33,11.5c9.71,9.52,25.36,12.12,38.43,11.07,16.25-1.31,31.78-9.61,45.13-18.49A244.51,244.51,0,0,0,787.23,312a137.73,137.73,0,0,0,3.21,24.6c3.32,14.66,10.85,29.91,25.19,36.4,33.11,15,66.31-19.62,84.42-43.14,3.27-4.25,6.33-8.65,9.23-13.16a29.74,29.74,0,0,0,5.71,15.7c5.64,7.38,14.83,10.67,23.84,11.32,19.92,1.44,40.54-7.33,58.43-15.08,16-7,32.09-14.91,46.81-24.6-5,11.17-3.37,25.76,8.61,31.15a11.55,11.55,0,0,0,15.62-6c2.91-7.05,1.14-16.27-1.93-23.3,14.86,5.25,30.83,4.52,46,.47a194.6,194.6,0,0,0,27.16-10c4.6-2,9.18-4.06,13.77-6.1,1.63-.73,6.59-3.53,6.89-2.52a31.92,31.92,0,0,0-1.09,3.16,43.87,43.87,0,0,0-.62,5.72c-.41,5.17-.65,10.37-.81,15.55l-.43,14.95a14.78,14.78,0,0,0,.19,4.84,13.38,13.38,0,0,0,1.26,2.21c0,2,7,2,7,0a8.57,8.57,0,0,0,1.23-1.88,13.45,13.45,0,0,0,.51-4.66q.09-7.39.17-14.77c0-2.11.19-4.58.33-7.17a22.48,22.48,0,0,1,2.74-5.75c1.68-2.5,5.9-6,9.36-3.78,1.39.9,1.63,5.66,1.78,7.06a114.59,114.59,0,0,1,.34,15.72c0,1.34,4.64,1.41,4.85,0a39.56,39.56,0,0,1,13.61-24.83c2.94-2.47,4.84-3.68,8.81-3.22,4.34.5,6.67,2.65,7.27,7.18.66,4.93-2.14,9.86-3.67,14.39-5.48,16.21-5.65,35.47,13.23,41.73,27.3,9.05,58.49-11,80-25.57,7.54-5.1,15.47-10.41,22.52-16.47,2,21.34,44,23,60,20.83,33.17-4.46,62.86-20.72,93.31-33.49,36.56-15.34,74.74-21.07,114.28-18.76,43.38,2.53,85.12,13.61,126.38,26.56C1723.49,307.56,1726.84,306.94,1725.16,306.34ZM600.05,318.8A19.11,19.11,0,0,1,593,304.26c-.07-2-.13-7.43,2.64-6.18,1.63.73,3,6.62,3.34,8.05A44,44,0,0,1,600.05,318.8Zm87.2-18c2.53-5,6.75-6.79,9.94-1.11a10.71,10.71,0,0,1,1.28,8.11c-1.8,6.69-9.7,10.56-15.53,13A39.77,39.77,0,0,1,687.25,300.84ZM803.9,240.68c2.61-7.25,13.34-27.65,22-12.67,6.42,11.11-1.25,27.87-6,38.07-5.83,12.6-14.16,23.64-23.82,33.48C795.49,279.74,797.33,258.93,803.9,240.68Zm537.59,53.87c3.2-3.43,8.87-2.92,8.14,2.83-.65,5.1-6.68,8.37-11.36,9.27C1338.16,302,1339.06,297.16,1341.49,294.55Z" transform="translate(-75.63 -221.47)"/></svg>