<?xml version="1.0" encoding="UTF-8"?>
<svg width="48px" height="48px" viewBox="0 0 48 48" version="1.1" xmlns="http://www.w3.org/2000/svg" xmlns:xlink="http://www.w3.org/1999/xlink">
    <!-- Generator: sketchtool 50.2 (55047) - http://www.bohemiancoding.com/sketch -->
    <title>05685FD5-6A4D-4D10-9EEB-C06890F8A486</title>
    <desc>Created with sketchtool.</desc>
    <defs></defs>
    <g id="Sales-Page-–-client-view" stroke="none" stroke-width="1" fill="none" fill-rule="evenodd" stroke-linecap="round" stroke-linejoin="round">
        <g id="Sales_design_desktop-3" transform="translate(-628.000000, -972.000000)" stroke-width="3">
            <g id="Scannable-summary" transform="translate(0.000000, 711.000000)">
                <g id="Expect-3" transform="translate(620.000000, 257.000000)">
                    <g id="icon-dining" transform="translate(10.000000, 5.000000)">
                        <path d="M5.656,6.692 L14.142,15.178" id="Shape" stroke="#0A259C"></path>
                        <path d="M0,12.35 L11.314,23.664 C12.876,25.226 15.408,25.226 16.97,23.664 L37.172,43.866 C38.734,45.428 41.266,45.428 42.828,43.866 C44.39,42.304 44.39,39.772 42.828,38.21 L22.628,18.006 C24.19,16.444 24.19,13.912 22.628,12.35 L11.314,1.036" id="Shape" stroke="#0A259C"></path>
                        <path d="M36.142,20.208 L38.414,17.936 C43.1,13.25 43.1,5.652 38.414,0.966 L30.19,9.19" id="Shape" stroke="#06ABD4"></path>
                        <path d="M8.16,31.218 L1.172,38.206 C-0.39,39.768 -0.39,42.3 1.172,43.862 C2.734,45.424 5.266,45.424 6.828,43.862 L16.342,34.348" id="Shape" stroke="#06ABD4"></path>
                    </g>
                </g>
            </g>
        </g>
    </g>
</svg>