<?xml version="1.0" encoding="utf-8"?>
<!-- Generator: Adobe Illustrator 23.0.3, SVG Export Plug-In . SVG Version: 6.00 Build 0)  -->
<svg version="1.1" id="Layer_1" xmlns="http://www.w3.org/2000/svg" xmlns:xlink="http://www.w3.org/1999/xlink" x="0px" y="0px"
	 viewBox="0 0 150 150" style="enable-background:new 0 0 150 150;" xml:space="preserve">
<style type="text/css">
	.st0{fill:#8B0000;}
	.st1{fill:#FFFFFF;}
</style>
<rect y="-0.1" class="st0" width="150" height="150"/>
<path class="st1" d="M90.3,86.4c8.2-9.2,20.9-25.7,18.1-36.8c-0.3-1-1.1-1.9-2.1-2.2s-2.2,0-2.9,0.8L77.8,73.9l-3.5-3.5
	c2.6-4.5,2-10.3-1.8-14.1l-14-14c-1-1-2.6-1-3.5,0c-1,1-1,2.6,0,3.5L67.1,58l-2.9,3L52,48.8c-1-1-2.6-1-3.5,0c-1,1-1,2.6,0,3.5
	l12.2,12.2l-2.9,2.9L45.5,55.3c-1-1-2.6-1-3.5,0c-1,1-1,2.6,0,3.5l14,14c3.8,3.8,9.6,4.4,14.1,1.8l3.5,3.5l-25,25
	c-1.2,1.2-1.2,3.1,0,4.2c1.2,1.2,3.1,1.2,4.2,0l20.8-20.8l6.4,6.4c1.2,1.2,3,1.2,4.2,0c0.4-0.4,1.1-1.1,2-2.1l14,14
	c1.2,1.2,3.1,1.2,4.2,0c1.2-1.2,1.2-3.1,0-4.2L90.3,86.4z"/>
</svg>
