<?xml version="1.0" encoding="UTF-8"?>
<svg width="40px" height="48px" viewBox="0 0 40 48" version="1.1" xmlns="http://www.w3.org/2000/svg" xmlns:xlink="http://www.w3.org/1999/xlink">
    <!-- Generator: sketchtool 50.2 (55047) - http://www.bohemiancoding.com/sketch -->
    <title>60650404-6EF3-42AF-A90A-876952809C52</title>
    <desc>Created with sketchtool.</desc>
    <defs></defs>
    <g id="Sales-Page-–-client-view" stroke="none" stroke-width="1" fill="none" fill-rule="evenodd" stroke-linecap="round" stroke-linejoin="round">
        <g id="Sales_design_desktop-3" transform="translate(-98.000000, -971.000000)">
            <g id="Scannable-summary" transform="translate(0.000000, 711.000000)">
                <g id="Expect-–-lose-weight" transform="translate(100.000000, 261.000000)">
                    <g id="icon-clipboard-heart" transform="translate(0.000000, 1.000000)">
                        <path d="M32,6 L25.718,6 C24.826,2.556 21.724,0 18,0 C14.276,0 11.174,2.556 10.282,6 L4,6 C1.792,6 0,7.792 0,10 L0,40 C0,42.208 1.792,44 4,44 L32,44 C34.208,44 36,42.208 36,40 L36,10 C36,7.792 34.208,6 32,6 Z" id="Shape" stroke="#0A259C" stroke-width="3"></path>
                        <path d="M18,8 L18,7.98" id="Shape" stroke="#0A259C" stroke-width="4"></path>
                        <path d="M23,18 C20.5,18 19.132,19.278 18,20.4 C16.868,19.278 15.5,18 13,18 C9.666,18 8,20.73 8,23.6 C8,28.434 13.834,32.4 18,34 C22.166,32.4 28,28.434 28,23.6 C28,20.73 26.334,18 23,18 Z" id="Shape" stroke="#06ABD4" stroke-width="3"></path>
                    </g>
                </g>
            </g>
        </g>
    </g>
</svg>