<?xml version="1.0" encoding="utf-8"?>
<!-- Generator: Adobe Illustrator 23.1.0, SVG Export Plug-In . SVG Version: 6.00 Build 0)  -->
<svg version="1.1" id="Layer_1" xmlns="http://www.w3.org/2000/svg" xmlns:xlink="http://www.w3.org/1999/xlink" x="0px" y="0px"
	 viewBox="0 0 76 20" style="enable-background:new 0 0 76 20;" xml:space="preserve">
<style type="text/css">
	.st0{fill:#8B0000;stroke:#B2892D;stroke-width:0.5;stroke-miterlimit:10;}
	.st1{fill:none;}
	.st2{fill:#FFFFFF;}
</style>
<path class="st0" d="M66.0000076,19H9.9999914C5.324996,19,1.5,15.175004,1.5,10.5000086v-0.0000172
	C1.5,5.824996,5.324996,2,9.9999914,2h56.0000153C70.6750031,2,74.5,5.824996,74.5,10.4999914v0.0000172
	C74.5,15.175004,70.6750031,19,66.0000076,19z"/>
<g>
	<rect x="7.0259285" y="4.5" class="st1" width="63.5481415" height="10"/>
	<path class="st2" d="M8.4145508,6.7275391c0.1601563,0,0.3300781-0.0200195,0.4897461-0.0498047
		c-0.0498047,1.0595703-0.0800781,1.809082-0.0800781,2.7182617c0,0.9394531,0.0302734,3.2285156,0.0302734,3.7080078h0.25
		c1.2792969,0,1.8486328-0.0498047,2.5083008-0.1298828c-0.0297852,0.1201172-0.0498047,0.2099609-0.0498047,0.2998047
		c0,0.1000977,0.0200195,0.2001953,0.0498047,0.2998047c-0.7695313-0.0297852-1.2392578-0.0498047-1.8388672-0.0498047
		c-0.6098633,0-1.2094727,0.0200195-1.8491211,0.0498047c0.0400391-0.8793945,0.0800781-1.769043,0.0800781-2.4584961V9.1362305
		c0-0.6894531-0.0400391-1.5791016-0.0800781-2.4584961C8.1147461,6.7075195,8.2548828,6.7275391,8.4145508,6.7275391z"/>
	<path class="st2" d="M14.7138672,6.7275391c0.5996094,0,1.1293945-0.0200195,1.7792969-0.0498047
		c-0.0302734,0.1201172-0.0302734,0.2099609-0.0302734,0.2998047c0,0.1098633,0.0102539,0.2099609,0.0302734,0.2998047
		c-0.949707-0.0800781-1.2495117-0.1298828-2.6289063-0.1298828c-0.0097656,0.5297852-0.0400391,0.8793945-0.0400391,1.2890625
		l0.0102539,1.2993164c0.9291992,0,1.4589844-0.0200195,2.4287109-0.0996094
		c-0.0200195,0.0898438-0.0302734,0.199707-0.0302734,0.3095703s0.0102539,0.2099609,0.0302734,0.2998047
		c-0.2998047-0.0297852-1.3295898-0.0898438-2.4287109-0.0898438l-0.0102539,1.3291016
		c0,0.2797852,0.0200195,1.5292969,0.0200195,1.6191406h0.2402344c1.2890625,0,2.0888672-0.0600586,2.4584961-0.1298828
		c-0.0200195,0.1298828-0.0302734,0.2397461-0.0302734,0.3100586c0,0.0898438,0,0.2197266,0.0302734,0.2895508
		c-0.6499023-0.0297852-1.1992188-0.0498047-1.7988281-0.0498047c-0.6000977,0-1.1694336,0.0200195-1.8193359,0.0498047
		c0.0400391-0.8793945,0.0800781-1.7788086,0.0800781-2.4682617V9.1264648c0-0.4799805,0-1.0893555-0.0800781-2.4487305
		C13.574707,6.7075195,14.1142578,6.7275391,14.7138672,6.7275391z"/>
	<path class="st2" d="M20.5136719,6.5478516l1.2089844,2.878418c0.9594727,2.3085938,1.609375,3.777832,1.7993164,4.1474609
		c-0.1899414-0.0400391-0.3398438-0.0498047-0.5297852-0.0498047s-0.3701172,0.0200195-0.5297852,0.0498047
		c-0.2299805-0.7592773-0.6298828-1.71875-1.0292969-2.6782227c-0.4296875-0.0302734-0.8696289-0.0200195-1.2993164-0.0200195
		c-0.409668,0-0.8398438,0.0200195-1.2294922,0.0200195c-0.5595703,1.3491211-0.8095703,2.0986328-0.9692383,2.6782227
		c-0.1499023-0.0400391-0.25-0.0498047-0.3701172-0.0498047c-0.1196289,0-0.2397461,0.0097656-0.3696289,0.0498047
		c0.8295898-1.8188477,2.2485352-5.0073242,3.128418-7.0258789H20.5136719z M19.0942383,10.4355469
		c0.2397461,0,0.6196289,0.0200195,1.0996094,0.0200195c0.2294922,0,0.7495117-0.0200195,1.0991211-0.0200195l-1.109375-2.5385742
		L19.0942383,10.4355469z"/>
	<path class="st2" d="M25.7241211,6.7275391c0.3999023,0,0.7695313-0.0498047,1.1396484-0.0498047
		c1.3691406,0,2.0888672,0.5395508,2.0888672,1.5791016c0,0.9692383-0.7700195,1.7089844-2.0493164,1.9091797l1.2495117,1.5791016
		c0.7495117,0.9492188,1.2495117,1.5488281,1.4892578,1.8286133c-0.2299805-0.0400391-0.3999023-0.0498047-0.5996094-0.0498047
		c-0.1899414,0-0.409668,0.0097656-0.5795898,0.0498047c-0.7797852-1.1293945-1.9189453-2.6181641-2.5888672-3.3178711h-0.3798828
		v0.859375c0,0.6796875,0.0400391,1.5791016,0.0800781,2.4584961c-0.1699219-0.0297852-0.3295898-0.0498047-0.4897461-0.0498047
		c-0.159668,0-0.2998047,0.0200195-0.4897461,0.0498047c0.0400391-0.8793945,0.0800781-1.769043,0.0800781-2.4584961V9.1362305
		c0-0.6894531-0.0400391-1.5791016-0.0800781-2.4584961C25.0043945,6.7075195,25.3745117,6.7275391,25.7241211,6.7275391z
		 M25.4941406,9.1362305v0.699707c0.2001953,0.0400391,0.4301758,0.0498047,0.659668,0.0498047
		c1.1694336,0,1.9189453-0.5595703,1.9189453-1.5288086c0-0.8398438-0.5595703-1.3095703-1.5991211-1.3095703
		c-0.3095703,0-0.5297852,0.0102539-0.9194336,0.050293C25.5541992,7.2373047,25.4941406,8.6264648,25.4941406,9.1362305z"/>
	<path class="st2" d="M31.0444336,6.5478516c1.5493164,1.7290039,3.4780273,3.777832,5.0571289,5.4067383v-0.6791992
		c0-1.5395508-0.0297852-3.5883789-0.0795898-4.5976563c0.1196289,0.0297852,0.2294922,0.0498047,0.3393555,0.0498047
		c0.1103516,0,0.2202148-0.0200195,0.3203125-0.0498047c-0.050293,0.5297852-0.1601563,2.3686523-0.1601563,3.4379883
		c0,1.5493164,0.0200195,3.3481445,0.0200195,3.5878906h-0.1298828c-1.3193359-1.5288086-2.9985352-3.3681641-5.0473633-5.5268555
		c-0.0297852,0.6899414-0.0297852,0.8896484-0.0297852,2.1088867c0,0.3100586,0,0.7294922,0.0097656,1.2495117l0.0400391,1.3789063
		c0.0102539,0.3999023,0.0400391,0.6196289,0.0400391,0.659668c-0.1098633-0.0400391-0.2299805-0.0498047-0.3496094-0.0498047
		c-0.1201172,0-0.2402344,0.0097656-0.3701172,0.0498047c0.0800781-0.3398438,0.2099609-3.3579102,0.2099609-4.2475586V8.1767578
		c0-0.6694336,0-1.1494141-0.0297852-1.6289063H31.0444336z"/>
	<path class="st2" d="M41.9838867,6.5478516c0.8793945,1.8388672,1.5888672,3.1582031,2.8681641,5.5068359
		c0.2099609-0.3999023,0.6699219-1.2490234,1.1494141-2.1289063l1.8193359-3.3779297h0.1298828
		c0.2895508,2.5585938,0.5795898,5.2871094,0.8193359,7.0258789c-0.1699219-0.0400391-0.3095703-0.0498047-0.4697266-0.0498047
		c-0.1899414,0-0.3999023,0.0200195-0.4697266,0.0498047c-0.1298828-1.6391602-0.3295898-3.8378906-0.4897461-5.1572266h-0.0200195
		c-1.5888672,2.9487305-2.0087891,3.7783203-2.6186523,5.1074219h-0.0898438
		c-0.7993164-1.6889648-1.6791992-3.3081055-2.5683594-5.1074219h-0.0200195
		c-0.3500977,2.8486328-0.4799805,4.4477539-0.4799805,5.1572266c-0.1499023-0.0400391-0.2294922-0.0498047-0.3496094-0.0498047
		s-0.199707,0.0097656-0.3496094,0.0498047c0.409668-2.6083984,0.7695313-5.0771484,0.9692383-7.0258789H41.9838867z"/>
	<path class="st2" d="M57.1606445,10.1259766c0,2.2387695-1.5092773,3.5776367-3.7480469,3.5776367
		c-2.1987305,0-3.737793-1.309082-3.737793-3.5776367c0-2.1791992,1.4389648-3.578125,3.737793-3.578125
		C55.6513672,6.5478516,57.1606445,7.887207,57.1606445,10.1259766z M53.4125977,13.3339844
		c1.7192383,0,2.7685547-1.1694336,2.7685547-3.2080078c0-2.0488281-1.0493164-3.2084961-2.7783203-3.2084961
		c-1.6894531,0-2.7485352,1.1494141-2.7485352,3.2084961C50.6542969,12.1645508,51.7036133,13.3339844,53.4125977,13.3339844z"/>
	<path class="st2" d="M59.6137695,6.7275391c0.3999023,0,0.7695313-0.0498047,1.1396484-0.0498047
		c1.3691406,0,2.0888672,0.5395508,2.0888672,1.5791016c0,0.9692383-0.7700195,1.7089844-2.0493164,1.9091797l1.2495117,1.5791016
		c0.7495117,0.9492188,1.2495117,1.5488281,1.4892578,1.8286133c-0.2299805-0.0400391-0.3999023-0.0498047-0.5996094-0.0498047
		c-0.1899414,0-0.409668,0.0097656-0.5795898,0.0498047c-0.7797852-1.1293945-1.9189453-2.6181641-2.5888672-3.3178711h-0.3798828
		v0.859375c0,0.6796875,0.0400391,1.5791016,0.0800781,2.4584961c-0.1699219-0.0297852-0.3295898-0.0498047-0.4897461-0.0498047
		c-0.159668,0-0.2998047,0.0200195-0.4897461,0.0498047c0.0400391-0.8793945,0.0800781-1.769043,0.0800781-2.4584961V9.1362305
		c0-0.6894531-0.0400391-1.5791016-0.0800781-2.4584961C58.894043,6.7075195,59.2641602,6.7275391,59.6137695,6.7275391z
		 M59.3837891,9.1362305v0.699707c0.2001953,0.0400391,0.4301758,0.0498047,0.659668,0.0498047
		c1.1694336,0,1.9189453-0.5595703,1.9189453-1.5288086c0-0.8398438-0.5595703-1.3095703-1.5991211-1.3095703
		c-0.3095703,0-0.5297852,0.0102539-0.9194336,0.050293C59.4438477,7.2373047,59.3837891,8.6264648,59.3837891,9.1362305z"/>
	<path class="st2" d="M66.3833008,6.7275391c0.5996094,0,1.1293945-0.0200195,1.7792969-0.0498047
		c-0.0302734,0.1201172-0.0302734,0.2099609-0.0302734,0.2998047c0,0.1098633,0.0102539,0.2099609,0.0302734,0.2998047
		c-0.949707-0.0800781-1.2495117-0.1298828-2.6289063-0.1298828c-0.0097656,0.5297852-0.0400391,0.8793945-0.0400391,1.2890625
		l0.0102539,1.2993164c0.9291992,0,1.4589844-0.0200195,2.4287109-0.0996094
		c-0.0200195,0.0898438-0.0302734,0.199707-0.0302734,0.3095703s0.0102539,0.2099609,0.0302734,0.2998047
		c-0.2998047-0.0297852-1.3295898-0.0898438-2.4287109-0.0898438l-0.0102539,1.3291016
		c0,0.2797852,0.0200195,1.5292969,0.0200195,1.6191406h0.2402344c1.2890625,0,2.0888672-0.0600586,2.4584961-0.1298828
		c-0.0200195,0.1298828-0.0302734,0.2397461-0.0302734,0.3100586c0,0.0898438,0,0.2197266,0.0302734,0.2895508
		c-0.6499023-0.0297852-1.1992188-0.0498047-1.7993164-0.0498047c-0.5996094,0-1.1689453,0.0200195-1.8188477,0.0498047
		c0.0400391-0.8793945,0.0800781-1.7788086,0.0800781-2.4682617V9.1264648c0-0.4799805,0-1.0893555-0.0800781-2.4487305
		C65.2441406,6.7075195,65.7836914,6.7275391,66.3833008,6.7275391z"/>
</g>
<g>
</g>
<g>
</g>
<g>
</g>
<g>
</g>
<g>
</g>
<g>
</g>
<g>
</g>
<g>
</g>
<g>
</g>
<g>
</g>
<g>
</g>
<g>
</g>
<g>
</g>
<g>
</g>
<g>
</g>
</svg>
