<?xml version="1.0" encoding="utf-8"?>
<!-- Generator: Adobe Illustrator 27.1.1, SVG Export Plug-In . SVG Version: 6.00 Build 0)  -->
<svg version="1.1" id="Layer_1" xmlns="http://www.w3.org/2000/svg" xmlns:xlink="http://www.w3.org/1999/xlink" x="0px" y="0px"
	 viewBox="0 0 76 20" style="enable-background:new 0 0 76 20;" xml:space="preserve">
<style type="text/css">
	.st0{fill:#8B0000;}
	.st1{fill:none;}
	.st2{fill:#FFFFFF;}
</style>
<path class="st0" d="M66.5000076,19H10.4999914C5.824996,19,2,15.175004,2,10.5000086v-0.0000172
	C2,5.824996,5.824996,2,10.4999914,2h56.0000153C71.1750031,2,75,5.824996,75,10.4999914v0.0000172
	C75,15.175004,71.1750031,19,66.5000076,19z"/>
<g>
	<rect x="6.0259285" y="5.5" class="st1" width="63.5481415" height="10"/>
	<path class="st2" d="M14.4638672,6.2236328c0.1601562,0,0.3300781-0.0200195,0.4897461-0.0498047
		c-0.0498047,1.0595703-0.0800781,1.809082-0.0800781,2.7182617c0,0.9394531,0.0302734,3.2285156,0.0302734,3.7080078h0.2495117
		c1.2792969,0,1.8491211-0.0498047,2.5087891-0.1298828c-0.0297852,0.1201172-0.0498047,0.2099609-0.0498047,0.2998047
		c0,0.1000977,0.0200195,0.2001953,0.0498047,0.2998047c-0.7695312-0.0297852-1.2392578-0.0498047-1.8388672-0.0498047
		c-0.6098633,0-1.2094727,0.0200195-1.8491211,0.0498047c0.0400391-0.8793945,0.0800781-1.769043,0.0800781-2.4584961V8.6323242
		c0-0.6894531-0.0400391-1.5791016-0.0800781-2.4584961C14.1640625,6.2036133,14.3041992,6.2236328,14.4638672,6.2236328z"/>
	<path class="st2" d="M22.7822266,10.2416992v0.1699219l-0.0200195,0.2094727
		c-0.5996094-0.0097656-1.2495117-0.0297852-1.9589844-0.0297852c-0.4799805,0-0.9794922,0.0200195-1.4892578,0.0297852
		c-0.0097656,0.050293-0.0097656,0.1899414-0.0097656,0.2202148c0,1.2392578,0.7192383,1.9086914,1.71875,1.9086914
		c0.5097656,0,1.1196289-0.2797852,1.5092773-0.7094727l0.0498047,0.0297852l-0.0595703,0.4897461
		c-0.5200195,0.3999023-1.1494141,0.6098633-1.6791992,0.6098633c-1.3891602,0-2.4189453-0.9892578-2.4189453-2.3588867
		c0-1.6386719,0.8398438-2.6181641,2.2890625-2.6181641C21.9926758,8.1928711,22.7822266,9.0024414,22.7822266,10.2416992z
		 M20.6333008,10.2714844c0.3496094,0,0.9394531-0.0297852,1.3291016-0.0297852
		c-0.0097656-1.1494141-0.4194336-1.7290039-1.2290039-1.7290039c-0.7695312,0-1.2895508,0.6494141-1.3994141,1.7290039
		C19.7236328,10.2416992,20.4736328,10.2714844,20.6333008,10.2714844z"/>
	<path class="st2" d="M27.1625977,9.6918945c0,0.6796875-0.0400391,1.5092773-0.0400391,2.2685547
		c0,0.5097656,0.0400391,0.7797852,0.3896484,0.7797852c0.0698242,0,0.1201172,0,0.2099609-0.0400391v0.2197266
		c-0.1601562,0.0703125-0.3896484,0.1401367-0.6396484,0.1401367c-0.3696289,0-0.6396484-0.2197266-0.6894531-0.6196289
		C25.8330078,13,25.4335938,13.1699219,24.8237305,13.1699219c-0.6894531,0-1.3291016-0.4995117-1.3291016-1.2294922
		c0-0.7294922,0.4594727-1.1791992,1.2592773-1.3388672c0.3896484-0.0800781,0.8193359-0.1201172,1.1894531-0.2299805
		c0.3896484-0.1098633,0.4594727-0.1801758,0.4594727-0.5c0-0.7993164-0.3798828-1.2592773-1.0991211-1.2592773
		c-0.5200195,0-1.0097656,0.2402344-1.2597656,0.6796875H23.934082V8.7724609
		c0.5200195-0.3896484,0.9697266-0.5795898,1.609375-0.5795898C26.4726562,8.1928711,27.1625977,8.7421875,27.1625977,9.6918945z
		 M25.1835938,12.75c0.4399414,0,0.8994141-0.2495117,1.1791992-0.6992188l0.0400391-1.4995117
		c-0.0898438,0.0302734-0.3496094,0.0898438-0.8295898,0.1801758c-0.9194336,0.1699219-1.2592773,0.5195312-1.2592773,1.0693359
		C24.3139648,12.3901367,24.7036133,12.75,25.1835938,12.75z"/>
	<path class="st2" d="M31.2631836,8.2524414c-0.0302734,0.0703125-0.0703125,0.2402344-0.0703125,0.6699219v0.1396484
		l-0.0698242,0.050293c-0.1098633-0.1098633-0.3198242-0.1601562-0.4897461-0.1601562
		c-0.6396484,0-1.0195312,0.5996094-1.0195312,1.3691406v1.359375c0,0.5996094,0.0102539,1.0595703,0.0400391,1.3891602
		c-0.1499023-0.0297852-0.2797852-0.0498047-0.3999023-0.0498047c-0.1298828,0-0.2597656,0.0200195-0.4194336,0.0498047
		c0.0297852-0.2695312,0.0395508-0.5996094,0.0395508-1.0693359V9.7719727c0-0.4301758-0.0097656-1.1796875-0.0395508-1.4794922
		c0.1899414,0.0400391,0.2998047,0.050293,0.4194336,0.050293c0.1201172,0,0.25-0.0200195,0.3999023-0.050293l-0.0400391,0.5
		c-0.0097656,0.1098633-0.0097656,0.2695312-0.0097656,0.4697266l0.0200195,0.0097656
		c0.3896484-0.7197266,0.8496094-1.0791016,1.3291016-1.0791016C31.0732422,8.1928711,31.1430664,8.2128906,31.2631836,8.2524414z"
		/>
	<path class="st2" d="M36.2021484,9.9619141c0,0.5292969-0.0400391,1.109375-0.0400391,1.8686523
		c0,0.8793945,0.0200195,1.0595703,0.0200195,1.2392578c-0.1699219-0.0400391-0.2900391-0.0498047-0.4199219-0.0498047
		s-0.2495117,0.0097656-0.409668,0.0498047c0-0.5693359,0.0698242-1.4692383,0.0698242-2.1186523v-0.7695312
		c0-0.8295898-0.3696289-1.4692383-1.0991211-1.4692383c-0.8793945,0-1.3393555,0.5595703-1.3393555,1.5991211v1.1992188
		c0,0.4296875,0.0297852,1.109375,0.0800781,1.559082c-0.1601562-0.0297852-0.2998047-0.0498047-0.449707-0.0498047
		s-0.2900391,0.0200195-0.449707,0.0498047c0.0795898-0.6293945,0.0795898-1.3588867,0.0795898-1.7587891V9.9619141
		c0-0.6000977-0.0297852-1.1494141-0.0795898-1.6694336c0.1699219,0.0400391,0.3198242,0.050293,0.449707,0.050293
		c0.0996094,0,0.2294922-0.0200195,0.3994141-0.050293c-0.0097656,0.1699219-0.0297852,0.5600586-0.0297852,0.7998047h0.0200195
		c0.3696289-0.5698242,0.8696289-0.8994141,1.5893555-0.8994141C35.5922852,8.1928711,36.2021484,8.762207,36.2021484,9.9619141z"/>
	<path class="st2" d="M41.3637695,6.0439453c0.8793945,1.8388672,1.5888672,3.1582031,2.8681641,5.5068359
		c0.2099609-0.3999023,0.6699219-1.2490234,1.1494141-2.1289062l1.8193359-3.3779297h0.1298828
		c0.2895508,2.5585938,0.5795898,5.2871094,0.8193359,7.0258789c-0.1699219-0.0400391-0.3095703-0.0498047-0.4697266-0.0498047
		c-0.1899414,0-0.3999023,0.0200195-0.4697266,0.0498047c-0.1298828-1.6391602-0.3295898-3.8378906-0.4897461-5.1572266h-0.0200195
		c-1.5888672,2.9487305-2.0087891,3.7783203-2.6186523,5.1074219h-0.0898438
		c-0.7993164-1.6889648-1.6791992-3.3081055-2.5683594-5.1074219h-0.0200195
		c-0.3500977,2.8486328-0.4799805,4.4477539-0.4799805,5.1572266c-0.1499023-0.0400391-0.2294922-0.0498047-0.3496094-0.0498047
		s-0.199707,0.0097656-0.3496094,0.0498047c0.409668-2.6083984,0.7695312-5.0771484,0.9692383-7.0258789H41.3637695z"/>
	<path class="st2" d="M53.8417969,10.6811523c0,1.6494141-1.0893555,2.4887695-2.418457,2.4887695
		c-1.3994141,0-2.4389648-0.8994141-2.4389648-2.4287109c0-2.0390625,1.4091797-2.5483398,2.4189453-2.5483398
		C52.8022461,8.1928711,53.8417969,9.0820312,53.8417969,10.6811523z M51.4130859,12.8500977
		c1.0097656,0,1.5493164-0.7695312,1.5493164-2.1689453c0-1.3891602-0.5195312-2.168457-1.559082-2.168457
		c-0.9995117,0-1.5390625,0.7592773-1.5390625,2.168457C49.8642578,12.0805664,50.4135742,12.8500977,51.4130859,12.8500977z"/>
	<path class="st2" d="M57.3833008,8.2524414c-0.0302734,0.0703125-0.0703125,0.2402344-0.0703125,0.6699219v0.1396484
		l-0.0698242,0.050293c-0.1098633-0.1098633-0.3198242-0.1601562-0.4897461-0.1601562
		c-0.6396484,0-1.0195312,0.5996094-1.0195312,1.3691406v1.359375c0,0.5996094,0.0102539,1.0595703,0.0400391,1.3891602
		c-0.1499023-0.0297852-0.2797852-0.0498047-0.3999023-0.0498047c-0.1298828,0-0.2597656,0.0200195-0.4194336,0.0498047
		c0.0297852-0.2695312,0.0395508-0.5996094,0.0395508-1.0693359V9.7719727c0-0.4301758-0.0097656-1.1796875-0.0395508-1.4794922
		c0.1899414,0.0400391,0.2998047,0.050293,0.4194336,0.050293c0.1201172,0,0.25-0.0200195,0.3999023-0.050293l-0.0400391,0.5
		c-0.0097656,0.1098633-0.0097656,0.2695312-0.0097656,0.4697266l0.0200195,0.0097656
		c0.3896484-0.7197266,0.8496094-1.0791016,1.3291016-1.0791016C57.1933594,8.1928711,57.2631836,8.2128906,57.3833008,8.2524414z"
		/>
	<path class="st2" d="M62.2324219,10.2416992v0.1699219l-0.0200195,0.2094727
		c-0.5996094-0.0097656-1.2495117-0.0297852-1.9589844-0.0297852c-0.4799805,0-0.9794922,0.0200195-1.4892578,0.0297852
		c-0.0097656,0.050293-0.0097656,0.1899414-0.0097656,0.2202148c0,1.2392578,0.7192383,1.9086914,1.71875,1.9086914
		c0.5097656,0,1.1196289-0.2797852,1.5092773-0.7094727l0.0498047,0.0297852l-0.0595703,0.4897461
		c-0.5200195,0.3999023-1.1494141,0.6098633-1.6791992,0.6098633c-1.3891602,0-2.4189453-0.9892578-2.4189453-2.3588867
		c0-1.6386719,0.8398438-2.6181641,2.2890625-2.6181641C61.4428711,8.1928711,62.2324219,9.0024414,62.2324219,10.2416992z
		 M60.0834961,10.2714844c0.3496094,0,0.9394531-0.0297852,1.3291016-0.0297852
		c-0.0097656-1.1494141-0.4194336-1.7290039-1.2290039-1.7290039c-0.7695312,0-1.2895508,0.6494141-1.3994141,1.7290039
		C59.1738281,10.2416992,59.9238281,10.2714844,60.0834961,10.2714844z"/>
</g>
<g>
</g>
<g>
</g>
<g>
</g>
<g>
</g>
<g>
</g>
<g>
</g>
<g>
</g>
<g>
</g>
<g>
</g>
<g>
</g>
<g>
</g>
<g>
</g>
<g>
</g>
<g>
</g>
<g>
</g>
</svg>
