<?xml version="1.0" encoding="utf-8"?>
<!-- Generator: Adobe Illustrator 23.0.3, SVG Export Plug-In . SVG Version: 6.00 Build 0)  -->
<svg version="1.1" id="Layer_1" xmlns="http://www.w3.org/2000/svg" xmlns:xlink="http://www.w3.org/1999/xlink" x="0px" y="0px"
	 viewBox="0 0 150 150" style="enable-background:new 0 0 150 150;" xml:space="preserve">
<style type="text/css">
	.st0{fill:#8B0000;}
	.st1{fill:#FFFFFF;}
</style>
<rect class="st0" width="150" height="150"/>
<g>
	<path class="st1" d="M77.6,79.2V86c2.5-0.5,3.7-2,3.7-3.5C81.3,80.8,79.8,79.9,77.6,79.2z"/>
	<path class="st1" d="M69.3,67.3c0,1.5,1.4,2.3,3.5,2.9V64C70.5,64.4,69.3,65.6,69.3,67.3z"/>
	<path class="st1" d="M75,44.4c-16.8,0-30.6,13.7-30.6,30.6c0,16.8,13.7,30.6,30.6,30.6c16.8,0,30.6-13.7,30.6-30.6
		C105.6,58.2,91.8,44.4,75,44.4z M77.6,92.3v4.6h-4.8v-4.5c-5.3-0.5-9.2-2.5-11.9-5.2l3.9-5.4c1.9,2,4.6,3.7,8,4.3v-8
		C67.6,76.7,62,74.8,62,67.9c0-5.1,4-9.4,10.8-10.1v-4.7h4.8v4.8c4.1,0.5,7.5,2,10.2,4.5l-4,5.2c-1.8-1.7-4-2.7-6.2-3.3v7.1
		c5.2,1.3,11,3.3,11,10.2C88.6,87.3,85,91.5,77.6,92.3z"/>
	<path class="st1" d="M75,31.4c-24.1,0-43.6,19.5-43.6,43.6s19.5,43.6,43.6,43.6s43.6-19.5,43.6-43.6S99.1,31.4,75,31.4z M75,110
		c-19.3,0-35-15.7-35-35s15.7-35,35-35s35,15.7,35,35S94.3,110,75,110z"/>
</g>
</svg>
