<?xml version="1.0" encoding="UTF-8"?>
<svg width="48px" height="44px" viewBox="0 0 48 44" version="1.1" xmlns="http://www.w3.org/2000/svg" xmlns:xlink="http://www.w3.org/1999/xlink">
    <!-- Generator: sketchtool 50.2 (55047) - http://www.bohemiancoding.com/sketch -->
    <title>FF560531-B897-4D17-8C8A-0330105C585F</title>
    <desc>Created with sketchtool.</desc>
    <defs></defs>
    <g id="Sales-Page-–-client-view" stroke="none" stroke-width="1" fill="none" fill-rule="evenodd" stroke-linecap="round" stroke-linejoin="round">
        <g id="Sales_design_desktop-3" transform="translate(-626.000000, -1134.000000)" stroke-width="3">
            <g id="Scannable-summary" transform="translate(0.000000, 711.000000)">
                <g id="Expect-4" transform="translate(628.000000, 421.000000)">
                    <g id="icon-team" transform="translate(0.000000, 4.000000)">
                        <path d="M36,40 L36,36.75 C36,30.822 29.72,26 22,26 C14.28,26 8,30.822 8,36.75 L8,40" id="Shape" stroke="#0A259C"></path>
                        <path d="M2,27.218 C0.732,28.834 0,30.728 0,32.75 L0,38" id="Shape" stroke="#06ABD4"></path>
                        <path d="M42,27.218 C43.268,28.834 44,30.728 44,32.75 L44,38" id="Shape" stroke="#06ABD4"></path>
                        <path d="M28.364,2.63604 C31.87872,6.15076 31.87872,11.84924 28.364,15.36396 C24.84928,18.87868 19.1508,18.87868 15.63608,15.36396 C12.12136,11.84924 12.12136,6.15076 15.63608,2.63604 C19.1508,-0.87868 24.84928,-0.87868 28.364,2.63604" id="Shape" stroke="#0A259C"></path>
                        <path d="M36.422,17.958 C39.536,17.738 42,15.17 42,12 C42,9.716 40.71,7.754 38.832,6.742" id="Shape" stroke="#06ABD4"></path>
                        <path d="M7.58,11.9278925 C6.14019355,11.826172 5,10.6388172 5,9.17311828 C5,8.11707527 5.59645161,7.20991398 6.46477419,6.742" id="Shape" stroke="#06ABD4"></path>
                    </g>
                </g>
            </g>
        </g>
    </g>
</svg>