<?xml version="1.0" encoding="utf-8"?>
<!-- Generator: Adobe Illustrator 20.0.0, SVG Export Plug-In . SVG Version: 6.00 Build 0)  -->
<!DOCTYPE svg PUBLIC "-//W3C//DTD SVG 1.1//EN" "http://www.w3.org/Graphics/SVG/1.1/DTD/svg11.dtd">
<svg version="1.1" id="Layer_1" xmlns="http://www.w3.org/2000/svg" xmlns:xlink="http://www.w3.org/1999/xlink" x="0px" y="0px"
	 viewBox="0 0 284.7 104.8" style="enable-background:new 0 0 284.7 104.8;" xml:space="preserve">
<style type="text/css">
	.st0{fill:#00B3E3;}
	.st1{fill:#333E48;}
</style>
<g>
	<g id="Layer_1_1_">
		<path class="st0" d="M49.7,45.6c0,2.7-2.1,4.8-5,4.8h-8.5v-9.5h0.5h8C47.7,40.9,49.7,42.9,49.7,45.6z M85.9,55.7L72,79.6
			c-1,1.8-3.6,3.3-5.7,3.3H38.7c-2.1,0-4.6-1.5-5.7-3.3L19.2,55.7c-1-1.8-1-4.8,0-6.6L33,25.2c1-1.8,3.6-3.3,5.7-3.3h27.6
			c2.1,0,4.6,1.5,5.7,3.3l13.8,23.9C86.9,50.9,86.9,53.9,85.9,55.7z M54.1,45.6c0-4.7-3.7-8.3-8.6-8.3H34.1c-1.2,0-2.1,1-2.1,2.1
			c0,0,0,23.5,0,24.4c0.7,0,3.6,0,4.3,0c0-0.9,0-9.9,0-9.9h9.2C50.4,53.9,54.1,50.4,54.1,45.6z M74.2,52.7c0-4.8-3.8-8.5-8.9-8.5
			s-8.9,3.7-8.9,8.5c0,0,0,10.2,0,11.1c0.7,0,3.5,0,4.2,0c0-0.9,0-11.1,0-11.1c0-2.9,1.9-4.9,4.7-4.9c2.8,0,4.7,2,4.7,4.9
			c0,0,0,10.2,0,11.1c0.7,0,3.5,0,4.2,0C74.2,62.9,74.2,52.7,74.2,52.7z"/>
	</g>
	<g id="Layer_3">
		<g>
			<path class="st1" d="M117.4,53.3h-9.1v10.5h-3.7V37.1h12.8c5.2,0,8.4,3.9,8.4,8.1S122.6,53.3,117.4,53.3z M117,40.2h-8.8v10.1
				h8.8c3,0,5-2.1,5-5.1S119.8,40.2,117,40.2z"/>
			<path class="st1" d="M133,54.4v9.4h-3.5V44.3h3.5v3.9c1.1-2.1,3.7-4.2,6.7-4.2v3.1C135.9,47.1,133,50.8,133,54.4z"/>
			<path class="st1" d="M150.8,64.1c-5.8,0-9.4-4.7-9.4-10.1s3.7-10.1,9.4-10.1s9.5,4.7,9.5,10.1S156.6,64.1,150.8,64.1z
				 M150.8,46.8c-3.7,0-5.9,2.9-5.9,7.2s2.2,7.2,5.9,7.2s6-2.9,6-7.2S154.5,46.8,150.8,46.8z"/>
			<path class="st1" d="M184.5,40.7c-1.7-0.5-4-0.8-5.9-0.8c-6.9,0-11.3,4.3-11.3,10.5S171.7,61,178.6,61c1.8,0,3.7-0.3,5.9-0.8
				l0.7,3c-2.1,0.6-4.5,1-6.8,1c-8.6,0-14.8-6.1-14.8-13.8s6.2-13.7,14.8-13.7c2.5,0,4.7,0.3,6.9,1L184.5,40.7z"/>
			<path class="st1" d="M197,64.1c-5.8,0-9.4-4.7-9.4-10.1s3.7-10.1,9.4-10.1s9.5,4.7,9.5,10.1S202.8,64.1,197,64.1z M197,46.8
				c-3.7,0-5.9,2.9-5.9,7.2s2.2,7.2,5.9,7.2s6-2.9,6-7.2S200.7,46.8,197,46.8z"/>
			<path class="st1" d="M222.4,63.8v-2.3c-1.2,1.6-3.3,2.6-6.1,2.6c-4,0-6.6-2.1-6.6-5.8c0-3.6,2.3-5.6,6.3-5.6h6.2v-2
				c0-2.4-1.2-3.9-5.2-3.9c-1.9,0-3.8,0.1-6,0.5l-0.4-2.7c2-0.5,4.4-0.7,6.6-0.7c5.5,0,8.5,2.5,8.5,6.8v13h-3.3V63.8z M222.3,55.3
				h-5.4c-2.5,0-3.6,0.9-3.6,3.1c0,2,1.3,3,3.7,3c3.3,0,5.4-1.9,5.4-4.9L222.3,55.3L222.3,55.3z"/>
			<path class="st1" d="M239.9,64.1c-6.3,0-10.4-4.4-10.4-10.1s4.1-10.1,10.4-10.1c1.6,0,3.3,0.2,5,0.8l-0.6,2.7
				c-1.4-0.4-2.8-0.5-4.1-0.5c-4.8,0-7.2,2.9-7.2,7.2c0,4.2,2.4,7.2,7.2,7.2c1.4,0,2.4-0.1,4.1-0.5l0.6,2.7
				C243.3,63.9,241.4,64.1,239.9,64.1z"/>
			<path class="st1" d="M262.8,63.8V51.5c0-2.9-1.2-4.4-4.1-4.4c-2.8,0-5.6,2.4-5.6,6.3v10.3h-3.5V37.1h3.4v10.6
				c1.3-2.2,3.8-3.8,6.8-3.8c4.4,0,6.5,2.9,6.5,7.2v12.6h-3.5V63.8z"/>
		</g>
	</g>
</g>
</svg>
