<?xml version="1.0" encoding="utf-8"?>
<!-- Generator: Adobe Illustrator 23.1.0, SVG Export Plug-In . SVG Version: 6.00 Build 0)  -->
<svg version="1.1" id="Layer_1" xmlns="http://www.w3.org/2000/svg" xmlns:xlink="http://www.w3.org/1999/xlink" x="0px" y="0px"
	 viewBox="0 0 638 253" style="enable-background:new 0 0 638 253;" xml:space="preserve">
<style type="text/css">
	.st0{fill:none;}
	.st1{fill:#8B0000;}
	.st2{fill:#12171E;}
</style>
<g>
	<rect x="14" y="25.4965992" class="st0" width="610" height="218.5034027"/>
	<path class="st1" d="M94.3623047,30.6762695c1.65625,0,7.7768555-0.3598633,9.0727539-0.3598633
		c11.5209961,0,15.6972656,4.5361328,15.6972656,12.5288086c0,9.6489258-8.3525391,14.7617188-19.2973633,14.7617188
		c-1.8720703,0-3.8164063-0.0722656-5.9047852-0.2163086v4.8964844c0,4.8964844,0.2880859,11.3769531,0.5761719,17.7133789
		c-1.2241211-0.2158203-2.3759766-0.3598633-3.5283203-0.3598633c-0.6479492,0-2.8803711,0.144043-3.5283203,0.3598633
		c0.2880859-6.3364258,0.5761719-12.7451172,0.5761719-17.7133789V48.0297852
		c0-4.9682617-0.2880859-11.3769531-0.5761719-17.7133789C90.0419922,30.5322266,92.2744141,30.6762695,94.3623047,30.6762695z
		 M93.9301758,54.3662109c1.65625,0.3603516,3.3125,0.5761719,5.112793,0.5761719
		c8.4248047,0,13.4648438-4.0322266,13.4648438-12.0249023c0-6.9848633-3.3120117-9.9370117-11.7368164-9.9370117h-6.8408203
		V54.3662109z"/>
	<path class="st1" d="M143.9711914,45.293457c-0.2163086,0.5043945-0.5043945,1.7285156-0.5043945,4.824707v1.0078125
		l-0.5039063,0.3603516c-0.7919922-0.7919922-2.3041992-1.1523438-3.5283203-1.1523438
		c-4.6083984,0-7.3447266,4.3203125-7.3447266,9.8647461v9.7929688c0,4.3203125,0.0722656,7.6328125,0.2880859,10.0087891
		c-1.0800781-0.2158203-2.0161133-0.3598633-2.8803711-0.3598633c-0.9360352,0-1.8720703,0.144043-3.0239258,0.3598633
		c0.2158203-1.9438477,0.2880859-4.3203125,0.2880859-7.7045898V56.2387695c0-3.0961914-0.0722656-8.4970703-0.2880859-10.6572266
		c1.3681641,0.2880859,2.1601563,0.3603516,3.0239258,0.3603516c0.8642578,0,1.800293-0.144043,2.8803711-0.3603516
		l-0.2880859,3.6005859c-0.0717773,0.7919922-0.0717773,1.9438477-0.0717773,3.3842773l0.144043,0.0717773
		c2.8081055-5.1845703,6.1201172-7.7763672,9.5766602-7.7763672
		C142.6030273,44.8618164,143.1069336,45.0058594,143.9711914,45.293457z"/>
	<path class="st1" d="M178.8916016,59.6230469v1.2241211l-0.144043,1.512207
		c-4.3203125-0.0722656-9.0009766-0.2163086-14.1132813-0.2163086c-3.456543,0-7.0566406,0.144043-10.7290039,0.2163086
		c-0.0717773,0.3598633-0.0717773,1.3676758-0.0717773,1.5839844c0,8.9287109,5.184082,13.7529297,12.3847656,13.7529297
		c3.6723633,0,8.0649414-2.0161133,10.8730469-5.1123047l0.3598633,0.2158203l-0.4316406,3.5283203
		c-3.7446289,2.8803711-8.2807617,4.3925781-12.097168,4.3925781c-10.0087891,0-17.4257813-7.128418-17.4257813-16.9936523
		c0-11.8085938,6.0488281-18.8652344,16.4897461-18.8652344C173.203125,44.8618164,178.8916016,50.6943359,178.8916016,59.6230469z
		 M163.4101563,59.8388672c2.5200195,0,6.7685547-0.2158203,9.5766602-0.2158203
		c-0.0717773-8.2807617-3.0239258-12.4570313-8.8564453-12.4570313c-5.5444336,0-9.2890625,4.6801758-10.0810547,12.4570313
		C156.8574219,59.6230469,162.2578125,59.8388672,163.4101563,59.8388672z"/>
	<path class="st1" d="M213.2353516,51.9902344h0.144043c2.3759766-4.6801758,6.4086914-7.128418,11.5927734-7.128418
		c6.9848633,0,11.0170898,3.8881836,11.0170898,11.4487305c0,1.9443359-0.4321289,9.0009766-0.4321289,15.7695313
		c0,3.4560547,0,5.4003906,0.2163086,7.9204102c-1.0800781-0.2158203-2.0161133-0.3598633-3.0961914-0.3598633
		s-2.0883789,0.144043-3.168457,0.3598633c0.2880859-2.8798828,0.7202148-10.8725586,0.7202148-22.3935547
		c0-6.8408203-3.168457-9.0009766-7.5610352-9.0009766c-3.2402344,0-5.7602539,1.4399414-7.2001953,3.3842773
		c-1.3681641,1.800293-1.7285156,3.3842773-1.7285156,10.6567383v5.3286133c0,2.6640625,0.0722656,6.2646484,0.3603516,12.0249023
		c-1.1523438-0.2158203-2.2324219-0.3598633-3.168457-0.3598633c-1.0800781,0-1.9443359,0.144043-3.168457,0.3598633
		c0.3603516-4.5361328,0.6484375-10.8725586,0.6484375-16.6333008v-5.0405273c0-3.2402344-0.2880859-4.8242188-1.3681641-6.4804688
		c-1.3681641-2.2319336-3.8886719-3.2402344-5.9765625-3.2402344c-6.1206055,0-9.1450195,4.5366211-9.1450195,11.5209961v8.7128906
		c0,3.0239258,0.2163086,7.8486328,0.5761719,11.1606445c-1.2241211-0.2158203-2.3041992-0.3598633-3.2402344-0.3598633
		c-1.0800781,0-2.0883789,0.144043-3.2402344,0.3598633c0.5761719-4.3920898,0.5761719-9.7924805,0.5761719-12.6728516v-9.0009766
		c0-5.2563477-0.2163086-9.5048828-0.5761719-12.7451172c1.1518555,0.2163086,2.1601563,0.3603516,3.2402344,0.3603516
		c0.7202148,0,1.65625-0.144043,2.8803711-0.3603516c-0.144043,2.0883789-0.2163086,4.0327148-0.2163086,5.7607422h0.144043
		c2.6645508-4.3203125,6.1923828-6.4804688,10.7290039-6.4804688
		C207.6186523,44.8618164,212.0830078,47.6699219,213.2353516,51.9902344z"/>
	<path class="st1" d="M254.6333008,33.0527344c0,2.0161133-1.65625,3.6723633-3.6723633,3.6723633
		s-3.6723633-1.65625-3.6723633-3.6723633c0-2.0883789,1.7280273-3.6723633,3.6723633-3.6723633
		S254.6333008,30.9643555,254.6333008,33.0527344z M250.9609375,45.9418945c1.0800781,0,2.0161133-0.0722656,3.2402344-0.3603516
		C253.8413086,48.8217773,253.625,55.2304688,253.625,58.3266602v8.9287109c0,4.8964844,0.2163086,9.0727539,0.5761719,12.7451172
		c-1.2241211-0.2158203-2.3041992-0.3598633-3.2402344-0.3598633c-1.0800781,0-2.0878906,0.144043-3.2402344,0.3598633
		c0.5761719-4.5361328,0.5761719-9.7924805,0.5761719-12.6728516v-9.7207031c0-4.3208008-0.2163086-8.2807617-0.5761719-12.0253906
		C248.9448242,45.8696289,250.0249023,45.9418945,250.9609375,45.9418945z"/>
	<path class="st1" d="M294.8833008,59.6230469v1.2241211l-0.144043,1.512207
		c-4.3203125-0.0722656-9.0009766-0.2163086-14.1132813-0.2163086c-3.456543,0-7.0566406,0.144043-10.7290039,0.2163086
		c-0.0717773,0.3598633-0.0717773,1.3676758-0.0717773,1.5839844c0,8.9287109,5.184082,13.7529297,12.3847656,13.7529297
		c3.6723633,0,8.0649414-2.0161133,10.8730469-5.1123047l0.3598633,0.2158203l-0.4316406,3.5283203
		c-3.7446289,2.8803711-8.2807617,4.3925781-12.097168,4.3925781c-10.0087891,0-17.4257813-7.128418-17.4257813-16.9936523
		c0-11.8085938,6.0488281-18.8652344,16.4897461-18.8652344C289.1948242,44.8618164,294.8833008,50.6943359,294.8833008,59.6230469z
		 M279.4018555,59.8388672c2.5200195,0,6.7685547-0.2158203,9.5766602-0.2158203
		c-0.0717773-8.2807617-3.0239258-12.4570313-8.8564453-12.4570313c-5.5444336,0-9.2890625,4.6801758-10.0810547,12.4570313
		C272.8491211,59.6230469,278.25,59.8388672,279.4018555,59.8388672z"/>
	<path class="st1" d="M319.9384766,45.293457c-0.2163086,0.5043945-0.5043945,1.7285156-0.5043945,4.824707v1.0078125
		l-0.5039063,0.3603516c-0.7919922-0.7919922-2.3041992-1.1523438-3.5283203-1.1523438
		c-4.6083984,0-7.3447266,4.3203125-7.3447266,9.8647461v9.7929688c0,4.3203125,0.0722656,7.6328125,0.2880859,10.0087891
		c-1.0800781-0.2158203-2.0161133-0.3598633-2.8803711-0.3598633c-0.9360352,0-1.8720703,0.144043-3.0239258,0.3598633
		c0.2158203-1.9438477,0.2875977-4.3203125,0.2875977-7.7045898V56.2387695c0-3.0961914-0.0717773-8.4970703-0.2875977-10.6572266
		c1.3681641,0.2880859,2.1601563,0.3603516,3.0239258,0.3603516c0.8642578,0,1.800293-0.144043,2.8803711-0.3603516
		l-0.2880859,3.6005859c-0.0717773,0.7919922-0.0717773,1.9438477-0.0717773,3.3842773l0.144043,0.0717773
		c2.8081055-5.1845703,6.1206055-7.7763672,9.5766602-7.7763672
		C318.5703125,44.8618164,319.0742188,45.0058594,319.9384766,45.293457z"/>
	<path class="st1" d="M397.9169922,55.1586914c0,16.1293945-10.8730469,25.777832-27.0024414,25.777832
		c-15.8413086,0-26.9301758-9.4326172-26.9301758-25.777832c0-15.6977539,10.3686523-25.7783203,26.9301758-25.7783203
		C387.0439453,29.3803711,397.9169922,39.0292969,397.9169922,55.1586914z M370.9145508,78.2724609
		c12.3852539,0,19.9458008-8.4248047,19.9458008-23.1137695c0-14.7612305-7.5605469-23.1142578-20.0175781-23.1142578
		c-12.1694336,0-19.8017578,8.2807617-19.8017578,23.1142578C351.0410156,69.8476563,358.6015625,78.2724609,370.9145508,78.2724609
		z"/>
	<path class="st1" d="M435.4985352,57.6069336c0,3.815918-0.2880859,7.9926758-0.2880859,13.4648438
		c0,6.3364258,0.144043,7.6328125,0.144043,8.9287109c-1.2241211-0.2880859-2.0883789-0.3598633-3.0244141-0.3598633
		s-1.7998047,0.0717773-2.9521484,0.3598633c0-4.1040039,0.5039063-10.5849609,0.5039063-15.2651367V59.190918
		c0-5.9765625-2.6640625-10.5849609-7.9204102-10.5849609c-6.3364258,0-9.6489258,4.0322266-9.6489258,11.5209961v8.640625
		c0,3.0961914,0.2158203,7.9926758,0.5761719,11.2329102c-1.1523438-0.2158203-2.1601563-0.3598633-3.2402344-0.3598633
		s-2.0883789,0.144043-3.2402344,0.3598633c0.5756836-4.5361328,0.5756836-9.7924805,0.5756836-12.6728516v-9.7207031
		c0-4.3208008-0.2158203-8.2807617-0.5756836-12.0253906c1.2241211,0.2880859,2.3041992,0.3603516,3.2402344,0.3603516
		c0.7197266,0,1.65625-0.144043,2.8798828-0.3603516c-0.0717773,1.2241211-0.2158203,4.0327148-0.2158203,5.7607422h0.144043
		c2.6640625-4.1044922,6.2646484-6.4804688,11.4492188-6.4804688
		C431.105957,44.8618164,435.4985352,48.9658203,435.4985352,57.6069336z"/>
	<path class="st1" d="M450.9765625,25.8520508c1.0800781,0,2.0883789-0.144043,3.2402344-0.3598633
		c-0.3598633,3.0961914-0.5761719,14.8330078-0.5761719,19.6572266v15.1933594
		c0,4.8964844,0.2163086,16.5615234,0.5761719,19.6577148c-1.1518555-0.2158203-2.1601563-0.3598633-3.2402344-0.3598633
		s-2.0878906,0.144043-3.2402344,0.3598633C448.3125,74.3120117,448.3125,63.2231445,448.3125,60.3427734V45.1494141
		c0-2.9521484,0-13.8251953-0.5761719-19.6572266C448.8886719,25.7080078,449.8964844,25.8520508,450.9765625,25.8520508z"/>
	<path class="st1" d="M474.6650391,33.0527344c0,2.0161133-1.65625,3.6723633-3.6728516,3.6723633
		c-2.015625,0-3.671875-1.65625-3.671875-3.6723633c0-2.0883789,1.7275391-3.6723633,3.671875-3.6723633
		S474.6650391,30.9643555,474.6650391,33.0527344z M470.9921875,45.9418945c1.0800781,0,2.0166016-0.0722656,3.2402344-0.3603516
		c-0.3603516,3.2402344-0.5761719,9.6489258-0.5761719,12.7451172v8.9287109c0,4.8964844,0.2158203,9.0727539,0.5761719,12.7451172
		c-1.2236328-0.2158203-2.3037109-0.3598633-3.2402344-0.3598633c-1.0800781,0-2.0878906,0.144043-3.2402344,0.3598633
		c0.5761719-4.5361328,0.5761719-9.7924805,0.5761719-12.6728516v-9.7207031c0-4.3208008-0.2158203-8.2807617-0.5761719-12.0253906
		C468.9765625,45.8696289,470.0566406,45.9418945,470.9921875,45.9418945z"/>
	<path class="st1" d="M515.5625,57.6069336c0,3.815918-0.2880859,7.9926758-0.2880859,13.4648438
		c0,6.3364258,0.1435547,7.6328125,0.1435547,8.9287109c-1.2236328-0.2880859-2.0878906-0.3598633-3.0244141-0.3598633
		c-0.9355469,0-1.7998047,0.0717773-2.9521484,0.3598633c0-4.1040039,0.5039063-10.5849609,0.5039063-15.2651367V59.190918
		c0-5.9765625-2.6640625-10.5849609-7.9208984-10.5849609c-6.3359375,0-9.6484375,4.0322266-9.6484375,11.5209961v8.640625
		c0,3.0961914,0.2158203,7.9926758,0.5761719,11.2329102c-1.1523438-0.2158203-2.1601563-0.3598633-3.2402344-0.3598633
		s-2.0878906,0.144043-3.2402344,0.3598633c0.5761719-4.5361328,0.5761719-9.7924805,0.5761719-12.6728516v-9.7207031
		c0-4.3208008-0.2167969-8.2807617-0.5761719-12.0253906c1.2236328,0.2880859,2.3037109,0.3603516,3.2402344,0.3603516
		c0.7197266,0,1.65625-0.144043,2.8798828-0.3603516c-0.0722656,1.2241211-0.2158203,4.0327148-0.2158203,5.7607422h0.1435547
		c2.6650391-4.1044922,6.2646484-6.4804688,11.4492188-6.4804688C511.1699219,44.8618164,515.5625,48.9658203,515.5625,57.6069336z"
		/>
	<path class="st1" d="M554.9462891,59.6230469v1.2241211l-0.1445313,1.512207
		c-4.3203125-0.0722656-9-0.2163086-14.1132813-0.2163086c-3.4560547,0-7.0556641,0.144043-10.7285156,0.2163086
		c-0.0722656,0.3598633-0.0722656,1.3676758-0.0722656,1.5839844c0,8.9287109,5.1845703,13.7529297,12.3857422,13.7529297
		c3.671875,0,8.0644531-2.0161133,10.8730469-5.1123047l0.359375,0.2158203l-0.4316406,3.5283203
		c-3.7441406,2.8803711-8.28125,4.3925781-12.0976563,4.3925781c-10.0087891,0-17.4248047-7.128418-17.4248047-16.9936523
		c0-11.8085938,6.0478516-18.8652344,16.4892578-18.8652344C549.2578125,44.8618164,554.9462891,50.6943359,554.9462891,59.6230469z
		 M539.4648438,59.8388672c2.5205078,0,6.7685547-0.2158203,9.5771484-0.2158203
		c-0.0722656-8.2807617-3.0244141-12.4570313-8.8574219-12.4570313c-5.5439453,0-9.2880859,4.6801758-10.0800781,12.4570313
		C532.9121094,59.6230469,538.3125,59.8388672,539.4648438,59.8388672z"/>
	<path class="st1" d="M217.2319336,119.0922852c-0.5039063,0.7202148-1.1518555,3.7446289-1.512207,5.6166992l-0.4316406,0.144043
		c-3.6723633-4.0322266-8.4970703-6.4086914-13.6816406-6.4086914c-12.3847656,0-19.9453125,8.4248047-19.9453125,23.1142578
		c0,14.6889648,7.5605469,23.1137695,19.9453125,23.1137695c4.6806641,0,9.1450195-1.65625,14.6176758-5.9765625
		l0.2875977,0.2880859l-0.6479492,4.2485352c-3.4560547,2.4482422-9.5766602,4.1040039-14.9770508,4.1040039
		c-14.9775391,0-26.2822266-9.5043945-26.2822266-25.4179688c0-16.4174805,10.5849609-26.1381836,27.0019531-26.1381836
		C207.0791016,115.7802734,212.3354492,116.8603516,217.2319336,119.0922852z"/>
	<path class="st1" d="M257.1186523,149.190918c0,11.8813477-7.8486328,17.9296875-17.425293,17.9296875
		c-10.0810547,0-17.5698242-6.4804688-17.5698242-17.4975586c0-14.6894531,10.152832-18.3613281,17.4257813-18.3613281
		C249.6298828,131.2617188,257.1186523,137.6699219,257.1186523,149.190918z M239.6210938,164.8164063
		c7.2729492,0,11.1611328-5.5444336,11.1611328-15.6254883c0-10.0087891-3.7441406-15.625-11.2329102-15.625
		c-7.2006836,0-11.0888672,5.472168-11.0888672,15.625C228.4604492,159.2719727,232.4204102,164.8164063,239.6210938,164.8164063z"
		/>
	<path class="st1" d="M289.0864258,142.0625c0,4.8964844-0.2880859,10.8730469-0.2880859,16.3452148
		c0,3.6723633,0.2880859,5.6166992,2.8081055,5.6166992c0.5039063,0,0.8642578,0,1.512207-0.2880859v1.5839844
		c-1.1523438,0.5043945-2.8081055,1.0083008-4.6083984,1.0083008c-2.6640625,0-4.6083984-1.5839844-4.9682617-4.4643555
		c-4.0327148,4.0322266-6.9125977,5.2563477-11.3051758,5.2563477c-4.9682617,0-9.5766602-3.6000977-9.5766602-8.8569336
		c0-5.2563477,3.3120117-8.496582,9.0727539-9.6484375c2.8081055-0.5761719,5.9042969-0.8642578,8.5688477-1.65625
		c2.8081055-0.7919922,3.3120117-1.2963867,3.3120117-3.6005859c0-5.7602539-2.7363281-9.0727539-7.9204102-9.0727539
		c-3.7446289,0-7.2729492,1.7285156-9.0732422,4.8964844h-0.7919922v-3.7441406
		c3.7446289-2.8081055,6.9848633-4.1762695,11.5932617-4.1762695
		C284.1176758,131.2617188,289.0864258,135.2216797,289.0864258,142.0625z M274.8291016,164.0961914
		c3.168457,0,6.4804688-1.7998047,8.496582-5.0400391l0.2880859-10.8012695
		c-0.6479492,0.2163086-2.5200195,0.6479492-5.9765625,1.2963867c-6.6245117,1.2241211-9.0727539,3.7441406-9.0727539,7.7045898
		C268.5644531,161.5039063,271.3725586,164.0961914,274.8291016,164.0961914z"/>
	<path class="st1" d="M328.6147461,134.4296875c-0.6484375,1.65625-1.2241211,3.0244141-1.5844727,4.7524414h-0.5756836
		c-2.0883789-3.5283203-5.5444336-5.6162109-9.2890625-5.6162109c-7.8486328,0-12.1689453,5.6884766-12.1689453,15.5532227
		c0,10.0805664,4.3925781,14.9770508,12.4570313,14.9770508c3.3842773,0,7.9926758-1.8720703,10.8007813-5.1123047
		l0.3603516,0.2158203c-0.2163086,1.1523438-0.3603516,2.0883789-0.4321289,3.5283203
		c-3.6723633,2.8085938-8.1367188,4.3925781-11.953125,4.3925781c-10.2246094,0-17.5693359-6.6967773-17.5693359-17.9296875
		c0-11.809082,8.4248047-17.9291992,18.3613281-17.9291992
		C321.8461914,131.2617188,326.6704102,132.7016602,328.6147461,134.4296875z"/>
	<path class="st1" d="M339.0532227,112.2519531c1.0800781,0,2.0878906-0.144043,3.2402344-0.3603516
		c-0.3603516,3.6005859-0.5761719,16.2734375-0.5761719,19.2978516v6.5527344h0.144043
		c2.6640625-4.1044922,6.2646484-6.4804688,11.4492188-6.4804688c7.2001953,0,11.5927734,4.1762695,11.5927734,12.6010742
		c0,3.815918-0.2880859,8.1367188-0.2880859,13.6088867v3.6005859c0,1.3681641,0.144043,4.0322266,0.144043,5.328125
		c-1.2241211-0.2158203-2.0883789-0.3598633-3.0244141-0.3598633s-1.7998047,0.144043-2.9521484,0.3598633
		c0-4.1040039,0.5039063-10.5849609,0.5039063-15.2651367v-5.5444336c0-5.9765625-2.6640625-10.5849609-7.9204102-10.5849609
		c-6.1206055,0-9.6489258,3.6000977-9.6489258,12.0249023c0,4.0327148,0.2158203,15.9135742,0.5761719,19.3696289
		c-1.2241211-0.2158203-2.3041992-0.3598633-3.2402344-0.3598633c-1.0800781,0-2.0883789,0.144043-3.2402344,0.3598633
		c0.5756836-5.6884766,0.5756836-16.7773438,0.5756836-19.6577148v-15.1933594c0-2.9521484,0-13.8251953-0.5756836-19.6577148
		C336.9648438,112.1079102,337.9731445,112.2519531,339.0532227,112.2519531z"/>
	<path class="st1" d="M384.0537109,119.4526367c0,2.0161133-1.65625,3.6723633-3.6723633,3.6723633
		s-3.6723633-1.65625-3.6723633-3.6723633c0-2.0883789,1.7285156-3.6723633,3.6723633-3.6723633
		C382.3256836,115.7802734,384.0537109,117.3642578,384.0537109,119.4526367z M380.3813477,132.3417969
		c1.0800781,0,2.0161133-0.0722656,3.2402344-0.3603516c-0.3598633,3.2402344-0.5756836,9.6489258-0.5756836,12.7451172v8.9287109
		c0,4.8964844,0.2158203,9.0727539,0.5756836,12.7451172c-1.2241211-0.2158203-2.3041992-0.3598633-3.2402344-0.3598633
		c-1.0800781,0-2.0878906,0.144043-3.2402344,0.3598633c0.5761719-4.5361328,0.5761719-9.7924805,0.5761719-12.6728516v-9.7207031
		c0-4.3208008-0.2163086-8.2807617-0.5761719-12.0253906C378.3652344,132.2695313,379.4453125,132.3417969,380.3813477,132.3417969z
		"/>
	<path class="st1" d="M424.9516602,144.0068359c0,3.815918-0.2880859,7.9926758-0.2880859,13.4648438
		c0,6.3364258,0.144043,7.6328125,0.144043,8.9287109c-1.2241211-0.2880859-2.0883789-0.3598633-3.0244141-0.3598633
		s-1.7998047,0.0717773-2.9521484,0.3598633c0-4.1040039,0.5039063-10.5849609,0.5039063-15.2651367v-5.5444336
		c0-5.9765625-2.6640625-10.5849609-7.9204102-10.5849609c-6.3364258,0-9.6489258,4.0322266-9.6489258,11.5209961v8.640625
		c0,3.0961914,0.2158203,7.9926758,0.5761719,11.2329102c-1.1523438-0.2158203-2.1601563-0.3598633-3.2402344-0.3598633
		s-2.0883789,0.144043-3.2402344,0.3598633c0.5756836-4.5361328,0.5756836-9.7924805,0.5756836-12.6728516v-9.7207031
		c0-4.3208008-0.2158203-8.2807617-0.5756836-12.0253906c1.2241211,0.2880859,2.3041992,0.3603516,3.2402344,0.3603516
		c0.7197266,0,1.65625-0.144043,2.8798828-0.3603516c-0.0717773,1.2241211-0.2158203,4.0327148-0.2158203,5.7607422h0.144043
		c2.6640625-4.1044922,6.2646484-6.4804688,11.4492188-6.4804688
		C420.559082,131.2617188,424.9516602,135.3657227,424.9516602,144.0068359z"/>
	<path class="st1" d="M458.8632813,131.8374023c2.2314453,0,4.5361328-0.144043,5.6162109-0.3598633
		c-0.0722656,0.5039063-0.1445313,1.1523438-0.1445313,1.512207c0,0.5039063,0.0722656,1.0078125,0.1445313,1.512207
		c-2.9521484-0.2163086-5.4003906-0.5043945-7.9926758-0.5761719l-0.144043,0.144043
		c3.0957031,1.7280273,4.96875,5.6162109,4.96875,9.1445313c0,7.2006836-5.2568359,11.4492188-13.3935547,11.4492188
		c-1.2241211,0-2.6640625-0.144043-3.8881836-0.144043c-1.800293,0-3.6005859,1.4399414-3.6005859,3.3842773
		c0,2.9521484,1.7280273,3.6000977,4.2485352,3.6000977c0.3598633,0,6.984375,0.2163086,7.9204102,0.2163086
		c6.4086914,0.2158203,12.3129883,2.4482422,12.3129883,9.3608398c0,6.6245117-5.328125,14.4731445-16.9213867,14.4731445
		c-9.4326172,0-15.1933594-3.9604492-15.1933594-10.3686523c0-4.6083984,3.0244141-7.9931641,7.7050781-9.5048828v-0.144043
		c-2.9526367-0.8642578-4.5366211-2.9526367-4.5366211-5.7607422s2.1601563-5.328125,5.1123047-5.9765625v-0.144043
		c-4.3920898-1.9438477-7.0566406-5.4003906-7.0566406-10.6567383c0-7.2006836,5.1845703-11.7368164,13.8251953-11.7368164
		C449.2138672,131.2617188,457.7109375,131.8374023,458.8632813,131.8374023z M447.9897461,183.4658203
		c6.6967773,0,11.5932617-3.671875,11.5932617-9.4326172c0-5.4726563-2.9521484-7.9926758-10.9448242-7.9926758
		c-7.7768555,0-11.2333984,2.8081055-11.2333984,8.3525391C437.4047852,180.4418945,441.293457,183.4658203,447.9897461,183.4658203
		z M447.7739258,152.7915039c5.1123047,0,7.9208984-4.1044922,7.9208984-10.152832
		c0-5.7607422-3.0244141-9.2890625-7.9208984-9.2890625s-8.1367188,3.6005859-8.1367188,9.6489258
		C439.637207,149.3349609,442.5893555,152.7915039,447.7739258,152.7915039z"/>
	<path class="st2" d="M37.9667969,199.3852539l2.5405273,6.046875c2.015625,4.8500977,3.3803711,7.9365234,3.7792969,8.7133789
		c-0.3989258-0.0839844-0.7138672-0.1049805-1.112793-0.1049805s-0.7768555,0.0419922-1.112793,0.1049805
		c-0.4829102-1.5957031-1.3227539-3.6113281-2.1625977-5.6269531c-0.902832-0.0629883-1.8266602-0.0419922-2.7294922-0.0419922
		c-0.8608398,0-1.7636719,0.0419922-2.5825195,0.0419922c-1.1757813,2.8344727-1.7006836,4.4091797-2.0366211,5.6269531
		c-0.3149414-0.0839844-0.5249023-0.1049805-0.7768555-0.1049805s-0.5039063,0.0209961-0.7768555,0.1049805
		c1.7426758-3.8212891,4.7241211-10.519043,6.5717773-14.7602539H37.9667969z M34.9853516,207.5527344
		c0.5039063,0,1.3017578,0.0419922,2.3095703,0.0419922c0.4829102,0,1.574707-0.0419922,2.3095703-0.0419922l-2.3305664-5.3330078
		L34.9853516,207.5527344z"/>
	<path class="st2" d="M51.34375,204.0253906c-0.0629883,0.1469727-0.1469727,0.5039063-0.1469727,1.4067383v0.2939453
		l-0.1469727,0.1049805c-0.230957-0.230957-0.671875-0.3359375-1.0288086-0.3359375
		c-1.34375,0-2.1416016,1.2597656-2.1416016,2.8764648v2.8554688c0,1.2597656,0.0209961,2.2255859,0.0839844,2.918457
		c-0.3149414-0.0629883-0.5878906-0.1049805-0.8398438-0.1049805c-0.2729492,0-0.5458984,0.0419922-0.8818359,0.1049805
		c0.0629883-0.5668945,0.0839844-1.2597656,0.0839844-2.246582v-4.6821289c0-0.902832-0.0209961-2.4775391-0.0839844-3.1074219
		c0.3989258,0.0839844,0.6298828,0.1049805,0.8818359,0.1049805s0.5249023-0.0419922,0.8398438-0.1049805l-0.0839844,1.0498047
		c-0.0209961,0.230957-0.0209961,0.5668945-0.0209961,0.9868164l0.0419922,0.0209961
		c0.8188477-1.5117188,1.784668-2.2675781,2.7924805-2.2675781C50.9448242,203.8994141,51.0917969,203.9414063,51.34375,204.0253906
		z"/>
	<path class="st2" d="M61.527832,208.2036133v0.3569336l-0.0419922,0.440918
		c-1.2597656-0.0209961-2.6245117-0.0629883-4.1152344-0.0629883c-1.0078125,0-2.0576172,0.0419922-3.128418,0.0629883
		c-0.0209961,0.1049805-0.0209961,0.3989258-0.0209961,0.4619141c0,2.6035156,1.5117188,4.0102539,3.6113281,4.0102539
		c1.0708008,0,2.3515625-0.5878906,3.1704102-1.4907227l0.1049805,0.0629883l-0.1259766,1.0288086
		c-1.0917969,0.8398438-2.4145508,1.2807617-3.5273438,1.2807617c-2.918457,0-5.0810547-2.0786133-5.0810547-4.9550781
		c0-3.4433594,1.7636719-5.5009766,4.8081055-5.5009766C59.8691406,203.8994141,61.527832,205.6000977,61.527832,208.2036133z
		 M57.0136719,208.2666016c0.7348633,0,1.9736328-0.0629883,2.7924805-0.0629883
		c-0.0209961-2.4145508-0.8818359-3.6323242-2.5825195-3.6323242c-1.6166992,0-2.7084961,1.3647461-2.9394531,3.6323242
		C55.1030273,208.2036133,56.6777344,208.2666016,57.0136719,208.2666016z"/>
	<path class="st2" d="M70.3701172,204.109375c0.8608398,2.6875,1.9526367,5.1860352,3.128418,8.0625
		c0.9868164-2.0996094,2.0996094-4.8500977,3.128418-8.0625c0.2519531,0.0629883,0.4619141,0.1049805,0.6928711,0.1049805
		s0.4199219-0.0209961,0.6928711-0.1049805c-1.1967773,2.5405273-2.5195313,5.4589844-4.03125,8.8813477
		c-1.5117188,3.3803711-2.3935547,5.605957-2.7294922,6.6767578c-0.2729492-0.0629883-0.5249023-0.1049805-0.7138672-0.1049805
		c-0.230957,0-0.4619141,0.0419922-0.7138672,0.1049805c1.112793-1.8476563,2.0366211-3.6533203,2.8134766-5.5009766
		c-0.4829102-1.3227539-3.0234375-7.2646484-4.1992188-10.0571289c0.3569336,0.0839844,0.6508789,0.1049805,0.9658203,0.1049805
		S70.0341797,204.1723633,70.3701172,204.109375z"/>
	<path class="st2" d="M89.0375977,209.1274414c0,3.4643555-2.2885742,5.2280273-5.0810547,5.2280273
		c-2.9394531,0-5.1230469-1.8896484-5.1230469-5.1020508c0-4.2832031,2.9604492-5.3540039,5.0810547-5.3540039
		C86.8540039,203.8994141,89.0375977,205.7680664,89.0375977,209.1274414z M83.9355469,213.6835938
		c2.1206055,0,3.2543945-1.6166992,3.2543945-4.5561523c0-2.918457-1.0917969-4.5561523-3.2753906-4.5561523
		c-2.0996094,0-3.2333984,1.5957031-3.2333984,4.5561523C80.6811523,212.0668945,81.8359375,213.6835938,83.9355469,213.6835938z"/>
	<path class="st2" d="M91.3911133,204.109375c0.3569336,0.0629883,0.6508789,0.1049805,0.8818359,0.1049805
		c0.2519531,0,0.5249023-0.0419922,0.8608398-0.1049805c-0.1469727,1.7636719-0.2099609,3.9052734-0.2099609,5.8369141
		c0,0.5249023,0,1.8266602,0.6088867,2.4775391c0.3989258,0.4829102,1.0288086,0.8398438,1.8476563,0.8398438
		c1.1547852,0,1.8266602-0.5039063,2.2255859-1.1547852c0.5039063-0.8398438,0.5458984-1.4697266,0.5458984-3.7373047
		c0-2.1206055-0.0209961-3.8212891-0.0419922-4.262207c0.3569336,0.0839844,0.6088867,0.1049805,0.8818359,0.1049805
		c0.3149414,0,0.5458984-0.0209961,0.8608398-0.1049805c-0.0839844,1.34375-0.1469727,3.4223633-0.1469727,6.2988281
		c0,1.6166992,0.0209961,2.7504883,0.0839844,3.7373047c-0.3149414-0.0629883-0.5878906-0.1049805-0.8188477-0.1049805
		s-0.5039063,0.0419922-0.8188477,0.1049805c0.0209961-0.2729492,0.0419922-0.7348633,0.0419922-1.0498047v-0.7558594h-0.0419922
		c-0.7348633,1.34375-1.9316406,2.015625-3.2753906,2.015625c-2.1835938,0-3.5063477-1.1757813-3.5063477-3.5273438
		c0-0.8608398,0.0629883-2.7924805,0.0629883-3.4643555C91.4331055,206.2719727,91.4121094,205.2011719,91.3911133,204.109375z"/>
	<path class="st2" d="M110.6894531,201.2958984h0.1049805c-0.0839844,1.0917969-0.1049805,1.9316406-0.1679688,3.1074219
		c0.5668945,0,1.6166992-0.0629883,2.2255859-0.0629883c-0.0209961,0.0839844-0.0209961,0.4619141-0.0209961,0.5249023
		c0,0.1889648,0,0.2939453,0.0209961,0.3569336c-0.4829102-0.0209961-1.2177734-0.0419922-1.4907227-0.0419922h-0.7348633
		c-0.0629883,0.5878906-0.1469727,4.0942383-0.1469727,5.3959961c0,1.5957031,0.1049805,3.1074219,1.6796875,3.1074219
		c0.3149414,0,0.7138672-0.0629883,0.9658203-0.1469727v0.5039063c-0.5249023,0.1889648-1.112793,0.3149414-1.6166992,0.3149414
		c-1.7216797,0-2.5825195-0.8818359-2.5825195-2.6665039c0-0.9448242,0.1259766-3.3803711,0.1469727-6.5087891
		c-0.7348633,0-1.1967773,0.0209961-1.4277344,0.0419922c0.0629883-0.230957,0.0419922-0.3149414,0.0419922-0.4829102
		c0-0.1469727-0.0209961-0.2729492-0.0419922-0.4199219c0.7558594,0.0629883,1.1547852,0.0629883,1.3857422,0.0629883
		l-0.0839844-2.3515625L110.6894531,201.2958984z"/>
	<path class="st2" d="M117.1152344,200.4560547c0,0.5878906-0.4829102,1.0708008-1.0708008,1.0708008
		s-1.0708008-0.4829102-1.0708008-1.0708008c0-0.6088867,0.5039063-1.0708008,1.0708008-1.0708008
		S117.1152344,199.847168,117.1152344,200.4560547z M116.0444336,204.2143555c0.3149414,0,0.5878906-0.0209961,0.9448242-0.1049805
		c-0.1049805,0.9448242-0.1679688,2.8134766-0.1679688,3.7163086v2.6035156c0,1.4277344,0.0629883,2.6455078,0.1679688,3.7163086
		c-0.3569336-0.0629883-0.671875-0.1049805-0.9448242-0.1049805c-0.3149414,0-0.6088867,0.0419922-0.9448242,0.1049805
		c0.1679688-1.3227539,0.1679688-2.8554688,0.1679688-3.6953125v-2.8344727c0-1.2597656-0.0629883-2.4145508-0.1679688-3.5063477
		C115.456543,204.1933594,115.7714844,204.2143555,116.0444336,204.2143555z"/>
	<path class="st2" d="M125.6616211,204.0253906c-0.0629883,0.1469727-0.1469727,0.5039063-0.1469727,1.4067383v0.2939453
		l-0.1469727,0.1049805c-0.230957-0.230957-0.671875-0.3359375-1.0288086-0.3359375
		c-1.34375,0-2.1416016,1.2597656-2.1416016,2.8764648v2.8554688c0,1.2597656,0.0209961,2.2255859,0.0839844,2.918457
		c-0.3149414-0.0629883-0.5878906-0.1049805-0.8398438-0.1049805c-0.2729492,0-0.5458984,0.0419922-0.8818359,0.1049805
		c0.0629883-0.5668945,0.0839844-1.2597656,0.0839844-2.246582v-4.6821289c0-0.902832-0.0209961-2.4775391-0.0839844-3.1074219
		c0.3989258,0.0839844,0.6298828,0.1049805,0.8818359,0.1049805s0.5249023-0.0419922,0.8398438-0.1049805l-0.0839844,1.0498047
		c-0.0209961,0.230957-0.0209961,0.5668945-0.0209961,0.9868164l0.0419922,0.0209961
		c0.8188477-1.5117188,1.784668-2.2675781,2.7924805-2.2675781
		C125.2626953,203.8994141,125.409668,203.9414063,125.6616211,204.0253906z"/>
	<path class="st2" d="M135.8457031,208.2036133v0.3569336l-0.0419922,0.440918
		c-1.2597656-0.0209961-2.6245117-0.0629883-4.1152344-0.0629883c-1.0078125,0-2.0576172,0.0419922-3.128418,0.0629883
		c-0.0209961,0.1049805-0.0209961,0.3989258-0.0209961,0.4619141c0,2.6035156,1.5117188,4.0102539,3.6113281,4.0102539
		c1.0708008,0,2.3515625-0.5878906,3.1704102-1.4907227l0.1049805,0.0629883l-0.1259766,1.0288086
		c-1.0917969,0.8398438-2.4145508,1.2807617-3.5273438,1.2807617c-2.918457,0-5.0810547-2.0786133-5.0810547-4.9550781
		c0-3.4433594,1.7636719-5.5009766,4.8081055-5.5009766C134.1870117,203.8994141,135.8457031,205.6000977,135.8457031,208.2036133z
		 M131.331543,208.2666016c0.7348633,0,1.9736328-0.0629883,2.7924805-0.0629883
		c-0.0209961-2.4145508-0.8818359-3.6323242-2.5825195-3.6323242c-1.6166992,0-2.7084961,1.3647461-2.9394531,3.6323242
		C129.4208984,208.2036133,130.9956055,208.2666016,131.331543,208.2666016z"/>
	<path class="st2" d="M145.9887695,198.3564453c0.2729492,0,0.5878906-0.0419922,0.9448242-0.1049805
		c-0.1679688,2.1206055-0.2519531,6.9916992-0.2519531,10.8129883c0,1.6586914,0.0419922,3.0654297,0.0629883,5.0810547
		c-0.3359375-0.0629883-0.5668945-0.1049805-0.8188477-0.1049805s-0.5249023,0.0419922-0.7978516,0.1049805l0.0629883-2.0576172
		h-0.0419922c-0.671875,1.4277344-1.9526367,2.2675781-3.5483398,2.2675781c-2.2675781,0-4.262207-1.7006836-4.262207-5.1650391
		c0-3.4223633,2.2045898-5.2910156,4.472168-5.2910156c1.574707,0,2.6665039,0.6928711,3.2753906,2.0996094h0.0419922V203.4375
		c0-0.7768555-0.0209961-3.3383789-0.0839844-5.1860352C145.2749023,198.3144531,145.6738281,198.3564453,145.9887695,198.3564453z
		 M142.0834961,213.5786133c1.9736328,0,3.128418-2.015625,3.128418-4.6821289c0-2.6875-1.0708008-4.1152344-3.0654297-4.1152344
		c-1.8476563,0-2.9604492,1.6796875-2.9604492,4.5351563C139.1860352,212.1508789,140.2988281,213.5786133,142.0834961,213.5786133z
		"/>
	<path class="st2" d="M164.9091797,209.1274414c0,3.4643555-2.2885742,5.2280273-5.0810547,5.2280273
		c-2.9394531,0-5.1230469-1.8896484-5.1230469-5.1020508c0-4.2832031,2.9604492-5.3540039,5.0810547-5.3540039
		C162.7255859,203.8994141,164.9091797,205.7680664,164.9091797,209.1274414z M159.8071289,213.6835938
		c2.1206055,0,3.2543945-1.6166992,3.2543945-4.5561523c0-2.918457-1.0917969-4.5561523-3.2753906-4.5561523
		c-2.0996094,0-3.2333984,1.5957031-3.2333984,4.5561523C156.5527344,212.0668945,157.7075195,213.6835938,159.8071289,213.6835938z
		"/>
	<path class="st2" d="M171.902832,198.2514648c-0.0209961,0.6508789-0.0839844,1.0708008-0.0839844,1.6796875l-0.1259766,0.0629883
		c-0.3359375-0.2099609-0.7138672-0.3149414-1.1547852-0.3149414c-1.0917969,0-1.7216797,0.8188477-1.7216797,2.0996094
		c0,0.5039063,0.1679688,1.9106445,0.230957,2.3095703l0.0209961,0.1469727c1.3227539,0,1.8896484-0.0209961,2.1625977-0.0209961
		c-0.0209961,0.1469727-0.0419922,0.2099609-0.0419922,0.3569336c0,0.1679688,0.0209961,0.3149414,0.0419922,0.4829102
		c-0.902832-0.0209961-1.574707-0.0629883-2.1625977-0.0629883v1.6166992c0,2.8764648,0.0209961,5.1650391,0.0839844,7.5375977
		c-0.3149414-0.0629883-0.5878906-0.1049805-0.902832-0.1049805s-0.5878906,0.0419922-0.9238281,0.1049805
		c0.1889648-3.0444336,0.1889648-5.8789063,0.1889648-9.1542969c-0.4829102,0-0.9448242,0.0419922-1.5117188,0.0629883
		c0.0629883-0.1889648,0.0419922-0.2729492,0.0419922-0.4199219s-0.0209961-0.2519531-0.0419922-0.4199219l1.5117188,0.0209961
		c0.0209961-1.2807617,0.3149414-2.2885742,0.7348633-3.359375c0.8398438-2.0996094,2.3515625-2.6875,3.2124023-2.6875
		C171.6298828,198.1884766,171.7978516,198.2304688,171.902832,198.2514648z"/>
	<path class="st2" d="M188.1137695,209.0644531c0,3.4433594-2.246582,5.2910156-4.5351563,5.2910156
		c-1.5117188,0-2.6035156-0.6928711-3.2963867-2.0576172h-0.0419922v1.6586914c0,0.9658203,0.0629883,4.7451172,0.1679688,5.7109375
		c-0.3569336-0.0629883-0.671875-0.1049805-0.9448242-0.1049805c-0.3149414,0-0.6088867,0.0419922-0.9448242,0.1049805
		c0.1679688-1.6796875,0.1679688-4.934082,0.1679688-5.7109375v-4.0522461c0-0.7978516,0-3.9892578-0.1679688-5.7949219
		c0.3569336,0.0839844,0.671875,0.1049805,0.9448242,0.1049805c0.3149414,0,0.5878906-0.0209961,0.9448242-0.1049805
		c-0.1049805,0.7768555-0.1679688,1.4067383-0.1679688,2.0576172h0.0419922
		c0.6928711-1.4487305,1.9316406-2.2675781,3.5483398-2.2675781
		C186.0981445,203.8994141,188.1137695,205.6000977,188.1137695,209.0644531z M183.3056641,213.5786133
		c1.8686523,0,2.9604492-1.7426758,2.9604492-4.5351563s-1.0708008-4.262207-2.918457-4.262207
		c-1.9316406,0-3.1074219,1.5117188-3.1074219,4.4511719C180.2402344,212.0878906,181.2900391,213.5786133,183.3056641,213.5786133z
		"/>
	<path class="st2" d="M195.6953125,204.0253906c-0.0629883,0.1469727-0.1469727,0.5039063-0.1469727,1.4067383v0.2939453
		l-0.1469727,0.1049805c-0.230957-0.230957-0.671875-0.3359375-1.0288086-0.3359375
		c-1.34375,0-2.1416016,1.2597656-2.1416016,2.8764648v2.8554688c0,1.2597656,0.0209961,2.2255859,0.0839844,2.918457
		c-0.3149414-0.0629883-0.5878906-0.1049805-0.8398438-0.1049805c-0.2729492,0-0.5458984,0.0419922-0.8818359,0.1049805
		c0.0629883-0.5668945,0.0839844-1.2597656,0.0839844-2.246582v-4.6821289c0-0.902832-0.0209961-2.4775391-0.0839844-3.1074219
		c0.3989258,0.0839844,0.6298828,0.1049805,0.8818359,0.1049805S192,204.1723633,192.3149414,204.109375l-0.0839844,1.0498047
		c-0.0209961,0.230957-0.0209961,0.5668945-0.0209961,0.9868164l0.0419922,0.0209961
		c0.8188477-1.5117188,1.784668-2.2675781,2.7924805-2.2675781
		C195.2963867,203.8994141,195.4433594,203.9414063,195.6953125,204.0253906z"/>
	<path class="st2" d="M206.9291992,209.1274414c0,3.4643555-2.2885742,5.2280273-5.0810547,5.2280273
		c-2.9394531,0-5.1230469-1.8896484-5.1230469-5.1020508c0-4.2832031,2.9604492-5.3540039,5.0810547-5.3540039
		C204.7456055,203.8994141,206.9291992,205.7680664,206.9291992,209.1274414z M201.8271484,213.6835938
		c2.1206055,0,3.2543945-1.6166992,3.2543945-4.5561523c0-2.918457-1.0917969-4.5561523-3.2753906-4.5561523
		c-2.0996094,0-3.2333984,1.5957031-3.2333984,4.5561523C198.5727539,212.0668945,199.7275391,213.6835938,201.8271484,213.6835938z
		"/>
	<path class="st2" d="M215.9594727,204.0673828c0.6508789,0,1.3227539-0.0419922,1.6376953-0.1049805
		c-0.0209961,0.1469727-0.0419922,0.3359375-0.0419922,0.440918c0,0.1469727,0.0209961,0.2939453,0.0419922,0.440918
		c-0.8608398-0.0629883-1.574707-0.1469727-2.3305664-0.1679688l-0.0419922,0.0419922
		c0.902832,0.5039063,1.4487305,1.6376953,1.4487305,2.6665039c0,2.0996094-1.5327148,3.3383789-3.9052734,3.3383789
		c-0.3569336,0-0.7768555-0.0419922-1.1337891-0.0419922c-0.5249023,0-1.0498047,0.4199219-1.0498047,0.9868164
		c0,0.8608398,0.5039063,1.0498047,1.2387695,1.0498047c0.1049805,0,2.0366211,0.0629883,2.3095703,0.0629883
		c1.8686523,0.0629883,3.590332,0.7138672,3.590332,2.7294922c0,1.9316406-1.5537109,4.2202148-4.934082,4.2202148
		c-2.7504883,0-4.4301758-1.1547852-4.4301758-3.0234375c0-1.34375,0.8818359-2.3305664,2.246582-2.7714844v-0.0419922
		c-0.8608398-0.2519531-1.3227539-0.8608398-1.3227539-1.6796875s0.6298828-1.5537109,1.4907227-1.7426758v-0.0419922
		c-1.2807617-0.5668945-2.0576172-1.574707-2.0576172-3.1074219c0-2.0996094,1.5117188-3.4223633,4.03125-3.4223633
		C213.1459961,203.8994141,215.6235352,204.0673828,215.9594727,204.0673828z M212.7890625,219.121582
		c1.9526367,0,3.3803711-1.0708008,3.3803711-2.7504883c0-1.5957031-0.8608398-2.3305664-3.1914063-2.3305664
		c-2.2675781,0-3.2753906,0.8188477-3.2753906,2.4355469C209.7026367,218.2397461,210.8364258,219.121582,212.7890625,219.121582z
		 M212.7260742,210.1772461c1.4907227,0,2.3095703-1.1967773,2.3095703-2.9604492
		c0-1.6796875-0.8818359-2.7084961-2.3095703-2.7084961s-2.3725586,1.0498047-2.3725586,2.8134766
		C210.3535156,209.1694336,211.2143555,210.1772461,212.7260742,210.1772461z"/>
	<path class="st2" d="M224.8637695,204.0253906c-0.0629883,0.1469727-0.1469727,0.5039063-0.1469727,1.4067383v0.2939453
		l-0.1469727,0.1049805c-0.230957-0.230957-0.671875-0.3359375-1.0288086-0.3359375
		c-1.34375,0-2.1416016,1.2597656-2.1416016,2.8764648v2.8554688c0,1.2597656,0.0209961,2.2255859,0.0839844,2.918457
		c-0.3149414-0.0629883-0.5878906-0.1049805-0.8398438-0.1049805c-0.2729492,0-0.5458984,0.0419922-0.8818359,0.1049805
		c0.0629883-0.5668945,0.0839844-1.2597656,0.0839844-2.246582v-4.6821289c0-0.902832-0.0209961-2.4775391-0.0839844-3.1074219
		c0.3989258,0.0839844,0.6298828,0.1049805,0.8818359,0.1049805s0.5249023-0.0419922,0.8398438-0.1049805l-0.0839844,1.0498047
		c-0.0209961,0.230957-0.0209961,0.5668945-0.0209961,0.9868164l0.0419922,0.0209961
		c0.8188477-1.5117188,1.784668-2.2675781,2.7924805-2.2675781
		C224.4648438,203.8994141,224.6118164,203.9414063,224.8637695,204.0253906z"/>
	<path class="st2" d="M233.4941406,207.0488281c0,1.4277344-0.0839844,3.1704102-0.0839844,4.7661133
		c0,1.0708008,0.0839844,1.6376953,0.8188477,1.6376953c0.1469727,0,0.2519531,0,0.440918-0.0839844v0.4619141
		c-0.3359375,0.1469727-0.8188477,0.2939453-1.34375,0.2939453c-0.7768555,0-1.34375-0.4619141-1.4487305-1.3017578
		c-1.1757813,1.1757813-2.015625,1.5327148-3.2963867,1.5327148c-1.4487305,0-2.7924805-1.0498047-2.7924805-2.5825195
		s0.9658203-2.4775391,2.6455078-2.8134766c0.8188477-0.1679688,1.7216797-0.2519531,2.4985352-0.4829102
		c0.8188477-0.230957,0.9658203-0.3779297,0.9658203-1.0498047c0-1.6796875-0.7978516-2.6455078-2.3095703-2.6455078
		c-1.0917969,0-2.1206055,0.5039063-2.6455078,1.4277344h-0.230957v-1.0917969
		c1.0917969-0.8188477,2.0366211-1.2177734,3.3803711-1.2177734
		C232.0454102,203.8994141,233.4941406,205.0541992,233.4941406,207.0488281z M229.3369141,213.4736328
		c0.9238281,0,1.8896484-0.5249023,2.4775391-1.4697266l0.0839844-3.1494141
		c-0.1889648,0.0629883-0.7348633,0.1889648-1.7426758,0.3779297c-1.9316406,0.3569336-2.6455078,1.0917969-2.6455078,2.246582
		C227.5102539,212.7177734,228.3291016,213.4736328,229.3369141,213.4736328z"/>
	<path class="st2" d="M244.8129883,205.9780273h0.0419922c0.6928711-1.3647461,1.8686523-2.0786133,3.3803711-2.0786133
		c2.0366211,0,3.2124023,1.1337891,3.2124023,3.3383789c0,0.5668945-0.1259766,2.6245117-0.1259766,4.5981445
		c0,1.0078125,0,1.574707,0.0629883,2.3095703c-0.3149414-0.0629883-0.5878906-0.1049805-0.902832-0.1049805
		s-0.6088867,0.0419922-0.9238281,0.1049805c0.0839844-0.8398438,0.2099609-3.1704102,0.2099609-6.5297852
		c0-1.9946289-0.9238281-2.6245117-2.2045898-2.6245117c-0.9448242,0-1.6796875,0.4199219-2.0996094,0.9868164
		c-0.3989258,0.5249023-0.5039063,0.9868164-0.5039063,3.1074219v1.5537109c0,0.7768555,0.0209961,1.8266602,0.1049805,3.5063477
		c-0.3359375-0.0629883-0.6508789-0.1049805-0.9238281-0.1049805c-0.3149414,0-0.5668945,0.0419922-0.9238281,0.1049805
		c0.1049805-1.3227539,0.1889648-3.1704102,0.1889648-4.8500977v-1.4697266c0-0.9448242-0.0839844-1.4067383-0.3989258-1.8896484
		c-0.3989258-0.6508789-1.1337891-0.9448242-1.7426758-0.9448242c-1.784668,0-2.6665039,1.3227539-2.6665039,3.359375v2.5405273
		c0,0.8818359,0.0629883,2.2885742,0.1679688,3.2543945c-0.3569336-0.0629883-0.671875-0.1049805-0.9448242-0.1049805
		c-0.3149414,0-0.6088867,0.0419922-0.9448242,0.1049805c0.1679688-1.2807617,0.1679688-2.8554688,0.1679688-3.6953125v-2.6245117
		c0-1.5327148-0.0629883-2.7714844-0.1679688-3.7163086c0.3359375,0.0629883,0.6298828,0.1049805,0.9448242,0.1049805
		c0.2099609,0,0.4829102-0.0419922,0.8398438-0.1049805c-0.0419922,0.6088867-0.0629883,1.1757813-0.0629883,1.6796875h0.0419922
		c0.7768555-1.2597656,1.8056641-1.8896484,3.128418-1.8896484
		C243.175293,203.8994141,244.4770508,204.7182617,244.8129883,205.9780273z"/>
	<path class="st2" d="M259.6601563,204.4873047c-0.2729492,0.5039063-0.4829102,1.2597656-0.5039063,1.4907227h-0.2519531
		c-0.2729492-0.8188477-1.0078125-1.3017578-1.8476563-1.3017578c-0.9868164,0-1.784668,0.6928711-1.784668,1.7636719
		c0,0.9238281,0.5668945,1.4487305,1.7636719,1.784668c1.7636719,0.5039063,3.1914063,0.8608398,3.1914063,2.7924805
		c0,1.7006836-1.5117188,3.3383789-3.800293,3.3383789c-1.1757813,0-1.9316406-0.2729492-2.6875-0.6928711
		c0.230957-0.5039063,0.3989258-1.1967773,0.3989258-1.5327148h0.2519531
		c0.440918,0.8188477,1.3857422,1.4487305,2.3725586,1.4487305c1.1757813,0,2.0366211-0.7138672,2.0366211-1.8896484
		c0-0.902832-0.6088867-1.4067383-1.8686523-1.7636719c-1.8476563-0.5039063-3.0864258-1.0078125-3.0864258-2.8554688
		c0-1.9316406,1.3857422-3.1704102,3.4853516-3.1704102C258.4003906,203.8994141,259.387207,204.4243164,259.6601563,204.4873047z"
		/>
	<path class="st2" d="M270.3076172,201.2958984h0.1049805c-0.0839844,1.0917969-0.1049805,1.9316406-0.1679688,3.1074219
		c0.5668945,0,1.6166992-0.0629883,2.2255859-0.0629883c-0.0209961,0.0839844-0.0209961,0.4619141-0.0209961,0.5249023
		c0,0.1889648,0,0.2939453,0.0209961,0.3569336c-0.4829102-0.0209961-1.2177734-0.0419922-1.4907227-0.0419922h-0.7348633
		c-0.0629883,0.5878906-0.1469727,4.0942383-0.1469727,5.3959961c0,1.5957031,0.1049805,3.1074219,1.6796875,3.1074219
		c0.3149414,0,0.7138672-0.0629883,0.9658203-0.1469727v0.5039063c-0.5249023,0.1889648-1.112793,0.3149414-1.6166992,0.3149414
		c-1.7216797,0-2.5825195-0.8818359-2.5825195-2.6665039c0-0.9448242,0.1259766-3.3803711,0.1469727-6.5087891
		c-0.7348633,0-1.1967773,0.0209961-1.4277344,0.0419922c0.0629883-0.230957,0.0419922-0.3149414,0.0419922-0.4829102
		c0-0.1469727-0.0209961-0.2729492-0.0419922-0.4199219c0.7558594,0.0629883,1.1547852,0.0629883,1.3857422,0.0629883
		l-0.0839844-2.3515625L270.3076172,201.2958984z"/>
	<path class="st2" d="M275.284668,198.3564453c0.3149414,0,0.6088867-0.0419922,0.9448242-0.1049805
		c-0.1049805,1.0498047-0.1679688,4.7451172-0.1679688,5.6269531v1.9106445h0.0419922
		c0.7768555-1.1967773,1.8266602-1.8896484,3.3383789-1.8896484c2.0996094,0,3.3803711,1.2177734,3.3803711,3.6743164
		c0,1.112793-0.0839844,2.3725586-0.0839844,3.9682617v1.0498047c0,0.3989258,0.0419922,1.1757813,0.0419922,1.5537109
		c-0.3569336-0.0629883-0.6088867-0.1049805-0.8818359-0.1049805s-0.5249023,0.0419922-0.8608398,0.1049805
		c0-1.1967773,0.1469727-3.0864258,0.1469727-4.4511719v-1.6166992c0-1.7426758-0.7768555-3.0864258-2.3095703-3.0864258
		c-1.784668,0-2.8134766,1.0498047-2.8134766,3.5063477c0,1.1757813,0.0629883,4.6401367,0.1679688,5.6479492
		c-0.3569336-0.0629883-0.671875-0.1049805-0.9448242-0.1049805c-0.3149414,0-0.6088867,0.0419922-0.9448242,0.1049805
		c0.1679688-1.6586914,0.1679688-4.8920898,0.1679688-5.7319336v-4.4301758c0-0.8608398,0-4.03125-0.1679688-5.7319336
		C274.6757813,198.3144531,274.9697266,198.3564453,275.284668,198.3564453z"/>
	<path class="st2" d="M293.0073242,207.0488281c0,1.4277344-0.0839844,3.1704102-0.0839844,4.7661133
		c0,1.0708008,0.0839844,1.6376953,0.8188477,1.6376953c0.1469727,0,0.2519531,0,0.440918-0.0839844v0.4619141
		c-0.3359375,0.1469727-0.8188477,0.2939453-1.34375,0.2939453c-0.7768555,0-1.34375-0.4619141-1.4487305-1.3017578
		c-1.1757813,1.1757813-2.015625,1.5327148-3.2963867,1.5327148c-1.4487305,0-2.7924805-1.0498047-2.7924805-2.5825195
		s0.9658203-2.4775391,2.6455078-2.8134766c0.8188477-0.1679688,1.7216797-0.2519531,2.4985352-0.4829102
		c0.8188477-0.230957,0.9658203-0.3779297,0.9658203-1.0498047c0-1.6796875-0.7978516-2.6455078-2.3095703-2.6455078
		c-1.0917969,0-2.1206055,0.5039063-2.6455078,1.4277344h-0.230957v-1.0917969
		c1.0917969-0.8188477,2.0366211-1.2177734,3.3803711-1.2177734
		C291.5585938,203.8994141,293.0073242,205.0541992,293.0073242,207.0488281z M288.8500977,213.4736328
		c0.9238281,0,1.8896484-0.5249023,2.4775391-1.4697266l0.0839844-3.1494141
		c-0.1889648,0.0629883-0.7348633,0.1889648-1.7426758,0.3779297c-1.9316406,0.3569336-2.6455078,1.0917969-2.6455078,2.246582
		C287.0234375,212.7177734,287.8422852,213.4736328,288.8500977,213.4736328z"/>
	<path class="st2" d="M298.3212891,201.2958984h0.1049805c-0.0839844,1.0917969-0.1049805,1.9316406-0.1679688,3.1074219
		c0.5668945,0,1.6166992-0.0629883,2.2255859-0.0629883c-0.0209961,0.0839844-0.0209961,0.4619141-0.0209961,0.5249023
		c0,0.1889648,0,0.2939453,0.0209961,0.3569336c-0.4829102-0.0209961-1.2177734-0.0419922-1.4907227-0.0419922h-0.7348633
		c-0.0629883,0.5878906-0.1469727,4.0942383-0.1469727,5.3959961c0,1.5957031,0.1049805,3.1074219,1.6796875,3.1074219
		c0.3149414,0,0.7138672-0.0629883,0.9658203-0.1469727v0.5039063c-0.5249023,0.1889648-1.112793,0.3149414-1.6166992,0.3149414
		c-1.7216797,0-2.5825195-0.8818359-2.5825195-2.6665039c0-0.9448242,0.1259766-3.3803711,0.1469727-6.5087891
		c-0.7348633,0-1.1967773,0.0209961-1.4277344,0.0419922c0.0629883-0.230957,0.0419922-0.3149414,0.0419922-0.4829102
		c0-0.1469727-0.0209961-0.2729492-0.0419922-0.4199219c0.7558594,0.0629883,1.1547852,0.0629883,1.3857422,0.0629883
		l-0.0839844-2.3515625L298.3212891,201.2958984z"/>
	<path class="st2" d="M312.8525391,198.2514648c-0.0209961,0.6508789-0.0839844,1.0708008-0.0839844,1.6796875l-0.1259766,0.0629883
		c-0.3359375-0.2099609-0.7138672-0.3149414-1.1547852-0.3149414c-1.0917969,0-1.7216797,0.8188477-1.7216797,2.0996094
		c0,0.5039063,0.1679688,1.9106445,0.230957,2.3095703l0.0209961,0.1469727c1.3227539,0,1.8896484-0.0209961,2.1625977-0.0209961
		c-0.0209961,0.1469727-0.0419922,0.2099609-0.0419922,0.3569336c0,0.1679688,0.0209961,0.3149414,0.0419922,0.4829102
		c-0.902832-0.0209961-1.574707-0.0629883-2.1625977-0.0629883v1.6166992c0,2.8764648,0.0209961,5.1650391,0.0839844,7.5375977
		c-0.3149414-0.0629883-0.5878906-0.1049805-0.902832-0.1049805s-0.5878906,0.0419922-0.9238281,0.1049805
		c0.1889648-3.0444336,0.1889648-5.8789063,0.1889648-9.1542969c-0.4829102,0-0.9448242,0.0419922-1.5117188,0.0629883
		c0.0629883-0.1889648,0.0419922-0.2729492,0.0419922-0.4199219s-0.0209961-0.2519531-0.0419922-0.4199219l1.5117188,0.0209961
		c0.0209961-1.2807617,0.3149414-2.2885742,0.7348633-3.359375c0.8398438-2.0996094,2.3515625-2.6875,3.2124023-2.6875
		C312.5795898,198.1884766,312.7475586,198.2304688,312.8525391,198.2514648z"/>
	<path class="st2" d="M321.0209961,207.0488281c0,1.4277344-0.0839844,3.1704102-0.0839844,4.7661133
		c0,1.0708008,0.0839844,1.6376953,0.8188477,1.6376953c0.1469727,0,0.2519531,0,0.440918-0.0839844v0.4619141
		c-0.3359375,0.1469727-0.8188477,0.2939453-1.34375,0.2939453c-0.7768555,0-1.34375-0.4619141-1.4487305-1.3017578
		c-1.1757813,1.1757813-2.015625,1.5327148-3.2963867,1.5327148c-1.4487305,0-2.7924805-1.0498047-2.7924805-2.5825195
		s0.9658203-2.4775391,2.6455078-2.8134766c0.8188477-0.1679688,1.7216797-0.2519531,2.4985352-0.4829102
		c0.8188477-0.230957,0.9658203-0.3779297,0.9658203-1.0498047c0-1.6796875-0.7978516-2.6455078-2.3095703-2.6455078
		c-1.0917969,0-2.1206055,0.5039063-2.6455078,1.4277344h-0.230957v-1.0917969
		c1.0917969-0.8188477,2.0366211-1.2177734,3.3803711-1.2177734
		C319.5722656,203.8994141,321.0209961,205.0541992,321.0209961,207.0488281z M316.8637695,213.4736328
		c0.9238281,0,1.8896484-0.5249023,2.4775391-1.4697266l0.0839844-3.1494141
		c-0.1889648,0.0629883-0.7348633,0.1889648-1.7426758,0.3779297c-1.9316406,0.3569336-2.6455078,1.0917969-2.6455078,2.246582
		C315.0371094,212.7177734,315.855957,213.4736328,316.8637695,213.4736328z"/>
	<path class="st2" d="M326.9228516,200.4560547c0,0.5878906-0.4829102,1.0708008-1.0708008,1.0708008
		s-1.0708008-0.4829102-1.0708008-1.0708008c0-0.6088867,0.5039063-1.0708008,1.0708008-1.0708008
		S326.9228516,199.847168,326.9228516,200.4560547z M325.8520508,204.2143555c0.3149414,0,0.5878906-0.0209961,0.9448242-0.1049805
		c-0.1049805,0.9448242-0.1679688,2.8134766-0.1679688,3.7163086v2.6035156c0,1.4277344,0.0629883,2.6455078,0.1679688,3.7163086
		c-0.3569336-0.0629883-0.671875-0.1049805-0.9448242-0.1049805c-0.3149414,0-0.6088867,0.0419922-0.9448242,0.1049805
		c0.1679688-1.3227539,0.1679688-2.8554688,0.1679688-3.6953125v-2.8344727c0-1.2597656-0.0629883-2.4145508-0.1679688-3.5063477
		C325.2641602,204.1933594,325.5791016,204.2143555,325.8520508,204.2143555z"/>
	<path class="st2" d="M331.6899414,198.3564453c0.3149414,0,0.6088867-0.0419922,0.9448242-0.1049805
		c-0.1049805,0.902832-0.1679688,4.3251953-0.1679688,5.7319336v4.4301758c0,1.4277344,0.0629883,4.8291016,0.1679688,5.7319336
		c-0.3359375-0.0629883-0.6298828-0.1049805-0.9448242-0.1049805s-0.6088867,0.0419922-0.9448242,0.1049805
		c0.1679688-1.6586914,0.1679688-4.8920898,0.1679688-5.7319336v-4.4301758c0-0.8608398,0-4.03125-0.1679688-5.7319336
		C331.0810547,198.3144531,331.375,198.3564453,331.6899414,198.3564453z"/>
	<path class="st2" d="M341.559082,202.1567383c0,1.4067383-0.8398438,2.4985352-1.9526367,3.590332
		c-1.0917969,1.0708008-1.784668,1.8896484-1.784668,2.7924805c0,0.671875,0.440918,1.2597656,1.112793,1.2597656
		c0.2729492,0,0.5039063-0.0839844,0.6928711-0.1889648l0.1259766,0.0839844
		c-0.1049805,0.1049805-0.230957,0.4199219-0.2519531,0.5878906c-0.1469727,0.0629883-0.3779297,0.1049805-0.6508789,0.1049805
		c-1.112793,0-2.3305664-0.8608398-2.3305664-2.3305664c0-1.2597656,0.7138672-2.246582,1.8896484-3.359375
		s1.7216797-1.9106445,1.7216797-2.8134766c0-0.9868164-0.8188477-1.7216797-1.8056641-1.7216797
		c-0.7558594,0-1.4277344,0.3989258-1.9106445,0.9658203l-0.1259766-1.0498047
		c0.8398438-0.5249023,1.4907227-0.6928711,2.1625977-0.6928711
		C340.3413086,199.3852539,341.559082,200.5610352,341.559082,202.1567383z M339.6274414,213.0957031
		c0,0.6508789-0.5458984,1.1967773-1.1967773,1.1967773s-1.1967773-0.5458984-1.1967773-1.1967773
		s0.5458984-1.1967773,1.1967773-1.1967773S339.6274414,212.4448242,339.6274414,213.0957031z"/>
	<path class="st2" d="M351.534668,199.7631836c0.3359375,0,0.6928711-0.0419922,1.0288086-0.1049805
		c-0.0839844,1.8686523-0.1679688,3.7373047-0.1679688,5.1650391v4.1572266c0,1.4277344,0.0839844,3.3173828,0.1679688,5.1650391
		c-0.3569336-0.0839844-0.6928711-0.1049805-1.0288086-0.1049805s-0.6298828,0.0209961-1.0288086,0.1049805
		c0.0839844-1.8476563,0.1679688-3.7163086,0.1679688-5.1650391v-4.1572266c0-1.4487305-0.0839844-3.3173828-0.1679688-5.1650391
		C350.9047852,199.7211914,351.1987305,199.7631836,351.534668,199.7631836z"/>
	<path class="st2" d="M360.7109375,198.2514648c-0.0209961,0.6508789-0.0839844,1.0708008-0.0839844,1.6796875l-0.1259766,0.0629883
		c-0.3359375-0.2099609-0.7138672-0.3149414-1.1547852-0.3149414c-1.0917969,0-1.7216797,0.8188477-1.7216797,2.0996094
		c0,0.5039063,0.1679688,1.9106445,0.230957,2.3095703l0.0209961,0.1469727c1.3227539,0,1.8896484-0.0209961,2.1625977-0.0209961
		c-0.0209961,0.1469727-0.0419922,0.2099609-0.0419922,0.3569336c0,0.1679688,0.0209961,0.3149414,0.0419922,0.4829102
		c-0.902832-0.0209961-1.574707-0.0629883-2.1625977-0.0629883v1.6166992c0,2.8764648,0.0209961,5.1650391,0.0839844,7.5375977
		c-0.3149414-0.0629883-0.5878906-0.1049805-0.902832-0.1049805s-0.5878906,0.0419922-0.9238281,0.1049805
		c0.1889648-3.0444336,0.1889648-5.8789063,0.1889648-9.1542969c-0.4829102,0-0.9448242,0.0419922-1.5117188,0.0629883
		c0.0629883-0.1889648,0.0419922-0.2729492,0.0419922-0.4199219s-0.0209961-0.2519531-0.0419922-0.4199219l1.5117188,0.0209961
		c0.0209961-1.2807617,0.3149414-2.2885742,0.7348633-3.359375c0.8398438-2.0996094,2.3515625-2.6875,3.2124023-2.6875
		C360.4379883,198.1884766,360.605957,198.2304688,360.7109375,198.2514648z"/>
	<path class="st2" d="M372.890625,204.4873047c-0.2729492,0.5039063-0.4829102,1.2597656-0.5039063,1.4907227h-0.2519531
		c-0.2729492-0.8188477-1.0078125-1.3017578-1.8476563-1.3017578c-0.9868164,0-1.784668,0.6928711-1.784668,1.7636719
		c0,0.9238281,0.5668945,1.4487305,1.7636719,1.784668c1.7636719,0.5039063,3.1914063,0.8608398,3.1914063,2.7924805
		c0,1.7006836-1.5117188,3.3383789-3.800293,3.3383789c-1.1757813,0-1.9316406-0.2729492-2.6875-0.6928711
		c0.230957-0.5039063,0.3989258-1.1967773,0.3989258-1.5327148h0.2519531
		c0.440918,0.8188477,1.3857422,1.4487305,2.3725586,1.4487305c1.1757813,0,2.0366211-0.7138672,2.0366211-1.8896484
		c0-0.902832-0.6088867-1.4067383-1.8686523-1.7636719c-1.8476563-0.5039063-3.0864258-1.0078125-3.0864258-2.8554688
		c0-1.9316406,1.3857422-3.1704102,3.4853516-3.1704102C371.6308594,203.8994141,372.6176758,204.4243164,372.890625,204.4873047z"
		/>
	<path class="st2" d="M385.237793,209.1274414c0,3.4643555-2.2885742,5.2280273-5.0810547,5.2280273
		c-2.9394531,0-5.1230469-1.8896484-5.1230469-5.1020508c0-4.2832031,2.9604492-5.3540039,5.0810547-5.3540039
		C383.0541992,203.8994141,385.237793,205.7680664,385.237793,209.1274414z M380.1357422,213.6835938
		c2.1206055,0,3.2543945-1.6166992,3.2543945-4.5561523c0-2.918457-1.0917969-4.5561523-3.2753906-4.5561523
		c-2.0996094,0-3.2333984,1.5957031-3.2333984,4.5561523C376.8813477,212.0668945,378.0361328,213.6835938,380.1357422,213.6835938z
		"/>
	<path class="st2" d="M389.921875,212.3818359c0,0.3359375-0.1679688,0.6298828-0.3989258,1.0288086l-2.5405273,4.3041992
		l-0.3779297-0.1469727l1.5327148-4.8081055c0.1679688-0.440918,0.230957-1.0917969,1.0288086-1.0917969
		C389.5649414,211.6679688,389.921875,211.940918,389.921875,212.3818359z"/>
	<path class="st2" d="M404.4111328,204.4873047c-0.2729492,0.5039063-0.4829102,1.2597656-0.5039063,1.4907227h-0.2519531
		c-0.2729492-0.8188477-1.0078125-1.3017578-1.8476563-1.3017578c-0.9868164,0-1.784668,0.6928711-1.784668,1.7636719
		c0,0.9238281,0.5668945,1.4487305,1.7636719,1.784668c1.7636719,0.5039063,3.1914063,0.8608398,3.1914063,2.7924805
		c0,1.7006836-1.5117188,3.3383789-3.800293,3.3383789c-1.1757813,0-1.9316406-0.2729492-2.6875-0.6928711
		c0.230957-0.5039063,0.3989258-1.1967773,0.3989258-1.5327148h0.2519531
		c0.440918,0.8188477,1.3857422,1.4487305,2.3725586,1.4487305c1.1757813,0,2.0366211-0.7138672,2.0366211-1.8896484
		c0-0.902832-0.6088867-1.4067383-1.8686523-1.7636719c-1.8476563-0.5039063-3.0864258-1.0078125-3.0864258-2.8554688
		c0-1.9316406,1.3857422-3.1704102,3.4853516-3.1704102C403.1513672,203.8994141,404.1381836,204.4243164,404.4111328,204.4873047z"
		/>
	<path class="st2" d="M409.2207031,201.2958984h0.1049805c-0.0839844,1.0917969-0.1049805,1.9316406-0.1679688,3.1074219
		c0.5668945,0,1.6166992-0.0629883,2.2255859-0.0629883c-0.0209961,0.0839844-0.0209961,0.4619141-0.0209961,0.5249023
		c0,0.1889648,0,0.2939453,0.0209961,0.3569336c-0.4829102-0.0209961-1.2177734-0.0419922-1.4907227-0.0419922h-0.7348633
		c-0.0629883,0.5878906-0.1469727,4.0942383-0.1469727,5.3959961c0,1.5957031,0.1049805,3.1074219,1.6796875,3.1074219
		c0.3149414,0,0.7138672-0.0629883,0.9658203-0.1469727v0.5039063c-0.5249023,0.1889648-1.112793,0.3149414-1.6166992,0.3149414
		c-1.7216797,0-2.5825195-0.8818359-2.5825195-2.6665039c0-0.9448242,0.1259766-3.3803711,0.1469727-6.5087891
		c-0.7348633,0-1.1967773,0.0209961-1.4277344,0.0419922c0.0629883-0.230957,0.0419922-0.3149414,0.0419922-0.4829102
		c0-0.1469727-0.0209961-0.2729492-0.0419922-0.4199219c0.7558594,0.0629883,1.1547852,0.0629883,1.3857422,0.0629883
		l-0.0839844-2.3515625L409.2207031,201.2958984z"/>
	<path class="st2" d="M421.5463867,208.2036133v0.3569336l-0.0419922,0.440918
		c-1.2597656-0.0209961-2.6245117-0.0629883-4.1152344-0.0629883c-1.0078125,0-2.0576172,0.0419922-3.128418,0.0629883
		c-0.0209961,0.1049805-0.0209961,0.3989258-0.0209961,0.4619141c0,2.6035156,1.5117188,4.0102539,3.6113281,4.0102539
		c1.0708008,0,2.3515625-0.5878906,3.1704102-1.4907227l0.1049805,0.0629883l-0.1259766,1.0288086
		c-1.0917969,0.8398438-2.4145508,1.2807617-3.5273438,1.2807617c-2.918457,0-5.0810547-2.0786133-5.0810547-4.9550781
		c0-3.4433594,1.7636719-5.5009766,4.8081055-5.5009766C419.8876953,203.8994141,421.5463867,205.6000977,421.5463867,208.2036133z
		 M417.0322266,208.2666016c0.7348633,0,1.9736328-0.0629883,2.7924805-0.0629883
		c-0.0209961-2.4145508-0.8818359-3.6323242-2.5825195-3.6323242c-1.6166992,0-2.7084961,1.3647461-2.9394531,3.6323242
		C415.121582,208.2036133,416.6962891,208.2666016,417.0322266,208.2666016z"/>
	<path class="st2" d="M432.9492188,209.0644531c0,3.4433594-2.246582,5.2910156-4.5351563,5.2910156
		c-1.5117188,0-2.6035156-0.6928711-3.2963867-2.0576172h-0.0419922v1.6586914c0,0.9658203,0.0629883,4.7451172,0.1679688,5.7109375
		c-0.3569336-0.0629883-0.671875-0.1049805-0.9448242-0.1049805c-0.3149414,0-0.6088867,0.0419922-0.9448242,0.1049805
		c0.1679688-1.6796875,0.1679688-4.934082,0.1679688-5.7109375v-4.0522461c0-0.7978516,0-3.9892578-0.1679688-5.7949219
		c0.3569336,0.0839844,0.671875,0.1049805,0.9448242,0.1049805c0.3149414,0,0.5878906-0.0209961,0.9448242-0.1049805
		c-0.1049805,0.7768555-0.1679688,1.4067383-0.1679688,2.0576172h0.0419922
		c0.6928711-1.4487305,1.9316406-2.2675781,3.5483398-2.2675781
		C430.9335938,203.8994141,432.9492188,205.6000977,432.9492188,209.0644531z M428.1411133,213.5786133
		c1.8686523,0,2.9604492-1.7426758,2.9604492-4.5351563s-1.0708008-4.262207-2.918457-4.262207
		c-1.9316406,0-3.1074219,1.5117188-3.1074219,4.4511719C425.0756836,212.0878906,426.1254883,213.5786133,428.1411133,213.5786133z
		"/>
	<path class="st2" d="M441.2875977,204.109375c0.3569336,0.0629883,0.6508789,0.1049805,0.8818359,0.1049805
		c0.2519531,0,0.5249023-0.0419922,0.8608398-0.1049805c-0.1469727,1.7636719-0.2099609,3.9052734-0.2099609,5.8369141
		c0,0.5249023,0,1.8266602,0.6088867,2.4775391c0.3989258,0.4829102,1.0288086,0.8398438,1.8476563,0.8398438
		c1.1547852,0,1.8266602-0.5039063,2.2255859-1.1547852c0.5039063-0.8398438,0.5458984-1.4697266,0.5458984-3.7373047
		c0-2.1206055-0.0209961-3.8212891-0.0419922-4.262207c0.3569336,0.0839844,0.6088867,0.1049805,0.8818359,0.1049805
		c0.3149414,0,0.5458984-0.0209961,0.8608398-0.1049805c-0.0839844,1.34375-0.1469727,3.4223633-0.1469727,6.2988281
		c0,1.6166992,0.0209961,2.7504883,0.0839844,3.7373047c-0.3149414-0.0629883-0.5878906-0.1049805-0.8188477-0.1049805
		s-0.5039063,0.0419922-0.8188477,0.1049805c0.0209961-0.2729492,0.0419922-0.7348633,0.0419922-1.0498047v-0.7558594h-0.0419922
		c-0.7348633,1.34375-1.9316406,2.015625-3.2753906,2.015625c-2.1835938,0-3.5063477-1.1757813-3.5063477-3.5273438
		c0-0.8608398,0.0629883-2.7924805,0.0629883-3.4643555C441.3295898,206.2719727,441.3085938,205.2011719,441.2875977,204.109375z"
		/>
	<path class="st2" d="M462.1386719,209.0644531c0,3.4433594-2.2460938,5.2910156-4.5351563,5.2910156
		c-1.5117188,0-2.6035156-0.6928711-3.2963867-2.0576172h-0.0419922v1.6586914c0,0.9658203,0.0629883,4.7451172,0.1679688,5.7109375
		c-0.3569336-0.0629883-0.671875-0.1049805-0.9448242-0.1049805c-0.3149414,0-0.6088867,0.0419922-0.9448242,0.1049805
		c0.1679688-1.6796875,0.1679688-4.934082,0.1679688-5.7109375v-4.0522461c0-0.7978516,0-3.9892578-0.1679688-5.7949219
		c0.3569336,0.0839844,0.671875,0.1049805,0.9448242,0.1049805c0.3149414,0,0.5878906-0.0209961,0.9448242-0.1049805
		c-0.1049805,0.7768555-0.1679688,1.4067383-0.1679688,2.0576172h0.0419922
		c0.6928711-1.4487305,1.9316406-2.2675781,3.5483398-2.2675781
		C460.1230469,203.8994141,462.1386719,205.6000977,462.1386719,209.0644531z M457.3305664,213.5786133
		c1.8686523,0,2.9604492-1.7426758,2.9604492-4.5351563s-1.0703125-4.262207-2.918457-4.262207
		c-1.9316406,0-3.1074219,1.5117188-3.1074219,4.4511719C454.2651367,212.0878906,455.3149414,213.5786133,457.3305664,213.5786133z
		"/>
	<path class="st2" d="M472.2617188,201.2958984h0.1054688c-0.0839844,1.0917969-0.1054688,1.9316406-0.1679688,3.1074219
		c0.5664063,0,1.6162109-0.0629883,2.2246094-0.0629883c-0.0205078,0.0839844-0.0205078,0.4619141-0.0205078,0.5249023
		c0,0.1889648,0,0.2939453,0.0205078,0.3569336c-0.4824219-0.0209961-1.2167969-0.0419922-1.4902344-0.0419922h-0.734375
		c-0.0634766,0.5878906-0.1474609,4.0942383-0.1474609,5.3959961c0,1.5957031,0.1044922,3.1074219,1.6796875,3.1074219
		c0.3154297,0,0.7138672-0.0629883,0.9658203-0.1469727v0.5039063c-0.5253906,0.1889648-1.1132813,0.3149414-1.6171875,0.3149414
		c-1.7207031,0-2.5820313-0.8818359-2.5820313-2.6665039c0-0.9448242,0.1259766-3.3803711,0.1464844-6.5087891
		c-0.734375,0-1.1962891,0.0209961-1.4277344,0.0419922c0.0634766-0.230957,0.0429688-0.3149414,0.0429688-0.4829102
		c0-0.1469727-0.0214844-0.2729492-0.0429688-0.4199219c0.7558594,0.0629883,1.1552734,0.0629883,1.3867188,0.0629883
		l-0.0839844-2.3515625L472.2617188,201.2958984z"/>
	<path class="st2" d="M485.6367188,209.1274414c0,3.4643555-2.2880859,5.2280273-5.0800781,5.2280273
		c-2.9394531,0-5.1230469-1.8896484-5.1230469-5.1020508c0-4.2832031,2.9599609-5.3540039,5.0800781-5.3540039
		C483.453125,203.8994141,485.6367188,205.7680664,485.6367188,209.1274414z M480.5351563,213.6835938
		c2.1210938,0,3.2539063-1.6166992,3.2539063-4.5561523c0-2.918457-1.0917969-4.5561523-3.2753906-4.5561523
		c-2.0996094,0-3.2324219,1.5957031-3.2324219,4.5561523C477.28125,212.0668945,478.4355469,213.6835938,480.5351563,213.6835938z"
		/>
	<path class="st2" d="M503.1503906,209.1274414c0,3.4643555-2.2880859,5.2280273-5.0800781,5.2280273
		c-2.9394531,0-5.1230469-1.8896484-5.1230469-5.1020508c0-4.2832031,2.9599609-5.3540039,5.0800781-5.3540039
		C500.9667969,203.8994141,503.1503906,205.7680664,503.1503906,209.1274414z M498.0488281,213.6835938
		c2.1210938,0,3.2539063-1.6166992,3.2539063-4.5561523c0-2.918457-1.0917969-4.5561523-3.2753906-4.5561523
		c-2.0996094,0-3.2324219,1.5957031-3.2324219,4.5561523C494.7949219,212.0668945,495.9492188,213.6835938,498.0488281,213.6835938z
		"/>
	<path class="st2" d="M505.5039063,204.109375c0.3574219,0.0629883,0.6513672,0.1049805,0.8828125,0.1049805
		c0.2519531,0,0.5244141-0.0419922,0.8603516-0.1049805c-0.1474609,1.7636719-0.2099609,3.9052734-0.2099609,5.8369141
		c0,0.5249023,0,1.8266602,0.609375,2.4775391c0.3984375,0.4829102,1.0283203,0.8398438,1.8476563,0.8398438
		c1.1542969,0,1.8261719-0.5039063,2.2246094-1.1547852c0.5039063-0.8398438,0.546875-1.4697266,0.546875-3.7373047
		c0-2.1206055-0.0214844-3.8212891-0.0429688-4.262207c0.3574219,0.0839844,0.609375,0.1049805,0.8828125,0.1049805
		c0.3144531,0,0.5449219-0.0209961,0.8603516-0.1049805c-0.0839844,1.34375-0.1474609,3.4223633-0.1474609,6.2988281
		c0,1.6166992,0.0214844,2.7504883,0.0839844,3.7373047c-0.3144531-0.0629883-0.5878906-0.1049805-0.8183594-0.1049805
		s-0.5039063,0.0419922-0.8183594,0.1049805c0.0205078-0.2729492,0.0410156-0.7348633,0.0410156-1.0498047v-0.7558594h-0.0410156
		c-0.7353516,1.34375-1.9316406,2.015625-3.2753906,2.015625c-2.1835938,0-3.5068359-1.1757813-3.5068359-3.5273438
		c0-0.8608398,0.0634766-2.7924805,0.0634766-3.4643555C505.546875,206.2719727,505.5253906,205.2011719,505.5039063,204.109375z"/>
	<path class="st2" d="M522.2617188,204.0253906c-0.0634766,0.1469727-0.1474609,0.5039063-0.1474609,1.4067383v0.2939453
		l-0.1474609,0.1049805c-0.2304688-0.230957-0.671875-0.3359375-1.0283203-0.3359375
		c-1.34375,0-2.1416016,1.2597656-2.1416016,2.8764648v2.8554688c0,1.2597656,0.0214844,2.2255859,0.0839844,2.918457
		c-0.3144531-0.0629883-0.5878906-0.1049805-0.8398438-0.1049805c-0.2734375,0-0.5458984,0.0419922-0.8818359,0.1049805
		c0.0634766-0.5668945,0.0839844-1.2597656,0.0839844-2.246582v-4.6821289c0-0.902832-0.0205078-2.4775391-0.0839844-3.1074219
		c0.3994141,0.0839844,0.6298828,0.1049805,0.8818359,0.1049805s0.5253906-0.0419922,0.8398438-0.1049805l-0.0839844,1.0498047
		c-0.0214844,0.230957-0.0214844,0.5668945-0.0214844,0.9868164l0.0429688,0.0209961
		c0.8183594-1.5117188,1.7841797-2.2675781,2.7919922-2.2675781
		C521.8623047,203.8994141,522.0097656,203.9414063,522.2617188,204.0253906z"/>
	<path class="st2" d="M539.3339844,209.1274414c0,3.4643555-2.2890625,5.2280273-5.0820313,5.2280273
		c-2.9394531,0-5.1230469-1.8896484-5.1230469-5.1020508c0-4.2832031,2.9609375-5.3540039,5.0820313-5.3540039
		C537.1503906,203.8994141,539.3339844,205.7680664,539.3339844,209.1274414z M534.2314453,213.6835938
		c2.1201172,0,3.2548828-1.6166992,3.2548828-4.5561523c0-2.918457-1.0917969-4.5561523-3.2753906-4.5561523
		c-2.0996094,0-3.234375,1.5957031-3.234375,4.5561523C530.9765625,212.0668945,532.1318359,213.6835938,534.2314453,213.6835938z"
		/>
	<path class="st2" d="M550.1484375,207.6157227c0,1.112793-0.0839844,2.3305664-0.0839844,3.9262695
		c0,1.8476563,0.0419922,2.2255859,0.0419922,2.6035156c-0.3564453-0.0839844-0.6083984-0.1049805-0.8818359-0.1049805
		s-0.5253906,0.0209961-0.8613281,0.1049805c0-1.1967773,0.1474609-3.0864258,0.1474609-4.4511719v-1.6166992
		c0-1.7426758-0.7763672-3.0864258-2.3095703-3.0864258c-1.8476563,0-2.8134766,1.1757813-2.8134766,3.359375v2.5195313
		c0,0.902832,0.0634766,2.3305664,0.1679688,3.2753906c-0.3359375-0.0629883-0.6298828-0.1049805-0.9443359-0.1049805
		c-0.3154297,0-0.609375,0.0419922-0.9453125,0.1049805c0.1679688-1.3227539,0.1679688-2.8554688,0.1679688-3.6953125v-2.8344727
		c0-1.2597656-0.0625-2.4145508-0.1679688-3.5063477c0.3574219,0.0839844,0.671875,0.1049805,0.9453125,0.1049805
		c0.2089844,0,0.4824219-0.0419922,0.8398438-0.1049805c-0.0214844,0.3569336-0.0634766,1.1757813-0.0634766,1.6796875h0.0419922
		c0.7773438-1.1967773,1.8261719-1.8896484,3.3378906-1.8896484
		C548.8671875,203.8994141,550.1484375,205.0961914,550.1484375,207.6157227z"/>
	<path class="st2" d="M561.6347656,208.2036133v0.3569336l-0.0410156,0.440918
		c-1.2597656-0.0209961-2.625-0.0629883-4.1152344-0.0629883c-1.0078125,0-2.0585938,0.0419922-3.1289063,0.0629883
		c-0.0214844,0.1049805-0.0214844,0.3989258-0.0214844,0.4619141c0,2.6035156,1.5117188,4.0102539,3.6113281,4.0102539
		c1.0712891,0,2.3515625-0.5878906,3.1708984-1.4907227l0.1044922,0.0629883l-0.125,1.0288086
		c-1.0917969,0.8398438-2.4150391,1.2807617-3.5273438,1.2807617c-2.9189453,0-5.0820313-2.0786133-5.0820313-4.9550781
		c0-3.4433594,1.7636719-5.5009766,4.8085938-5.5009766C559.9765625,203.8994141,561.6347656,205.6000977,561.6347656,208.2036133z
		 M557.1210938,208.2666016c0.734375,0,1.9736328-0.0629883,2.7929688-0.0629883
		c-0.0214844-2.4145508-0.8828125-3.6323242-2.5830078-3.6323242c-1.6162109,0-2.7080078,1.3647461-2.9394531,3.6323242
		C555.2109375,208.2036133,556.7851563,208.2666016,557.1210938,208.2666016z"/>
	<path class="st2" d="M568.3554688,208.5395508v1.3017578h-5.2275391v-1.3017578H568.3554688z"/>
	<path class="st2" d="M571.6328125,204.109375c0.8613281,2.6875,1.953125,5.1860352,3.1289063,8.0625
		c0.9863281-2.0996094,2.0996094-4.8500977,3.1279297-8.0625c0.2519531,0.0629883,0.4619141,0.1049805,0.6923828,0.1049805
		c0.2314453,0,0.4199219-0.0209961,0.6933594-0.1049805c-1.1972656,2.5405273-2.5195313,5.4589844-4.03125,8.8813477
		c-1.5117188,3.3803711-2.3935547,5.605957-2.7294922,6.6767578c-0.2724609-0.0629883-0.5244141-0.1049805-0.7138672-0.1049805
		c-0.2304688,0-0.4619141,0.0419922-0.7138672,0.1049805c1.1123047-1.8476563,2.0361328-3.6533203,2.8134766-5.5009766
		c-0.4824219-1.3227539-3.0234375-7.2646484-4.1992188-10.0571289c0.3574219,0.0839844,0.6503906,0.1049805,0.9658203,0.1049805
		S571.296875,204.1723633,571.6328125,204.109375z"/>
	<path class="st2" d="M589.25,208.2036133v0.3569336l-0.0410156,0.440918c-1.2597656-0.0209961-2.625-0.0629883-4.1152344-0.0629883
		c-1.0078125,0-2.0585938,0.0419922-3.1289063,0.0629883c-0.0214844,0.1049805-0.0214844,0.3989258-0.0214844,0.4619141
		c0,2.6035156,1.5117188,4.0102539,3.6113281,4.0102539c1.0712891,0,2.3515625-0.5878906,3.1708984-1.4907227l0.1044922,0.0629883
		l-0.125,1.0288086c-1.0917969,0.8398438-2.4150391,1.2807617-3.5273438,1.2807617
		c-2.9189453,0-5.0820313-2.0786133-5.0820313-4.9550781c0-3.4433594,1.7636719-5.5009766,4.8085938-5.5009766
		C587.5917969,203.8994141,589.25,205.6000977,589.25,208.2036133z M584.7363281,208.2666016
		c0.734375,0,1.9736328-0.0629883,2.7929688-0.0629883c-0.0214844-2.4145508-0.8828125-3.6323242-2.5830078-3.6323242
		c-1.6162109,0-2.7080078,1.3647461-2.9394531,3.6323242C582.8261719,208.2036133,584.4003906,208.2666016,584.7363281,208.2666016z
		"/>
	<path class="st2" d="M598.4492188,207.0488281c0,1.4277344-0.0839844,3.1704102-0.0839844,4.7661133
		c0,1.0708008,0.0839844,1.6376953,0.8183594,1.6376953c0.1464844,0,0.2519531,0,0.4414063-0.0839844v0.4619141
		c-0.3359375,0.1469727-0.8193359,0.2939453-1.34375,0.2939453c-0.7773438,0-1.34375-0.4619141-1.4492188-1.3017578
		c-1.1757813,1.1757813-2.015625,1.5327148-3.296875,1.5327148c-1.4482422,0-2.7919922-1.0498047-2.7919922-2.5825195
		s0.9658203-2.4775391,2.6455078-2.8134766c0.8183594-0.1679688,1.7216797-0.2519531,2.4980469-0.4829102
		c0.8193359-0.230957,0.9667969-0.3779297,0.9667969-1.0498047c0-1.6796875-0.7988281-2.6455078-2.3105469-2.6455078
		c-1.0917969,0-2.1201172,0.5039063-2.6445313,1.4277344h-0.2314453v-1.0917969
		c1.0917969-0.8188477,2.0361328-1.2177734,3.3798828-1.2177734C597,203.8994141,598.4492188,205.0541992,598.4492188,207.0488281z
		 M594.2910156,213.4736328c0.9238281,0,1.890625-0.5249023,2.4785156-1.4697266l0.0839844-3.1494141
		c-0.1894531,0.0629883-0.7353516,0.1889648-1.7431641,0.3779297c-1.9316406,0.3569336-2.6455078,1.0917969-2.6455078,2.246582
		C592.4648438,212.7177734,593.2832031,213.4736328,594.2910156,213.4736328z"/>
	<path class="st2" d="M607.0585938,204.0253906c-0.0625,0.1469727-0.1464844,0.5039063-0.1464844,1.4067383v0.2939453
		l-0.1464844,0.1049805c-0.2314453-0.230957-0.671875-0.3359375-1.0292969-0.3359375
		c-1.34375,0-2.1416016,1.2597656-2.1416016,2.8764648v2.8554688c0,1.2597656,0.0205078,2.2255859,0.0839844,2.918457
		c-0.3154297-0.0629883-0.5878906-0.1049805-0.8398438-0.1049805c-0.2724609,0-0.5458984,0.0419922-0.8818359,0.1049805
		c0.0625-0.5668945,0.0839844-1.2597656,0.0839844-2.246582v-4.6821289c0-0.902832-0.0214844-2.4775391-0.0839844-3.1074219
		c0.3984375,0.0839844,0.6298828,0.1049805,0.8818359,0.1049805s0.5244141-0.0419922,0.8398438-0.1049805l-0.0839844,1.0498047
		c-0.0205078,0.230957-0.0205078,0.5668945-0.0205078,0.9868164l0.0410156,0.0209961
		c0.8193359-1.5117188,1.7851563-2.2675781,2.7929688-2.2675781
		C606.6601563,203.8994141,606.8066406,203.9414063,607.0585938,204.0253906z"/>
	<path class="st2" d="M203.5942383,224.9633789c0.3569336,0,0.6508789-0.0419922,0.902832-0.1049805
		c-0.0629883,0.6088867-0.2519531,3.5693359-0.2519531,7.1386719c0,1.5327148,0.0209961,2.9604492,0.4619141,4.1362305
		c0.671875,1.8266602,2.1835938,2.4985352,4.2202148,2.4985352c1.6796875,0,2.7714844-0.5668945,3.4643555-1.4697266
		c0.671875-0.902832,1.1337891-2.246582,1.1337891-5.2490234v-3.1914063c0-2.0366211-0.0419922-3.3383789-0.1259766-3.8632813
		c0.3149414,0.0629883,0.5878906,0.1049805,0.8398438,0.1049805s0.4199219-0.0419922,0.6508789-0.1049805
		c-0.1049805,1.2807617-0.3149414,4.8081055-0.3779297,8.6293945c-0.0629883,4.0102539-2.3095703,6.1308594-6.0048828,6.1308594
		c-4.1152344,0-5.9838867-1.8476563-5.9838867-6.046875c0-1.0288086,0.1049805-2.3935547,0.1049805-3.3803711
		c0-1.1757813-0.0209961-1.9946289-0.1259766-5.3330078C202.9013672,224.9213867,203.2583008,224.9633789,203.5942383,224.9633789z"
		/>
	<path class="st2" d="M226.9448242,232.815918c0,1.112793-0.0839844,2.3305664-0.0839844,3.9262695
		c0,1.8476563,0.0419922,2.2255859,0.0419922,2.6035156c-0.3569336-0.0839844-0.6088867-0.1049805-0.8818359-0.1049805
		s-0.5249023,0.0209961-0.8608398,0.1049805c0-1.1967773,0.1469727-3.0864258,0.1469727-4.4511719v-1.6166992
		c0-1.7426758-0.7768555-3.0864258-2.3095703-3.0864258c-1.8476563,0-2.8134766,1.1757813-2.8134766,3.359375v2.5195313
		c0,0.902832,0.0629883,2.3305664,0.1679688,3.2753906c-0.3359375-0.0629883-0.6298828-0.1049805-0.9448242-0.1049805
		s-0.6088867,0.0419922-0.9448242,0.1049805c0.1679688-1.3227539,0.1679688-2.8554688,0.1679688-3.6953125v-2.8344727
		c0-1.2597656-0.0629883-2.4145508-0.1679688-3.5063477c0.3569336,0.0839844,0.671875,0.1049805,0.9448242,0.1049805
		c0.2099609,0,0.4829102-0.0419922,0.8398438-0.1049805c-0.0209961,0.3569336-0.0629883,1.1757813-0.0629883,1.6796875h0.0419922
		c0.7768555-1.1967773,1.8266602-1.8896484,3.3383789-1.8896484
		C225.6640625,229.0996094,226.9448242,230.2963867,226.9448242,232.815918z"/>
	<path class="st2" d="M238.1586914,230.0234375c-0.1889648,0.4829102-0.3569336,0.8818359-0.4619141,1.3857422h-0.1679688
		c-0.6088867-1.0288086-1.6166992-1.6376953-2.7084961-1.6376953c-2.2885742,0-3.5483398,1.6586914-3.5483398,4.5351563
		c0,2.9394531,1.2807617,4.3671875,3.6323242,4.3671875c0.9868164,0,2.3305664-0.5458984,3.1494141-1.4907227l0.1049805,0.0629883
		c-0.0629883,0.3359375-0.1049805,0.6088867-0.1259766,1.0288086c-1.0708008,0.8188477-2.3725586,1.2807617-3.4853516,1.2807617
		c-2.9814453,0-5.1230469-1.9526367-5.1230469-5.2280273c0-3.4433594,2.456543-5.2280273,5.3540039-5.2280273
		C236.1850586,229.0996094,237.5917969,229.5195313,238.1586914,230.0234375z"/>
	<path class="st2" d="M249.9814453,234.3276367c0,3.4643555-2.2885742,5.2280273-5.0810547,5.2280273
		c-2.9394531,0-5.1230469-1.8896484-5.1230469-5.1020508c0-4.2832031,2.9604492-5.3540039,5.0810547-5.3540039
		C247.7978516,229.0996094,249.9814453,230.9682617,249.9814453,234.3276367z M244.8793945,238.8837891
		c2.1206055,0,3.2543945-1.6166992,3.2543945-4.5561523c0-2.918457-1.0917969-4.5561523-3.2753906-4.5561523
		c-2.0996094,0-3.2333984,1.5957031-3.2333984,4.5561523C241.625,237.2670898,242.7797852,238.8837891,244.8793945,238.8837891z"/>
	<path class="st2" d="M251.9570313,229.4145508c0.3149414,0,0.5878906-0.0419922,0.9238281-0.1049805
		c0.8608398,2.7504883,1.8686523,5.3959961,3.128418,8.1884766c0.7348633-1.5327148,1.2387695-2.7924805,3.2124023-8.1884766
		c0.2099609,0.0629883,0.4199219,0.1049805,0.6508789,0.1049805c0.2519531,0,0.4199219-0.0419922,0.6508789-0.1049805
		l-2.1835938,4.934082c-0.7558594,1.7426758-1.4277344,3.4223633-2.0366211,5.1020508
		c-0.2099609-0.0629883-0.4199219-0.1049805-0.6508789-0.1049805c-0.2519531,0-0.3569336,0.0209961-0.671875,0.1049805
		c-1.34375-3.4433594-2.5405273-6.6557617-4.0732422-10.0361328
		C251.3481445,229.3935547,251.6420898,229.4145508,251.9570313,229.4145508z"/>
	<path class="st2" d="M270.6035156,233.4038086v0.3569336l-0.0419922,0.440918
		c-1.2597656-0.0209961-2.6245117-0.0629883-4.1152344-0.0629883c-1.0078125,0-2.0576172,0.0419922-3.128418,0.0629883
		c-0.0209961,0.1049805-0.0209961,0.3989258-0.0209961,0.4619141c0,2.6035156,1.5117188,4.0102539,3.6113281,4.0102539
		c1.0708008,0,2.3515625-0.5878906,3.1704102-1.4907227l0.1049805,0.0629883l-0.1259766,1.0288086
		c-1.0917969,0.8398438-2.4145508,1.2807617-3.5273438,1.2807617c-2.918457,0-5.0810547-2.0786133-5.0810547-4.9550781
		c0-3.4433594,1.7636719-5.5009766,4.8081055-5.5009766C268.9448242,229.0996094,270.6035156,230.800293,270.6035156,233.4038086z
		 M266.0893555,233.4667969c0.7348633,0,1.9736328-0.0629883,2.7924805-0.0629883
		c-0.0209961-2.4145508-0.8818359-3.6323242-2.5825195-3.6323242c-1.6166992,0-2.7084961,1.3647461-2.9394531,3.6323242
		C264.1787109,233.4038086,265.753418,233.4667969,266.0893555,233.4667969z"/>
	<path class="st2" d="M277.9121094,229.2255859c-0.0629883,0.1469727-0.1469727,0.5039063-0.1469727,1.4067383v0.2939453
		l-0.1469727,0.1049805c-0.230957-0.230957-0.671875-0.3359375-1.0288086-0.3359375
		c-1.34375,0-2.1416016,1.2597656-2.1416016,2.8764648v2.8554688c0,1.2597656,0.0209961,2.2255859,0.0839844,2.918457
		c-0.3149414-0.0629883-0.5878906-0.1049805-0.8398438-0.1049805c-0.2729492,0-0.5458984,0.0419922-0.8818359,0.1049805
		c0.0629883-0.5668945,0.0839844-1.2597656,0.0839844-2.246582v-4.6821289c0-0.902832-0.0209961-2.4775391-0.0839844-3.1074219
		c0.3989258,0.0839844,0.6298828,0.1049805,0.8818359,0.1049805s0.5249023-0.0419922,0.8398438-0.1049805l-0.0839844,1.0498047
		c-0.0209961,0.230957-0.0209961,0.5668945-0.0209961,0.9868164l0.0419922,0.0209961
		c0.8188477-1.5117188,1.784668-2.2675781,2.7924805-2.2675781
		C277.5131836,229.0996094,277.6601563,229.1416016,277.9121094,229.2255859z"/>
	<path class="st2" d="M283.7299805,224.9633789c0.3779297,0,0.7558594-0.0419922,1.1547852-0.1049805
		c1.2807617,2.5405273,2.6245117,4.8920898,3.9892578,7.2646484c1.34375-2.0786133,2.9814453-5.1020508,3.9682617-7.2646484
		c0.3149414,0.0629883,0.5458984,0.1049805,0.8188477,0.1049805c0.230957,0,0.5039063-0.0419922,0.8188477-0.1049805
		c-2.7924805,4.2412109-4.2412109,6.6137695-5.0810547,8.293457c0,2.4145508,0.0629883,5.0810547,0.1679688,6.1938477
		c-0.3569336-0.0629883-0.6928711-0.1049805-1.0288086-0.1049805s-0.6298828,0.0419922-1.0288086,0.1049805
		c0.1049805-1.2387695,0.1679688-2.4775391,0.1679688-5.9628906c-0.2729492-0.4829102-1.112793-1.9526367-2.6035156-4.4091797
		c-1.4907227-2.4985352-2.3095703-3.8422852-2.4985352-4.1152344
		C282.9741211,224.9213867,283.3310547,224.9633789,283.7299805,224.9633789z"/>
	<path class="st2" d="M303.1743164,234.3276367c0,3.4643555-2.2885742,5.2280273-5.0810547,5.2280273
		c-2.9394531,0-5.1230469-1.8896484-5.1230469-5.1020508c0-4.2832031,2.9604492-5.3540039,5.0810547-5.3540039
		C300.9907227,229.0996094,303.1743164,230.9682617,303.1743164,234.3276367z M298.0722656,238.8837891
		c2.1206055,0,3.2543945-1.6166992,3.2543945-4.5561523c0-2.918457-1.0917969-4.5561523-3.2753906-4.5561523
		c-2.0996094,0-3.2333984,1.5957031-3.2333984,4.5561523C294.8178711,237.2670898,295.9726563,238.8837891,298.0722656,238.8837891z
		"/>
	<path class="st2" d="M305.527832,229.3095703c0.3569336,0.0629883,0.6508789,0.1049805,0.8818359,0.1049805
		c0.2519531,0,0.5249023-0.0419922,0.8608398-0.1049805c-0.1469727,1.7636719-0.2099609,3.9052734-0.2099609,5.8369141
		c0,0.5249023,0,1.8266602,0.6088867,2.4775391c0.3989258,0.4829102,1.0288086,0.8398438,1.8476563,0.8398438
		c1.1547852,0,1.8266602-0.5039063,2.2255859-1.1547852c0.5039063-0.8398438,0.5458984-1.4697266,0.5458984-3.7373047
		c0-2.1206055-0.0209961-3.8212891-0.0419922-4.262207c0.3569336,0.0839844,0.6088867,0.1049805,0.8818359,0.1049805
		c0.3149414,0,0.5458984-0.0209961,0.8608398-0.1049805c-0.0839844,1.34375-0.1469727,3.4223633-0.1469727,6.2988281
		c0,1.6166992,0.0209961,2.7504883,0.0839844,3.7373047c-0.3149414-0.0629883-0.5878906-0.1049805-0.8188477-0.1049805
		s-0.5039063,0.0419922-0.8188477,0.1049805c0.0209961-0.2729492,0.0419922-0.7348633,0.0419922-1.0498047v-0.7558594h-0.0419922
		c-0.7348633,1.34375-1.9316406,2.015625-3.2753906,2.015625c-2.1835938,0-3.5063477-1.1757813-3.5063477-3.5273438
		c0-0.8608398,0.0629883-2.7924805,0.0629883-3.4643555C305.5698242,231.472168,305.5488281,230.4013672,305.527832,229.3095703z"/>
	<path class="st2" d="M322.284668,229.2255859c-0.0629883,0.1469727-0.1469727,0.5039063-0.1469727,1.4067383v0.2939453
		l-0.1469727,0.1049805c-0.230957-0.230957-0.671875-0.3359375-1.0288086-0.3359375
		c-1.34375,0-2.1416016,1.2597656-2.1416016,2.8764648v2.8554688c0,1.2597656,0.0209961,2.2255859,0.0839844,2.918457
		c-0.3149414-0.0629883-0.5878906-0.1049805-0.8398438-0.1049805c-0.2729492,0-0.5458984,0.0419922-0.8818359,0.1049805
		c0.0629883-0.5668945,0.0839844-1.2597656,0.0839844-2.246582v-4.6821289c0-0.902832-0.0209961-2.4775391-0.0839844-3.1074219
		c0.3989258,0.0839844,0.6298828,0.1049805,0.8818359,0.1049805s0.5249023-0.0419922,0.8398438-0.1049805l-0.0839844,1.0498047
		c-0.0209961,0.230957-0.0209961,0.5668945-0.0209961,0.9868164l0.0419922,0.0209961
		c0.8188477-1.5117188,1.784668-2.2675781,2.7924805-2.2675781
		C321.8857422,229.0996094,322.0327148,229.1416016,322.284668,229.2255859z"/>
	<path class="st2" d="M334.0654297,224.9633789c1.2807617,0,2.4985352-0.0419922,4.0102539-0.1049805
		c-0.0629883,0.2519531-0.0629883,0.440918-0.0629883,0.6298828c0,0.230957,0,0.3569336,0.0629883,0.6298828
		c-1.34375-0.1679688-5.0180664-0.2729492-5.8579102-0.2729492c0,0.1049805-0.0419922,2.0786133-0.0419922,3.0024414
		l0.0209961,2.3935547c1.784668,0,3.6533203-0.0419922,5.4169922-0.2099609
		c-0.0209961,0.1889648-0.0839844,0.3989258-0.0839844,0.6298828c0,0.1679688,0.0209961,0.2939453,0.0839844,0.6298828
		c-1.3647461-0.1049805-2.4985352-0.1679688-5.4169922-0.1679688v2.0576172c0,1.4277344,0.0839844,3.3173828,0.1679688,5.1650391
		c-0.3569336-0.0629883-0.6928711-0.1049805-1.0288086-0.1049805s-0.6298828,0.0209961-1.0288086,0.1049805
		c0.0839844-1.8476563,0.1679688-3.7163086,0.1679688-5.1650391v-4.1572266c0-1.4487305-0.0839844-3.3173828-0.1679688-5.1650391
		C331.671875,224.9213867,332.8056641,224.9633789,334.0654297,224.9633789z"/>
	<path class="st2" d="M342.5288086,225.65625c0,0.5878906-0.4829102,1.0708008-1.0708008,1.0708008
		s-1.0708008-0.4829102-1.0708008-1.0708008c0-0.6088867,0.5039063-1.0708008,1.0708008-1.0708008
		S342.5288086,225.0473633,342.5288086,225.65625z M341.4580078,229.4145508c0.3149414,0,0.5878906-0.0209961,0.9448242-0.1049805
		c-0.1049805,0.9448242-0.1679688,2.8134766-0.1679688,3.7163086v2.6035156c0,1.4277344,0.0629883,2.6455078,0.1679688,3.7163086
		c-0.3569336-0.0629883-0.671875-0.1049805-0.9448242-0.1049805c-0.3149414,0-0.6088867,0.0419922-0.9448242,0.1049805
		c0.1679688-1.3227539,0.1679688-2.8554688,0.1679688-3.6953125v-2.8344727c0-1.2597656-0.0629883-2.4145508-0.1679688-3.5063477
		C340.8701172,229.3935547,341.1850586,229.4145508,341.4580078,229.4145508z"/>
	<path class="st2" d="M347.7788086,226.4960938h0.1049805c-0.0839844,1.0917969-0.1049805,1.9316406-0.1679688,3.1074219
		c0.5668945,0,1.6166992-0.0629883,2.2255859-0.0629883c-0.0209961,0.0839844-0.0209961,0.4619141-0.0209961,0.5249023
		c0,0.1889648,0,0.2939453,0.0209961,0.3569336c-0.4829102-0.0209961-1.2177734-0.0419922-1.4907227-0.0419922h-0.7348633
		c-0.0629883,0.5878906-0.1469727,4.0942383-0.1469727,5.3959961c0,1.5957031,0.1049805,3.1074219,1.6796875,3.1074219
		c0.3149414,0,0.7138672-0.0629883,0.9658203-0.1469727v0.5039063c-0.5249023,0.1889648-1.112793,0.3149414-1.6166992,0.3149414
		c-1.7216797,0-2.5825195-0.8818359-2.5825195-2.6665039c0-0.9448242,0.1259766-3.3803711,0.1469727-6.5087891
		c-0.7348633,0-1.1967773,0.0209961-1.4277344,0.0419922c0.0629883-0.230957,0.0419922-0.3149414,0.0419922-0.4829102
		c0-0.1469727-0.0209961-0.2729492-0.0419922-0.4199219c0.7558594,0.0629883,1.1547852,0.0629883,1.3857422,0.0629883
		l-0.0839844-2.3515625L347.7788086,226.4960938z"/>
	<path class="st2" d="M366.8452148,234.2646484c0,3.4433594-2.246582,5.2910156-4.5351563,5.2910156
		c-1.5117188,0-2.6035156-0.6928711-3.2963867-2.0576172h-0.0419922v1.6586914c0,0.9658203,0.0629883,4.7451172,0.1679688,5.7109375
		c-0.3569336-0.0629883-0.671875-0.1049805-0.9448242-0.1049805c-0.3149414,0-0.6088867,0.0419922-0.9448242,0.1049805
		c0.1679688-1.6796875,0.1679688-4.934082,0.1679688-5.7109375v-4.0522461c0-0.7978516,0-3.9892578-0.1679688-5.7949219
		c0.3569336,0.0839844,0.671875,0.1049805,0.9448242,0.1049805c0.3149414,0,0.5878906-0.0209961,0.9448242-0.1049805
		c-0.1049805,0.7768555-0.1679688,1.4067383-0.1679688,2.0576172h0.0419922
		c0.6928711-1.4487305,1.9316406-2.2675781,3.5483398-2.2675781
		C364.8295898,229.0996094,366.8452148,230.800293,366.8452148,234.2646484z M362.0371094,238.7788086
		c1.8686523,0,2.9604492-1.7426758,2.9604492-4.5351563s-1.0708008-4.262207-2.918457-4.262207
		c-1.9316406,0-3.1074219,1.5117188-3.1074219,4.4511719C358.9716797,237.2880859,360.0214844,238.7788086,362.0371094,238.7788086z
		"/>
	<path class="st2" d="M374.4267578,229.2255859c-0.0629883,0.1469727-0.1469727,0.5039063-0.1469727,1.4067383v0.2939453
		l-0.1469727,0.1049805c-0.230957-0.230957-0.671875-0.3359375-1.0288086-0.3359375
		c-1.34375,0-2.1416016,1.2597656-2.1416016,2.8764648v2.8554688c0,1.2597656,0.0209961,2.2255859,0.0839844,2.918457
		c-0.3149414-0.0629883-0.5878906-0.1049805-0.8398438-0.1049805c-0.2729492,0-0.5458984,0.0419922-0.8818359,0.1049805
		c0.0629883-0.5668945,0.0839844-1.2597656,0.0839844-2.246582v-4.6821289c0-0.902832-0.0209961-2.4775391-0.0839844-3.1074219
		c0.3989258,0.0839844,0.6298828,0.1049805,0.8818359,0.1049805s0.5249023-0.0419922,0.8398438-0.1049805l-0.0839844,1.0498047
		c-0.0209961,0.230957-0.0209961,0.5668945-0.0209961,0.9868164l0.0419922,0.0209961
		c0.8188477-1.5117188,1.784668-2.2675781,2.7924805-2.2675781
		C374.027832,229.0996094,374.1748047,229.1416016,374.4267578,229.2255859z"/>
	<path class="st2" d="M385.6606445,234.3276367c0,3.4643555-2.2885742,5.2280273-5.0810547,5.2280273
		c-2.9394531,0-5.1230469-1.8896484-5.1230469-5.1020508c0-4.2832031,2.9604492-5.3540039,5.0810547-5.3540039
		C383.4770508,229.0996094,385.6606445,230.9682617,385.6606445,234.3276367z M380.5585938,238.8837891
		c2.1206055,0,3.2543945-1.6166992,3.2543945-4.5561523c0-2.918457-1.0917969-4.5561523-3.2753906-4.5561523
		c-2.0996094,0-3.2333984,1.5957031-3.2333984,4.5561523C377.3041992,237.2670898,378.4589844,238.8837891,380.5585938,238.8837891z
		"/>
	<path class="st2" d="M394.690918,229.2675781c0.6508789,0,1.3227539-0.0419922,1.6376953-0.1049805
		c-0.0209961,0.1469727-0.0419922,0.3359375-0.0419922,0.440918c0,0.1469727,0.0209961,0.2939453,0.0419922,0.440918
		c-0.8608398-0.0629883-1.574707-0.1469727-2.3305664-0.1679688l-0.0419922,0.0419922
		c0.902832,0.5039063,1.4487305,1.6376953,1.4487305,2.6665039c0,2.0996094-1.5327148,3.3383789-3.9052734,3.3383789
		c-0.3569336,0-0.7768555-0.0419922-1.1337891-0.0419922c-0.5249023,0-1.0498047,0.4199219-1.0498047,0.9868164
		c0,0.8608398,0.5039063,1.0498047,1.2387695,1.0498047c0.1049805,0,2.0366211,0.0629883,2.3095703,0.0629883
		c1.8686523,0.0629883,3.590332,0.7138672,3.590332,2.7294922c0,1.9316406-1.5537109,4.2202148-4.934082,4.2202148
		c-2.7504883,0-4.4301758-1.1547852-4.4301758-3.0234375c0-1.34375,0.8818359-2.3305664,2.246582-2.7714844V239.09375
		c-0.8608398-0.2519531-1.3227539-0.8608398-1.3227539-1.6796875s0.6298828-1.5537109,1.4907227-1.7426758v-0.0419922
		c-1.2807617-0.5668945-2.0576172-1.574707-2.0576172-3.1074219c0-2.0996094,1.5117188-3.4223633,4.03125-3.4223633
		C391.8774414,229.0996094,394.3549805,229.2675781,394.690918,229.2675781z M391.5205078,244.3217773
		c1.9526367,0,3.3803711-1.0708008,3.3803711-2.7504883c0-1.5957031-0.8608398-2.3305664-3.1914063-2.3305664
		c-2.2675781,0-3.2753906,0.8188477-3.2753906,2.4355469C388.434082,243.4399414,389.5678711,244.3217773,391.5205078,244.3217773z
		 M391.4575195,235.3774414c1.4907227,0,2.3095703-1.1967773,2.3095703-2.9604492
		c0-1.6796875-0.8818359-2.7084961-2.3095703-2.7084961s-2.3725586,1.0498047-2.3725586,2.8134766
		C389.0849609,234.3696289,389.9458008,235.3774414,391.4575195,235.3774414z"/>
	<path class="st2" d="M403.5952148,229.2255859c-0.0629883,0.1469727-0.1469727,0.5039063-0.1469727,1.4067383v0.2939453
		l-0.1469727,0.1049805c-0.230957-0.230957-0.671875-0.3359375-1.0288086-0.3359375
		c-1.34375,0-2.1416016,1.2597656-2.1416016,2.8764648v2.8554688c0,1.2597656,0.0209961,2.2255859,0.0839844,2.918457
		c-0.3149414-0.0629883-0.5878906-0.1049805-0.8398438-0.1049805c-0.2729492,0-0.5458984,0.0419922-0.8818359,0.1049805
		c0.0629883-0.5668945,0.0839844-1.2597656,0.0839844-2.246582v-4.6821289c0-0.902832-0.0209961-2.4775391-0.0839844-3.1074219
		c0.3989258,0.0839844,0.6298828,0.1049805,0.8818359,0.1049805s0.5249023-0.0419922,0.8398438-0.1049805l-0.0839844,1.0498047
		c-0.0209961,0.230957-0.0209961,0.5668945-0.0209961,0.9868164l0.0419922,0.0209961
		c0.8188477-1.5117188,1.784668-2.2675781,2.7924805-2.2675781
		C403.1962891,229.0996094,403.3432617,229.1416016,403.5952148,229.2255859z"/>
	<path class="st2" d="M412.2255859,232.2490234c0,1.4277344-0.0839844,3.1704102-0.0839844,4.7661133
		c0,1.0708008,0.0839844,1.6376953,0.8188477,1.6376953c0.1469727,0,0.2519531,0,0.440918-0.0839844v0.4619141
		c-0.3359375,0.1469727-0.8188477,0.2939453-1.34375,0.2939453c-0.7768555,0-1.34375-0.4619141-1.4487305-1.3017578
		c-1.1757813,1.1757813-2.015625,1.5327148-3.2963867,1.5327148c-1.4487305,0-2.7924805-1.0498047-2.7924805-2.5825195
		s0.9658203-2.4775391,2.6455078-2.8134766c0.8188477-0.1679688,1.7216797-0.2519531,2.4985352-0.4829102
		c0.8188477-0.230957,0.9658203-0.3779297,0.9658203-1.0498047c0-1.6796875-0.7978516-2.6455078-2.3095703-2.6455078
		c-1.0917969,0-2.1206055,0.5039063-2.6455078,1.4277344h-0.230957v-1.0917969
		c1.0917969-0.8188477,2.0366211-1.2177734,3.3803711-1.2177734
		C410.7768555,229.0996094,412.2255859,230.2543945,412.2255859,232.2490234z M408.0683594,238.6738281
		c0.9238281,0,1.8896484-0.5249023,2.4775391-1.4697266l0.0839844-3.1494141
		c-0.1889648,0.0629883-0.7348633,0.1889648-1.7426758,0.3779297c-1.9316406,0.3569336-2.6455078,1.0917969-2.6455078,2.246582
		C406.2416992,237.9179688,407.0605469,238.6738281,408.0683594,238.6738281z"/>
	<path class="st2" d="M423.5444336,231.1782227h0.0419922c0.6928711-1.3647461,1.8686523-2.0786133,3.3803711-2.0786133
		c2.0366211,0,3.2124023,1.1337891,3.2124023,3.3383789c0,0.5668945-0.1259766,2.6245117-0.1259766,4.5981445
		c0,1.0078125,0,1.574707,0.0629883,2.3095703c-0.3149414-0.0629883-0.5878906-0.1049805-0.902832-0.1049805
		s-0.6088867,0.0419922-0.9238281,0.1049805c0.0839844-0.8398438,0.2099609-3.1704102,0.2099609-6.5297852
		c0-1.9946289-0.9238281-2.6245117-2.2045898-2.6245117c-0.9448242,0-1.6796875,0.4199219-2.0996094,0.9868164
		c-0.3989258,0.5249023-0.5039063,0.9868164-0.5039063,3.1074219v1.5537109c0,0.7768555,0.0209961,1.8266602,0.1049805,3.5063477
		c-0.3359375-0.0629883-0.6508789-0.1049805-0.9238281-0.1049805c-0.3149414,0-0.5668945,0.0419922-0.9238281,0.1049805
		c0.1049805-1.3227539,0.1889648-3.1704102,0.1889648-4.8500977v-1.4697266c0-0.9448242-0.0839844-1.4067383-0.3989258-1.8896484
		c-0.3989258-0.6508789-1.1337891-0.9448242-1.7426758-0.9448242c-1.784668,0-2.6665039,1.3227539-2.6665039,3.359375v2.5405273
		c0,0.8818359,0.0629883,2.2885742,0.1679688,3.2543945c-0.3569336-0.0629883-0.671875-0.1049805-0.9448242-0.1049805
		c-0.3149414,0-0.6088867,0.0419922-0.9448242,0.1049805c0.1679688-1.2807617,0.1679688-2.8554688,0.1679688-3.6953125v-2.6245117
		c0-1.5327148-0.0629883-2.7714844-0.1679688-3.7163086c0.3359375,0.0629883,0.6298828,0.1049805,0.9448242,0.1049805
		c0.2099609,0,0.4829102-0.0419922,0.8398438-0.1049805c-0.0419922,0.6088867-0.0629883,1.1757813-0.0629883,1.6796875h0.0419922
		c0.7768555-1.2597656,1.8056641-1.8896484,3.128418-1.8896484
		C421.9067383,229.0996094,423.2084961,229.918457,423.5444336,231.1782227z"/>
	<path class="st2" d="M435.7460938,238.2958984c0,0.6508789-0.5458984,1.1967773-1.1967773,1.1967773
		s-1.1967773-0.5458984-1.1967773-1.1967773s0.5458984-1.1967773,1.1967773-1.1967773
		S435.7460938,237.6450195,435.7460938,238.2958984z"/>
</g>
<g>
</g>
<g>
</g>
<g>
</g>
<g>
</g>
<g>
</g>
<g>
</g>
<g>
</g>
<g>
</g>
<g>
</g>
<g>
</g>
<g>
</g>
<g>
</g>
<g>
</g>
<g>
</g>
<g>
</g>
</svg>
