<?xml version="1.0" encoding="utf-8"?>
<!-- Generator: Adobe Illustrator 28.0.0, SVG Export Plug-In . SVG Version: 6.00 Build 0)  -->
<svg version="1.1" id="Layer_1" xmlns="http://www.w3.org/2000/svg" xmlns:xlink="http://www.w3.org/1999/xlink" x="0px" y="0px"
	 viewBox="0 0 857 155" style="enable-background:new 0 0 857 155;" xml:space="preserve">
<style type="text/css">
	.st0{fill:none;}
	.st1{fill:#FFFFFF;}
</style>
<g>
	<rect x="3" y="10.4965982" class="st0" width="848" height="137.5034027"/>
	<path class="st1" d="M77.3701172,33.3417969c-0.3359375,0.4799805-0.7680664,2.4960938-1.0078125,3.7446289l-0.2880859,0.0957031
		c-2.4482422-2.6879883-5.6645508-4.2724609-9.1210938-4.2724609c-8.2563477,0-13.296875,5.6166992-13.296875,15.409668
		s5.0405273,15.4091797,13.296875,15.4091797c3.1206055,0,6.0966797-1.1040039,9.7451172-3.984375l0.1918945,0.1918945
		l-0.4321289,2.8325195c-2.3041992,1.6318359-6.3842773,2.7363281-9.9848633,2.7363281
		c-9.9848633,0-17.5214844-6.3369141-17.5214844-16.9458008c0-10.9448242,7.0566406-17.425293,18.0014648-17.425293
		C70.6015625,31.1337891,74.105957,31.8540039,77.3701172,33.3417969z"/>
	<path class="st1" d="M94.2646484,41.7426758c-0.144043,0.3359375-0.3359375,1.1518555-0.3359375,3.2163086v0.671875
		l-0.3364258,0.2402344c-0.527832-0.5283203-1.5361328-0.7680664-2.3520508-0.7680664
		c-3.0722656,0-4.8964844,2.8803711-4.8964844,6.5766602v6.5283203c0,2.8803711,0.0478516,5.0883789,0.1918945,6.6728516
		c-0.7197266-0.144043-1.34375-0.2402344-1.9199219-0.2402344c-0.6240234,0-1.2480469,0.0961914-2.0161133,0.2402344
		c0.144043-1.2963867,0.1918945-2.8803711,0.1918945-5.1367188V49.0390625c0-2.0639648-0.0478516-5.6640625-0.1918945-7.1044922
		c0.9121094,0.1918945,1.4399414,0.2402344,2.0161133,0.2402344s1.2001953-0.0961914,1.9199219-0.2402344L86.34375,44.3349609
		c-0.0478516,0.527832-0.0478516,1.2958984-0.0478516,2.2558594l0.0957031,0.0483398
		c1.8725586-3.456543,4.0805664-5.1845703,6.3847656-5.1845703C93.3525391,41.4545898,93.6884766,41.5507812,94.2646484,41.7426758z
		"/>
	<path class="st1" d="M117.5444336,51.2954102v0.815918l-0.0957031,1.0083008
		c-2.8803711-0.0478516-6.0004883-0.144043-9.4091797-0.144043c-2.3041992,0-4.7041016,0.0961914-7.1523438,0.144043
		c-0.0483398,0.2402344-0.0483398,0.9121094-0.0483398,1.0561523c0,5.9526367,3.456543,9.1689453,8.2568359,9.1689453
		c2.4482422,0,5.3764648-1.3442383,7.2485352-3.4086914l0.2402344,0.144043l-0.2880859,2.3525391
		c-2.4960938,1.9199219-5.5205078,2.9282227-8.0644531,2.9282227c-6.6728516,0-11.6171875-4.7524414-11.6171875-11.3291016
		c0-7.8725586,4.0322266-12.5771484,10.9926758-12.5771484C113.7519531,41.4545898,117.5444336,45.3427734,117.5444336,51.2954102z
		 M107.2236328,51.4394531c1.6801758,0,4.512207-0.144043,6.3847656-0.144043
		c-0.0483398-5.5205078-2.0166016-8.3046875-5.9047852-8.3046875c-3.6962891,0-6.1923828,3.1201172-6.7207031,8.3046875
		C102.8554688,51.2954102,106.4555664,51.4394531,107.2236328,51.4394531z"/>
	<path class="st1" d="M138.5683594,48.6552734c0,3.2641602-0.1918945,7.2485352-0.1918945,10.8969727
		c0,2.4482422,0.1918945,3.7441406,1.8720703,3.7441406c0.3359375,0,0.5756836,0,1.0078125-0.1918945v1.0561523
		c-0.7680664,0.3359375-1.8720703,0.671875-3.0722656,0.671875c-1.7758789,0-3.0722656-1.0561523-3.3120117-2.9760742
		c-2.6884766,2.6879883-4.6083984,3.5043945-7.5366211,3.5043945c-3.3125,0-6.3847656-2.4003906-6.3847656-5.9047852
		s2.2084961-5.6645508,6.0483398-6.4326172c1.8725586-0.3837891,3.9365234-0.5756836,5.7128906-1.1040039
		c1.8720703-0.527832,2.2080078-0.8637695,2.2080078-2.3999023c0-3.840332-1.8242188-6.0488281-5.2802734-6.0488281
		c-2.496582,0-4.8486328,1.1523438-6.0488281,3.2641602h-0.527832v-2.4960938
		c2.4960938-1.8720703,4.65625-2.7841797,7.7285156-2.7841797
		C135.2558594,41.4545898,138.5683594,44.0947266,138.5683594,48.6552734z M129.0634766,63.3447266
		c2.1123047,0,4.3203125-1.2001953,5.6645508-3.3603516l0.1918945-7.2006836
		c-0.4321289,0.144043-1.6801758,0.4321289-3.984375,0.8637695c-4.4165039,0.8164062-6.0483398,2.496582-6.0483398,5.1367188
		C124.887207,61.6162109,126.7592773,63.3447266,129.0634766,63.3447266z"/>
	<path class="st1" d="M150.7114258,35.5019531h0.2397461c-0.1918945,2.496582-0.2397461,4.4165039-0.3837891,7.1049805
		c1.2958984,0,3.6962891-0.144043,5.0883789-0.144043c-0.0483398,0.1918945-0.0483398,1.0556641-0.0483398,1.199707
		c0,0.4321289,0,0.6723633,0.0483398,0.8164062c-1.1040039-0.0483398-2.7841797-0.0961914-3.4082031-0.0961914h-1.6801758
		c-0.144043,1.3442383-0.3359375,9.3608398-0.3359375,12.3369141c0,3.6484375,0.2397461,7.1049805,3.8398438,7.1049805
		c0.7202148,0,1.6323242-0.144043,2.2084961-0.3364258v1.1523438c-1.2001953,0.4321289-2.5444336,0.7202148-3.6962891,0.7202148
		c-3.9365234,0-5.9047852-2.0161133-5.9047852-6.0966797c0-2.1601562,0.2880859-7.7285156,0.3364258-14.8813477
		c-1.6801758,0-2.7363281,0.0478516-3.2646484,0.0961914c0.144043-0.5283203,0.0961914-0.7202148,0.0961914-1.1040039
		c0-0.3364258-0.0478516-0.6240234-0.0961914-0.9604492c1.7285156,0.144043,2.6401367,0.144043,3.168457,0.144043
		l-0.1918945-5.3764648L150.7114258,35.5019531z"/>
	<path class="st1" d="M178.8881836,51.2954102v0.815918l-0.0957031,1.0083008
		c-2.8803711-0.0478516-6.0004883-0.144043-9.4091797-0.144043c-2.3041992,0-4.7041016,0.0961914-7.1523438,0.144043
		c-0.0483398,0.2402344-0.0483398,0.9121094-0.0483398,1.0561523c0,5.9526367,3.456543,9.1689453,8.2568359,9.1689453
		c2.4482422,0,5.3764648-1.3442383,7.2485352-3.4086914l0.2402344,0.144043l-0.2880859,2.3525391
		c-2.4960938,1.9199219-5.5205078,2.9282227-8.0644531,2.9282227c-6.6728516,0-11.6171875-4.7524414-11.6171875-11.3291016
		c0-7.8725586,4.0322266-12.5771484,10.9926758-12.5771484C175.0957031,41.4545898,178.8881836,45.3427734,178.8881836,51.2954102z
		 M168.5673828,51.4394531c1.6801758,0,4.512207-0.144043,6.3847656-0.144043
		c-0.0483398-5.5205078-2.0166016-8.3046875-5.9047852-8.3046875c-3.6962891,0-6.1923828,3.1201172-6.7207031,8.3046875
		C164.1992188,51.2954102,167.7993164,51.4394531,168.5673828,51.4394531z"/>
	<path class="st1" d="M201.3989258,35.5019531h0.2397461c-0.1918945,2.496582-0.2397461,4.4165039-0.3837891,7.1049805
		c1.2958984,0,3.6962891-0.144043,5.0883789-0.144043c-0.0483398,0.1918945-0.0483398,1.0556641-0.0483398,1.199707
		c0,0.4321289,0,0.6723633,0.0483398,0.8164062c-1.1040039-0.0483398-2.7841797-0.0961914-3.4082031-0.0961914h-1.6801758
		c-0.144043,1.3442383-0.3359375,9.3608398-0.3359375,12.3369141c0,3.6484375,0.2397461,7.1049805,3.8398438,7.1049805
		c0.7202148,0,1.6323242-0.144043,2.2084961-0.3364258v1.1523438c-1.2001953,0.4321289-2.5444336,0.7202148-3.6962891,0.7202148
		c-3.9365234,0-5.9047852-2.0161133-5.9047852-6.0966797c0-2.1601562,0.2880859-7.7285156,0.3364258-14.8813477
		c-1.6801758,0-2.7363281,0.0478516-3.2646484,0.0961914c0.144043-0.5283203,0.0961914-0.7202148,0.0961914-1.1040039
		c0-0.3364258-0.0478516-0.6240234-0.0961914-0.9604492c1.7285156,0.144043,2.6401367,0.144043,3.168457,0.144043
		l-0.1918945-5.3764648L201.3989258,35.5019531z"/>
	<path class="st1" d="M212.7744141,28.7817383c0.7197266,0,1.3920898-0.0961914,2.1601562-0.2402344
		c-0.2402344,2.4003906-0.3842773,10.8491211-0.3842773,12.8652344v4.3681641h0.0961914
		c1.7763672-2.7363281,4.1762695-4.3203125,7.6328125-4.3203125c4.800293,0,7.7285156,2.7841797,7.7285156,8.4008789
		c0,2.5439453-0.1918945,5.4243164-0.1918945,9.0727539v2.3999023c0,0.9121094,0.0957031,2.6884766,0.0957031,3.5527344
		c-0.815918-0.144043-1.3920898-0.2402344-2.0161133-0.2402344s-1.2001953,0.0961914-1.9682617,0.2402344
		c0-2.7363281,0.3364258-7.0566406,0.3364258-10.1772461v-3.6962891c0-3.984375-1.7763672-7.0566406-5.2807617-7.0566406
		c-4.0800781,0-6.4326172,2.4003906-6.4326172,8.0170898c0,2.6879883,0.144043,10.6088867,0.3842773,12.9130859
		c-0.815918-0.144043-1.5361328-0.2402344-2.1601562-0.2402344c-0.7202148,0-1.3920898,0.0961914-2.1601562,0.2402344
		c0.3837891-3.7924805,0.3837891-11.1850586,0.3837891-13.1054688V41.6464844c0-1.9677734,0-9.2167969-0.3837891-13.1049805
		C211.3823242,28.6855469,212.0541992,28.7817383,212.7744141,28.7817383z"/>
	<path class="st1" d="M256.2636719,51.2954102v0.815918l-0.0957031,1.0083008
		c-2.8803711-0.0478516-6.0009766-0.144043-9.4091797-0.144043c-2.3041992,0-4.7041016,0.0961914-7.1523438,0.144043
		c-0.0483398,0.2402344-0.0483398,0.9121094-0.0483398,1.0561523c0,5.9526367,3.456543,9.1689453,8.2568359,9.1689453
		c2.4482422,0,5.3764648-1.3442383,7.2485352-3.4086914l0.2402344,0.144043l-0.2880859,2.3525391
		c-2.4960938,1.9199219-5.5205078,2.9282227-8.0644531,2.9282227c-6.6728516,0-11.6171875-4.7524414-11.6171875-11.3291016
		c0-7.8725586,4.0322266-12.5771484,10.9931641-12.5771484C252.4716797,41.4545898,256.2636719,45.3427734,256.2636719,51.2954102z
		 M245.9428711,51.4394531c1.6801758,0,4.512207-0.144043,6.3847656-0.144043
		c-0.0483398-5.5205078-2.0166016-8.3046875-5.9047852-8.3046875c-3.6962891,0-6.1923828,3.1201172-6.7207031,8.3046875
		C241.574707,51.2954102,245.1748047,51.4394531,245.9428711,51.4394531z"/>
	<path class="st1" d="M277.6704102,28.7817383c0.7202148,0,1.3920898-0.0961914,2.1606445-0.2402344
		c-0.2402344,2.0639648-0.3842773,9.8886719-0.3842773,13.1049805v10.1289062c0,3.2646484,0.144043,11.0410156,0.3842773,13.1054688
		c-0.7685547-0.144043-1.4404297-0.2402344-2.1606445-0.2402344c-0.7197266,0-1.3920898,0.0961914-2.1601562,0.2402344
		c0.3842773-3.7924805,0.3842773-11.1850586,0.3842773-13.1054688V41.6464844c0-1.9677734,0-9.2167969-0.3842773-13.1049805
		C276.2783203,28.6855469,276.9506836,28.7817383,277.6704102,28.7817383z"/>
	<path class="st1" d="M293.4624023,33.5820312c0,1.3442383-1.1040039,2.4482422-2.4482422,2.4482422
		c-1.34375,0-2.4477539-1.1040039-2.4477539-2.4482422c0-1.3920898,1.1518555-2.4482422,2.4477539-2.4482422
		C292.3105469,31.1337891,293.4624023,32.1899414,293.4624023,33.5820312z M291.0141602,42.1748047
		c0.7202148,0,1.3442383-0.0483398,2.1606445-0.2402344c-0.2402344,2.1601562-0.3842773,6.4326172-0.3842773,8.4970703v5.9521484
		c0,3.2646484,0.144043,6.0488281,0.3842773,8.4970703c-0.8164062-0.144043-1.5361328-0.2402344-2.1606445-0.2402344
		c-0.7197266,0-1.3920898,0.0961914-2.1601562,0.2402344c0.3842773-3.0244141,0.3842773-6.5288086,0.3842773-8.4487305v-6.480957
		c0-2.8798828-0.144043-5.5205078-0.3842773-8.0166016C289.6704102,42.1264648,290.3901367,42.1748047,291.0141602,42.1748047z"/>
	<path class="st1" d="M311.9907227,28.5415039c-0.0478516,1.4882812-0.1918945,2.4482422-0.1918945,3.840332l-0.2880859,0.144043
		c-0.7680664-0.4799805-1.6323242-0.7202148-2.6401367-0.7202148c-2.4960938,0-3.9365234,1.8720703-3.9365234,4.8007812
		c0,1.1518555,0.3842773,4.3681641,0.5283203,5.2802734l0.0478516,0.3359375c3.0244141,0,4.3203125-0.0478516,4.9443359-0.0478516
		c-0.0478516,0.3359375-0.0961914,0.4799805-0.0961914,0.815918c0,0.3842773,0.0483398,0.7202148,0.0961914,1.1040039
		c-2.0639648-0.0478516-3.6000977-0.144043-4.9443359-0.144043v3.6962891c0,6.5766602,0.0478516,11.809082,0.1918945,17.2338867
		c-0.7197266-0.144043-1.3442383-0.2402344-2.0639648-0.2402344c-0.7202148,0-1.3442383,0.0961914-2.1123047,0.2402344
		c0.4321289-6.9609375,0.4321289-13.4414062,0.4321289-20.9301758c-1.1040039,0-2.1601562,0.0961914-3.456543,0.144043
		c0.144043-0.4321289,0.0961914-0.6240234,0.0961914-0.9599609s-0.0478516-0.5761719-0.0961914-0.9599609l3.456543,0.0478516
		c0.0478516-2.9282227,0.7197266-5.2324219,1.6801758-7.6806641c1.9199219-4.800293,5.3764648-6.1445312,7.3447266-6.1445312
		C311.3666992,28.3974609,311.7509766,28.4936523,311.9907227,28.5415039z"/>
	<path class="st1" d="M333.6391602,51.2954102v0.815918l-0.0957031,1.0083008
		c-2.8803711-0.0478516-6.0004883-0.144043-9.4091797-0.144043c-2.3041992,0-4.7041016,0.0961914-7.1523438,0.144043
		c-0.0483398,0.2402344-0.0483398,0.9121094-0.0483398,1.0561523c0,5.9526367,3.456543,9.1689453,8.2568359,9.1689453
		c2.4482422,0,5.3764648-1.3442383,7.2485352-3.4086914l0.2402344,0.144043l-0.2880859,2.3525391
		c-2.4960938,1.9199219-5.5205078,2.9282227-8.0644531,2.9282227c-6.6728516,0-11.6171875-4.7524414-11.6171875-11.3291016
		c0-7.8725586,4.0322266-12.5771484,10.9926758-12.5771484C329.8466797,41.4545898,333.6391602,45.3427734,333.6391602,51.2954102z
		 M323.3183594,51.4394531c1.6801758,0,4.512207-0.144043,6.3847656-0.144043
		c-0.0483398-5.5205078-2.0166016-8.3046875-5.9047852-8.3046875c-3.6962891,0-6.1923828,3.1201172-6.7207031,8.3046875
		C318.9501953,51.2954102,322.550293,51.4394531,323.3183594,51.4394531z"/>
	<path class="st1" d="M353.8457031,41.9345703c1.9677734,6.1445312,4.4643555,11.8569336,7.1523438,18.4335938
		c2.2563477-4.800293,4.800293-11.0888672,7.152832-18.4335938c0.5756836,0.144043,1.0561523,0.2402344,1.5839844,0.2402344
		s0.9599609-0.0483398,1.5839844-0.2402344c-2.7358398,5.8085938-5.7602539,12.480957-9.2167969,20.3056641
		c-3.4560547,7.7290039-5.472168,12.8173828-6.2402344,15.265625c-0.6240234-0.144043-1.2001953-0.2402344-1.6323242-0.2402344
		c-0.527832,0-1.0561523,0.0961914-1.6318359,0.2402344c2.5439453-4.2246094,4.65625-8.3530273,6.4321289-12.5771484
		c-1.1040039-3.0244141-6.9125977-16.609375-9.6005859-22.9941406c0.815918,0.1918945,1.4882812,0.2402344,2.2080078,0.2402344
		C352.3574219,42.1748047,353.0776367,42.0786133,353.8457031,41.9345703z"/>
	<path class="st1" d="M396.5200195,53.4077148c0,7.9204102-5.2324219,11.953125-11.6171875,11.953125
		c-6.7207031,0-11.7128906-4.3203125-11.7128906-11.6650391c0-9.7929688,6.7685547-12.2412109,11.6171875-12.2412109
		C391.5273438,41.4545898,396.5200195,45.7270508,396.5200195,53.4077148z M384.8549805,63.824707
		c4.8481445,0,7.4404297-3.6962891,7.4404297-10.4169922c0-6.6728516-2.4960938-10.4169922-7.4882812-10.4169922
		c-4.8007812,0-7.3930664,3.6484375-7.3930664,10.4169922C377.4140625,60.128418,380.0546875,63.824707,384.8549805,63.824707z"/>
	<path class="st1" d="M401.8935547,41.9345703c0.815918,0.144043,1.4882812,0.2402344,2.0161133,0.2402344
		c0.5761719,0,1.2001953-0.0961914,1.9682617-0.2402344c-0.3359375,4.0322266-0.4799805,8.9287109-0.4799805,13.3452148
		c0,1.2001953,0,4.1762695,1.3920898,5.6645508c0.9121094,1.1040039,2.3520508,1.9199219,4.2241211,1.9199219
		c2.640625,0,4.1767578-1.1518555,5.0888672-2.6401367c1.1518555-1.9199219,1.2480469-3.3603516,1.2480469-8.5444336
		c0-4.8486328-0.0483398-8.7368164-0.0961914-9.7451172c0.815918,0.1918945,1.3920898,0.2402344,2.0161133,0.2402344
		c0.7202148,0,1.2480469-0.0483398,1.9682617-0.2402344c-0.1918945,3.0722656-0.3359375,7.824707-0.3359375,14.4013672
		c0,3.6962891,0.0478516,6.2885742,0.1918945,8.5449219c-0.7202148-0.144043-1.3442383-0.2402344-1.8720703-0.2402344
		c-0.5283203,0-1.1523438,0.0961914-1.8720703,0.2402344c0.0478516-0.6240234,0.0957031-1.6801758,0.0957031-2.4003906v-1.7280273
		h-0.0957031c-1.6801758,3.0722656-4.4165039,4.6083984-7.4887695,4.6083984c-4.9926758,0-8.0166016-2.6884766-8.0166016-8.0649414
		c0-1.9682617,0.144043-6.3842773,0.144043-7.9204102C401.9897461,46.8789062,401.9414062,44.4306641,401.8935547,41.9345703z"/>
	<path class="st1" d="M444.9018555,28.7817383c0.7202148,0,1.3920898-0.0961914,2.1606445-0.2402344
		c-0.2402344,2.0639648-0.3842773,9.8886719-0.3842773,13.1049805v10.1289062c0,3.2646484,0.144043,11.0410156,0.3842773,13.1054688
		c-0.7685547-0.144043-1.4404297-0.2402344-2.1606445-0.2402344c-0.7197266,0-1.3920898,0.0961914-2.1601562,0.2402344
		c0.3842773-3.7924805,0.3842773-11.1850586,0.3842773-13.1054688V41.6464844c0-1.9677734,0-9.2167969-0.3842773-13.1049805
		C443.5097656,28.6855469,444.1821289,28.7817383,444.9018555,28.7817383z"/>
	<path class="st1" d="M476.5834961,53.4077148c0,7.9204102-5.2324219,11.953125-11.6171875,11.953125
		c-6.7207031,0-11.7128906-4.3203125-11.7128906-11.6650391c0-9.7929688,6.7685547-12.2412109,11.6171875-12.2412109
		C471.5908203,41.4545898,476.5834961,45.7270508,476.5834961,53.4077148z M464.918457,63.824707
		c4.8481445,0,7.4404297-3.6962891,7.4404297-10.4169922c0-6.6728516-2.4960938-10.4169922-7.4882812-10.4169922
		c-4.8007812,0-7.3930664,3.6484375-7.3930664,10.4169922C457.4775391,60.128418,460.1181641,63.824707,464.918457,63.824707z"/>
	<path class="st1" d="M481.09375,42.1748047c0.7202148,0,1.3442383-0.0961914,2.1123047-0.2402344
		c1.9682617,6.2885742,4.2724609,12.3369141,7.1523438,18.7216797c1.6801758-3.5043945,2.8325195-6.3847656,7.3447266-18.7216797
		c0.4799805,0.144043,0.9604492,0.2402344,1.4882812,0.2402344c0.5761719,0,0.9599609-0.0961914,1.4882812-0.2402344
		l-4.9926758,11.28125c-1.7280273,3.984375-3.2641602,7.824707-4.65625,11.6650391
		c-0.4799805-0.144043-0.9599609-0.2402344-1.4882812-0.2402344c-0.5761719,0-0.815918,0.0478516-1.5361328,0.2402344
		c-3.0722656-7.8730469-5.8085938-15.2177734-9.3125-22.9462891
		C479.7016602,42.1264648,480.3740234,42.1748047,481.09375,42.1748047z"/>
	<path class="st1" d="M523.7192383,51.2954102v0.815918l-0.0957031,1.0083008
		c-2.8803711-0.0478516-6.0004883-0.144043-9.4091797-0.144043c-2.3041992,0-4.7041016,0.0961914-7.1523438,0.144043
		c-0.0483398,0.2402344-0.0483398,0.9121094-0.0483398,1.0561523c0,5.9526367,3.456543,9.1689453,8.2568359,9.1689453
		c2.4482422,0,5.3764648-1.3442383,7.2485352-3.4086914l0.2402344,0.144043l-0.2880859,2.3525391
		c-2.4960938,1.9199219-5.5205078,2.9282227-8.0644531,2.9282227c-6.6728516,0-11.6171875-4.7524414-11.6171875-11.3291016
		c0-7.8725586,4.0322266-12.5771484,10.9926758-12.5771484C519.9267578,41.4545898,523.7192383,45.3427734,523.7192383,51.2954102z
		 M513.3984375,51.4394531c1.6801758,0,4.512207-0.144043,6.3847656-0.144043
		c-0.0483398-5.5205078-2.0166016-8.3046875-5.9047852-8.3046875c-3.6962891,0-6.1923828,3.1201172-6.7207031,8.3046875
		C509.0302734,51.2954102,512.6303711,51.4394531,513.3984375,51.4394531z"/>
	<path class="st1" d="M541.5742188,42.1748047c0.7202148,0,1.4404297-0.0961914,2.2084961-0.2402344
		c1.6801758,6.1445312,3.6000977,11.8569336,6.1445312,18.3857422c1.8242188-4.5126953,5.184082-14.1611328,6.3364258-18.3857422
		c0.5761719,0.144043,1.0561523,0.2402344,1.4399414,0.2402344c0.3842773,0,0.6240234-0.0483398,1.3442383-0.2402344
		c1.5839844,6.1445312,3.7441406,11.809082,6.0966797,18.3857422c1.9199219-4.8486328,4.8964844-12.9130859,6.8164062-18.3857422
		c0.6240234,0.1918945,1.1040039,0.2402344,1.5361328,0.2402344c0.5283203,0,0.9121094-0.0961914,1.4404297-0.2402344
		c-3.6484375,7.9208984-6.8168945,15.265625-9.5532227,22.9462891c-0.3837891-0.144043-0.815918-0.2402344-1.2480469-0.2402344
		c-0.3837891,0-0.671875,0.0961914-1.2480469,0.2402344c-1.6801758-5.9526367-3.6000977-11.4731445-6.1445312-17.8095703
		c-1.6323242,3.8881836-4.65625,12.1450195-6.3364258,17.8095703c-0.4321289-0.144043-0.9121094-0.2402344-1.3442383-0.2402344
		s-0.9121094,0.0961914-1.3442383,0.2402344c-1.9199219-6.2885742-6.2402344-17.8579102-8.4003906-22.9462891
		C540.2783203,42.1264648,540.8544922,42.1748047,541.5742188,42.1748047z"/>
	<path class="st1" d="M594.5673828,48.6552734c0,3.2641602-0.1914062,7.2485352-0.1914062,10.8969727
		c0,2.4482422,0.1914062,3.7441406,1.8720703,3.7441406c0.3359375,0,0.5761719,0,1.0078125-0.1918945v1.0561523
		c-0.7675781,0.3359375-1.8720703,0.671875-3.0722656,0.671875c-1.7763672,0-3.0722656-1.0561523-3.3125-2.9760742
		c-2.6875,2.6879883-4.6083984,3.5043945-7.5361328,3.5043945c-3.3125,0-6.3847656-2.4003906-6.3847656-5.9047852
		s2.2080078-5.6645508,6.0488281-6.4326172c1.8720703-0.3837891,3.9365234-0.5756836,5.7119141-1.1040039
		c1.8720703-0.527832,2.2089844-0.8637695,2.2089844-2.3999023c0-3.840332-1.8242188-6.0488281-5.28125-6.0488281
		c-2.4960938,0-4.8476562,1.1523438-6.0478516,3.2641602H579.0625v-2.4960938
		c2.4960938-1.8720703,4.65625-2.7841797,7.7285156-2.7841797
		C591.2558594,41.4545898,594.5673828,44.0947266,594.5673828,48.6552734z M585.0625,63.3447266
		c2.1123047,0,4.3212891-1.2001953,5.6650391-3.3603516l0.1923828-7.2006836
		c-0.4326172,0.144043-1.6806641,0.4321289-3.984375,0.8637695c-4.4169922,0.8164062-6.0488281,2.496582-6.0488281,5.1367188
		C580.8867188,61.6162109,582.7587891,63.3447266,585.0625,63.3447266z"/>
	<path class="st1" d="M604.7421875,28.7817383c0.7197266,0,1.3916016-0.0961914,2.1601562-0.2402344
		c-0.2402344,2.1123047-0.3837891,10.4169922-0.3837891,13.1049805v9.5527344c0,0.4321289,0.1914062,0.8164062,0.5761719,0.8164062
		c0.671875,0,2.3037109-1.2963867,4.8476562-3.8886719c2.640625-2.6879883,4.5605469-4.65625,5.8564453-6.1923828
		c0.6240234,0.144043,1.2480469,0.2402344,1.8242188,0.2402344c0.6240234,0,1.0566406-0.0483398,2.4003906-0.2402344
		c-4.2724609,3.5043945-7.9208984,6.5766602-11.0410156,9.6489258c3.3125,4.0805664,6.7207031,7.9208984,11.5693359,13.2973633
		c-1.1523438-0.144043-1.96875-0.2402344-2.7363281-0.2402344c-0.8164062,0-1.5361328,0.0961914-2.4482422,0.2402344
		c-4.3681641-5.6645508-9.6005859-11.3769531-9.8886719-11.6650391c-0.1445312-0.144043-0.3359375-0.2402344-0.4804688-0.2402344
		c-0.3359375,0-0.4794922,0.1918945-0.4794922,0.5283203c0,4.8481445,0,7.2485352,0.3837891,11.3769531
		c-0.8164062-0.144043-1.5361328-0.2402344-2.1601562-0.2402344c-0.7197266,0-1.3925781,0.0961914-2.1601562,0.2402344
		c0.3837891-3.7924805,0.3837891-11.1850586,0.3837891-13.1054688V41.6464844c0-1.9677734,0-9.2167969-0.3837891-13.1049805
		C603.3496094,28.6855469,604.0224609,28.7817383,604.7421875,28.7817383z"/>
	<path class="st1" d="M632.0546875,33.5820312c0,1.3442383-1.1044922,2.4482422-2.4482422,2.4482422
		c-1.3447266,0-2.4482422-1.1040039-2.4482422-2.4482422c0-1.3920898,1.1523438-2.4482422,2.4482422-2.4482422
		S632.0546875,32.1899414,632.0546875,33.5820312z M629.6064453,42.1748047c0.7197266,0,1.34375-0.0483398,2.1601562-0.2402344
		c-0.2402344,2.1601562-0.3837891,6.4326172-0.3837891,8.4970703v5.9521484c0,3.2646484,0.1435547,6.0488281,0.3837891,8.4970703
		c-0.8164062-0.144043-1.5361328-0.2402344-2.1601562-0.2402344c-0.7207031,0-1.3925781,0.0961914-2.1601562,0.2402344
		c0.3837891-3.0244141,0.3837891-6.5288086,0.3837891-8.4487305v-6.480957c0-2.8798828-0.1445312-5.5205078-0.3837891-8.0166016
		C628.2617188,42.1264648,628.9824219,42.1748047,629.6064453,42.1748047z"/>
	<path class="st1" d="M659.3193359,49.9511719c0,2.5444336-0.1923828,5.3286133-0.1923828,8.9770508
		c0,4.2241211,0.0966797,5.0883789,0.0966797,5.9526367c-0.8164062-0.1923828-1.3925781-0.2402344-2.0166016-0.2402344
		s-1.2001953,0.0478516-1.9677734,0.2402344c0-2.7363281,0.3359375-7.0566406,0.3359375-10.1772461v-3.6962891
		c0-3.984375-1.7763672-7.0566406-5.2802734-7.0566406c-4.2246094,0-6.4326172,2.6884766-6.4326172,7.6806641v5.7607422
		c0,2.0639648,0.1435547,5.3286133,0.3837891,7.4887695c-0.7685547-0.144043-1.4404297-0.2402344-2.1601562-0.2402344
		s-1.3925781,0.0961914-2.1601562,0.2402344c0.3837891-3.0244141,0.3837891-6.5288086,0.3837891-8.4487305v-6.480957
		c0-2.8798828-0.1435547-5.5205078-0.3837891-8.0166016c0.8164062,0.1918945,1.5361328,0.2402344,2.1601562,0.2402344
		c0.4794922,0,1.1035156-0.0961914,1.9199219-0.2402344c-0.0478516,0.8164062-0.1435547,2.6884766-0.1435547,3.840332h0.0957031
		c1.7763672-2.7363281,4.1767578-4.3203125,7.6328125-4.3203125
		C656.390625,41.4545898,659.3193359,44.190918,659.3193359,49.9511719z"/>
	<path class="st1" d="M681.9267578,41.8388672c1.4882812,0,3.0244141-0.0961914,3.7441406-0.2402344
		c-0.0478516,0.3359375-0.0957031,0.7680664-0.0957031,1.0083008c0,0.3359375,0.0478516,0.671875,0.0957031,1.0078125
		c-1.9677734-0.144043-3.6005859-0.3359375-5.328125-0.3837891l-0.0966797,0.0957031
		c2.0644531,1.1523438,3.3125,3.7446289,3.3125,6.0966797c0,4.800293-3.5039062,7.6328125-8.9287109,7.6328125
		c-0.8164062,0-1.7763672-0.0961914-2.5917969-0.0961914c-1.2001953,0-2.4003906,0.9599609-2.4003906,2.2563477
		c0,1.9682617,1.1513672,2.3999023,2.8320312,2.3999023c0.2402344,0,4.65625,0.144043,5.2802734,0.144043
		c4.2724609,0.144043,8.2089844,1.6323242,8.2089844,6.2407227c0,4.4165039-3.5527344,9.6489258-11.28125,9.6489258
		c-6.2880859,0-10.1289062-2.6401367-10.1289062-6.9125977c0-3.0722656,2.0166016-5.3286133,5.1367188-6.3369141v-0.0957031
		c-1.96875-0.5761719-3.0244141-1.9682617-3.0244141-3.840332s1.4404297-3.5522461,3.4082031-3.984375v-0.0961914
		c-2.9277344-1.2958984-4.7041016-3.6000977-4.7041016-7.1044922c0-4.800293,3.4560547-7.824707,9.2167969-7.824707
		C675.4941406,41.4545898,681.1582031,41.8388672,681.9267578,41.8388672z M674.6777344,76.2578125
		c4.4648438,0,7.7285156-2.4482422,7.7285156-6.2885742c0-3.6484375-1.9677734-5.3286133-7.2958984-5.3286133
		c-5.1845703,0-7.4892578,1.8720703-7.4892578,5.5683594C667.6210938,74.2412109,670.2138672,76.2578125,674.6777344,76.2578125z
		 M674.5341797,55.8076172c3.4082031,0,5.2802734-2.7358398,5.2802734-6.7685547
		c0-3.840332-2.0166016-6.1923828-5.2802734-6.1923828c-3.2646484,0-5.4248047,2.4003906-5.4248047,6.4326172
		C669.109375,53.5039062,671.0771484,55.8076172,674.5341797,55.8076172z"/>
	<path class="st1" d="M704.0048828,41.9345703c0.8164062,0.144043,1.4882812,0.2402344,2.0166016,0.2402344
		c0.5751953,0,1.1992188-0.0961914,1.9677734-0.2402344c-0.3359375,4.0322266-0.4804688,8.9287109-0.4804688,13.3452148
		c0,1.2001953,0,4.1762695,1.3925781,5.6645508c0.9121094,1.1040039,2.3525391,1.9199219,4.2246094,1.9199219
		c2.6396484,0,4.1757812-1.1518555,5.0878906-2.6401367c1.1523438-1.9199219,1.2480469-3.3603516,1.2480469-8.5444336
		c0-4.8486328-0.0478516-8.7368164-0.0957031-9.7451172c0.8164062,0.1918945,1.3925781,0.2402344,2.0166016,0.2402344
		c0.7197266,0,1.2480469-0.0483398,1.9677734-0.2402344c-0.1923828,3.0722656-0.3359375,7.824707-0.3359375,14.4013672
		c0,3.6962891,0.0478516,6.2885742,0.1923828,8.5449219c-0.7207031-0.144043-1.3447266-0.2402344-1.8730469-0.2402344
		c-0.5273438,0-1.1513672,0.0961914-1.8720703,0.2402344c0.0478516-0.6240234,0.0966797-1.6801758,0.0966797-2.4003906v-1.7280273
		h-0.0966797c-1.6796875,3.0722656-4.4160156,4.6083984-7.4882812,4.6083984c-4.9921875,0-8.0166016-2.6884766-8.0166016-8.0649414
		c0-1.9682617,0.1435547-6.3842773,0.1435547-7.9204102C704.1005859,46.8789062,704.0527344,44.4306641,704.0048828,41.9345703z"/>
	<path class="st1" d="M751.6699219,53.2636719c0,7.8725586-5.1357422,12.097168-10.3681641,12.097168
		c-3.4570312,0-5.953125-1.5844727-7.5371094-4.7045898h-0.0957031v3.7924805
		c0,2.2080078,0.1435547,10.8486328,0.3837891,13.0571289c-0.8164062-0.144043-1.5361328-0.2402344-2.1601562-0.2402344
		c-0.7197266,0-1.3925781,0.0961914-2.1601562,0.2402344c0.3837891-3.840332,0.3837891-11.28125,0.3837891-13.0571289v-9.2651367
		c0-1.8237305,0-9.1206055-0.3837891-13.2490234c0.8164062,0.1918945,1.5361328,0.2402344,2.1601562,0.2402344
		c0.7197266,0,1.34375-0.0483398,2.1601562-0.2402344c-0.2402344,1.7763672-0.3837891,3.2163086-0.3837891,4.7045898h0.0957031
		c1.5839844-3.3125,4.4160156-5.1845703,8.1123047-5.1845703C747.0615234,41.4545898,751.6699219,45.3427734,751.6699219,53.2636719
		z M740.6777344,63.5844727c4.2714844,0,6.7685547-3.984375,6.7685547-10.3686523
		c0-6.3847656-2.4482422-9.7451172-6.6728516-9.7451172c-4.4169922,0-7.1044922,3.456543-7.1044922,10.1767578
		C733.6689453,60.1762695,736.0693359,63.5844727,740.6777344,63.5844727z"/>
	<path class="st1" d="M774.8037109,35.5019531h0.2402344c-0.1923828,2.496582-0.2402344,4.4165039-0.3837891,7.1049805
		c1.2958984,0,3.6962891-0.144043,5.0878906-0.144043c-0.0478516,0.1918945-0.0478516,1.0556641-0.0478516,1.199707
		c0,0.4321289,0,0.6723633,0.0478516,0.8164062c-1.1035156-0.0483398-2.7841797-0.0961914-3.4082031-0.0961914h-1.6796875
		c-0.1445312,1.3442383-0.3359375,9.3608398-0.3359375,12.3369141c0,3.6484375,0.2402344,7.1049805,3.8398438,7.1049805
		c0.7207031,0,1.6328125-0.144043,2.2080078-0.3364258v1.1523438c-1.1992188,0.4321289-2.5439453,0.7202148-3.6962891,0.7202148
		c-3.9355469,0-5.9042969-2.0161133-5.9042969-6.0966797c0-2.1601562,0.2880859-7.7285156,0.3359375-14.8813477
		c-1.6796875,0-2.7363281,0.0478516-3.2636719,0.0961914c0.1435547-0.5283203,0.0957031-0.7202148,0.0957031-1.1040039
		c0-0.3364258-0.0478516-0.6240234-0.0957031-0.9604492c1.7275391,0.144043,2.6396484,0.144043,3.1679688,0.144043
		l-0.1923828-5.3764648L774.8037109,35.5019531z"/>
	<path class="st1" d="M805.3808594,53.4077148c0,7.9204102-5.2324219,11.953125-11.6162109,11.953125
		c-6.7207031,0-11.7138672-4.3203125-11.7138672-11.6650391c0-9.7929688,6.7695312-12.2412109,11.6171875-12.2412109
		C800.3886719,41.4545898,805.3808594,45.7270508,805.3808594,53.4077148z M793.7158203,63.824707
		c4.8486328,0,7.4414062-3.6962891,7.4414062-10.4169922c0-6.6728516-2.4960938-10.4169922-7.4892578-10.4169922
		c-4.7998047,0-7.3925781,3.6484375-7.3925781,10.4169922C786.2753906,60.128418,788.9160156,63.824707,793.7158203,63.824707z"/>
	<path class="st1" d="M119.4228516,98.3632812c1.0917969,0,2.1416016-0.1049805,3.1704102-0.1049805
		c4.703125,0,6.949707,2.3095703,6.949707,6.949707c0,4.9550781-3.5483398,7.5375977-7.6635742,7.5375977
		c-0.902832,0-1.8266602-0.1049805-2.8134766-0.1049805c-0.8608398,0-1.784668,0.0209961-2.7924805,0.1049805
		c0.0839844-1.8476562,0.1679688-3.7163086,0.1679688-5.1650391v-4.1572266c0-1.4487305-0.0839844-3.3173828-0.1679688-5.1650391
		C117.3862305,98.3212891,118.4360352,98.3632812,119.4228516,98.3632812z M118.1630859,103.4023438v4.1992188
		c0,0.9238281,0.0209961,2.5615234,0.1259766,4.1572266c0.4829102,0.1049805,1.784668,0.2099609,2.7294922,0.2099609
		c4.3041992,0,6.4667969-2.246582,6.4667969-6.7607422c0-4.3251953-1.7426758-6.0678711-6.046875-6.0678711
		c-1.0288086,0-2.0786133,0.0629883-3.1494141,0.2099609C118.184082,100.7358398,118.1630859,102.3945312,118.1630859,103.4023438z"
		/>
	<path class="st1" d="M134.7109375,99.0561523c0,0.5878906-0.4829102,1.0708008-1.0708008,1.0708008
		s-1.0708008-0.4829102-1.0708008-1.0708008c0-0.6088867,0.5039062-1.0708008,1.0708008-1.0708008
		S134.7109375,98.4472656,134.7109375,99.0561523z M133.6401367,102.8144531c0.3149414,0,0.5878906-0.0209961,0.9448242-0.1049805
		c-0.1049805,0.9448242-0.1679688,2.8134766-0.1679688,3.7163086v2.6035156c0,1.4277344,0.0629883,2.6455078,0.1679688,3.7163086
		c-0.3569336-0.0629883-0.671875-0.1049805-0.9448242-0.1049805c-0.3149414,0-0.6088867,0.0419922-0.9448242,0.1049805
		c0.1679688-1.3227539,0.1679688-2.8554688,0.1679688-3.6953125v-2.8344727c0-1.2597656-0.0629883-2.4145508-0.1679688-3.5063477
		C133.0522461,102.793457,133.3671875,102.8144531,133.6401367,102.8144531z"/>
	<path class="st1" d="M139.9609375,99.8959961h0.1049805c-0.0839844,1.0917969-0.1049805,1.9316406-0.1679688,3.1074219
		c0.5668945,0,1.6166992-0.0629883,2.2255859-0.0629883c-0.0209961,0.0839844-0.0209961,0.4619141-0.0209961,0.5249023
		c0,0.1889648,0,0.2939453,0.0209961,0.3569336c-0.4829102-0.0209961-1.2177734-0.0419922-1.4907227-0.0419922h-0.7348633
		c-0.0629883,0.5878906-0.1469727,4.0942383-0.1469727,5.3959961c0,1.5957031,0.1049805,3.1074219,1.6796875,3.1074219
		c0.3149414,0,0.7138672-0.0629883,0.9658203-0.1469727v0.5039062c-0.5249023,0.1889648-1.112793,0.3149414-1.6166992,0.3149414
		c-1.7216797,0-2.5825195-0.8818359-2.5825195-2.6665039c0-0.9448242,0.1259766-3.3803711,0.1469727-6.5087891
		c-0.7348633,0-1.1967773,0.0209961-1.4277344,0.0419922c0.0629883-0.230957,0.0419922-0.3149414,0.0419922-0.4829102
		c0-0.1469727-0.0209961-0.2729492-0.0419922-0.4199219c0.7558594,0.0629883,1.1547852,0.0629883,1.3857422,0.0629883
		l-0.0839844-2.3515625L139.9609375,99.8959961z"/>
	<path class="st1" d="M152.0136719,103.4233398c-0.1889648,0.4829102-0.3569336,0.8818359-0.4619141,1.3857422h-0.1679688
		c-0.6088867-1.0288086-1.6166992-1.6376953-2.7084961-1.6376953c-2.2885742,0-3.5483398,1.6586914-3.5483398,4.5351562
		c0,2.9394531,1.2807617,4.3671875,3.6323242,4.3671875c0.9868164,0,2.3305664-0.5458984,3.1494141-1.4907227l0.1049805,0.0629883
		c-0.0629883,0.3359375-0.1049805,0.6088867-0.1259766,1.0288086c-1.0708008,0.8188477-2.3725586,1.2807617-3.4853516,1.2807617
		c-2.9814453,0-5.1230469-1.9526367-5.1230469-5.2280273c0-3.4433594,2.456543-5.2280273,5.3540039-5.2280273
		C150.0400391,102.4995117,151.4467773,102.9194336,152.0136719,103.4233398z"/>
	<path class="st1" d="M155.0600586,96.956543c0.3149414,0,0.6088867-0.0419922,0.9448242-0.1049805
		c-0.1049805,1.0498047-0.1679688,4.7451172-0.1679688,5.6269531v1.9106445h0.0419922
		c0.7768555-1.1967773,1.8266602-1.8896484,3.3383789-1.8896484c2.0996094,0,3.3803711,1.2177734,3.3803711,3.6743164
		c0,1.112793-0.0839844,2.3725586-0.0839844,3.9682617v1.0498047c0,0.3989258,0.0419922,1.1757812,0.0419922,1.5537109
		c-0.3569336-0.0629883-0.6088867-0.1049805-0.8818359-0.1049805s-0.5249023,0.0419922-0.8608398,0.1049805
		c0-1.1967773,0.1469727-3.0864258,0.1469727-4.4511719v-1.6166992c0-1.7426758-0.7768555-3.0864258-2.3095703-3.0864258
		c-1.784668,0-2.8134766,1.0498047-2.8134766,3.5063477c0,1.1757812,0.0629883,4.6401367,0.1679688,5.6479492
		c-0.3569336-0.0629883-0.671875-0.1049805-0.9448242-0.1049805c-0.3149414,0-0.6088867,0.0419922-0.9448242,0.1049805
		c0.1679688-1.6586914,0.1679688-4.8920898,0.1679688-5.7319336v-4.4301758c0-0.8608398,0-4.03125-0.1679688-5.7319336
		C154.4511719,96.9145508,154.7451172,96.956543,155.0600586,96.956543z"/>
	<path class="st1" d="M176.2900391,96.8515625c-0.0209961,0.6508789-0.0839844,1.0708008-0.0839844,1.6796875l-0.1259766,0.0629883
		c-0.3359375-0.2099609-0.7138672-0.3149414-1.1547852-0.3149414c-1.0917969,0-1.7216797,0.8188477-1.7216797,2.0996094
		c0,0.5039062,0.1679688,1.9106445,0.230957,2.3095703l0.0209961,0.1469727c1.3227539,0,1.8896484-0.0209961,2.1625977-0.0209961
		c-0.0209961,0.1469727-0.0419922,0.2099609-0.0419922,0.3569336c0,0.1679688,0.0209961,0.3149414,0.0419922,0.4829102
		c-0.902832-0.0209961-1.574707-0.0629883-2.1625977-0.0629883v1.6166992c0,2.8764648,0.0209961,5.1650391,0.0839844,7.5375977
		c-0.3149414-0.0629883-0.5878906-0.1049805-0.902832-0.1049805s-0.5878906,0.0419922-0.9238281,0.1049805
		c0.1889648-3.0444336,0.1889648-5.8789062,0.1889648-9.1542969c-0.4829102,0-0.9448242,0.0419922-1.5117188,0.0629883
		c0.0629883-0.1889648,0.0419922-0.2729492,0.0419922-0.4199219s-0.0209961-0.2519531-0.0419922-0.4199219l1.5117188,0.0209961
		c0.0209961-1.2807617,0.3149414-2.2885742,0.7348633-3.359375c0.8398438-2.0996094,2.3515625-2.6875,3.2124023-2.6875
		C176.0170898,96.7885742,176.1850586,96.8305664,176.2900391,96.8515625z"/>
	<path class="st1" d="M184.4584961,105.6489258c0,1.4277344-0.0839844,3.1704102-0.0839844,4.7661133
		c0,1.0708008,0.0839844,1.6376953,0.8188477,1.6376953c0.1469727,0,0.2519531,0,0.440918-0.0839844v0.4619141
		c-0.3359375,0.1469727-0.8188477,0.2939453-1.34375,0.2939453c-0.7768555,0-1.34375-0.4619141-1.4487305-1.3017578
		c-1.1757812,1.1757812-2.015625,1.5327148-3.2963867,1.5327148c-1.4487305,0-2.7924805-1.0498047-2.7924805-2.5825195
		s0.9658203-2.4775391,2.6455078-2.8134766c0.8188477-0.1679688,1.7216797-0.2519531,2.4985352-0.4829102
		c0.8188477-0.230957,0.9658203-0.3779297,0.9658203-1.0498047c0-1.6796875-0.7978516-2.6455078-2.3095703-2.6455078
		c-1.0917969,0-2.1206055,0.5039062-2.6455078,1.4277344h-0.230957v-1.0917969
		c1.0917969-0.8188477,2.0366211-1.2177734,3.3803711-1.2177734
		C183.0097656,102.4995117,184.4584961,103.6542969,184.4584961,105.6489258z M180.3012695,112.0737305
		c0.9238281,0,1.8896484-0.5249023,2.4775391-1.4697266l0.0839844-3.1494141
		c-0.1889648,0.0629883-0.7348633,0.1889648-1.7426758,0.3779297c-1.9316406,0.3569336-2.6455078,1.0917969-2.6455078,2.246582
		C178.4746094,111.3178711,179.293457,112.0737305,180.3012695,112.0737305z"/>
	<path class="st1" d="M195.9033203,96.956543c0.2729492,0,0.5878906-0.0419922,0.9448242-0.1049805
		c-0.1679688,2.1206055-0.2519531,6.9916992-0.2519531,10.8129883c0,1.6586914,0.0419922,3.0654297,0.0629883,5.0810547
		c-0.3359375-0.0629883-0.5668945-0.1049805-0.8188477-0.1049805s-0.5249023,0.0419922-0.7978516,0.1049805l0.0629883-2.0576172
		h-0.0419922c-0.671875,1.4277344-1.9526367,2.2675781-3.5483398,2.2675781c-2.2675781,0-4.262207-1.7006836-4.262207-5.1650391
		c0-3.4223633,2.2045898-5.2910156,4.472168-5.2910156c1.574707,0,2.6665039,0.6928711,3.2753906,2.0996094h0.0419922v-2.5615234
		c0-0.7768555-0.0209961-3.3383789-0.0839844-5.1860352C195.1894531,96.9145508,195.5883789,96.956543,195.9033203,96.956543z
		 M191.9980469,112.1787109c1.9736328,0,3.128418-2.015625,3.128418-4.6821289c0-2.6875-1.0708008-4.1152344-3.0654297-4.1152344
		c-1.8476562,0-2.9604492,1.6796875-2.9604492,4.5351562C189.1005859,110.7509766,190.2133789,112.1787109,191.9980469,112.1787109z
		"/>
	<path class="st1" d="M204.8076172,103.0874023c-0.2729492,0.5039062-0.4829102,1.2597656-0.5039062,1.4907227h-0.2519531
		c-0.2729492-0.8188477-1.0078125-1.3017578-1.8476562-1.3017578c-0.9868164,0-1.784668,0.6928711-1.784668,1.7636719
		c0,0.9238281,0.5668945,1.4487305,1.7636719,1.784668c1.7636719,0.5039062,3.1914062,0.8608398,3.1914062,2.7924805
		c0,1.7006836-1.5117188,3.3383789-3.800293,3.3383789c-1.1757812,0-1.9316406-0.2729492-2.6875-0.6928711
		c0.230957-0.5039062,0.3989258-1.1967773,0.3989258-1.5327148h0.2519531
		c0.440918,0.8188477,1.3857422,1.4487305,2.3725586,1.4487305c1.1757812,0,2.0366211-0.7138672,2.0366211-1.8896484
		c0-0.902832-0.6088867-1.4067383-1.8686523-1.7636719c-1.8476562-0.5039062-3.0864258-1.0078125-3.0864258-2.8554688
		c0-1.9316406,1.3857422-3.1704102,3.4853516-3.1704102C203.5478516,102.4995117,204.534668,103.0244141,204.8076172,103.0874023z"
		/>
	<path class="st1" d="M210.1630859,110.9819336c0,0.3359375-0.1679688,0.6298828-0.3989258,1.0288086l-2.5405273,4.3041992
		l-0.3779297-0.1469727l1.5327148-4.8081055c0.1679688-0.440918,0.230957-1.0917969,1.0288086-1.0917969
		C209.8061523,110.2680664,210.1630859,110.5410156,210.1630859,110.9819336z"/>
	<path class="st1" d="M227.7807617,106.8037109v0.3569336l-0.0419922,0.440918
		c-1.2597656-0.0209961-2.6245117-0.0629883-4.1152344-0.0629883c-1.0078125,0-2.0576172,0.0419922-3.128418,0.0629883
		c-0.0209961,0.1049805-0.0209961,0.3989258-0.0209961,0.4619141c0,2.6035156,1.5117188,4.0102539,3.6113281,4.0102539
		c1.0708008,0,2.3515625-0.5878906,3.1704102-1.4907227l0.1049805,0.0629883l-0.1259766,1.0288086
		c-1.0917969,0.8398438-2.4145508,1.2807617-3.5273438,1.2807617c-2.918457,0-5.0810547-2.0786133-5.0810547-4.9550781
		c0-3.4433594,1.7636719-5.5009766,4.8081055-5.5009766C226.1220703,102.4995117,227.7807617,104.2001953,227.7807617,106.8037109z
		 M223.2666016,106.8666992c0.7348633,0,1.9736328-0.0629883,2.7924805-0.0629883
		c-0.0209961-2.4145508-0.8818359-3.6323242-2.5825195-3.6323242c-1.6166992,0-2.7084961,1.3647461-2.9394531,3.6323242
		C221.355957,106.8037109,222.9306641,106.8666992,223.2666016,106.8666992z"/>
	<path class="st1" d="M237.7978516,104.578125h0.0419922c0.6928711-1.3647461,1.8686523-2.0786133,3.3803711-2.0786133
		c2.0366211,0,3.2124023,1.1337891,3.2124023,3.3383789c0,0.5668945-0.1259766,2.6245117-0.1259766,4.5981445
		c0,1.0078125,0,1.574707,0.0629883,2.3095703c-0.3149414-0.0629883-0.5878906-0.1049805-0.902832-0.1049805
		s-0.6088867,0.0419922-0.9238281,0.1049805c0.0839844-0.8398438,0.2099609-3.1704102,0.2099609-6.5297852
		c0-1.9946289-0.9238281-2.6245117-2.2045898-2.6245117c-0.9448242,0-1.6796875,0.4199219-2.0996094,0.9868164
		c-0.3989258,0.5249023-0.5039062,0.9868164-0.5039062,3.1074219v1.5537109c0,0.7768555,0.0209961,1.8266602,0.1049805,3.5063477
		c-0.3359375-0.0629883-0.6508789-0.1049805-0.9238281-0.1049805c-0.3149414,0-0.5668945,0.0419922-0.9238281,0.1049805
		c0.1049805-1.3227539,0.1889648-3.1704102,0.1889648-4.8500977v-1.4697266c0-0.9448242-0.0839844-1.4067383-0.3989258-1.8896484
		c-0.3989258-0.6508789-1.1337891-0.9448242-1.7426758-0.9448242c-1.784668,0-2.6665039,1.3227539-2.6665039,3.359375v2.5405273
		c0,0.8818359,0.0629883,2.2885742,0.1679688,3.2543945c-0.3569336-0.0629883-0.671875-0.1049805-0.9448242-0.1049805
		c-0.3149414,0-0.6088867,0.0419922-0.9448242,0.1049805c0.1679688-1.2807617,0.1679688-2.8554688,0.1679688-3.6953125v-2.6245117
		c0-1.5327148-0.0629883-2.7714844-0.1679688-3.7163086c0.3359375,0.0629883,0.6298828,0.1049805,0.9448242,0.1049805
		c0.2099609,0,0.4829102-0.0419922,0.8398438-0.1049805c-0.0419922,0.6088867-0.0629883,1.1757812-0.0629883,1.6796875H231.625
		c0.7768555-1.2597656,1.8056641-1.8896484,3.128418-1.8896484
		C236.1601562,102.4995117,237.4619141,103.3183594,237.7978516,104.578125z"/>
	<path class="st1" d="M248.0258789,96.956543c0.3149414,0,0.6088867-0.0419922,1.0288086-0.1049805
		c-0.0629883,0.440918-0.1889648,2.5195312-0.2519531,7.831543h0.0419922
		c0.9868164-1.5117188,2.0576172-2.1835938,3.5693359-2.1835938c2.6875,0,4.262207,2.0786133,4.262207,4.934082
		c0,3.1704102-2.0786133,5.5219727-4.6821289,5.5219727c-1.2597656,0-2.3935547-0.5458984-3.128418-1.5327148
		c-0.5039062,0.3989258-0.9658203,0.7768555-1.4067383,1.2177734h-0.3779297
		c0.0839844-0.7558594,0.1679688-4.7661133,0.1679688-5.6269531v-4.4301758c0-0.8398438-0.0629883-4.8920898-0.1679688-5.7319336
		C247.4379883,96.9145508,247.7529297,96.956543,248.0258789,96.956543z M251.8051758,112.2836914
		c1.784668,0,3.0234375-2.1206055,3.0234375-4.8920898c0-2.3725586-1.2387695-4.0102539-2.8554688-4.0102539
		c-2.0366211,0-3.2333984,1.574707-3.2333984,4.6821289C248.7397461,110.8349609,249.7895508,112.2836914,251.8051758,112.2836914z"
		/>
	<path class="st1" d="M264.2578125,102.6254883c-0.0629883,0.1469727-0.1469727,0.5039062-0.1469727,1.4067383v0.2939453
		l-0.1469727,0.1049805c-0.230957-0.230957-0.671875-0.3359375-1.0288086-0.3359375
		c-1.34375,0-2.1416016,1.2597656-2.1416016,2.8764648v2.8554688c0,1.2597656,0.0209961,2.2255859,0.0839844,2.918457
		c-0.3149414-0.0629883-0.5878906-0.1049805-0.8398438-0.1049805c-0.2729492,0-0.5458984,0.0419922-0.8818359,0.1049805
		c0.0629883-0.5668945,0.0839844-1.2597656,0.0839844-2.246582v-4.6821289c0-0.902832-0.0209961-2.4775391-0.0839844-3.1074219
		c0.3989258,0.0839844,0.6298828,0.1049805,0.8818359,0.1049805s0.5249023-0.0419922,0.8398438-0.1049805l-0.0839844,1.0498047
		c-0.0209961,0.230957-0.0209961,0.5668945-0.0209961,0.9868164l0.0419922,0.0209961
		c0.8188477-1.5117188,1.784668-2.2675781,2.7924805-2.2675781
		C263.8588867,102.4995117,264.0058594,102.5415039,264.2578125,102.6254883z"/>
	<path class="st1" d="M272.8881836,105.6489258c0,1.4277344-0.0839844,3.1704102-0.0839844,4.7661133
		c0,1.0708008,0.0839844,1.6376953,0.8188477,1.6376953c0.1469727,0,0.2519531,0,0.440918-0.0839844v0.4619141
		c-0.3359375,0.1469727-0.8188477,0.2939453-1.34375,0.2939453c-0.7768555,0-1.34375-0.4619141-1.4487305-1.3017578
		c-1.1757812,1.1757812-2.015625,1.5327148-3.2963867,1.5327148c-1.4487305,0-2.7924805-1.0498047-2.7924805-2.5825195
		s0.9658203-2.4775391,2.6455078-2.8134766c0.8188477-0.1679688,1.7216797-0.2519531,2.4985352-0.4829102
		c0.8188477-0.230957,0.9658203-0.3779297,0.9658203-1.0498047c0-1.6796875-0.7978516-2.6455078-2.3095703-2.6455078
		c-1.0917969,0-2.1206055,0.5039062-2.6455078,1.4277344h-0.230957v-1.0917969
		c1.0917969-0.8188477,2.0366211-1.2177734,3.3803711-1.2177734
		C271.4394531,102.4995117,272.8881836,103.6542969,272.8881836,105.6489258z M268.730957,112.0737305
		c0.9238281,0,1.8896484-0.5249023,2.4775391-1.4697266l0.0839844-3.1494141
		c-0.1889648,0.0629883-0.7348633,0.1889648-1.7426758,0.3779297c-1.9316406,0.3569336-2.6455078,1.0917969-2.6455078,2.246582
		C266.9042969,111.3178711,267.7231445,112.0737305,268.730957,112.0737305z"/>
	<path class="st1" d="M284.4169922,103.4233398c-0.1889648,0.4829102-0.3569336,0.8818359-0.4619141,1.3857422h-0.1679688
		c-0.6088867-1.0288086-1.6166992-1.6376953-2.7084961-1.6376953c-2.2885742,0-3.5483398,1.6586914-3.5483398,4.5351562
		c0,2.9394531,1.2807617,4.3671875,3.6323242,4.3671875c0.9868164,0,2.3305664-0.5458984,3.1494141-1.4907227l0.1049805,0.0629883
		c-0.0629883,0.3359375-0.1049805,0.6088867-0.1259766,1.0288086c-1.0708008,0.8188477-2.3725586,1.2807617-3.4853516,1.2807617
		c-2.9814453,0-5.1230469-1.9526367-5.1230469-5.2280273c0-3.4433594,2.456543-5.2280273,5.3540039-5.2280273
		C282.4433594,102.4995117,283.8500977,102.9194336,284.4169922,103.4233398z"/>
	<path class="st1" d="M295.1899414,106.8037109v0.3569336l-0.0419922,0.440918
		c-1.2597656-0.0209961-2.6245117-0.0629883-4.1152344-0.0629883c-1.0078125,0-2.0576172,0.0419922-3.128418,0.0629883
		c-0.0209961,0.1049805-0.0209961,0.3989258-0.0209961,0.4619141c0,2.6035156,1.5117188,4.0102539,3.6113281,4.0102539
		c1.0708008,0,2.3515625-0.5878906,3.1704102-1.4907227l0.1049805,0.0629883l-0.1259766,1.0288086
		c-1.0917969,0.8398438-2.4145508,1.2807617-3.5273438,1.2807617c-2.918457,0-5.0810547-2.0786133-5.0810547-4.9550781
		c0-3.4433594,1.7636719-5.5009766,4.8081055-5.5009766C293.53125,102.4995117,295.1899414,104.2001953,295.1899414,106.8037109z
		 M290.6757812,106.8666992c0.7348633,0,1.9736328-0.0629883,2.7924805-0.0629883
		c-0.0209961-2.4145508-0.8818359-3.6323242-2.5825195-3.6323242c-1.6166992,0-2.7084961,1.3647461-2.9394531,3.6323242
		C288.7651367,106.8037109,290.3398438,106.8666992,290.6757812,106.8666992z"/>
	<path class="st1" d="M308.3994141,103.0874023c-0.2729492,0.5039062-0.4829102,1.2597656-0.5039062,1.4907227h-0.2519531
		c-0.2729492-0.8188477-1.0078125-1.3017578-1.8476562-1.3017578c-0.9868164,0-1.784668,0.6928711-1.784668,1.7636719
		c0,0.9238281,0.5668945,1.4487305,1.7636719,1.784668c1.7636719,0.5039062,3.1914062,0.8608398,3.1914062,2.7924805
		c0,1.7006836-1.5117188,3.3383789-3.800293,3.3383789c-1.1757812,0-1.9316406-0.2729492-2.6875-0.6928711
		c0.230957-0.5039062,0.3989258-1.1967773,0.3989258-1.5327148h0.2519531
		c0.440918,0.8188477,1.3857422,1.4487305,2.3725586,1.4487305c1.1757812,0,2.0366211-0.7138672,2.0366211-1.8896484
		c0-0.902832-0.6088867-1.4067383-1.8686523-1.7636719c-1.8476562-0.5039062-3.0864258-1.0078125-3.0864258-2.8554688
		c0-1.9316406,1.3857422-3.1704102,3.4853516-3.1704102C307.1396484,102.4995117,308.1264648,103.0244141,308.3994141,103.0874023z"
		/>
	<path class="st1" d="M311.4243164,102.7094727c0.3569336,0.0629883,0.6508789,0.1049805,0.8818359,0.1049805
		c0.2519531,0,0.5249023-0.0419922,0.8608398-0.1049805c-0.1469727,1.7636719-0.2099609,3.9052734-0.2099609,5.8369141
		c0,0.5249023,0,1.8266602,0.6088867,2.4775391c0.3989258,0.4829102,1.0288086,0.8398438,1.8476562,0.8398438
		c1.1547852,0,1.8266602-0.5039062,2.2255859-1.1547852c0.5039062-0.8398438,0.5458984-1.4697266,0.5458984-3.7373047
		c0-2.1206055-0.0209961-3.8212891-0.0419922-4.262207c0.3569336,0.0839844,0.6088867,0.1049805,0.8818359,0.1049805
		c0.3149414,0,0.5458984-0.0209961,0.8608398-0.1049805c-0.0839844,1.34375-0.1469727,3.4223633-0.1469727,6.2988281
		c0,1.6166992,0.0209961,2.7504883,0.0839844,3.7373047c-0.3149414-0.0629883-0.5878906-0.1049805-0.8188477-0.1049805
		s-0.5039062,0.0419922-0.8188477,0.1049805c0.0209961-0.2729492,0.0419922-0.7348633,0.0419922-1.0498047v-0.7558594h-0.0419922
		c-0.7348633,1.34375-1.9316406,2.015625-3.2753906,2.015625c-2.1835938,0-3.5063477-1.1757812-3.5063477-3.5273438
		c0-0.8608398,0.0629883-2.7924805,0.0629883-3.4643555C311.4663086,104.8720703,311.4453125,103.8012695,311.4243164,102.7094727z"
		/>
	<path class="st1" d="M328.2441406,103.0874023c-0.2729492,0.5039062-0.4829102,1.2597656-0.5039062,1.4907227h-0.2519531
		c-0.2729492-0.8188477-1.0078125-1.3017578-1.8476562-1.3017578c-0.9868164,0-1.784668,0.6928711-1.784668,1.7636719
		c0,0.9238281,0.5668945,1.4487305,1.7636719,1.784668c1.7636719,0.5039062,3.1914062,0.8608398,3.1914062,2.7924805
		c0,1.7006836-1.5117188,3.3383789-3.800293,3.3383789c-1.1757812,0-1.9316406-0.2729492-2.6875-0.6928711
		c0.230957-0.5039062,0.3989258-1.1967773,0.3989258-1.5327148h0.2519531
		c0.440918,0.8188477,1.3857422,1.4487305,2.3725586,1.4487305c1.1757812,0,2.0366211-0.7138672,2.0366211-1.8896484
		c0-0.902832-0.6088867-1.4067383-1.8686523-1.7636719c-1.8476562-0.5039062-3.0864258-1.0078125-3.0864258-2.8554688
		c0-1.9316406,1.3857422-3.1704102,3.4853516-3.1704102C326.984375,102.4995117,327.9711914,103.0244141,328.2441406,103.0874023z"
		/>
	<path class="st1" d="M333.0537109,99.8959961h0.1049805c-0.0839844,1.0917969-0.1049805,1.9316406-0.1679688,3.1074219
		c0.5668945,0,1.6166992-0.0629883,2.2255859-0.0629883c-0.0209961,0.0839844-0.0209961,0.4619141-0.0209961,0.5249023
		c0,0.1889648,0,0.2939453,0.0209961,0.3569336c-0.4829102-0.0209961-1.2177734-0.0419922-1.4907227-0.0419922h-0.7348633
		c-0.0629883,0.5878906-0.1469727,4.0942383-0.1469727,5.3959961c0,1.5957031,0.1049805,3.1074219,1.6796875,3.1074219
		c0.3149414,0,0.7138672-0.0629883,0.9658203-0.1469727v0.5039062c-0.5249023,0.1889648-1.112793,0.3149414-1.6166992,0.3149414
		c-1.7216797,0-2.5825195-0.8818359-2.5825195-2.6665039c0-0.9448242,0.1259766-3.3803711,0.1469727-6.5087891
		c-0.7348633,0-1.1967773,0.0209961-1.4277344,0.0419922c0.0629883-0.230957,0.0419922-0.3149414,0.0419922-0.4829102
		c0-0.1469727-0.0209961-0.2729492-0.0419922-0.4199219c0.7558594,0.0629883,1.1547852,0.0629883,1.3857422,0.0629883
		l-0.0839844-2.3515625L333.0537109,99.8959961z"/>
	<path class="st1" d="M344.0776367,105.6489258c0,1.4277344-0.0839844,3.1704102-0.0839844,4.7661133
		c0,1.0708008,0.0839844,1.6376953,0.8188477,1.6376953c0.1469727,0,0.2519531,0,0.440918-0.0839844v0.4619141
		c-0.3359375,0.1469727-0.8188477,0.2939453-1.34375,0.2939453c-0.7768555,0-1.34375-0.4619141-1.4487305-1.3017578
		c-1.1757812,1.1757812-2.015625,1.5327148-3.2963867,1.5327148c-1.4487305,0-2.7924805-1.0498047-2.7924805-2.5825195
		s0.9658203-2.4775391,2.6455078-2.8134766c0.8188477-0.1679688,1.7216797-0.2519531,2.4985352-0.4829102
		c0.8188477-0.230957,0.9658203-0.3779297,0.9658203-1.0498047c0-1.6796875-0.7978516-2.6455078-2.3095703-2.6455078
		c-1.0917969,0-2.1206055,0.5039062-2.6455078,1.4277344h-0.230957v-1.0917969
		c1.0917969-0.8188477,2.0366211-1.2177734,3.3803711-1.2177734
		C342.6289062,102.4995117,344.0776367,103.6542969,344.0776367,105.6489258z M339.9204102,112.0737305
		c0.9238281,0,1.8896484-0.5249023,2.4775391-1.4697266l0.0839844-3.1494141
		c-0.1889648,0.0629883-0.7348633,0.1889648-1.7426758,0.3779297c-1.9316406,0.3569336-2.6455078,1.0917969-2.6455078,2.246582
		C338.09375,111.3178711,338.9125977,112.0737305,339.9204102,112.0737305z"/>
	<path class="st1" d="M349.9794922,99.0561523c0,0.5878906-0.4829102,1.0708008-1.0708008,1.0708008
		s-1.0708008-0.4829102-1.0708008-1.0708008c0-0.6088867,0.5039062-1.0708008,1.0708008-1.0708008
		S349.9794922,98.4472656,349.9794922,99.0561523z M348.9086914,102.8144531c0.3149414,0,0.5878906-0.0209961,0.9448242-0.1049805
		c-0.1049805,0.9448242-0.1679688,2.8134766-0.1679688,3.7163086v2.6035156c0,1.4277344,0.0629883,2.6455078,0.1679688,3.7163086
		c-0.3569336-0.0629883-0.671875-0.1049805-0.9448242-0.1049805c-0.3149414,0-0.6088867,0.0419922-0.9448242,0.1049805
		c0.1679688-1.3227539,0.1679688-2.8554688,0.1679688-3.6953125v-2.8344727c0-1.2597656-0.0629883-2.4145508-0.1679688-3.5063477
		C348.3208008,102.793457,348.6357422,102.8144531,348.9086914,102.8144531z"/>
	<path class="st1" d="M361.90625,106.2158203c0,1.112793-0.0839844,2.3305664-0.0839844,3.9262695
		c0,1.8476562,0.0419922,2.2255859,0.0419922,2.6035156c-0.3569336-0.0839844-0.6088867-0.1049805-0.8818359-0.1049805
		s-0.5249023,0.0209961-0.8608398,0.1049805c0-1.1967773,0.1469727-3.0864258,0.1469727-4.4511719v-1.6166992
		c0-1.7426758-0.7768555-3.0864258-2.3095703-3.0864258c-1.8476562,0-2.8134766,1.1757812-2.8134766,3.359375v2.5195312
		c0,0.902832,0.0629883,2.3305664,0.1679688,3.2753906c-0.3359375-0.0629883-0.6298828-0.1049805-0.9448242-0.1049805
		s-0.6088867,0.0419922-0.9448242,0.1049805c0.1679688-1.3227539,0.1679688-2.8554688,0.1679688-3.6953125v-2.8344727
		c0-1.2597656-0.0629883-2.4145508-0.1679688-3.5063477c0.3569336,0.0839844,0.671875,0.1049805,0.9448242,0.1049805
		c0.2099609,0,0.4829102-0.0419922,0.8398438-0.1049805c-0.0209961,0.3569336-0.0629883,1.1757812-0.0629883,1.6796875H355.1875
		c0.7768555-1.1967773,1.8266602-1.8896484,3.3383789-1.8896484
		C360.6254883,102.4995117,361.90625,103.6962891,361.90625,106.2158203z"/>
	<path class="st1" d="M372.0913086,105.6489258c0,1.4277344-0.0839844,3.1704102-0.0839844,4.7661133
		c0,1.0708008,0.0839844,1.6376953,0.8188477,1.6376953c0.1469727,0,0.2519531,0,0.440918-0.0839844v0.4619141
		c-0.3359375,0.1469727-0.8188477,0.2939453-1.34375,0.2939453c-0.7768555,0-1.34375-0.4619141-1.4487305-1.3017578
		c-1.1757812,1.1757812-2.015625,1.5327148-3.2963867,1.5327148c-1.4487305,0-2.7924805-1.0498047-2.7924805-2.5825195
		s0.9658203-2.4775391,2.6455078-2.8134766c0.8188477-0.1679688,1.7216797-0.2519531,2.4985352-0.4829102
		c0.8188477-0.230957,0.9658203-0.3779297,0.9658203-1.0498047c0-1.6796875-0.7978516-2.6455078-2.3095703-2.6455078
		c-1.0917969,0-2.1206055,0.5039062-2.6455078,1.4277344h-0.230957v-1.0917969
		c1.0917969-0.8188477,2.0366211-1.2177734,3.3803711-1.2177734
		C370.6425781,102.4995117,372.0913086,103.6542969,372.0913086,105.6489258z M367.934082,112.0737305
		c0.9238281,0,1.8896484-0.5249023,2.4775391-1.4697266l0.0839844-3.1494141
		c-0.1889648,0.0629883-0.7348633,0.1889648-1.7426758,0.3779297c-1.9316406,0.3569336-2.6455078,1.0917969-2.6455078,2.246582
		C366.1074219,111.3178711,366.9262695,112.0737305,367.934082,112.0737305z"/>
	<path class="st1" d="M376.1455078,96.956543c0.3149414,0,0.6088867-0.0419922,1.0288086-0.1049805
		c-0.0629883,0.440918-0.1889648,2.5195312-0.2519531,7.831543h0.0419922
		c0.9868164-1.5117188,2.0576172-2.1835938,3.5693359-2.1835938c2.6875,0,4.262207,2.0786133,4.262207,4.934082
		c0,3.1704102-2.0786133,5.5219727-4.6821289,5.5219727c-1.2597656,0-2.3935547-0.5458984-3.128418-1.5327148
		c-0.5039062,0.3989258-0.9658203,0.7768555-1.4067383,1.2177734h-0.3779297
		c0.0839844-0.7558594,0.1679688-4.7661133,0.1679688-5.6269531v-4.4301758c0-0.8398438-0.0629883-4.8920898-0.1679688-5.7319336
		C375.5576172,96.9145508,375.8725586,96.956543,376.1455078,96.956543z M379.9248047,112.2836914
		c1.784668,0,3.0234375-2.1206055,3.0234375-4.8920898c0-2.3725586-1.2387695-4.0102539-2.8554688-4.0102539
		c-2.0366211,0-3.2333984,1.574707-3.2333984,4.6821289C376.859375,110.8349609,377.9091797,112.2836914,379.9248047,112.2836914z"
		/>
	<path class="st1" d="M388.5981445,96.956543c0.3149414,0,0.6088867-0.0419922,0.9448242-0.1049805
		c-0.1049805,0.902832-0.1679688,4.3251953-0.1679688,5.7319336v4.4301758c0,1.4277344,0.0629883,4.8291016,0.1679688,5.7319336
		c-0.3359375-0.0629883-0.6298828-0.1049805-0.9448242-0.1049805s-0.6088867,0.0419922-0.9448242,0.1049805
		c0.1679688-1.6586914,0.1679688-4.8920898,0.1679688-5.7319336v-4.4301758c0-0.8608398,0-4.03125-0.1679688-5.7319336
		C387.9892578,96.9145508,388.2832031,96.956543,388.5981445,96.956543z"/>
	<path class="st1" d="M401.4067383,106.8037109v0.3569336l-0.0419922,0.440918
		c-1.2597656-0.0209961-2.6245117-0.0629883-4.1152344-0.0629883c-1.0078125,0-2.0576172,0.0419922-3.128418,0.0629883
		c-0.0209961,0.1049805-0.0209961,0.3989258-0.0209961,0.4619141c0,2.6035156,1.5117188,4.0102539,3.6113281,4.0102539
		c1.0708008,0,2.3515625-0.5878906,3.1704102-1.4907227l0.1049805,0.0629883l-0.1259766,1.0288086
		c-1.0917969,0.8398438-2.4145508,1.2807617-3.5273438,1.2807617c-2.918457,0-5.0810547-2.0786133-5.0810547-4.9550781
		c0-3.4433594,1.7636719-5.5009766,4.8081055-5.5009766C399.7480469,102.4995117,401.4067383,104.2001953,401.4067383,106.8037109z
		 M396.8925781,106.8666992c0.7348633,0,1.9736328-0.0629883,2.7924805-0.0629883
		c-0.0209961-2.4145508-0.8818359-3.6323242-2.5825195-3.6323242c-1.6166992,0-2.7084961,1.3647461-2.9394531,3.6323242
		C394.9819336,106.8037109,396.5566406,106.8666992,396.8925781,106.8666992z"/>
	<path class="st1" d="M409.2202148,102.8144531c0.3149414,0,0.6298828-0.0419922,0.9658203-0.1049805
		c0.7348633,2.6875,1.574707,5.1860352,2.6875,8.0415039c0.7978516-1.9736328,2.2675781-6.1938477,2.7714844-8.0415039
		c0.2519531,0.0629883,0.4619141,0.1049805,0.6298828,0.1049805s0.2729492-0.0209961,0.5878906-0.1049805
		c0.6928711,2.6875,1.6376953,5.1650391,2.6665039,8.0415039c0.8398438-2.1206055,2.1416016-5.6479492,2.9814453-8.0415039
		c0.2729492,0.0839844,0.4829102,0.1049805,0.671875,0.1049805c0.230957,0,0.3989258-0.0419922,0.6298828-0.1049805
		c-1.5957031,3.4643555-2.9814453,6.6767578-4.1782227,10.0361328c-0.1679688-0.0629883-0.3569336-0.1049805-0.5458984-0.1049805
		c-0.1679688,0-0.2939453,0.0419922-0.5458984,0.1049805c-0.7348633-2.6035156-1.574707-5.0180664-2.6875-7.7895508
		c-0.7138672,1.7006836-2.0366211,5.3120117-2.7714844,7.7895508c-0.1889648-0.0629883-0.3989258-0.1049805-0.5878906-0.1049805
		s-0.3989258,0.0419922-0.5878906,0.1049805c-0.8398438-2.7504883-2.7294922-7.8105469-3.6743164-10.0361328
		C408.6533203,102.793457,408.9052734,102.8144531,409.2202148,102.8144531z"/>
	<path class="st1" d="M434.0825195,106.8037109v0.3569336l-0.0419922,0.440918
		c-1.2597656-0.0209961-2.6245117-0.0629883-4.1152344-0.0629883c-1.0078125,0-2.0576172,0.0419922-3.128418,0.0629883
		c-0.0209961,0.1049805-0.0209961,0.3989258-0.0209961,0.4619141c0,2.6035156,1.5117188,4.0102539,3.6113281,4.0102539
		c1.0708008,0,2.3515625-0.5878906,3.1704102-1.4907227l0.1049805,0.0629883l-0.1259766,1.0288086
		c-1.0917969,0.8398438-2.4145508,1.2807617-3.5273438,1.2807617c-2.918457,0-5.0810547-2.0786133-5.0810547-4.9550781
		c0-3.4433594,1.7636719-5.5009766,4.8081055-5.5009766C432.4238281,102.4995117,434.0825195,104.2001953,434.0825195,106.8037109z
		 M429.5683594,106.8666992c0.7348633,0,1.9736328-0.0629883,2.7924805-0.0629883
		c-0.0209961-2.4145508-0.8818359-3.6323242-2.5825195-3.6323242c-1.6166992,0-2.7084961,1.3647461-2.9394531,3.6323242
		C427.6577148,106.8037109,429.2324219,106.8666992,429.5683594,106.8666992z"/>
	<path class="st1" d="M437.6118164,96.956543c0.3149414,0,0.6088867-0.0419922,0.9448242-0.1049805
		c-0.1049805,0.902832-0.1679688,4.3251953-0.1679688,5.7319336v4.4301758c0,1.4277344,0.0629883,4.8291016,0.1679688,5.7319336
		c-0.3359375-0.0629883-0.6298828-0.1049805-0.9448242-0.1049805s-0.6088867,0.0419922-0.9448242,0.1049805
		c0.1679688-1.6586914,0.1679688-4.8920898,0.1679688-5.7319336v-4.4301758c0-0.8608398,0-4.03125-0.1679688-5.7319336
		C437.0029297,96.9145508,437.296875,96.956543,437.6118164,96.956543z"/>
	<path class="st1" d="M443.449707,96.956543c0.3149414,0,0.6088867-0.0419922,0.9448242-0.1049805
		c-0.1049805,0.902832-0.1679688,4.3251953-0.1679688,5.7319336v4.4301758c0,1.4277344,0.0629883,4.8291016,0.1679688,5.7319336
		c-0.3359375-0.0629883-0.6298828-0.1049805-0.9448242-0.1049805s-0.6088867,0.0419922-0.9448242,0.1049805
		c0.1679688-1.6586914,0.1679688-4.8920898,0.1679688-5.7319336v-4.4301758c0-0.8608398,0-4.03125-0.1679688-5.7319336
		C442.8408203,96.9145508,443.1347656,96.956543,443.449707,96.956543z"/>
	<path class="st1" d="M456.4472656,106.2158203c0,1.112793-0.0839844,2.3305664-0.0839844,3.9262695
		c0,1.8476562,0.0419922,2.2255859,0.0419922,2.6035156c-0.3569336-0.0839844-0.6088867-0.1049805-0.8818359-0.1049805
		s-0.5249023,0.0209961-0.8608398,0.1049805c0-1.1967773,0.1469727-3.0864258,0.1469727-4.4511719v-1.6166992
		c0-1.7426758-0.7768555-3.0864258-2.3095703-3.0864258c-1.8476562,0-2.8134766,1.1757812-2.8134766,3.359375v2.5195312
		c0,0.902832,0.0629883,2.3305664,0.1679688,3.2753906c-0.3359375-0.0629883-0.6298828-0.1049805-0.9448242-0.1049805
		s-0.6088867,0.0419922-0.9448242,0.1049805c0.1679688-1.3227539,0.1679688-2.8554688,0.1679688-3.6953125v-2.8344727
		c0-1.2597656-0.0629883-2.4145508-0.1679688-3.5063477c0.3569336,0.0839844,0.671875,0.1049805,0.9448242,0.1049805
		c0.2099609,0,0.4829102-0.0419922,0.8398438-0.1049805c-0.0209961,0.3569336-0.0629883,1.1757812-0.0629883,1.6796875h0.0419922
		c0.7768555-1.1967773,1.8266602-1.8896484,3.3383789-1.8896484
		C455.1665039,102.4995117,456.4472656,103.6962891,456.4472656,106.2158203z"/>
	<path class="st1" d="M467.934082,106.8037109v0.3569336l-0.0419922,0.440918
		c-1.2597656-0.0209961-2.6245117-0.0629883-4.1152344-0.0629883c-1.0078125,0-2.0576172,0.0419922-3.128418,0.0629883
		c-0.0209961,0.1049805-0.0209961,0.3989258-0.0209961,0.4619141c0,2.6035156,1.5117188,4.0102539,3.6113281,4.0102539
		c1.0708008,0,2.3515625-0.5878906,3.1704102-1.4907227l0.1049805,0.0629883l-0.1259766,1.0288086
		c-1.0917969,0.8398438-2.4145508,1.2807617-3.5273438,1.2807617c-2.918457,0-5.0810547-2.0786133-5.0810547-4.9550781
		c0-3.4433594,1.7636719-5.5009766,4.8081055-5.5009766C466.2753906,102.4995117,467.934082,104.2001953,467.934082,106.8037109z
		 M463.4199219,106.8666992c0.7348633,0,1.9736328-0.0629883,2.7924805-0.0629883
		c-0.0209961-2.4145508-0.8818359-3.6323242-2.5825195-3.6323242c-1.6166992,0-2.7084961,1.3647461-2.9394531,3.6323242
		C461.5092773,106.8037109,463.0839844,106.8666992,463.4199219,106.8666992z"/>
	<path class="st1" d="M475.3056641,103.0874023c-0.2729492,0.5039062-0.4829102,1.2597656-0.5039062,1.4907227h-0.2519531
		c-0.2729492-0.8188477-1.0078125-1.3017578-1.8476562-1.3017578c-0.9868164,0-1.784668,0.6928711-1.784668,1.7636719
		c0,0.9238281,0.5668945,1.4487305,1.7636719,1.784668c1.7636719,0.5039062,3.1914062,0.8608398,3.1914062,2.7924805
		c0,1.7006836-1.5117188,3.3383789-3.800293,3.3383789c-1.1757812,0-1.9316406-0.2729492-2.6875-0.6928711
		c0.230957-0.5039062,0.3989258-1.1967773,0.3989258-1.5327148h0.2519531
		c0.440918,0.8188477,1.3857422,1.4487305,2.3725586,1.4487305c1.1757812,0,2.0366211-0.7138672,2.0366211-1.8896484
		c0-0.902832-0.6088867-1.4067383-1.8686523-1.7636719c-1.8476562-0.5039062-3.0864258-1.0078125-3.0864258-2.8554688
		c0-1.9316406,1.3857422-3.1704102,3.4853516-3.1704102C474.0458984,102.4995117,475.0327148,103.0244141,475.3056641,103.0874023z"
		/>
	<path class="st1" d="M483.4746094,103.0874023c-0.2729492,0.5039062-0.4829102,1.2597656-0.5039062,1.4907227H482.71875
		c-0.2729492-0.8188477-1.0078125-1.3017578-1.8476562-1.3017578c-0.9868164,0-1.784668,0.6928711-1.784668,1.7636719
		c0,0.9238281,0.5668945,1.4487305,1.7636719,1.784668c1.7636719,0.5039062,3.1914062,0.8608398,3.1914062,2.7924805
		c0,1.7006836-1.5117188,3.3383789-3.800293,3.3383789c-1.1757812,0-1.9316406-0.2729492-2.6875-0.6928711
		c0.230957-0.5039062,0.3989258-1.1967773,0.3989258-1.5327148h0.2519531
		c0.440918,0.8188477,1.3857422,1.4487305,2.3725586,1.4487305c1.1757812,0,2.0366211-0.7138672,2.0366211-1.8896484
		c0-0.902832-0.6088867-1.4067383-1.8686523-1.7636719c-1.8476562-0.5039062-3.0864258-1.0078125-3.0864258-2.8554688
		c0-1.9316406,1.3857422-3.1704102,3.4853516-3.1704102C482.2148438,102.4995117,483.2016602,103.0244141,483.4746094,103.0874023z"
		/>
	<path class="st1" d="M488.8300781,110.9819336c0,0.3359375-0.1679688,0.6298828-0.3989258,1.0288086l-2.5405273,4.3041992
		l-0.3779297-0.1469727l1.5327148-4.8081055c0.1679688-0.440918,0.230957-1.0917969,1.0288086-1.0917969
		C488.4731445,110.2680664,488.8300781,110.5410156,488.8300781,110.9819336z"/>
	<path class="st1" d="M505.1459961,105.6489258c0,1.4277344-0.0839844,3.1704102-0.0839844,4.7661133
		c0,1.0708008,0.0839844,1.6376953,0.8188477,1.6376953c0.1469727,0,0.2519531,0,0.440918-0.0839844v0.4619141
		c-0.3359375,0.1469727-0.8188477,0.2939453-1.34375,0.2939453c-0.7768555,0-1.34375-0.4619141-1.4487305-1.3017578
		c-1.1757812,1.1757812-2.015625,1.5327148-3.2963867,1.5327148c-1.4487305,0-2.7924805-1.0498047-2.7924805-2.5825195
		s0.9658203-2.4775391,2.6455078-2.8134766c0.8188477-0.1679688,1.7216797-0.2519531,2.4985352-0.4829102
		c0.8188477-0.230957,0.9658203-0.3779297,0.9658203-1.0498047c0-1.6796875-0.7978516-2.6455078-2.3095703-2.6455078
		c-1.0917969,0-2.1206055,0.5039062-2.6455078,1.4277344h-0.230957v-1.0917969
		c1.0917969-0.8188477,2.0366211-1.2177734,3.3803711-1.2177734
		C503.6972656,102.4995117,505.1459961,103.6542969,505.1459961,105.6489258z M500.9887695,112.0737305
		c0.9238281,0,1.8896484-0.5249023,2.4775391-1.4697266l0.0839844-3.1494141
		c-0.1889648,0.0629883-0.7348633,0.1889648-1.7426758,0.3779297c-1.9316406,0.3569336-2.6455078,1.0917969-2.6455078,2.246582
		C499.1621094,111.3178711,499.980957,112.0737305,500.9887695,112.0737305z"/>
	<path class="st1" d="M517.1367188,106.2158203c0,1.112793-0.0839844,2.3305664-0.0839844,3.9262695
		c0,1.8476562,0.0419922,2.2255859,0.0419922,2.6035156c-0.3569336-0.0839844-0.6088867-0.1049805-0.8818359-0.1049805
		s-0.5249023,0.0209961-0.8608398,0.1049805c0-1.1967773,0.1469727-3.0864258,0.1469727-4.4511719v-1.6166992
		c0-1.7426758-0.7768555-3.0864258-2.3095703-3.0864258c-1.8476562,0-2.8134766,1.1757812-2.8134766,3.359375v2.5195312
		c0,0.902832,0.0629883,2.3305664,0.1679688,3.2753906c-0.3359375-0.0629883-0.6298828-0.1049805-0.9448242-0.1049805
		s-0.6088867,0.0419922-0.9448242,0.1049805c0.1679688-1.3227539,0.1679688-2.8554688,0.1679688-3.6953125v-2.8344727
		c0-1.2597656-0.0629883-2.4145508-0.1679688-3.5063477c0.3569336,0.0839844,0.671875,0.1049805,0.9448242,0.1049805
		c0.2099609,0,0.4829102-0.0419922,0.8398438-0.1049805c-0.0209961,0.3569336-0.0629883,1.1757812-0.0629883,1.6796875h0.0419922
		c0.7768555-1.1967773,1.8266602-1.8896484,3.3383789-1.8896484
		C515.855957,102.4995117,517.1367188,103.6962891,517.1367188,106.2158203z"/>
	<path class="st1" d="M528.2666016,96.956543c0.2729492,0,0.5878906-0.0419922,0.9448242-0.1049805
		c-0.1679688,2.1206055-0.2519531,6.9916992-0.2519531,10.8129883c0,1.6586914,0.0419922,3.0654297,0.0629883,5.0810547
		c-0.3359375-0.0629883-0.5668945-0.1049805-0.8188477-0.1049805s-0.5249023,0.0419922-0.7978516,0.1049805l0.0629883-2.0576172
		h-0.0419922c-0.671875,1.4277344-1.9526367,2.2675781-3.5483398,2.2675781c-2.2675781,0-4.262207-1.7006836-4.262207-5.1650391
		c0-3.4223633,2.2045898-5.2910156,4.472168-5.2910156c1.574707,0,2.6665039,0.6928711,3.2753906,2.0996094h0.0419922v-2.5615234
		c0-0.7768555-0.0209961-3.3383789-0.0839844-5.1860352C527.5527344,96.9145508,527.9516602,96.956543,528.2666016,96.956543z
		 M524.3613281,112.1787109c1.9736328,0,3.128418-2.015625,3.128418-4.6821289c0-2.6875-1.0708008-4.1152344-3.0654297-4.1152344
		c-1.8476562,0-2.9604492,1.6796875-2.9604492,4.5351562C521.4638672,110.7509766,522.5766602,112.1787109,524.3613281,112.1787109z
		"/>
	<path class="st1" d="M545.8642578,103.4233398c-0.1889648,0.4829102-0.3569336,0.8818359-0.4619141,1.3857422h-0.1679688
		c-0.6088867-1.0288086-1.6166992-1.6376953-2.7084961-1.6376953c-2.2885742,0-3.5483398,1.6586914-3.5483398,4.5351562
		c0,2.9394531,1.2807617,4.3671875,3.6323242,4.3671875c0.9868164,0,2.3305664-0.5458984,3.1494141-1.4907227l0.1049805,0.0629883
		c-0.0629883,0.3359375-0.1049805,0.6088867-0.1259766,1.0288086c-1.0708008,0.8188477-2.3725586,1.2807617-3.4853516,1.2807617
		c-2.9814453,0-5.1230469-1.9526367-5.1230469-5.2280273c0-3.4433594,2.456543-5.2280273,5.3540039-5.2280273
		C543.890625,102.4995117,545.2973633,102.9194336,545.8642578,103.4233398z"/>
	<path class="st1" d="M553.4458008,102.6254883c-0.0629883,0.1469727-0.1469727,0.5039062-0.1469727,1.4067383v0.2939453
		l-0.1469727,0.1049805c-0.230957-0.230957-0.671875-0.3359375-1.0288086-0.3359375
		c-1.34375,0-2.1416016,1.2597656-2.1416016,2.8764648v2.8554688c0,1.2597656,0.0209961,2.2255859,0.0839844,2.918457
		c-0.3149414-0.0629883-0.5878906-0.1049805-0.8398438-0.1049805c-0.2729492,0-0.5458984,0.0419922-0.8818359,0.1049805
		c0.0629883-0.5668945,0.0839844-1.2597656,0.0839844-2.246582v-4.6821289c0-0.902832-0.0209961-2.4775391-0.0839844-3.1074219
		c0.3989258,0.0839844,0.6298828,0.1049805,0.8818359,0.1049805s0.5249023-0.0419922,0.8398438-0.1049805l-0.0839844,1.0498047
		c-0.0209961,0.230957-0.0209961,0.5668945-0.0209961,0.9868164l0.0419922,0.0209961
		c0.8188477-1.5117188,1.784668-2.2675781,2.7924805-2.2675781
		C553.046875,102.4995117,553.1938477,102.5415039,553.4458008,102.6254883z"/>
	<path class="st1" d="M562.0766602,105.6489258c0,1.4277344-0.0839844,3.1704102-0.0839844,4.7661133
		c0,1.0708008,0.0839844,1.6376953,0.8188477,1.6376953c0.1469727,0,0.2519531,0,0.440918-0.0839844v0.4619141
		c-0.3359375,0.1469727-0.8188477,0.2939453-1.34375,0.2939453c-0.7768555,0-1.34375-0.4619141-1.4487305-1.3017578
		c-1.1757812,1.1757812-2.015625,1.5327148-3.2963867,1.5327148c-1.4487305,0-2.7924805-1.0498047-2.7924805-2.5825195
		s0.9658203-2.4775391,2.6455078-2.8134766c0.8188477-0.1679688,1.7216797-0.2519531,2.4985352-0.4829102
		c0.8188477-0.230957,0.9658203-0.3779297,0.9658203-1.0498047c0-1.6796875-0.7978516-2.6455078-2.3095703-2.6455078
		c-1.0917969,0-2.1206055,0.5039062-2.6455078,1.4277344h-0.230957v-1.0917969
		c1.0917969-0.8188477,2.0366211-1.2177734,3.3803711-1.2177734
		C560.6279297,102.4995117,562.0766602,103.6542969,562.0766602,105.6489258z M557.9194336,112.0737305
		c0.9238281,0,1.8896484-0.5249023,2.4775391-1.4697266l0.0839844-3.1494141
		c-0.1889648,0.0629883-0.7348633,0.1889648-1.7426758,0.3779297c-1.9316406,0.3569336-2.6455078,1.0917969-2.6455078,2.246582
		C556.0927734,111.3178711,556.9116211,112.0737305,557.9194336,112.0737305z"/>
	<path class="st1" d="M570.2460938,96.8515625c-0.0209961,0.6508789-0.0839844,1.0708008-0.0839844,1.6796875l-0.1259766,0.0629883
		c-0.3359375-0.2099609-0.7138672-0.3149414-1.1547852-0.3149414c-1.0917969,0-1.7216797,0.8188477-1.7216797,2.0996094
		c0,0.5039062,0.1679688,1.9106445,0.230957,2.3095703l0.0209961,0.1469727c1.3227539,0,1.8896484-0.0209961,2.1625977-0.0209961
		c-0.0209961,0.1469727-0.0419922,0.2099609-0.0419922,0.3569336c0,0.1679688,0.0209961,0.3149414,0.0419922,0.4829102
		c-0.902832-0.0209961-1.574707-0.0629883-2.1625977-0.0629883v1.6166992c0,2.8764648,0.0209961,5.1650391,0.0839844,7.5375977
		c-0.3149414-0.0629883-0.5878906-0.1049805-0.902832-0.1049805s-0.5878906,0.0419922-0.9238281,0.1049805
		c0.1889648-3.0444336,0.1889648-5.8789062,0.1889648-9.1542969c-0.4829102,0-0.9448242,0.0419922-1.5117188,0.0629883
		c0.0629883-0.1889648,0.0419922-0.2729492,0.0419922-0.4199219s-0.0209961-0.2519531-0.0419922-0.4199219l1.5117188,0.0209961
		c0.0209961-1.2807617,0.3149414-2.2885742,0.7348633-3.359375c0.8398438-2.0996094,2.3515625-2.6875,3.2124023-2.6875
		C569.9731445,96.7885742,570.1411133,96.8305664,570.2460938,96.8515625z"/>
	<path class="st1" d="M573.2285156,99.8959961h0.1049805c-0.0839844,1.0917969-0.1049805,1.9316406-0.1679688,3.1074219
		c0.5668945,0,1.6166992-0.0629883,2.2255859-0.0629883c-0.0209961,0.0839844-0.0209961,0.4619141-0.0209961,0.5249023
		c0,0.1889648,0,0.2939453,0.0209961,0.3569336c-0.4829102-0.0209961-1.2177734-0.0419922-1.4907227-0.0419922h-0.7348633
		c-0.0629883,0.5878906-0.1469727,4.0942383-0.1469727,5.3959961c0,1.5957031,0.1049805,3.1074219,1.6796875,3.1074219
		c0.3149414,0,0.7138672-0.0629883,0.9658203-0.1469727v0.5039062c-0.5249023,0.1889648-1.112793,0.3149414-1.6166992,0.3149414
		c-1.7216797,0-2.5825195-0.8818359-2.5825195-2.6665039c0-0.9448242,0.1259766-3.3803711,0.1469727-6.5087891
		c-0.7348633,0-1.1967773,0.0209961-1.4277344,0.0419922c0.0629883-0.230957,0.0419922-0.3149414,0.0419922-0.4829102
		c0-0.1469727-0.0209961-0.2729492-0.0419922-0.4199219c0.7558594,0.0629883,1.1547852,0.0629883,1.3857422,0.0629883
		l-0.0839844-2.3515625L573.2285156,99.8959961z"/>
	<path class="st1" d="M590.0898438,105.6489258c0,1.4277344-0.0839844,3.1704102-0.0839844,4.7661133
		c0,1.0708008,0.0839844,1.6376953,0.8193359,1.6376953c0.1474609,0,0.2519531,0,0.4404297-0.0839844v0.4619141
		c-0.3359375,0.1469727-0.8183594,0.2939453-1.34375,0.2939453c-0.7763672,0-1.34375-0.4619141-1.4482422-1.3017578
		c-1.1757812,1.1757812-2.015625,1.5327148-3.2958984,1.5327148c-1.4492188,0-2.7929688-1.0498047-2.7929688-2.5825195
		s0.9658203-2.4775391,2.6455078-2.8134766c0.8193359-0.1679688,1.7216797-0.2519531,2.4990234-0.4829102
		c0.8183594-0.230957,0.9648438-0.3779297,0.9648438-1.0498047c0-1.6796875-0.796875-2.6455078-2.3085938-2.6455078
		c-1.0917969,0-2.1210938,0.5039062-2.6464844,1.4277344h-0.2304688v-1.0917969
		c1.0917969-0.8188477,2.0371094-1.2177734,3.3808594-1.2177734
		C588.6416016,102.4995117,590.0898438,103.6542969,590.0898438,105.6489258z M585.9335938,112.0737305
		c0.9238281,0,1.8886719-0.5249023,2.4765625-1.4697266l0.0839844-3.1494141
		c-0.1884766,0.0629883-0.734375,0.1889648-1.7421875,0.3779297c-1.9316406,0.3569336-2.6455078,1.0917969-2.6455078,2.246582
		C584.1064453,111.3178711,584.9257812,112.0737305,585.9335938,112.0737305z"/>
	<path class="st1" d="M600.7597656,96.956543c0.3144531,0,0.6083984-0.0419922,0.9443359-0.1049805
		c-0.1044922,0.902832-0.1679688,4.3251953-0.1679688,5.7319336v4.4301758c0,1.4277344,0.0634766,4.8291016,0.1679688,5.7319336
		c-0.3359375-0.0629883-0.6298828-0.1049805-0.9443359-0.1049805c-0.3154297,0-0.609375,0.0419922-0.9453125,0.1049805
		c0.1679688-1.6586914,0.1679688-4.8920898,0.1679688-5.7319336v-4.4301758c0-0.8608398,0-4.03125-0.1679688-5.7319336
		C600.1503906,96.9145508,600.4443359,96.956543,600.7597656,96.956543z"/>
	<path class="st1" d="M607.6679688,99.0561523c0,0.5878906-0.4824219,1.0708008-1.0703125,1.0708008
		s-1.0712891-0.4829102-1.0712891-1.0708008c0-0.6088867,0.5039062-1.0708008,1.0712891-1.0708008
		C607.1640625,97.9853516,607.6679688,98.4472656,607.6679688,99.0561523z M606.5976562,102.8144531
		c0.3144531,0,0.5878906-0.0209961,0.9443359-0.1049805c-0.1044922,0.9448242-0.1679688,2.8134766-0.1679688,3.7163086v2.6035156
		c0,1.4277344,0.0634766,2.6455078,0.1679688,3.7163086c-0.3564453-0.0629883-0.671875-0.1049805-0.9443359-0.1049805
		c-0.3154297,0-0.609375,0.0419922-0.9453125,0.1049805c0.1679688-1.3227539,0.1679688-2.8554688,0.1679688-3.6953125v-2.8344727
		c0-1.2597656-0.0625-2.4145508-0.1679688-3.5063477C606.0097656,102.793457,606.3242188,102.8144531,606.5976562,102.8144531z"/>
	<path class="st1" d="M615.7734375,96.8515625c-0.0214844,0.6508789-0.0839844,1.0708008-0.0839844,1.6796875l-0.1259766,0.0629883
		c-0.3359375-0.2099609-0.7138672-0.3149414-1.1552734-0.3149414c-1.0917969,0-1.7207031,0.8188477-1.7207031,2.0996094
		c0,0.5039062,0.1679688,1.9106445,0.2304688,2.3095703l0.0214844,0.1469727c1.3222656,0,1.8886719-0.0209961,2.1621094-0.0209961
		c-0.0214844,0.1469727-0.0419922,0.2099609-0.0419922,0.3569336c0,0.1679688,0.0205078,0.3149414,0.0419922,0.4829102
		c-0.9023438-0.0209961-1.5742188-0.0629883-2.1621094-0.0629883v1.6166992c0,2.8764648,0.0205078,5.1650391,0.0839844,7.5375977
		c-0.3154297-0.0629883-0.5878906-0.1049805-0.9033203-0.1049805s-0.5878906,0.0419922-0.9238281,0.1049805
		c0.1884766-3.0444336,0.1884766-5.8789062,0.1884766-9.1542969c-0.4824219,0-0.9443359,0.0419922-1.5117188,0.0629883
		c0.0634766-0.1889648,0.0429688-0.2729492,0.0429688-0.4199219s-0.0214844-0.2519531-0.0429688-0.4199219l1.5117188,0.0209961
		c0.0214844-1.2807617,0.3154297-2.2885742,0.7353516-3.359375c0.8398438-2.0996094,2.3515625-2.6875,3.2119141-2.6875
		C615.5,96.7885742,615.6679688,96.8305664,615.7734375,96.8515625z"/>
	<path class="st1" d="M625.2441406,106.8037109v0.3569336l-0.0429688,0.440918
		c-1.2597656-0.0209961-2.6240234-0.0629883-4.1152344-0.0629883c-1.0078125,0-2.0566406,0.0419922-3.1279297,0.0629883
		c-0.0205078,0.1049805-0.0205078,0.3989258-0.0205078,0.4619141c0,2.6035156,1.5117188,4.0102539,3.6113281,4.0102539
		c1.0703125,0,2.3515625-0.5878906,3.1699219-1.4907227l0.1054688,0.0629883l-0.1269531,1.0288086
		c-1.0917969,0.8398438-2.4140625,1.2807617-3.5273438,1.2807617c-2.9179688,0-5.0800781-2.0786133-5.0800781-4.9550781
		c0-3.4433594,1.7636719-5.5009766,4.8076172-5.5009766C623.5849609,102.4995117,625.2441406,104.2001953,625.2441406,106.8037109z
		 M620.7294922,106.8666992c0.7353516,0,1.9736328-0.0629883,2.7919922-0.0629883
		c-0.0205078-2.4145508-0.8808594-3.6323242-2.5820312-3.6323242c-1.6171875,0-2.7089844,1.3647461-2.9394531,3.6323242
		C618.8183594,106.8037109,620.3935547,106.8666992,620.7294922,106.8666992z"/>
	<path class="st1" d="M633.0566406,102.8144531c0.3154297,0,0.6308594-0.0419922,0.9667969-0.1049805
		c0.734375,2.6875,1.5742188,5.1860352,2.6875,8.0415039c0.796875-1.9736328,2.2675781-6.1938477,2.7714844-8.0415039
		c0.2519531,0.0629883,0.4609375,0.1049805,0.6289062,0.1049805s0.2734375-0.0209961,0.5878906-0.1049805
		c0.6933594,2.6875,1.6386719,5.1650391,2.6669922,8.0415039c0.8398438-2.1206055,2.1416016-5.6479492,2.9814453-8.0415039
		c0.2734375,0.0839844,0.4824219,0.1049805,0.671875,0.1049805c0.2304688,0,0.3984375-0.0419922,0.6298828-0.1049805
		c-1.5957031,3.4643555-2.9814453,6.6767578-4.1787109,10.0361328c-0.1679688-0.0629883-0.3564453-0.1049805-0.5449219-0.1049805
		c-0.1679688,0-0.2949219,0.0419922-0.546875,0.1049805c-0.734375-2.6035156-1.5742188-5.0180664-2.6875-7.7895508
		c-0.7128906,1.7006836-2.0361328,5.3120117-2.7714844,7.7895508c-0.1884766-0.0629883-0.3984375-0.1049805-0.5878906-0.1049805
		c-0.1884766,0-0.3984375,0.0419922-0.5878906,0.1049805c-0.8398438-2.7504883-2.7285156-7.8105469-3.6738281-10.0361328
		C632.4902344,102.793457,632.7421875,102.8144531,633.0566406,102.8144531z"/>
	<path class="st1" d="M658.7167969,107.7275391c0,3.4643555-2.2880859,5.2280273-5.0800781,5.2280273
		c-2.9394531,0-5.1230469-1.8896484-5.1230469-5.1020508c0-4.2832031,2.9599609-5.3540039,5.0800781-5.3540039
		C656.5332031,102.4995117,658.7167969,104.3681641,658.7167969,107.7275391z M653.6152344,112.2836914
		c2.1210938,0,3.2539062-1.6166992,3.2539062-4.5561523c0-2.918457-1.0917969-4.5561523-3.2753906-4.5561523
		c-2.0996094,0-3.2324219,1.5957031-3.2324219,4.5561523C650.3613281,110.6669922,651.515625,112.2836914,653.6152344,112.2836914z"
		/>
	<path class="st1" d="M666.1523438,102.6254883c-0.0634766,0.1469727-0.1474609,0.5039062-0.1474609,1.4067383v0.2939453
		l-0.1474609,0.1049805c-0.2304688-0.230957-0.671875-0.3359375-1.0283203-0.3359375
		c-1.34375,0-2.1416016,1.2597656-2.1416016,2.8764648v2.8554688c0,1.2597656,0.0214844,2.2255859,0.0839844,2.918457
		c-0.3144531-0.0629883-0.5878906-0.1049805-0.8398438-0.1049805c-0.2734375,0-0.5458984,0.0419922-0.8818359,0.1049805
		c0.0634766-0.5668945,0.0839844-1.2597656,0.0839844-2.246582v-4.6821289c0-0.902832-0.0205078-2.4775391-0.0839844-3.1074219
		c0.3994141,0.0839844,0.6298828,0.1049805,0.8818359,0.1049805s0.5253906-0.0419922,0.8398438-0.1049805l-0.0839844,1.0498047
		c-0.0214844,0.230957-0.0214844,0.5668945-0.0214844,0.9868164l0.0429688,0.0209961
		c0.8183594-1.5117188,1.7841797-2.2675781,2.7919922-2.2675781
		C665.7529297,102.4995117,665.9003906,102.5415039,666.1523438,102.6254883z"/>
	<path class="st1" d="M669.8486328,99.8959961h0.1044922c-0.0839844,1.0917969-0.1044922,1.9316406-0.1679688,3.1074219
		c0.5673828,0,1.6171875-0.0629883,2.2265625-0.0629883c-0.0214844,0.0839844-0.0214844,0.4619141-0.0214844,0.5249023
		c0,0.1889648,0,0.2939453,0.0214844,0.3569336c-0.4833984-0.0209961-1.21875-0.0419922-1.4912109-0.0419922h-0.7353516
		c-0.0625,0.5878906-0.1464844,4.0942383-0.1464844,5.3959961c0,1.5957031,0.1054688,3.1074219,1.6796875,3.1074219
		c0.3144531,0,0.7138672-0.0629883,0.9658203-0.1469727v0.5039062c-0.5244141,0.1889648-1.1123047,0.3149414-1.6162109,0.3149414
		c-1.7226562,0-2.5830078-0.8818359-2.5830078-2.6665039c0-0.9448242,0.1259766-3.3803711,0.1474609-6.5087891
		c-0.7353516,0-1.1972656,0.0209961-1.4277344,0.0419922c0.0625-0.230957,0.0410156-0.3149414,0.0410156-0.4829102
		c0-0.1469727-0.0205078-0.2729492-0.0410156-0.4199219c0.7558594,0.0629883,1.1542969,0.0629883,1.3847656,0.0629883
		l-0.0839844-2.3515625L669.8486328,99.8959961z"/>
	<path class="st1" d="M674.8261719,96.956543c0.3144531,0,0.6083984-0.0419922,0.9443359-0.1049805
		c-0.1044922,1.0498047-0.1679688,4.7451172-0.1679688,5.6269531v1.9106445h0.0419922
		c0.7773438-1.1967773,1.8261719-1.8896484,3.3378906-1.8896484c2.0996094,0,3.3808594,1.2177734,3.3808594,3.6743164
		c0,1.112793-0.0839844,2.3725586-0.0839844,3.9682617v1.0498047c0,0.3989258,0.0419922,1.1757812,0.0419922,1.5537109
		c-0.3564453-0.0629883-0.6083984-0.1049805-0.8818359-0.1049805s-0.5253906,0.0419922-0.8613281,0.1049805
		c0-1.1967773,0.1474609-3.0864258,0.1474609-4.4511719v-1.6166992c0-1.7426758-0.7763672-3.0864258-2.3095703-3.0864258
		c-1.7851562,0-2.8134766,1.0498047-2.8134766,3.5063477c0,1.1757812,0.0634766,4.6401367,0.1679688,5.6479492
		c-0.3564453-0.0629883-0.671875-0.1049805-0.9443359-0.1049805c-0.3154297,0-0.609375,0.0419922-0.9453125,0.1049805
		c0.1679688-1.6586914,0.1679688-4.8920898,0.1679688-5.7319336v-4.4301758c0-0.8608398,0-4.03125-0.1679688-5.7319336
		C674.2167969,96.9145508,674.5107422,96.956543,674.8261719,96.956543z"/>
	<path class="st1" d="M692.7167969,96.956543c0.3154297,0,0.609375-0.0419922,0.9453125-0.1049805
		c-0.1054688,0.902832-0.1679688,4.3251953-0.1679688,5.7319336v4.4301758c0,1.4277344,0.0625,4.8291016,0.1679688,5.7319336
		c-0.3359375-0.0629883-0.6298828-0.1049805-0.9453125-0.1049805c-0.3144531,0-0.6083984,0.0419922-0.9443359,0.1049805
		c0.1679688-1.6586914,0.1679688-4.8920898,0.1679688-5.7319336v-4.4301758c0-0.8608398,0-4.03125-0.1679688-5.7319336
		C692.1083984,96.9145508,692.4023438,96.956543,692.7167969,96.956543z"/>
	<path class="st1" d="M699.6259766,99.0561523c0,0.5878906-0.4833984,1.0708008-1.0712891,1.0708008
		s-1.0703125-0.4829102-1.0703125-1.0708008c0-0.6088867,0.5039062-1.0708008,1.0703125-1.0708008
		C699.1220703,97.9853516,699.6259766,98.4472656,699.6259766,99.0561523z M698.5546875,102.8144531
		c0.3154297,0,0.5878906-0.0209961,0.9453125-0.1049805c-0.1054688,0.9448242-0.1679688,2.8134766-0.1679688,3.7163086v2.6035156
		c0,1.4277344,0.0625,2.6455078,0.1679688,3.7163086c-0.3574219-0.0629883-0.671875-0.1049805-0.9453125-0.1049805
		c-0.3144531,0-0.6083984,0.0419922-0.9443359,0.1049805c0.1679688-1.3227539,0.1679688-2.8554688,0.1679688-3.6953125v-2.8344727
		c0-1.2597656-0.0634766-2.4145508-0.1679688-3.5063477C697.9667969,102.793457,698.2822266,102.8144531,698.5546875,102.8144531z"
		/>
	<path class="st1" d="M702.5878906,102.8144531c0.3154297,0,0.5878906-0.0419922,0.9238281-0.1049805
		c0.8613281,2.7504883,1.8691406,5.3959961,3.1289062,8.1884766c0.734375-1.5327148,1.2382812-2.7924805,3.2128906-8.1884766
		c0.2089844,0.0629883,0.4199219,0.1049805,0.6503906,0.1049805c0.2519531,0,0.4199219-0.0419922,0.6503906-0.1049805
		l-2.1835938,4.934082c-0.7558594,1.7426758-1.4277344,3.4223633-2.0361328,5.1020508
		c-0.2099609-0.0629883-0.4199219-0.1049805-0.6513672-0.1049805c-0.2519531,0-0.3564453,0.0209961-0.671875,0.1049805
		c-1.34375-3.4433594-2.5400391-6.6557617-4.0722656-10.0361328
		C701.9794922,102.793457,702.2734375,102.8144531,702.5878906,102.8144531z"/>
	<path class="st1" d="M715.5869141,99.0561523c0,0.5878906-0.4833984,1.0708008-1.0712891,1.0708008
		s-1.0703125-0.4829102-1.0703125-1.0708008c0-0.6088867,0.5039062-1.0708008,1.0703125-1.0708008
		C715.0830078,97.9853516,715.5869141,98.4472656,715.5869141,99.0561523z M714.515625,102.8144531
		c0.3154297,0,0.5878906-0.0209961,0.9453125-0.1049805c-0.1054688,0.9448242-0.1679688,2.8134766-0.1679688,3.7163086v2.6035156
		c0,1.4277344,0.0625,2.6455078,0.1679688,3.7163086c-0.3574219-0.0629883-0.671875-0.1049805-0.9453125-0.1049805
		c-0.3144531,0-0.6083984,0.0419922-0.9443359,0.1049805c0.1679688-1.3227539,0.1679688-2.8554688,0.1679688-3.6953125v-2.8344727
		c0-1.2597656-0.0634766-2.4145508-0.1679688-3.5063477C713.9277344,102.793457,714.2431641,102.8144531,714.515625,102.8144531z"/>
	<path class="st1" d="M727.5136719,106.2158203c0,1.112793-0.0839844,2.3305664-0.0839844,3.9262695
		c0,1.8476562,0.0419922,2.2255859,0.0419922,2.6035156c-0.3564453-0.0839844-0.6083984-0.1049805-0.8818359-0.1049805
		s-0.5253906,0.0209961-0.8613281,0.1049805c0-1.1967773,0.1474609-3.0864258,0.1474609-4.4511719v-1.6166992
		c0-1.7426758-0.7763672-3.0864258-2.3095703-3.0864258c-1.8476562,0-2.8134766,1.1757812-2.8134766,3.359375v2.5195312
		c0,0.902832,0.0634766,2.3305664,0.1679688,3.2753906c-0.3359375-0.0629883-0.6298828-0.1049805-0.9443359-0.1049805
		c-0.3154297,0-0.609375,0.0419922-0.9453125,0.1049805c0.1679688-1.3227539,0.1679688-2.8554688,0.1679688-3.6953125v-2.8344727
		c0-1.2597656-0.0625-2.4145508-0.1679688-3.5063477c0.3574219,0.0839844,0.671875,0.1049805,0.9453125,0.1049805
		c0.2089844,0,0.4824219-0.0419922,0.8398438-0.1049805c-0.0214844,0.3569336-0.0634766,1.1757812-0.0634766,1.6796875h0.0419922
		c0.7773438-1.1967773,1.8261719-1.8896484,3.3378906-1.8896484
		C726.2324219,102.4995117,727.5136719,103.6962891,727.5136719,106.2158203z"/>
	<path class="st1" d="M737.4042969,102.6674805c0.6513672,0,1.3232422-0.0419922,1.6386719-0.1049805
		C739.0214844,102.7094727,739,102.8984375,739,103.003418c0,0.1469727,0.0214844,0.2939453,0.0429688,0.440918
		c-0.8613281-0.0629883-1.5751953-0.1469727-2.3310547-0.1679688l-0.0419922,0.0419922
		c0.9023438,0.5039062,1.4492188,1.6376953,1.4492188,2.6665039c0,2.0996094-1.5332031,3.3383789-3.90625,3.3383789
		c-0.3564453,0-0.7763672-0.0419922-1.1328125-0.0419922c-0.5253906,0-1.0507812,0.4199219-1.0507812,0.9868164
		c0,0.8608398,0.5039062,1.0498047,1.2392578,1.0498047c0.1044922,0,2.0361328,0.0629883,2.3095703,0.0629883
		c1.8691406,0.0629883,3.5898438,0.7138672,3.5898438,2.7294922c0,1.9316406-1.5527344,4.2202148-4.9335938,4.2202148
		c-2.75,0-4.4296875-1.1547852-4.4296875-3.0234375c0-1.34375,0.8808594-2.3305664,2.2460938-2.7714844v-0.0419922
		c-0.8613281-0.2519531-1.3222656-0.8608398-1.3222656-1.6796875s0.6289062-1.5537109,1.4902344-1.7426758v-0.0419922
		c-1.28125-0.5668945-2.0576172-1.574707-2.0576172-3.1074219c0-2.0996094,1.5117188-3.4223633,4.03125-3.4223633
		C734.5917969,102.4995117,737.0683594,102.6674805,737.4042969,102.6674805z M734.234375,117.7216797
		c1.953125,0,3.3808594-1.0708008,3.3808594-2.7504883c0-1.5957031-0.8613281-2.3305664-3.1914062-2.3305664
		c-2.2675781,0-3.2753906,0.8188477-3.2753906,2.4355469C731.1484375,116.8398438,732.28125,117.7216797,734.234375,117.7216797z
		 M734.171875,108.7773438c1.4902344,0,2.3085938-1.1967773,2.3085938-2.9604492
		c0-1.6796875-0.8808594-2.7084961-2.3085938-2.7084961s-2.3730469,1.0498047-2.3730469,2.8134766
		C731.7988281,107.7695312,732.6601562,108.7773438,734.171875,108.7773438z"/>
</g>
<g>
</g>
<g>
</g>
<g>
</g>
<g>
</g>
<g>
</g>
<g>
</g>
<g>
</g>
<g>
</g>
<g>
</g>
<g>
</g>
<g>
</g>
<g>
</g>
<g>
</g>
<g>
</g>
<g>
</g>
</svg>
