<?xml version="1.0" encoding="utf-8"?>
<!-- Generator: Adobe Illustrator 23.1.0, SVG Export Plug-In . SVG Version: 6.00 Build 0)  -->
<svg version="1.1" id="Layer_1" xmlns="http://www.w3.org/2000/svg" xmlns:xlink="http://www.w3.org/1999/xlink" x="0px" y="0px"
	 viewBox="0 0 137 20" style="enable-background:new 0 0 137 20;" xml:space="preserve">
<style type="text/css">
	.st0{fill:#8B0000;stroke:#B2892D;stroke-width:0.5;stroke-miterlimit:10;}
	.st1{fill:none;}
	.st2{fill:#FFFFFF;}
</style>
<path class="st0" d="M126.5000076,19H10.4999914C5.824996,19,2,15.175004,2,10.5000086v-0.0000172
	C2,5.824996,5.824996,2,10.4999914,2h116.0000153C131.1750031,2,135,5.824996,135,10.4999914v0.0000172
	C135,15.175004,131.1750031,19,126.5000076,19z"/>
<g>
	<rect x="6.75" y="5" class="st1" width="123.25" height="9.396286"/>
	<path class="st2" d="M12.6289063,13.5981445c-0.0878906,0-0.2001953-0.0097656-0.3076172-0.0097656
		c-0.9423828-0.0390625-1.3037109-0.2783203-1.6796875-0.8691406c-0.2734375-0.4003906-0.5615234-0.9472656-0.8203125-1.4111328
		c-0.1513672-0.2587891-0.3027344-0.3662109-0.6591797-0.3662109H8.9082031v1.3574219
		c0,0.7617188,0.0830078,0.8203125,0.78125,0.8789063v0.3417969H7.0917969v-0.3417969
		c0.7080078-0.0585938,0.8105469-0.1171875,0.8105469-0.8789063V8.7299805c0-0.7519531-0.0927734-0.8105469-0.7714844-0.859375
		V7.5288086h2.4511719c0.7275391,0,1.1767578,0.0830078,1.5380859,0.3222656C11.4912109,8.090332,11.75,8.5004883,11.75,9.0717773
		c0,0.8105469-0.4980469,1.2695313-1.1523438,1.5478516c0.1513672,0.2685547,0.5029297,0.8886719,0.78125,1.3085938
		c0.3222656,0.5029297,0.4931641,0.7519531,0.6933594,0.9521484c0.2197266,0.2392578,0.4101563,0.3417969,0.6054688,0.4101563
		L12.6289063,13.5981445z M9.2597656,10.5610352c0.4003906,0,0.6884766-0.0732422,0.8984375-0.2490234
		C10.5,10.0483398,10.6416016,9.6821289,10.6416016,9.2084961c0-0.9570313-0.6201172-1.3085938-1.2109375-1.3085938
		c-0.2392578,0-0.3710938,0.0390625-0.4296875,0.1025391C8.9277344,8.0512695,8.9082031,8.1489258,8.9082031,8.378418v2.1826172
		H9.2597656z"/>
	<path class="st2" d="M17.7900391,12.0112305c-0.0537109,0.3564453-0.2392578,1.2402344-0.3222656,1.5087891h-4.5507813v-0.3417969
		c0.78125-0.0683594,0.8691406-0.1171875,0.8691406-0.8789063V8.7495117c0-0.78125-0.0878906-0.8300781-0.7568359-0.8789063
		V7.5288086h4.21875c0.0097656,0.1708984,0.0488281,0.8300781,0.0927734,1.3623047l-0.3613281,0.0488281
		c-0.0830078-0.3515625-0.1904297-0.5908203-0.3222656-0.7714844c-0.1171875-0.1660156-0.3710938-0.2490234-0.9277344-0.2490234
		h-0.5615234c-0.3173828,0-0.3515625,0.0195313-0.3515625,0.3222656v1.9580078h0.7128906
		c0.7714844,0,0.859375-0.0585938,0.9814453-0.6884766h0.3466797v1.8505859h-0.3466797
		c-0.1220703-0.6738281-0.2099609-0.7128906-0.9814453-0.7128906h-0.7128906v1.6308594
		c0,0.4296875,0.0634766,0.6396484,0.234375,0.7324219c0.15625,0.0878906,0.4785156,0.1074219,0.8691406,0.1074219
		c0.5371094,0,0.8398438-0.0585938,1.0400391-0.2880859c0.1708984-0.1904297,0.3271484-0.4833984,0.4785156-0.8837891
		L17.7900391,12.0112305z"/>
	<path class="st2" d="M24.2158203,11.0004883c-0.4882813,0.0878906-0.5371094,0.1171875-0.5371094,0.6982422v0.7519531
		c0,0.3173828,0.0097656,0.6201172,0.0585938,0.8789063c-0.5615234,0.1318359-1.3085938,0.3222656-2.0410156,0.3222656
		c-2.0507813,0-3.3496094-1.2402344-3.3496094-3.0615234c0-2.1289063,1.6699219-3.1982422,3.5107422-3.1982422
		c0.7275391,0,1.4111328,0.1757813,1.7285156,0.2587891c0.0292969,0.3173828,0.0830078,0.8105469,0.1416016,1.4892578
		l-0.3515625,0.0683594c-0.2392578-1.0888672-0.8886719-1.4306641-1.6796875-1.4306641
		c-1.1816406,0-2.1484375,0.9912109-2.1484375,2.6611328c0,1.3818359,0.7080078,2.8222656,2.2607422,2.8222656
		c0.2294922,0,0.4492188-0.0488281,0.5957031-0.1318359c0.1513672-0.0878906,0.234375-0.2197266,0.234375-0.5371094v-0.8203125
		c0-0.6298828-0.0537109-0.6933594-0.9716797-0.7714844v-0.3417969h2.5488281V11.0004883z"/>
	<path class="st2" d="M24.8066406,13.5200195v-0.3417969c0.6982422-0.0585938,0.7910156-0.1171875,0.7910156-0.8789063V8.7495117
		c0-0.7714844-0.0927734-0.8300781-0.7910156-0.8789063V7.5288086h2.5976563v0.3417969
		c-0.6982422,0.0488281-0.78125,0.1074219-0.78125,0.8789063v3.5498047c0,0.7714844,0.0830078,0.8203125,0.78125,0.8789063
		v0.3417969H24.8066406z"/>
	<path class="st2" d="M31.3837891,8.9985352C31.203125,8.4223633,30.9443359,7.777832,30.1875,7.777832
		c-0.5908203,0-0.9423828,0.4199219-0.9423828,0.9228516c0,0.5712891,0.390625,0.8789063,1.1523438,1.2597656
		c0.8496094,0.4199219,1.5966797,0.9082031,1.5966797,1.8798828c0,1.0205078-0.859375,1.8115234-2.1484375,1.8115234
		c-0.3515625,0-0.6494141-0.0634766-0.8984375-0.1318359c-0.2539063-0.0683594-0.4101563-0.1416016-0.5224609-0.1904297
		c-0.0878906-0.2392578-0.2001953-0.9472656-0.2685547-1.4990234l0.3613281-0.1025391
		c0.15625,0.5615234,0.6054688,1.5332031,1.5185547,1.5332031c0.6005859,0,0.9814453-0.4003906,0.9814453-1.0107422
		c0-0.5908203-0.4541016-0.9326172-1.1328125-1.2890625c-0.8007813-0.4003906-1.5576172-0.8935547-1.5576172-1.8408203
		c0-0.9619141,0.7470703-1.7285156,2.0068359-1.7285156c0.5126953,0,0.9716797,0.1464844,1.2207031,0.2294922
		c0.0390625,0.3271484,0.1025391,0.7177734,0.1806641,1.3085938L31.3837891,8.9985352z"/>
	<path class="st2" d="M37.3896484,9.0522461c-0.1025391-0.4736328-0.1904297-0.7324219-0.3320313-0.8935547
		c-0.1611328-0.1806641-0.3271484-0.2392578-0.8984375-0.2392578h-0.5126953v4.3798828
		c0,0.7519531,0.0830078,0.8203125,0.9130859,0.8789063v0.3417969h-2.8320313v-0.3417969
		c0.8007813-0.0585938,0.8789063-0.1269531,0.8789063-0.8789063V7.9194336h-0.4394531
		c-0.6787109,0-0.8496094,0.0927734-0.9765625,0.2587891c-0.1318359,0.1513672-0.2099609,0.4541016-0.3222656,0.8740234h-0.3613281
		c0.0390625-0.6298828,0.0927734-1.2744141,0.1123047-1.7626953h0.2392578C33,7.4995117,33.1074219,7.5288086,33.3564453,7.5288086
		h3.5595703c0.2441406,0,0.3417969-0.0585938,0.4833984-0.2392578h0.2490234
		c0.0097656,0.4003906,0.0585938,1.1621094,0.0878906,1.7285156L37.3896484,9.0522461z"/>
	<path class="st2" d="M43.1318359,12.0112305c-0.0537109,0.3564453-0.2392578,1.2402344-0.3222656,1.5087891h-4.5507813v-0.3417969
		c0.78125-0.0683594,0.8691406-0.1171875,0.8691406-0.8789063V8.7495117c0-0.78125-0.0878906-0.8300781-0.7568359-0.8789063
		V7.5288086h4.21875c0.0097656,0.1708984,0.0488281,0.8300781,0.0927734,1.3623047l-0.3613281,0.0488281
		c-0.0830078-0.3515625-0.1904297-0.5908203-0.3222656-0.7714844c-0.1171875-0.1660156-0.3710938-0.2490234-0.9277344-0.2490234
		h-0.5615234c-0.3173828,0-0.3515625,0.0195313-0.3515625,0.3222656v1.9580078h0.7128906
		c0.7714844,0,0.859375-0.0585938,0.9814453-0.6884766h0.3466797v1.8505859h-0.3466797
		c-0.1220703-0.6738281-0.2099609-0.7128906-0.9814453-0.7128906h-0.7128906v1.6308594
		c0,0.4296875,0.0634766,0.6396484,0.234375,0.7324219c0.15625,0.0878906,0.4785156,0.1074219,0.8691406,0.1074219
		c0.5371094,0,0.8398438-0.0585938,1.0400391-0.2880859c0.1708984-0.1904297,0.3271484-0.4833984,0.4785156-0.8837891
		L43.1318359,12.0112305z"/>
	<path class="st2" d="M49.1572266,13.5981445c-0.0878906,0-0.2001953-0.0097656-0.3076172-0.0097656
		c-0.9423828-0.0390625-1.3037109-0.2783203-1.6796875-0.8691406c-0.2734375-0.4003906-0.5615234-0.9472656-0.8203125-1.4111328
		c-0.1513672-0.2587891-0.3027344-0.3662109-0.6591797-0.3662109h-0.2539063v1.3574219
		c0,0.7617188,0.0830078,0.8203125,0.78125,0.8789063v0.3417969h-2.5976563v-0.3417969
		c0.7080078-0.0585938,0.8105469-0.1171875,0.8105469-0.8789063V8.7299805c0-0.7519531-0.0927734-0.8105469-0.7714844-0.859375
		V7.5288086h2.4511719c0.7275391,0,1.1767578,0.0830078,1.5380859,0.3222656
		c0.3710938,0.2392578,0.6298828,0.6494141,0.6298828,1.2207031c0,0.8105469-0.4980469,1.2695313-1.1523438,1.5478516
		c0.1513672,0.2685547,0.5029297,0.8886719,0.78125,1.3085938c0.3222656,0.5029297,0.4931641,0.7519531,0.6933594,0.9521484
		c0.2197266,0.2392578,0.4101563,0.3417969,0.6054688,0.4101563L49.1572266,13.5981445z M45.7880859,10.5610352
		c0.4003906,0,0.6884766-0.0732422,0.8984375-0.2490234c0.3417969-0.2636719,0.4833984-0.6298828,0.4833984-1.1035156
		c0-0.9570313-0.6201172-1.3085938-1.2109375-1.3085938c-0.2392578,0-0.3710938,0.0390625-0.4296875,0.1025391
		c-0.0732422,0.0488281-0.0927734,0.1464844-0.0927734,0.3759766v2.1826172H45.7880859z"/>
	<path class="st2" d="M57.7607422,7.8608398C57.2626953,7.8901367,57.0625,8.0219727,57.0136719,8.3881836
		c-0.0390625,0.2832031-0.0683594,0.7128906-0.0683594,1.5234375v3.6865234h-0.4345703l-3.6865234-4.6289063h-0.0195313v2.1386719
		c0,0.78125,0.0390625,1.2207031,0.0683594,1.4941406c0.0390625,0.4101563,0.2392578,0.546875,0.8691406,0.5761719v0.3417969
		h-2.2509766v-0.3417969c0.5126953-0.0292969,0.7324219-0.1660156,0.7714844-0.5566406
		c0.0390625-0.2929688,0.078125-0.7324219,0.078125-1.5136719V9.1401367c0-0.6201172-0.0097656-0.7324219-0.1757813-0.9521484
		c-0.1708984-0.2197266-0.390625-0.2880859-0.78125-0.3271484V7.5288086h1.5576172l3.5009766,4.2626953h0.0292969V9.9116211
		c0-0.8105469-0.0390625-1.2402344-0.0683594-1.5136719c-0.0488281-0.3662109-0.2587891-0.4980469-0.8886719-0.5371094V7.5288086
		h2.2460938V7.8608398z"/>
	<path class="st2" d="M61.3740234,7.4018555c1.5771484,0,2.9199219,1.2060547,2.9199219,3.0566406
		c0,2.0019531-1.3623047,3.1933594-3.0322266,3.1933594c-1.7089844,0-2.96875-1.3134766-2.96875-3.1005859
		c0-1.6113281,1.0986328-3.1494141,3.0712891-3.1494141H61.3740234z M61.1835938,7.7875977
		c-0.9228516,0-1.6894531,0.9521484-1.6894531,2.5537109c0,1.6210938,0.7568359,2.9101563,1.9384766,2.9101563
		c0.8984375,0,1.6503906-0.8398438,1.6503906-2.5390625c0-1.8603516-0.8203125-2.9248047-1.8896484-2.9248047H61.1835938z"/>
	<path class="st2" d="M73.3320313,7.8706055c-0.6103516,0.078125-0.7275391,0.1708984-0.9814453,0.8984375
		c-0.2099609,0.6396484-0.7470703,2.2607422-1.4990234,4.8388672h-0.4394531
		c-0.4785156-1.3964844-0.9912109-2.8564453-1.4794922-4.2675781h-0.0195313
		c-0.4785156,1.4794922-0.9619141,2.8808594-1.4013672,4.2675781h-0.4296875
		C66.59375,11.9624023,66.125,10.3803711,65.6220703,8.7397461c-0.2197266-0.7080078-0.3710938-0.8105469-0.8984375-0.8691406
		V7.5288086h2.4804688v0.3417969c-0.6689453,0.0683594-0.6835938,0.1611328-0.5615234,0.6103516
		c0.3222656,1.1474609,0.6396484,2.2607422,0.9814453,3.4082031h0.0195313
		c0.4492188-1.4306641,0.9179688-2.8710938,1.3574219-4.296875h0.4101563
		c0.4931641,1.4355469,1.0009766,2.8564453,1.5039063,4.3164063h0.0292969
		c0.3466797-1.1572266,0.7763672-2.7001953,0.9179688-3.3203125c0.1220703-0.5371094,0.078125-0.6591797-0.6396484-0.7177734
		V7.5288086h2.109375V7.8706055z"/>
	<path class="st2" d="M80.6708984,9.0522461c-0.1025391-0.4736328-0.1904297-0.7324219-0.3320313-0.8935547
		c-0.1611328-0.1806641-0.3271484-0.2392578-0.8984375-0.2392578h-0.5126953v4.3798828
		c0,0.7519531,0.0830078,0.8203125,0.9130859,0.8789063v0.3417969h-2.8320313v-0.3417969
		c0.8007813-0.0585938,0.8789063-0.1269531,0.8789063-0.8789063V7.9194336h-0.4394531
		c-0.6787109,0-0.8496094,0.0927734-0.9765625,0.2587891c-0.1318359,0.1513672-0.2099609,0.4541016-0.3222656,0.8740234h-0.3613281
		c0.0390625-0.6298828,0.0927734-1.2744141,0.1123047-1.7626953h0.2392578
		c0.1416016,0.2099609,0.2490234,0.2392578,0.4980469,0.2392578h3.5595703c0.2441406,0,0.3417969-0.0585938,0.4833984-0.2392578
		h0.2490234c0.0097656,0.4003906,0.0585938,1.1621094,0.0878906,1.7285156L80.6708984,9.0522461z"/>
	<path class="st2" d="M84.6210938,7.4018555c1.5771484,0,2.9199219,1.2060547,2.9199219,3.0566406
		c0,2.0019531-1.3623047,3.1933594-3.0322266,3.1933594c-1.7089844,0-2.96875-1.3134766-2.96875-3.1005859
		c0-1.6113281,1.0986328-3.1494141,3.0712891-3.1494141H84.6210938z M84.4306641,7.7875977
		c-0.9228516,0-1.6894531,0.9521484-1.6894531,2.5537109c0,1.6210938,0.7568359,2.9101563,1.9384766,2.9101563
		c0.8984375,0,1.6503906-0.8398438,1.6503906-2.5390625c0-1.8603516-0.8203125-2.9248047-1.8896484-2.9248047H84.4306641z"/>
	<path class="st2" d="M93.5859375,8.9985352c-0.1806641-0.5761719-0.4394531-1.2207031-1.1962891-1.2207031
		c-0.5908203,0-0.9423828,0.4199219-0.9423828,0.9228516c0,0.5712891,0.390625,0.8789063,1.1523438,1.2597656
		c0.8496094,0.4199219,1.5966797,0.9082031,1.5966797,1.8798828c0,1.0205078-0.859375,1.8115234-2.1484375,1.8115234
		c-0.3515625,0-0.6494141-0.0634766-0.8984375-0.1318359c-0.2539063-0.0683594-0.4101563-0.1416016-0.5224609-0.1904297
		c-0.0878906-0.2392578-0.2001953-0.9472656-0.2685547-1.4990234l0.3613281-0.1025391
		c0.15625,0.5615234,0.6054688,1.5332031,1.5185547,1.5332031c0.6005859,0,0.9814453-0.4003906,0.9814453-1.0107422
		c0-0.5908203-0.4541016-0.9326172-1.1328125-1.2890625c-0.8007813-0.4003906-1.5576172-0.8935547-1.5576172-1.8408203
		c0-0.9619141,0.7470703-1.7285156,2.0068359-1.7285156c0.5126953,0,0.9716797,0.1464844,1.2207031,0.2294922
		C93.7958984,7.9487305,93.859375,8.3393555,93.9375,8.9301758L93.5859375,8.9985352z"/>
	<path class="st2" d="M99.5576172,12.0112305c-0.0537109,0.3564453-0.2392578,1.2402344-0.3222656,1.5087891h-4.5507813v-0.3417969
		c0.78125-0.0683594,0.8691406-0.1171875,0.8691406-0.8789063V8.7495117c0-0.78125-0.0878906-0.8300781-0.7568359-0.8789063
		V7.5288086h4.21875c0.0097656,0.1708984,0.0488281,0.8300781,0.0927734,1.3623047l-0.3613281,0.0488281
		c-0.0830078-0.3515625-0.1904297-0.5908203-0.3222656-0.7714844c-0.1171875-0.1660156-0.3710938-0.2490234-0.9277344-0.2490234
		h-0.5615234c-0.3173828,0-0.3515625,0.0195313-0.3515625,0.3222656v1.9580078h0.7128906
		c0.7714844,0,0.859375-0.0585938,0.9814453-0.6884766H98.625v1.8505859h-0.3466797
		c-0.1220703-0.6738281-0.2099609-0.7128906-0.9814453-0.7128906h-0.7128906v1.6308594
		c0,0.4296875,0.0634766,0.6396484,0.234375,0.7324219c0.15625,0.0878906,0.4785156,0.1074219,0.8691406,0.1074219
		c0.5371094,0,0.8398438-0.0585938,1.0400391-0.2880859c0.1708984-0.1904297,0.3271484-0.4833984,0.4785156-0.8837891
		L99.5576172,12.0112305z"/>
	<path class="st2" d="M104.8447266,12.0112305c-0.0527344,0.3564453-0.2382813,1.2402344-0.3222656,1.5087891h-4.5498047v-0.3417969
		c0.78125-0.0683594,0.8691406-0.1171875,0.8691406-0.8789063V8.7495117c0-0.78125-0.0878906-0.8300781-0.7568359-0.8789063
		V7.5288086h4.21875c0.0097656,0.1708984,0.0488281,0.8300781,0.0917969,1.3623047l-0.3603516,0.0488281
		c-0.0830078-0.3515625-0.1904297-0.5908203-0.3222656-0.7714844c-0.1171875-0.1660156-0.3710938-0.2490234-0.9277344-0.2490234
		h-0.5615234c-0.3173828,0-0.3515625,0.0195313-0.3515625,0.3222656v1.9580078h0.7128906
		c0.7714844,0,0.859375-0.0585938,0.9814453-0.6884766h0.3466797v1.8505859h-0.3466797
		c-0.1220703-0.6738281-0.2099609-0.7128906-0.9814453-0.7128906h-0.7128906v1.6308594
		c0,0.4296875,0.0634766,0.6396484,0.234375,0.7324219c0.15625,0.0878906,0.4785156,0.1074219,0.8691406,0.1074219
		c0.5371094,0,0.8398438-0.0585938,1.0400391-0.2880859c0.1708984-0.1904297,0.3271484-0.4833984,0.4775391-0.8837891
		L104.8447266,12.0112305z"/>
	<path class="st2" d="M113.7177734,7.8706055c-0.7275391,0.0488281-0.8007813,0.1074219-0.8007813,0.8691406v3.5693359
		c0,0.7617188,0.0830078,0.8007813,0.7910156,0.8691406v0.3417969h-2.6611328v-0.3417969
		c0.7519531-0.0683594,0.8300781-0.1074219,0.8300781-0.8691406v-1.7285156h-2.6806641v1.7285156
		c0,0.7617188,0.0830078,0.8007813,0.78125,0.8691406v0.3417969h-2.5976563v-0.3417969
		c0.6982422-0.0683594,0.7763672-0.1074219,0.7763672-0.8691406V8.7397461c0-0.7617188-0.078125-0.8203125-0.8056641-0.8691406
		V7.5288086h2.5976563v0.3417969c-0.6689453,0.0488281-0.7519531,0.1074219-0.7519531,0.8691406v1.3623047h2.6806641V8.7397461
		c0-0.7617188-0.078125-0.8203125-0.7568359-0.8691406V7.5288086h2.5976563V7.8706055z"/>
	<path class="st2" d="M117.4726563,7.4018555c1.5771484,0,2.9199219,1.2060547,2.9199219,3.0566406
		c0,2.0019531-1.3623047,3.1933594-3.0322266,3.1933594c-1.7089844,0-2.96875-1.3134766-2.96875-3.1005859
		c0-1.6113281,1.0986328-3.1494141,3.0712891-3.1494141H117.4726563z M117.2822266,7.7875977
		c-0.9228516,0-1.6894531,0.9521484-1.6894531,2.5537109c0,1.6210938,0.7568359,2.9101563,1.9384766,2.9101563
		c0.8984375,0,1.6503906-0.8398438,1.6503906-2.5390625c0-1.8603516-0.8203125-2.9248047-1.8896484-2.9248047H117.2822266z"/>
	<path class="st2" d="M129.4306641,7.8706055c-0.6103516,0.078125-0.7275391,0.1708984-0.9814453,0.8984375
		c-0.2099609,0.6396484-0.7470703,2.2607422-1.4990234,4.8388672h-0.4394531
		c-0.4785156-1.3964844-0.9912109-2.8564453-1.4794922-4.2675781h-0.0195313
		c-0.4785156,1.4794922-0.9619141,2.8808594-1.4013672,4.2675781h-0.4296875
		c-0.4882813-1.6455078-0.9570313-3.2275391-1.4599609-4.8681641c-0.2197266-0.7080078-0.3710938-0.8105469-0.8984375-0.8691406
		V7.5288086h2.4804688v0.3417969c-0.6689453,0.0683594-0.6835938,0.1611328-0.5615234,0.6103516
		c0.3222656,1.1474609,0.6396484,2.2607422,0.9814453,3.4082031h0.0195313
		c0.4492188-1.4306641,0.9179688-2.8710938,1.3574219-4.296875h0.4101563
		c0.4931641,1.4355469,1.0009766,2.8564453,1.5039063,4.3164063h0.0292969
		c0.3466797-1.1572266,0.7763672-2.7001953,0.9179688-3.3203125c0.1220703-0.5371094,0.078125-0.6591797-0.6396484-0.7177734
		V7.5288086h2.109375V7.8706055z"/>
</g>
<g>
</g>
<g>
</g>
<g>
</g>
<g>
</g>
<g>
</g>
<g>
</g>
<g>
</g>
<g>
</g>
<g>
</g>
<g>
</g>
<g>
</g>
<g>
</g>
<g>
</g>
<g>
</g>
<g>
</g>
</svg>
