<?xml version="1.0" encoding="utf-8"?>
<!-- Generator: Adobe Illustrator 23.1.0, SVG Export Plug-In . SVG Version: 6.00 Build 0)  -->
<svg version="1.1" id="Layer_1" xmlns="http://www.w3.org/2000/svg" xmlns:xlink="http://www.w3.org/1999/xlink" x="0px" y="0px"
	 viewBox="0 0 54 20" style="enable-background:new 0 0 54 20;" xml:space="preserve">
<style type="text/css">
	.st0{fill:#8B0000;stroke:#B2892D;stroke-width:0.5;stroke-miterlimit:10;}
	.st1{fill:none;}
	.st2{fill:#FFFFFF;}
</style>
<path class="st0" d="M44.0000076,19H9.9999914C5.324996,19,1.5,15.175004,1.5,10.5000086v-0.0000172
	C1.5,5.824996,5.324996,2,9.9999914,2h34.0000153C48.6750031,2,52.5,5.824996,52.5,10.4999914v0.0000172
	C52.5,15.175004,48.6750031,19,44.0000076,19z"/>
<g>
	<rect x="5.6374998" y="5" class="st1" width="43.7249985" height="9.396286"/>
	<path class="st2" d="M11.5161133,13.5981445c-0.0878906,0-0.2001953-0.0097656-0.3076172-0.0097656
		c-0.9423828-0.0390625-1.3037109-0.2783203-1.6796875-0.8691406c-0.2734375-0.4003906-0.5615234-0.9472656-0.8203125-1.4111328
		c-0.1513672-0.2587891-0.3027344-0.3662109-0.6591797-0.3662109H7.7954102v1.3574219
		c0,0.7617188,0.0830078,0.8203125,0.78125,0.8789063v0.3417969H5.9790039v-0.3417969
		c0.7080078-0.0585938,0.8105469-0.1171875,0.8105469-0.8789063V8.7299805c0-0.7519531-0.0927734-0.8105469-0.7714844-0.859375
		V7.5288086h2.4511719c0.7275391,0,1.1767578,0.0830078,1.5380859,0.3222656
		C10.378418,8.090332,10.637207,8.5004883,10.637207,9.0717773c0,0.8105469-0.4980469,1.2695313-1.1523438,1.5478516
		c0.1513672,0.2685547,0.5029297,0.8886719,0.78125,1.3085938c0.3222656,0.5029297,0.4931641,0.7519531,0.6933594,0.9521484
		c0.2197266,0.2392578,0.4101563,0.3417969,0.6054688,0.4101563L11.5161133,13.5981445z M8.1469727,10.5610352
		c0.4003906,0,0.6884766-0.0732422,0.8984375-0.2490234c0.3417969-0.2636719,0.4833984-0.6298828,0.4833984-1.1035156
		c0-0.9570313-0.6201172-1.3085938-1.2109375-1.3085938c-0.2392578,0-0.3710938,0.0390625-0.4296875,0.1025391
		C7.8149414,8.0512695,7.7954102,8.1489258,7.7954102,8.378418v2.1826172H8.1469727z"/>
	<path class="st2" d="M16.6772461,12.0112305c-0.0537109,0.3564453-0.2392578,1.2402344-0.3222656,1.5087891h-4.5507813v-0.3417969
		c0.78125-0.0683594,0.8691406-0.1171875,0.8691406-0.8789063V8.7495117c0-0.78125-0.0878906-0.8300781-0.7568359-0.8789063
		V7.5288086h4.21875c0.0097656,0.1708984,0.0488281,0.8300781,0.0927734,1.3623047l-0.3613281,0.0488281
		c-0.0830078-0.3515625-0.1904297-0.5908203-0.3222656-0.7714844c-0.1171875-0.1660156-0.3710938-0.2490234-0.9277344-0.2490234
		h-0.5615234c-0.3173828,0-0.3515625,0.0195313-0.3515625,0.3222656v1.9580078h0.7128906
		c0.7714844,0,0.859375-0.0585938,0.9814453-0.6884766h0.3466797v1.8505859h-0.3466797
		c-0.1220703-0.6738281-0.2099609-0.7128906-0.9814453-0.7128906h-0.7128906v1.6308594
		c0,0.4296875,0.0634766,0.6396484,0.234375,0.7324219c0.15625,0.0878906,0.4785156,0.1074219,0.8691406,0.1074219
		c0.5371094,0,0.8398438-0.0585938,1.0400391-0.2880859c0.1708984-0.1904297,0.3271484-0.4833984,0.4785156-0.8837891
		L16.6772461,12.0112305z"/>
	<path class="st2" d="M23.1030273,11.0004883c-0.4882813,0.0878906-0.5371094,0.1171875-0.5371094,0.6982422v0.7519531
		c0,0.3173828,0.0097656,0.6201172,0.0585938,0.8789063c-0.5615234,0.1318359-1.3085938,0.3222656-2.0410156,0.3222656
		c-2.0507813,0-3.3496094-1.2402344-3.3496094-3.0615234c0-2.1289063,1.6699219-3.1982422,3.5107422-3.1982422
		c0.7275391,0,1.4111328,0.1757813,1.7285156,0.2587891c0.0292969,0.3173828,0.0830078,0.8105469,0.1416016,1.4892578
		l-0.3515625,0.0683594c-0.2392578-1.0888672-0.8886719-1.4306641-1.6796875-1.4306641
		c-1.1816406,0-2.1484375,0.9912109-2.1484375,2.6611328c0,1.3818359,0.7080078,2.8222656,2.2607422,2.8222656
		c0.2294922,0,0.4492188-0.0488281,0.5957031-0.1318359c0.1513672-0.0878906,0.234375-0.2197266,0.234375-0.5371094v-0.8203125
		c0-0.6298828-0.0537109-0.6933594-0.9716797-0.7714844v-0.3417969h2.5488281V11.0004883z"/>
	<path class="st2" d="M23.6938477,13.5200195v-0.3417969c0.6982422-0.0585938,0.7910156-0.1171875,0.7910156-0.8789063V8.7495117
		c0-0.7714844-0.0927734-0.8300781-0.7910156-0.8789063V7.5288086h2.5976563v0.3417969
		c-0.6982422,0.0488281-0.78125,0.1074219-0.78125,0.8789063v3.5498047c0,0.7714844,0.0830078,0.8203125,0.78125,0.8789063
		v0.3417969H23.6938477z"/>
	<path class="st2" d="M30.2709961,8.9985352C30.090332,8.4223633,29.831543,7.777832,29.074707,7.777832
		c-0.5908203,0-0.9423828,0.4199219-0.9423828,0.9228516c0,0.5712891,0.390625,0.8789063,1.1523438,1.2597656
		c0.8496094,0.4199219,1.5966797,0.9082031,1.5966797,1.8798828c0,1.0205078-0.859375,1.8115234-2.1484375,1.8115234
		c-0.3515625,0-0.6494141-0.0634766-0.8984375-0.1318359c-0.2539063-0.0683594-0.4101563-0.1416016-0.5224609-0.1904297
		c-0.0878906-0.2392578-0.2001953-0.9472656-0.2685547-1.4990234l0.3613281-0.1025391
		c0.15625,0.5615234,0.6054688,1.5332031,1.5185547,1.5332031c0.6005859,0,0.9814453-0.4003906,0.9814453-1.0107422
		c0-0.5908203-0.4541016-0.9326172-1.1328125-1.2890625c-0.8007813-0.4003906-1.5576172-0.8935547-1.5576172-1.8408203
		c0-0.9619141,0.7470703-1.7285156,2.0068359-1.7285156c0.5126953,0,0.9716797,0.1464844,1.2207031,0.2294922
		c0.0390625,0.3271484,0.1025391,0.7177734,0.1806641,1.3085938L30.2709961,8.9985352z"/>
	<path class="st2" d="M36.2768555,9.0522461c-0.1025391-0.4736328-0.1904297-0.7324219-0.3320313-0.8935547
		c-0.1611328-0.1806641-0.3271484-0.2392578-0.8984375-0.2392578h-0.5126953v4.3798828
		c0,0.7519531,0.0830078,0.8203125,0.9130859,0.8789063v0.3417969h-2.8320313v-0.3417969
		c0.8007813-0.0585938,0.8789063-0.1269531,0.8789063-0.8789063V7.9194336h-0.4394531
		c-0.6787109,0-0.8496094,0.0927734-0.9765625,0.2587891c-0.1318359,0.1513672-0.2099609,0.4541016-0.3222656,0.8740234H31.394043
		c0.0390625-0.6298828,0.0927734-1.2744141,0.1123047-1.7626953h0.2392578
		c0.1416016,0.2099609,0.2490234,0.2392578,0.4980469,0.2392578h3.5595703c0.2441406,0,0.3417969-0.0585938,0.4833984-0.2392578
		h0.2490234c0.0097656,0.4003906,0.0585938,1.1621094,0.0878906,1.7285156L36.2768555,9.0522461z"/>
	<path class="st2" d="M42.019043,12.0112305c-0.0537109,0.3564453-0.2392578,1.2402344-0.3222656,1.5087891h-4.5507813v-0.3417969
		c0.78125-0.0683594,0.8691406-0.1171875,0.8691406-0.8789063V8.7495117c0-0.78125-0.0878906-0.8300781-0.7568359-0.8789063
		V7.5288086h4.21875c0.0097656,0.1708984,0.0488281,0.8300781,0.0927734,1.3623047l-0.3613281,0.0488281
		c-0.0830078-0.3515625-0.1904297-0.5908203-0.3222656-0.7714844c-0.1171875-0.1660156-0.3710938-0.2490234-0.9277344-0.2490234
		h-0.5615234c-0.3173828,0-0.3515625,0.0195313-0.3515625,0.3222656v1.9580078h0.7128906
		c0.7714844,0,0.859375-0.0585938,0.9814453-0.6884766h0.3466797v1.8505859h-0.3466797
		c-0.1220703-0.6738281-0.2099609-0.7128906-0.9814453-0.7128906h-0.7128906v1.6308594
		c0,0.4296875,0.0634766,0.6396484,0.234375,0.7324219c0.15625,0.0878906,0.4785156,0.1074219,0.8691406,0.1074219
		c0.5371094,0,0.8398438-0.0585938,1.0400391-0.2880859c0.1708984-0.1904297,0.3271484-0.4833984,0.4785156-0.8837891
		L42.019043,12.0112305z"/>
	<path class="st2" d="M48.0444336,13.5981445c-0.0878906,0-0.2001953-0.0097656-0.3076172-0.0097656
		c-0.9423828-0.0390625-1.3037109-0.2783203-1.6796875-0.8691406c-0.2734375-0.4003906-0.5615234-0.9472656-0.8203125-1.4111328
		c-0.1513672-0.2587891-0.3027344-0.3662109-0.6591797-0.3662109h-0.2539063v1.3574219
		c0,0.7617188,0.0830078,0.8203125,0.78125,0.8789063v0.3417969h-2.5976563v-0.3417969
		c0.7080078-0.0585938,0.8105469-0.1171875,0.8105469-0.8789063V8.7299805c0-0.7519531-0.0927734-0.8105469-0.7714844-0.859375
		V7.5288086h2.4511719c0.7275391,0,1.1767578,0.0830078,1.5380859,0.3222656
		c0.3710938,0.2392578,0.6298828,0.6494141,0.6298828,1.2207031c0,0.8105469-0.4980469,1.2695313-1.1523438,1.5478516
		c0.1513672,0.2685547,0.5029297,0.8886719,0.78125,1.3085938c0.3222656,0.5029297,0.4931641,0.7519531,0.6933594,0.9521484
		c0.2197266,0.2392578,0.4101563,0.3417969,0.6054688,0.4101563L48.0444336,13.5981445z M44.675293,10.5610352
		c0.4003906,0,0.6884766-0.0732422,0.8984375-0.2490234c0.3417969-0.2636719,0.4833984-0.6298828,0.4833984-1.1035156
		c0-0.9570313-0.6201172-1.3085938-1.2109375-1.3085938c-0.2392578,0-0.3710938,0.0390625-0.4296875,0.1025391
		c-0.0732422,0.0488281-0.0927734,0.1464844-0.0927734,0.3759766v2.1826172H44.675293z"/>
</g>
<g>
</g>
<g>
</g>
<g>
</g>
<g>
</g>
<g>
</g>
<g>
</g>
<g>
</g>
<g>
</g>
<g>
</g>
<g>
</g>
<g>
</g>
<g>
</g>
<g>
</g>
<g>
</g>
<g>
</g>
</svg>
