<?xml version="1.0" encoding="utf-8"?>
<!-- Generator: Adobe Illustrator 23.0.3, SVG Export Plug-In . SVG Version: 6.00 Build 0)  -->
<svg version="1.1" id="Layer_1" xmlns="http://www.w3.org/2000/svg" xmlns:xlink="http://www.w3.org/1999/xlink" x="0px" y="0px"
	 viewBox="0 0 150 150" style="enable-background:new 0 0 150 150;" xml:space="preserve">
<style type="text/css">
	.st0{fill:#8B0000;}
	.st1{fill:#FFFFFF;}
	.st2{fill:none;stroke:#FFFFFF;stroke-width:2;stroke-linecap:round;stroke-linejoin:round;stroke-miterlimit:10;}
</style>
<rect class="st0" width="150" height="150"/>
<path class="st1" d="M110.7,119.1H39.3c-3.1,0-5.6-2.5-5.6-5.6V36.2c0-3.1,2.5-5.6,5.6-5.6h71.3c3.1,0,5.6,2.5,5.6,5.6v77.3
	C116.3,116.6,113.7,119.1,110.7,119.1z"/>
<path class="st0" d="M102.6,109.7H47.4c-1.9,0-3.5-1.6-3.5-3.5V68.8c0-1.9,1.6-3.5,3.5-3.5h55.2c1.9,0,3.5,1.6,3.5,3.5v37.4
	C106.1,108.2,104.5,109.7,102.6,109.7z"/>
<g>
	<path class="st0" d="M61.1,54.2c1,1,2.5,1.1,3.6,0.2C67.5,52.3,71.1,51,75,51s7.5,1.3,10.3,3.5c1.1,0.8,2.6,0.7,3.6-0.2l4.8-4.8
		c1.2-1.2,1-3.1-0.2-4.1c-5-4.1-11.5-6.5-18.5-6.5s-13.4,2.4-18.5,6.5c-1.3,1-1.4,2.9-0.2,4.1L61.1,54.2z"/>
</g>
<line class="st2" x1="70.7" y1="51.5" x2="68.6" y2="45.6"/>
</svg>
