<?xml version="1.0" encoding="utf-8"?>
<!-- Generator: Adobe Illustrator 28.0.0, SVG Export Plug-In . SVG Version: 6.00 Build 0)  -->
<svg version="1.1" id="Layer_1" xmlns="http://www.w3.org/2000/svg" xmlns:xlink="http://www.w3.org/1999/xlink" x="0px" y="0px"
	 viewBox="0 0 300 97.5" style="enable-background:new 0 0 300 97.5;" xml:space="preserve">
<style type="text/css">
	.st0{fill:none;}
	.st1{fill:#8B0000;}
</style>
<g>
	<rect x="9.1752577" y="7.6159792" class="st0" width="281.6494751" height="82.2680435"/>
	<path class="st1" d="M14.6791992,59.5595703c3.3540039,2.0644531,8.2558594,3.7841797,13.4155273,3.7841797
		c7.6542969,0,12.1259766-4.0419922,12.1259766-9.8896484c0-5.4179688-3.0957031-8.5136719-10.921875-11.5239258
		c-9.4599609-3.3540039-15.3076172-8.2558594-15.3076172-16.4257812c0-9.0297852,7.4819336-15.737793,18.7475586-15.737793
		c5.934082,0,10.2338867,1.3759766,12.8139648,2.8378906l-2.0639648,6.105957
		c-1.8920898-1.0317383-5.762207-2.7519531-11.0078125-2.7519531c-7.9121094,0-10.921875,4.7299805-10.921875,8.6860352
		c0,5.4179688,3.5258789,8.0839844,11.5239258,11.1796875c9.8037109,3.7841797,14.7915039,8.5141602,14.7915039,17.0273438
		c0,8.9443359-6.621582,16.6845703-20.2954102,16.6845703c-5.5898438,0-11.6958008-1.6347656-14.7919922-3.6982422
		L14.6791992,59.5595703z"/>
	<path class="st1" d="M66.2783203,15.3564453c0.0859375,2.5800781-1.8056641,4.644043-4.815918,4.644043
		c-2.6655273,0-4.5576172-2.0639648-4.5576172-4.644043c0-2.6655273,1.9780273-4.7294922,4.7299805-4.7294922
		C64.4726562,10.6269531,66.2783203,12.690918,66.2783203,15.3564453z M57.8505859,68.6757812V27.0527344h7.5678711v41.6230469
		H57.8505859z"/>
	<path class="st1" d="M113.8354492,27.0527344c-0.171875,3.0097656-0.34375,6.3637695-0.34375,11.4375V62.65625
		c0,9.5458984-1.8920898,15.3935547-5.934082,19.0048828c-4.0419922,3.7841797-9.8896484,4.9882812-15.1357422,4.9882812
		c-4.987793,0-10.4916992-1.2041016-13.8457031-3.4394531l1.8920898-5.7626953
		c2.7519531,1.7207031,7.0517578,3.2685547,12.2114258,3.2685547c7.7402344,0,13.4160156-4.0419922,13.4160156-14.5341797
		v-4.6435547h-0.171875c-2.3222656,3.8701172-6.7939453,6.9658203-13.2441406,6.9658203
		c-10.3193359,0-17.715332-8.7714844-17.715332-20.2958984c0-14.1035156,9.2016602-22.1015625,18.7475586-22.1015625
		c7.2236328,0,11.1796875,3.7841797,12.9858398,7.2241211h0.171875l0.3442383-6.277832H113.8354492z M106.0097656,43.4780273
		c0-1.2895508-0.0859375-2.4077148-0.4301758-3.4399414c-1.3759766-4.3857422-5.0737305-7.9975586-10.5776367-7.9975586
		c-7.2241211,0-12.3837891,6.105957-12.3837891,15.737793c0,8.1699219,4.1279297,14.9638672,12.2978516,14.9638672
		c4.6435547,0,8.8579102-2.9238281,10.4916992-7.7402344c0.4301758-1.2900391,0.6020508-2.7519531,0.6020508-4.0419922V43.4780273z"
		/>
	<path class="st1" d="M125.5317383,38.3183594c0-4.2998047-0.0859375-7.8261719-0.34375-11.265625h6.7075195l0.4301758,6.8798828
		h0.171875c2.0639648-3.9560547,6.8798828-7.8261719,13.7597656-7.8261719c5.762207,0,14.7055664,3.4399414,14.7055664,17.7158203
		v24.8535156h-7.5673828V44.6821289c0-6.7080078-2.4941406-12.2978516-9.6318359-12.2978516
		c-4.9882812,0-8.8579102,3.5258789-10.1479492,7.7397461c-0.3442383,0.9462891-0.5161133,2.2363281-0.5161133,3.5263672v25.0253906
		h-7.5678711V38.3183594z"/>
	<path class="st1" d="M199.2324219,10.7128906v34.3134766c0,12.9853516,5.7617188,18.4892578,13.5019531,18.4892578
		c8.5996094,0,14.1035156-5.6757812,14.1035156-18.4892578V10.7128906h7.5683594v33.7973633
		c0,17.8012695-9.3740234,25.1118164-21.9296875,25.1118164c-11.8681641,0-20.8115234-6.7939453-20.8115234-24.7680664V10.7128906
		H199.2324219z"/>
	<path class="st1" d="M247.1337891,40.6401367c0-5.331543-0.1728516-9.6318359-0.3447266-13.5874023h6.7939453l0.34375,7.1376953
		h0.1728516c3.0957031-5.0742188,7.9970703-8.0839844,14.7910156-8.0839844c10.0625,0,17.6298828,8.5136719,17.6298828,21.1557617
		c0,14.9633789-9.1152344,22.3598633-18.9199219,22.3598633c-5.5039062,0-10.3193359-2.4082031-12.8134766-6.5361328h-0.171875
		V85.703125h-7.4814453V40.6401367z M254.6152344,51.734375c0,1.1171875,0.171875,2.1494141,0.34375,3.0957031
		c1.3759766,5.2460938,5.9345703,8.8574219,11.3525391,8.8574219c7.9970703,0,12.6416016-6.5351562,12.6416016-16.081543
		c0-8.3417969-4.3857422-15.4794922-12.3837891-15.4794922c-5.1601562,0-9.9765625,3.6977539-11.4384766,9.3735352
		c-0.2578125,0.9462891-0.515625,2.0644531-0.515625,3.0961914V51.734375z"/>
</g>
<g>
</g>
<g>
</g>
<g>
</g>
<g>
</g>
<g>
</g>
<g>
</g>
<g>
</g>
<g>
</g>
<g>
</g>
<g>
</g>
<g>
</g>
<g>
</g>
<g>
</g>
<g>
</g>
<g>
</g>
</svg>
