<?xml version="1.0" encoding="utf-8"?>
<!-- Generator: Adobe Illustrator 28.0.0, SVG Export Plug-In . SVG Version: 6.00 Build 0)  -->
<svg version="1.1" id="Layer_1" xmlns="http://www.w3.org/2000/svg" xmlns:xlink="http://www.w3.org/1999/xlink" x="0px" y="0px"
	 viewBox="0 0 309 80.5" style="enable-background:new 0 0 309 80.5;" xml:space="preserve">
<style type="text/css">
	.st0{fill:none;}
	.st1{fill:#FFFFFF;}
</style>
<g>
	<rect x="7.0876288" y="8.3079901" class="st0" width="294.8247375" height="63.8840218"/>
	<path class="st1" d="M12.5913086,60.2519531c3.3540039,2.0644531,8.2558594,3.7841797,13.4155273,3.7841797
		c7.6542969,0,12.1259766-4.0419922,12.1259766-9.8896484c0-5.418457-3.0957031-8.5141602-10.921875-11.5244141
		c-9.4599609-3.3540039-15.3076172-8.2558594-15.3076172-16.4257812c0-9.0297852,7.4819336-15.737793,18.7475586-15.737793
		c5.934082,0,10.2338867,1.3759766,12.8139648,2.8378906l-2.0639648,6.105957
		c-1.8920898-1.0317383-5.762207-2.7519531-11.0078125-2.7519531c-7.9121094,0-10.921875,4.7299805-10.921875,8.6860352
		c0,5.4179688,3.5258789,8.0839844,11.5239258,11.1796875c9.8037109,3.7841797,14.7915039,8.5141602,14.7915039,17.027832
		c0,8.9443359-6.621582,16.6845703-20.2954102,16.6845703c-5.5898438,0-11.6958008-1.6347656-14.7919922-3.6982422
		L12.5913086,60.2519531z"/>
	<path class="st1" d="M63.5024414,11.4047852v57.9633789h-7.4819336V11.4047852H63.5024414z"/>
	<path class="st1" d="M120.6918945,66.7880859c-3.3540039,1.2041016-9.9760742,3.1816406-17.8017578,3.1816406
		c-8.7719727,0-15.9956055-2.2353516-21.671875-7.6533203C76.2304688,57.5,73.1347656,49.7602539,73.1347656,40.7299805
		c0.0859375-17.2856445,11.9536133-29.9272461,31.3891602-29.9272461c6.7080078,0,11.9536133,1.4619141,14.4477539,2.6660156
		l-1.8056641,6.105957c-3.0961914-1.3759766-6.9663086-2.4941406-12.8139648-2.4941406
		c-14.1040039,0-23.3056641,8.7719727-23.3056641,23.3056641c0,14.706543,8.8579102,23.3920898,22.3598633,23.3920898
		c4.9018555,0,8.2558594-0.6884766,9.9755859-1.5478516V44.9438477h-11.7817383v-6.0195312h19.0917969V66.7880859z"/>
	<path class="st1" d="M132.1298828,69.3681641V11.4047852h8.1699219l18.5761719,29.3251953
		c4.2998047,6.7939453,7.6533203,12.9008789,10.4052734,18.8344727l0.171875-0.0859375
		c-0.6875-7.7402344-0.859375-14.7924805-0.859375-23.8222656V11.4047852h7.0517578v57.9633789h-7.5683594l-18.4033203-29.4121094
		c-4.0419922-6.449707-7.9121094-13.0717773-10.8359375-19.3496094l-0.2578125,0.0859375
		c0.4296875,7.3100586,0.6020508,14.2758789,0.6020508,23.9077148v24.7680664H132.1298828z"/>
	<path class="st1" d="M214.4306641,11.4047852v34.3134766c0,12.9858398,5.7617188,18.4897461,13.5019531,18.4897461
		c8.5996094,0,14.1035156-5.6757812,14.1035156-18.4897461V11.4047852h7.5683594v33.7973633
		c0,17.8017578-9.3740234,25.1123047-21.9296875,25.1123047c-11.8681641,0-20.8115234-6.7939453-20.8115234-24.7685547V11.4047852
		H214.4306641z"/>
	<path class="st1" d="M262.5898438,12.0927734c3.6113281-0.6020508,8.3417969-1.1181641,14.3613281-1.1181641
		c7.3964844,0,12.8134766,1.7202148,16.2539062,4.815918c3.1816406,2.7519531,5.0742188,6.9658203,5.0742188,12.1259766
		c0,5.2456055-1.5478516,9.3735352-4.4726562,12.3837891c-3.9550781,4.2138672-10.4052734,6.3637695-17.7148438,6.3637695
		c-2.2363281,0-4.3007812-0.0859375-6.0205078-0.5161133v23.2202148h-7.4814453V12.0927734z M270.0712891,40.0419922
		c1.6337891,0.4301758,3.6982422,0.6020508,6.1923828,0.6020508c9.0292969,0,14.5332031-4.3857422,14.5332031-12.3837891
		c0-7.6538086-5.4179688-11.3515625-13.6738281-11.3515625c-3.2675781,0-5.7617188,0.2578125-7.0517578,0.6020508V40.0419922z"/>
</g>
<g>
</g>
<g>
</g>
<g>
</g>
<g>
</g>
<g>
</g>
<g>
</g>
<g>
</g>
<g>
</g>
<g>
</g>
<g>
</g>
<g>
</g>
<g>
</g>
<g>
</g>
<g>
</g>
<g>
</g>
</svg>
