<?xml version="1.0" encoding="utf-8"?>
<!-- Generator: Adobe Illustrator 23.1.0, SVG Export Plug-In . SVG Version: 6.00 Build 0)  -->
<svg version="1.1" id="Layer_1" xmlns="http://www.w3.org/2000/svg" xmlns:xlink="http://www.w3.org/1999/xlink" x="0px" y="0px"
	 viewBox="0 0 104 20" style="enable-background:new 0 0 104 20;" xml:space="preserve">
<style type="text/css">
	.st0{fill:#8B0000;stroke:#B2892D;stroke-width:0.5;stroke-miterlimit:10;}
	.st1{fill:none;}
	.st2{fill:#FFFFFF;}
</style>
<path class="st0" d="M94.0000076,19H9.9999914C5.324996,19,1.5,15.175004,1.5,10.5000086v-0.0000172
	C1.5,5.824996,5.324996,2,9.9999914,2h84.0000153C98.6750031,2,102.5,5.824996,102.5,10.4999914v0.0000172
	C102.5,15.175004,98.6750031,19,94.0000076,19z"/>
<g>
	<rect x="5.5" y="5" class="st1" width="92" height="9.396286"/>
	<path class="st2" d="M10.6513672,9.0522461c-0.1025391-0.4736328-0.1904297-0.7324219-0.3320313-0.8935547
		c-0.1611328-0.1806641-0.3271484-0.2392578-0.8984375-0.2392578H8.9082031v4.3798828
		c0,0.7519531,0.0830078,0.8203125,0.9130859,0.8789063v0.3417969H6.9892578v-0.3417969
		c0.8007813-0.0585938,0.8789063-0.1269531,0.8789063-0.8789063V7.9194336H7.4287109
		c-0.6787109,0-0.8496094,0.0927734-0.9765625,0.2587891C6.3203125,8.3295898,6.2421875,8.6323242,6.1298828,9.0522461H5.7685547
		C5.8076172,8.4223633,5.8613281,7.777832,5.8808594,7.2895508h0.2392578
		c0.1416016,0.2099609,0.2490234,0.2392578,0.4980469,0.2392578h3.5595703c0.2441406,0,0.3417969-0.0585938,0.4833984-0.2392578
		h0.2490234c0.0097656,0.4003906,0.0585938,1.1621094,0.0878906,1.7285156L10.6513672,9.0522461z"/>
	<path class="st2" d="M14.3037109,13.5200195v-0.3417969c0.5419922-0.078125,0.6005859-0.15625,0.4785156-0.5371094
		c-0.1074219-0.2929688-0.2490234-0.7128906-0.4003906-1.1230469h-1.8164063
		c-0.1123047,0.2929688-0.2294922,0.6201172-0.3320313,0.9912109c-0.1513672,0.4931641-0.1074219,0.5908203,0.5517578,0.6689453
		v0.3417969H10.734375v-0.3417969c0.6005859-0.078125,0.7177734-0.1464844,1.0205078-0.9277344l1.8408203-4.7509766
		l0.4296875-0.1074219c0.5566406,1.5576172,1.1474609,3.2861328,1.7285156,4.8388672
		c0.2783203,0.7910156,0.4003906,0.8789063,1.0009766,0.9472656v0.3417969H14.3037109z M13.5029297,8.8911133h-0.0292969
		c-0.2587891,0.7177734-0.5078125,1.4404297-0.7617188,2.1386719h1.5136719L13.5029297,8.8911133z"/>
	<path class="st2" d="M21.5351563,13.5200195c-0.4882813-0.6005859-1.2402344-1.6503906-1.9580078-2.6318359
		c-0.2001953-0.2685547-0.3417969-0.2978516-0.4833984-0.2685547v1.6699219c0,0.7714844,0.0830078,0.8300781,0.8007813,0.8886719
		v0.3417969h-2.5683594v-0.3417969c0.6689453-0.0585938,0.7617188-0.1171875,0.7617188-0.8886719V8.769043
		c0-0.7910156-0.0927734-0.8496094-0.8007813-0.8984375V7.5288086h2.5585938v0.3417969
		C19.1767578,7.9194336,19.09375,7.987793,19.09375,8.769043v1.5332031
		c0.1904297-0.0537109,0.4003906-0.1806641,0.6738281-0.4443359c0.546875-0.5566406,0.9960938-1.0888672,1.328125-1.5283203
		c0.2197266-0.2783203,0.2197266-0.4003906-0.1708984-0.4394531L20.734375,7.8706055V7.5288086h2.3095703v0.3417969
		c-0.6201172,0.0488281-0.9277344,0.1513672-1.4697266,0.6494141c-0.4394531,0.4199219-0.9277344,0.9521484-1.3769531,1.4501953
		c0.6005859,0.859375,1.3867188,1.8798828,1.9482422,2.5683594c0.4003906,0.4833984,0.6396484,0.5810547,1.0205078,0.6396484
		v0.3417969H21.5351563z"/>
	<path class="st2" d="M28.3759766,12.0112305c-0.0537109,0.3564453-0.2392578,1.2402344-0.3222656,1.5087891h-4.5507813v-0.3417969
		c0.78125-0.0683594,0.8691406-0.1171875,0.8691406-0.8789063V8.7495117c0-0.78125-0.0878906-0.8300781-0.7568359-0.8789063
		V7.5288086h4.21875c0.0097656,0.1708984,0.0488281,0.8300781,0.0927734,1.3623047l-0.3613281,0.0488281
		C27.4824219,8.5883789,27.375,8.3491211,27.2431641,8.168457c-0.1171875-0.1660156-0.3710938-0.2490234-0.9277344-0.2490234
		h-0.5615234c-0.3173828,0-0.3515625,0.0195313-0.3515625,0.3222656v1.9580078h0.7128906
		c0.7714844,0,0.859375-0.0585938,0.9814453-0.6884766h0.3466797v1.8505859h-0.3466797
		c-0.1220703-0.6738281-0.2099609-0.7128906-0.9814453-0.7128906h-0.7128906v1.6308594
		c0,0.4296875,0.0634766,0.6396484,0.234375,0.7324219c0.15625,0.0878906,0.4785156,0.1074219,0.8691406,0.1074219
		c0.5371094,0,0.8398438-0.0585938,1.0400391-0.2880859c0.1708984-0.1904297,0.3271484-0.4833984,0.4785156-0.8837891
		L28.3759766,12.0112305z"/>
	<path class="st2" d="M35.7001953,9.0522461c-0.1025391-0.4736328-0.1904297-0.7324219-0.3320313-0.8935547
		c-0.1611328-0.1806641-0.3271484-0.2392578-0.8984375-0.2392578h-0.5126953v4.3798828
		c0,0.7519531,0.0830078,0.8203125,0.9130859,0.8789063v0.3417969h-2.8320313v-0.3417969
		c0.8007813-0.0585938,0.8789063-0.1269531,0.8789063-0.8789063V7.9194336h-0.4394531
		c-0.6787109,0-0.8496094,0.0927734-0.9765625,0.2587891c-0.1318359,0.1513672-0.2099609,0.4541016-0.3222656,0.8740234h-0.3613281
		c0.0390625-0.6298828,0.0927734-1.2744141,0.1123047-1.7626953h0.2392578
		c0.1416016,0.2099609,0.2490234,0.2392578,0.4980469,0.2392578h3.5595703c0.2441406,0,0.3417969-0.0585938,0.4833984-0.2392578
		h0.2490234c0.0097656,0.4003906,0.0585938,1.1621094,0.0878906,1.7285156L35.7001953,9.0522461z"/>
	<path class="st2" d="M43,7.8706055c-0.7275391,0.0488281-0.8007813,0.1074219-0.8007813,0.8691406v3.5693359
		c0,0.7617188,0.0830078,0.8007813,0.7910156,0.8691406v0.3417969h-2.6611328v-0.3417969
		c0.7519531-0.0683594,0.8300781-0.1074219,0.8300781-0.8691406v-1.7285156h-2.6806641v1.7285156
		c0,0.7617188,0.0830078,0.8007813,0.78125,0.8691406v0.3417969h-2.5976563v-0.3417969
		c0.6982422-0.0683594,0.7763672-0.1074219,0.7763672-0.8691406V8.7397461c0-0.7617188-0.078125-0.8203125-0.8056641-0.8691406
		V7.5288086h2.5976563v0.3417969c-0.6689453,0.0488281-0.7519531,0.1074219-0.7519531,0.8691406v1.3623047h2.6806641V8.7397461
		c0-0.7617188-0.078125-0.8203125-0.7568359-0.8691406V7.5288086H43V7.8706055z"/>
	<path class="st2" d="M48.4833984,12.0112305c-0.0537109,0.3564453-0.2392578,1.2402344-0.3222656,1.5087891h-4.5507813v-0.3417969
		c0.78125-0.0683594,0.8691406-0.1171875,0.8691406-0.8789063V8.7495117c0-0.78125-0.0878906-0.8300781-0.7568359-0.8789063
		V7.5288086h4.21875c0.0097656,0.1708984,0.0488281,0.8300781,0.0927734,1.3623047l-0.3613281,0.0488281
		c-0.0830078-0.3515625-0.1904297-0.5908203-0.3222656-0.7714844c-0.1171875-0.1660156-0.3710938-0.2490234-0.9277344-0.2490234
		h-0.5615234c-0.3173828,0-0.3515625,0.0195313-0.3515625,0.3222656v1.9580078h0.7128906
		c0.7714844,0,0.859375-0.0585938,0.9814453-0.6884766h0.3466797v1.8505859h-0.3466797
		c-0.1220703-0.6738281-0.2099609-0.7128906-0.9814453-0.7128906h-0.7128906v1.6308594
		c0,0.4296875,0.0634766,0.6396484,0.234375,0.7324219c0.15625,0.0878906,0.4785156,0.1074219,0.8691406,0.1074219
		c0.5371094,0,0.8398438-0.0585938,1.0400391-0.2880859c0.1708984-0.1904297,0.3271484-0.4833984,0.4785156-0.8837891
		L48.4833984,12.0112305z"/>
	<path class="st2" d="M57.2138672,7.8608398c-0.4980469,0.0292969-0.6982422,0.1611328-0.7470703,0.5273438
		c-0.0390625,0.2832031-0.0683594,0.7128906-0.0683594,1.5234375v3.6865234h-0.4345703l-3.6865234-4.6289063h-0.0195313v2.1386719
		c0,0.78125,0.0390625,1.2207031,0.0683594,1.4941406c0.0390625,0.4101563,0.2392578,0.546875,0.8691406,0.5761719v0.3417969
		h-2.2509766v-0.3417969c0.5126953-0.0292969,0.7324219-0.1660156,0.7714844-0.5566406
		c0.0390625-0.2929688,0.078125-0.7324219,0.078125-1.5136719V9.1401367c0-0.6201172-0.0097656-0.7324219-0.1757813-0.9521484
		c-0.1708984-0.2197266-0.390625-0.2880859-0.78125-0.3271484V7.5288086h1.5576172l3.5009766,4.2626953h0.0292969V9.9116211
		c0-0.8105469-0.0390625-1.2402344-0.0683594-1.5136719c-0.0488281-0.3662109-0.2587891-0.4980469-0.8886719-0.5371094V7.5288086
		h2.2460938V7.8608398z"/>
	<path class="st2" d="M62.5263672,12.0112305c-0.0537109,0.3564453-0.2392578,1.2402344-0.3222656,1.5087891h-4.5507813v-0.3417969
		c0.78125-0.0683594,0.8691406-0.1171875,0.8691406-0.8789063V8.7495117c0-0.78125-0.0878906-0.8300781-0.7568359-0.8789063
		V7.5288086h4.21875c0.0097656,0.1708984,0.0488281,0.8300781,0.0927734,1.3623047l-0.3613281,0.0488281
		c-0.0830078-0.3515625-0.1904297-0.5908203-0.3222656-0.7714844c-0.1171875-0.1660156-0.3710938-0.2490234-0.9277344-0.2490234
		h-0.5615234c-0.3173828,0-0.3515625,0.0195313-0.3515625,0.3222656v1.9580078h0.7128906
		c0.7714844,0,0.859375-0.0585938,0.9814453-0.6884766H61.59375v1.8505859h-0.3466797
		c-0.1220703-0.6738281-0.2099609-0.7128906-0.9814453-0.7128906h-0.7128906v1.6308594
		c0,0.4296875,0.0634766,0.6396484,0.234375,0.7324219c0.15625,0.0878906,0.4785156,0.1074219,0.8691406,0.1074219
		c0.5371094,0,0.8398438-0.0585938,1.0400391-0.2880859c0.1708984-0.1904297,0.3271484-0.4833984,0.4785156-0.8837891
		L62.5263672,12.0112305z"/>
	<path class="st2" d="M66.1640625,13.5200195v-0.3417969c0.5566406-0.078125,0.5664063-0.1904297,0.4003906-0.4785156
		c-0.1416016-0.2490234-0.4296875-0.7177734-1.0302734-1.7382813c-0.4101563,0.6298828-0.7910156,1.2597656-1.0107422,1.6894531
		c-0.2001953,0.3710938-0.1513672,0.4394531,0.4296875,0.5273438v0.3417969h-2.2119141v-0.3417969
		c0.5029297-0.0585938,0.8203125-0.1904297,1.0839844-0.4882813c0.2392578-0.3222656,0.8398438-1.1279297,1.4599609-2.109375
		c-0.4541016-0.7421875-0.8300781-1.3916016-1.2304688-2.0214844c-0.3125-0.4980469-0.5126953-0.6298828-1.1523438-0.6884766
		V7.5288086h2.5390625v0.3417969c-0.5175781,0.078125-0.5078125,0.1611328-0.390625,0.390625
		c0.2001953,0.3808594,0.5126953,0.8886719,0.8837891,1.4794922c0.2880859-0.4394531,0.6005859-0.9326172,0.8203125-1.3525391
		c0.1757813-0.3466797,0.15625-0.4394531-0.4003906-0.5175781V7.5288086h2.1386719v0.3417969
		c-0.6103516,0.0683594-0.8398438,0.1611328-1.2109375,0.6396484c-0.2490234,0.3076172-0.5908203,0.78125-1.1083984,1.5673828
		c0.5078125,0.8203125,0.9667969,1.5722656,1.4501953,2.3242188c0.3808594,0.6005859,0.6005859,0.7080078,1.2304688,0.7763672
		v0.3417969H66.1640625z"/>
	<path class="st2" d="M73.9277344,9.0522461c-0.1025391-0.4736328-0.1904297-0.7324219-0.3320313-0.8935547
		c-0.1611328-0.1806641-0.3271484-0.2392578-0.8984375-0.2392578h-0.5126953v4.3798828
		c0,0.7519531,0.0830078,0.8203125,0.9130859,0.8789063v0.3417969H70.265625v-0.3417969
		c0.8007813-0.0585938,0.8789063-0.1269531,0.8789063-0.8789063V7.9194336h-0.4394531
		c-0.6787109,0-0.8496094,0.0927734-0.9765625,0.2587891c-0.1318359,0.1513672-0.2099609,0.4541016-0.3222656,0.8740234h-0.3613281
		c0.0390625-0.6298828,0.0927734-1.2744141,0.1123047-1.7626953h0.2392578
		c0.1416016,0.2099609,0.2490234,0.2392578,0.4980469,0.2392578h3.5595703c0.2441406,0,0.3417969-0.0585938,0.4833984-0.2392578
		h0.2490234c0.0097656,0.4003906,0.0585938,1.1621094,0.0878906,1.7285156L73.9277344,9.0522461z"/>
	<path class="st2" d="M80.1630859,8.9985352c-0.1806641-0.5761719-0.4394531-1.2207031-1.1962891-1.2207031
		c-0.5908203,0-0.9423828,0.4199219-0.9423828,0.9228516c0,0.5712891,0.390625,0.8789063,1.1523438,1.2597656
		c0.8496094,0.4199219,1.5966797,0.9082031,1.5966797,1.8798828c0,1.0205078-0.859375,1.8115234-2.1484375,1.8115234
		c-0.3515625,0-0.6494141-0.0634766-0.8984375-0.1318359c-0.2539063-0.0683594-0.4101563-0.1416016-0.5224609-0.1904297
		c-0.0878906-0.2392578-0.2001953-0.9472656-0.2685547-1.4990234l0.3613281-0.1025391
		c0.15625,0.5615234,0.6054688,1.5332031,1.5185547,1.5332031c0.6005859,0,0.9814453-0.4003906,0.9814453-1.0107422
		c0-0.5908203-0.4541016-0.9326172-1.1328125-1.2890625c-0.8007813-0.4003906-1.5576172-0.8935547-1.5576172-1.8408203
		c0-0.9619141,0.7470703-1.7285156,2.0068359-1.7285156c0.5126953,0,0.9716797,0.1464844,1.2207031,0.2294922
		c0.0390625,0.3271484,0.1025391,0.7177734,0.1806641,1.3085938L80.1630859,8.9985352z"/>
	<path class="st2" d="M86.1689453,9.0522461c-0.1025391-0.4736328-0.1904297-0.7324219-0.3320313-0.8935547
		c-0.1611328-0.1806641-0.3271484-0.2392578-0.8984375-0.2392578h-0.5126953v4.3798828
		c0,0.7519531,0.0830078,0.8203125,0.9130859,0.8789063v0.3417969h-2.8320313v-0.3417969
		c0.8007813-0.0585938,0.8789063-0.1269531,0.8789063-0.8789063V7.9194336h-0.4394531
		c-0.6787109,0-0.8496094,0.0927734-0.9765625,0.2587891c-0.1318359,0.1513672-0.2099609,0.4541016-0.3222656,0.8740234h-0.3613281
		c0.0390625-0.6298828,0.0927734-1.2744141,0.1123047-1.7626953h0.2392578
		c0.1416016,0.2099609,0.2490234,0.2392578,0.4980469,0.2392578h3.5595703c0.2441406,0,0.3417969-0.0585938,0.4833984-0.2392578
		h0.2490234C86.4375,7.6899414,86.4863281,8.4516602,86.515625,9.0180664L86.1689453,9.0522461z"/>
	<path class="st2" d="M91.9111328,12.0112305c-0.0537109,0.3564453-0.2392578,1.2402344-0.3222656,1.5087891h-4.5507813v-0.3417969
		c0.78125-0.0683594,0.8691406-0.1171875,0.8691406-0.8789063V8.7495117c0-0.78125-0.0878906-0.8300781-0.7568359-0.8789063
		V7.5288086h4.21875c0.0097656,0.1708984,0.0488281,0.8300781,0.0927734,1.3623047l-0.3613281,0.0488281
		c-0.0830078-0.3515625-0.1904297-0.5908203-0.3222656-0.7714844c-0.1171875-0.1660156-0.3710938-0.2490234-0.9277344-0.2490234
		h-0.5615234c-0.3173828,0-0.3515625,0.0195313-0.3515625,0.3222656v1.9580078h0.7128906
		c0.7714844,0,0.859375-0.0585938,0.9814453-0.6884766h0.3466797v1.8505859h-0.3466797
		c-0.1220703-0.6738281-0.2099609-0.7128906-0.9814453-0.7128906H88.9375v1.6308594
		c0,0.4296875,0.0634766,0.6396484,0.234375,0.7324219c0.15625,0.0878906,0.4785156,0.1074219,0.8691406,0.1074219
		c0.5371094,0,0.8398438-0.0585938,1.0400391-0.2880859c0.1708984-0.1904297,0.3271484-0.4833984,0.4785156-0.8837891
		L91.9111328,12.0112305z"/>
	<path class="st2" d="M94.8652344,7.5288086c0.703125,0,1.2011719,0.1025391,1.5820313,0.3710938
		c0.390625,0.2685547,0.6396484,0.7324219,0.6396484,1.328125c0,1.2207031-0.8984375,1.8017578-1.8408203,1.9140625
		c-0.1367188,0.0195313-0.2880859,0.0195313-0.390625,0.0195313l-0.6396484-0.1708984v1.3183594
		c0,0.7714844,0.0830078,0.8203125,0.8935547,0.8789063v0.3320313h-2.6904297v-0.3320313
		c0.6982422-0.0585938,0.7910156-0.1269531,0.7910156-0.8789063V8.7592773c0-0.7910156-0.0927734-0.8398438-0.7324219-0.8886719
		V7.5288086H94.8652344z M94.2158203,10.6196289c0.1220703,0.0488281,0.3417969,0.1025391,0.5810547,0.1025391
		c0.4394531,0,1.1621094-0.2832031,1.1621094-1.4501953c0-1.0107422-0.6201172-1.3720703-1.2402344-1.3720703
		c-0.2001953,0-0.3515625,0.0292969-0.4003906,0.0878906C94.25,8.0512695,94.2158203,8.1489258,94.2158203,8.3393555V10.6196289z"/>
</g>
<g>
</g>
<g>
</g>
<g>
</g>
<g>
</g>
<g>
</g>
<g>
</g>
<g>
</g>
<g>
</g>
<g>
</g>
<g>
</g>
<g>
</g>
<g>
</g>
<g>
</g>
<g>
</g>
<g>
</g>
</svg>
