<?xml version="1.0" encoding="utf-8"?>
<!-- Generator: Adobe Illustrator 23.1.0, SVG Export Plug-In . SVG Version: 6.00 Build 0)  -->
<svg version="1.1" id="Layer_1" xmlns="http://www.w3.org/2000/svg" xmlns:xlink="http://www.w3.org/1999/xlink" x="0px" y="0px"
	 viewBox="0 0 104 20" style="enable-background:new 0 0 104 20;" xml:space="preserve">
<style type="text/css">
	.st0{fill:#8B0000;stroke:#B2892D;stroke-width:0.5;stroke-miterlimit:10;}
	.st1{fill:none;}
	.st2{fill:#FFFFFF;}
</style>
<path class="st0" d="M94.0000076,19H9.9999914C5.324996,19,1.5,15.175004,1.5,10.5000086v-0.0000172
	C1.5,5.824996,5.324996,2,9.9999914,2h84.0000153C98.6750031,2,102.5,5.824996,102.5,10.4999914v0.0000172
	C102.5,15.175004,98.6750031,19,94.0000076,19z"/>
<g>
	<rect x="5.75" y="5" class="st1" width="92.5" height="9.396286"/>
	<path class="st2" d="M10.9013672,9.0522461c-0.1025391-0.4736328-0.1904297-0.7324219-0.3320313-0.8935547
		c-0.1611328-0.1806641-0.3271484-0.2392578-0.8984375-0.2392578H9.1582031v4.3798828
		c0,0.7519531,0.0830078,0.8203125,0.9130859,0.8789063v0.3417969H7.2392578v-0.3417969
		c0.8007813-0.0585938,0.8789063-0.1269531,0.8789063-0.8789063V7.9194336H7.6787109
		C7,7.9194336,6.8291016,8.012207,6.7021484,8.1782227C6.5703125,8.3295898,6.4921875,8.6323242,6.3798828,9.0522461H6.0185547
		C6.0576172,8.4223633,6.1113281,7.777832,6.1308594,7.2895508h0.2392578
		c0.1416016,0.2099609,0.2490234,0.2392578,0.4980469,0.2392578h3.5595703c0.2441406,0,0.3417969-0.0585938,0.4833984-0.2392578
		h0.2490234c0.0097656,0.4003906,0.0585938,1.1621094,0.0878906,1.7285156L10.9013672,9.0522461z"/>
	<path class="st2" d="M14.5537109,13.5200195v-0.3417969c0.5419922-0.078125,0.6005859-0.15625,0.4785156-0.5371094
		c-0.1074219-0.2929688-0.2490234-0.7128906-0.4003906-1.1230469h-1.8164063
		c-0.1123047,0.2929688-0.2294922,0.6201172-0.3320313,0.9912109c-0.1513672,0.4931641-0.1074219,0.5908203,0.5517578,0.6689453
		v0.3417969H10.984375v-0.3417969c0.6005859-0.078125,0.7177734-0.1464844,1.0205078-0.9277344l1.8408203-4.7509766
		l0.4296875-0.1074219c0.5566406,1.5576172,1.1474609,3.2861328,1.7285156,4.8388672
		c0.2783203,0.7910156,0.4003906,0.8789063,1.0009766,0.9472656v0.3417969H14.5537109z M13.7529297,8.8911133h-0.0292969
		c-0.2587891,0.7177734-0.5078125,1.4404297-0.7617188,2.1386719h1.5136719L13.7529297,8.8911133z"/>
	<path class="st2" d="M21.7851563,13.5200195c-0.4882813-0.6005859-1.2402344-1.6503906-1.9580078-2.6318359
		c-0.2001953-0.2685547-0.3417969-0.2978516-0.4833984-0.2685547v1.6699219c0,0.7714844,0.0830078,0.8300781,0.8007813,0.8886719
		v0.3417969h-2.5683594v-0.3417969c0.6689453-0.0585938,0.7617188-0.1171875,0.7617188-0.8886719V8.769043
		c0-0.7910156-0.0927734-0.8496094-0.8007813-0.8984375V7.5288086h2.5585938v0.3417969
		C19.4267578,7.9194336,19.34375,7.987793,19.34375,8.769043v1.5332031
		c0.1904297-0.0537109,0.4003906-0.1806641,0.6738281-0.4443359c0.546875-0.5566406,0.9960938-1.0888672,1.328125-1.5283203
		c0.2197266-0.2783203,0.2197266-0.4003906-0.1708984-0.4394531L20.984375,7.8706055V7.5288086h2.3095703v0.3417969
		c-0.6201172,0.0488281-0.9277344,0.1513672-1.4697266,0.6494141c-0.4394531,0.4199219-0.9277344,0.9521484-1.3769531,1.4501953
		c0.6005859,0.859375,1.3867188,1.8798828,1.9482422,2.5683594c0.4003906,0.4833984,0.6396484,0.5810547,1.0205078,0.6396484
		v0.3417969H21.7851563z"/>
	<path class="st2" d="M28.6259766,12.0112305c-0.0537109,0.3564453-0.2392578,1.2402344-0.3222656,1.5087891h-4.5507813v-0.3417969
		c0.78125-0.0683594,0.8691406-0.1171875,0.8691406-0.8789063V8.7495117c0-0.78125-0.0878906-0.8300781-0.7568359-0.8789063
		V7.5288086h4.21875c0.0097656,0.1708984,0.0488281,0.8300781,0.0927734,1.3623047l-0.3613281,0.0488281
		C27.7324219,8.5883789,27.625,8.3491211,27.4931641,8.168457c-0.1171875-0.1660156-0.3710938-0.2490234-0.9277344-0.2490234
		h-0.5615234c-0.3173828,0-0.3515625,0.0195313-0.3515625,0.3222656v1.9580078h0.7128906
		c0.7714844,0,0.859375-0.0585938,0.9814453-0.6884766h0.3466797v1.8505859h-0.3466797
		c-0.1220703-0.6738281-0.2099609-0.7128906-0.9814453-0.7128906h-0.7128906v1.6308594
		c0,0.4296875,0.0634766,0.6396484,0.234375,0.7324219c0.15625,0.0878906,0.4785156,0.1074219,0.8691406,0.1074219
		c0.5371094,0,0.8398438-0.0585938,1.0400391-0.2880859c0.1708984-0.1904297,0.3271484-0.4833984,0.4785156-0.8837891
		L28.6259766,12.0112305z"/>
	<path class="st2" d="M35.9501953,9.0522461c-0.1025391-0.4736328-0.1904297-0.7324219-0.3320313-0.8935547
		c-0.1611328-0.1806641-0.3271484-0.2392578-0.8984375-0.2392578h-0.5126953v4.3798828
		c0,0.7519531,0.0830078,0.8203125,0.9130859,0.8789063v0.3417969h-2.8320313v-0.3417969
		c0.8007813-0.0585938,0.8789063-0.1269531,0.8789063-0.8789063V7.9194336h-0.4394531
		c-0.6787109,0-0.8496094,0.0927734-0.9765625,0.2587891c-0.1318359,0.1513672-0.2099609,0.4541016-0.3222656,0.8740234h-0.3613281
		c0.0390625-0.6298828,0.0927734-1.2744141,0.1123047-1.7626953h0.2392578
		c0.1416016,0.2099609,0.2490234,0.2392578,0.4980469,0.2392578h3.5595703c0.2441406,0,0.3417969-0.0585938,0.4833984-0.2392578
		h0.2490234c0.0097656,0.4003906,0.0585938,1.1621094,0.0878906,1.7285156L35.9501953,9.0522461z"/>
	<path class="st2" d="M43.25,7.8706055c-0.7275391,0.0488281-0.8007813,0.1074219-0.8007813,0.8691406v3.5693359
		c0,0.7617188,0.0830078,0.8007813,0.7910156,0.8691406v0.3417969h-2.6611328v-0.3417969
		c0.7519531-0.0683594,0.8300781-0.1074219,0.8300781-0.8691406v-1.7285156h-2.6806641v1.7285156
		c0,0.7617188,0.0830078,0.8007813,0.78125,0.8691406v0.3417969h-2.5976563v-0.3417969
		c0.6982422-0.0683594,0.7763672-0.1074219,0.7763672-0.8691406V8.7397461c0-0.7617188-0.078125-0.8203125-0.8056641-0.8691406
		V7.5288086h2.5976563v0.3417969c-0.6689453,0.0488281-0.7519531,0.1074219-0.7519531,0.8691406v1.3623047h2.6806641V8.7397461
		c0-0.7617188-0.078125-0.8203125-0.7568359-0.8691406V7.5288086H43.25V7.8706055z"/>
	<path class="st2" d="M48.7333984,12.0112305c-0.0537109,0.3564453-0.2392578,1.2402344-0.3222656,1.5087891h-4.5507813v-0.3417969
		c0.78125-0.0683594,0.8691406-0.1171875,0.8691406-0.8789063V8.7495117c0-0.78125-0.0878906-0.8300781-0.7568359-0.8789063
		V7.5288086h4.21875c0.0097656,0.1708984,0.0488281,0.8300781,0.0927734,1.3623047l-0.3613281,0.0488281
		c-0.0830078-0.3515625-0.1904297-0.5908203-0.3222656-0.7714844c-0.1171875-0.1660156-0.3710938-0.2490234-0.9277344-0.2490234
		h-0.5615234c-0.3173828,0-0.3515625,0.0195313-0.3515625,0.3222656v1.9580078h0.7128906
		c0.7714844,0,0.859375-0.0585938,0.9814453-0.6884766h0.3466797v1.8505859h-0.3466797
		c-0.1220703-0.6738281-0.2099609-0.7128906-0.9814453-0.7128906h-0.7128906v1.6308594
		c0,0.4296875,0.0634766,0.6396484,0.234375,0.7324219c0.15625,0.0878906,0.4785156,0.1074219,0.8691406,0.1074219
		c0.5371094,0,0.8398438-0.0585938,1.0400391-0.2880859c0.1708984-0.1904297,0.3271484-0.4833984,0.4785156-0.8837891
		L48.7333984,12.0112305z"/>
	<path class="st2" d="M55.2470703,8.9692383c-0.0927734-0.3710938-0.1806641-0.5908203-0.3222656-0.7714844
		c-0.1464844-0.2099609-0.3808594-0.2783203-0.9375-0.2783203h-0.5615234c-0.3076172,0-0.3417969,0.0195313-0.3417969,0.3222656
		v2.0458984h0.8203125c0.8007813,0,0.8740234-0.0683594,0.9716797-0.6591797h0.3515625v1.8310547h-0.3515625
		c-0.0976563-0.6396484-0.1708984-0.7177734-0.9716797-0.7177734h-0.8203125v1.5283203
		c0,0.7910156,0.0830078,0.8398438,0.8935547,0.9082031v0.3417969h-2.7001953v-0.3417969
		c0.6884766-0.0585938,0.78125-0.1171875,0.78125-0.9082031V8.769043c0-0.7910156-0.0927734-0.8496094-0.7714844-0.8984375
		V7.5288086h4.2089844c0.0097656,0.2197266,0.0488281,0.8691406,0.1025391,1.3818359L55.2470703,8.9692383z"/>
	<path class="st2" d="M56.2675781,13.5200195v-0.3417969c0.6982422-0.0585938,0.7910156-0.1171875,0.7910156-0.8789063V8.7495117
		c0-0.7714844-0.0927734-0.8300781-0.7910156-0.8789063V7.5288086h2.5976563v0.3417969
		c-0.6982422,0.0488281-0.78125,0.1074219-0.78125,0.8789063v3.5498047c0,0.7714844,0.0830078,0.8203125,0.78125,0.8789063
		v0.3417969H56.2675781z"/>
	<path class="st2" d="M65.1152344,13.5981445c-0.0878906,0-0.2001953-0.0097656-0.3076172-0.0097656
		c-0.9423828-0.0390625-1.3037109-0.2783203-1.6796875-0.8691406c-0.2734375-0.4003906-0.5615234-0.9472656-0.8203125-1.4111328
		c-0.1513672-0.2587891-0.3027344-0.3662109-0.6591797-0.3662109h-0.2539063v1.3574219
		c0,0.7617188,0.0830078,0.8203125,0.78125,0.8789063v0.3417969H59.578125v-0.3417969
		c0.7080078-0.0585938,0.8105469-0.1171875,0.8105469-0.8789063V8.7299805c0-0.7519531-0.0927734-0.8105469-0.7714844-0.859375
		V7.5288086h2.4511719c0.7275391,0,1.1767578,0.0830078,1.5380859,0.3222656
		c0.3710938,0.2392578,0.6298828,0.6494141,0.6298828,1.2207031c0,0.8105469-0.4980469,1.2695313-1.1523438,1.5478516
		c0.1513672,0.2685547,0.5029297,0.8886719,0.78125,1.3085938c0.3222656,0.5029297,0.4931641,0.7519531,0.6933594,0.9521484
		c0.2197266,0.2392578,0.4101563,0.3417969,0.6054688,0.4101563L65.1152344,13.5981445z M61.7460938,10.5610352
		c0.4003906,0,0.6884766-0.0732422,0.8984375-0.2490234c0.3417969-0.2636719,0.4833984-0.6298828,0.4833984-1.1035156
		c0-0.9570313-0.6201172-1.3085938-1.2109375-1.3085938c-0.2392578,0-0.3710938,0.0390625-0.4296875,0.1025391
		c-0.0732422,0.0488281-0.0927734,0.1464844-0.0927734,0.3759766v2.1826172H61.7460938z"/>
	<path class="st2" d="M68.7431641,8.9985352C68.5625,8.4223633,68.3037109,7.777832,67.546875,7.777832
		c-0.5908203,0-0.9423828,0.4199219-0.9423828,0.9228516c0,0.5712891,0.390625,0.8789063,1.1523438,1.2597656
		c0.8496094,0.4199219,1.5966797,0.9082031,1.5966797,1.8798828c0,1.0205078-0.859375,1.8115234-2.1484375,1.8115234
		c-0.3515625,0-0.6494141-0.0634766-0.8984375-0.1318359c-0.2539063-0.0683594-0.4101563-0.1416016-0.5224609-0.1904297
		c-0.0878906-0.2392578-0.2001953-0.9472656-0.2685547-1.4990234l0.3613281-0.1025391
		c0.15625,0.5615234,0.6054688,1.5332031,1.5185547,1.5332031c0.6005859,0,0.9814453-0.4003906,0.9814453-1.0107422
		c0-0.5908203-0.4541016-0.9326172-1.1328125-1.2890625c-0.8007813-0.4003906-1.5576172-0.8935547-1.5576172-1.8408203
		c0-0.9619141,0.7470703-1.7285156,2.0068359-1.7285156c0.5126953,0,0.9716797,0.1464844,1.2207031,0.2294922
		c0.0390625,0.3271484,0.1025391,0.7177734,0.1806641,1.3085938L68.7431641,8.9985352z"/>
	<path class="st2" d="M74.7490234,9.0522461c-0.1025391-0.4736328-0.1904297-0.7324219-0.3320313-0.8935547
		c-0.1611328-0.1806641-0.3271484-0.2392578-0.8984375-0.2392578h-0.5126953v4.3798828
		c0,0.7519531,0.0830078,0.8203125,0.9130859,0.8789063v0.3417969h-2.8320313v-0.3417969
		c0.8007813-0.0585938,0.8789063-0.1269531,0.8789063-0.8789063V7.9194336h-0.4394531
		c-0.6787109,0-0.8496094,0.0927734-0.9765625,0.2587891c-0.1318359,0.1513672-0.2099609,0.4541016-0.3222656,0.8740234h-0.3613281
		c0.0390625-0.6298828,0.0927734-1.2744141,0.1123047-1.7626953h0.2392578
		c0.1416016,0.2099609,0.2490234,0.2392578,0.4980469,0.2392578h3.5595703c0.2441406,0,0.3417969-0.0585938,0.4833984-0.2392578
		h0.2490234c0.0097656,0.4003906,0.0585938,1.1621094,0.0878906,1.7285156L74.7490234,9.0522461z"/>
	<path class="st2" d="M80.984375,8.9985352c-0.1806641-0.5761719-0.4394531-1.2207031-1.1962891-1.2207031
		c-0.5908203,0-0.9423828,0.4199219-0.9423828,0.9228516c0,0.5712891,0.390625,0.8789063,1.1523438,1.2597656
		c0.8496094,0.4199219,1.5966797,0.9082031,1.5966797,1.8798828c0,1.0205078-0.859375,1.8115234-2.1484375,1.8115234
		c-0.3515625,0-0.6494141-0.0634766-0.8984375-0.1318359c-0.2539063-0.0683594-0.4101563-0.1416016-0.5224609-0.1904297
		c-0.0878906-0.2392578-0.2001953-0.9472656-0.2685547-1.4990234l0.3613281-0.1025391
		c0.15625,0.5615234,0.6054688,1.5332031,1.5185547,1.5332031c0.6005859,0,0.9814453-0.4003906,0.9814453-1.0107422
		c0-0.5908203-0.4541016-0.9326172-1.1328125-1.2890625c-0.8007813-0.4003906-1.5576172-0.8935547-1.5576172-1.8408203
		c0-0.9619141,0.7470703-1.7285156,2.0068359-1.7285156c0.5126953,0,0.9716797,0.1464844,1.2207031,0.2294922
		c0.0390625,0.3271484,0.1025391,0.7177734,0.1806641,1.3085938L80.984375,8.9985352z"/>
	<path class="st2" d="M86.9902344,9.0522461c-0.1025391-0.4736328-0.1904297-0.7324219-0.3320313-0.8935547
		c-0.1611328-0.1806641-0.3271484-0.2392578-0.8984375-0.2392578h-0.5126953v4.3798828
		c0,0.7519531,0.0830078,0.8203125,0.9130859,0.8789063v0.3417969H83.328125v-0.3417969
		c0.8007813-0.0585938,0.8789063-0.1269531,0.8789063-0.8789063V7.9194336h-0.4394531
		c-0.6787109,0-0.8496094,0.0927734-0.9765625,0.2587891c-0.1318359,0.1513672-0.2099609,0.4541016-0.3222656,0.8740234h-0.3613281
		c0.0390625-0.6298828,0.0927734-1.2744141,0.1123047-1.7626953h0.2392578
		c0.1416016,0.2099609,0.2490234,0.2392578,0.4980469,0.2392578h3.5595703c0.2441406,0,0.3417969-0.0585938,0.4833984-0.2392578
		h0.2490234c0.0097656,0.4003906,0.0585938,1.1621094,0.0878906,1.7285156L86.9902344,9.0522461z"/>
	<path class="st2" d="M92.7324219,12.0112305c-0.0537109,0.3564453-0.2392578,1.2402344-0.3222656,1.5087891H87.859375v-0.3417969
		c0.78125-0.0683594,0.8691406-0.1171875,0.8691406-0.8789063V8.7495117c0-0.78125-0.0878906-0.8300781-0.7568359-0.8789063
		V7.5288086h4.21875c0.0097656,0.1708984,0.0488281,0.8300781,0.0927734,1.3623047L91.921875,8.9399414
		c-0.0830078-0.3515625-0.1904297-0.5908203-0.3222656-0.7714844c-0.1171875-0.1660156-0.3710938-0.2490234-0.9277344-0.2490234
		h-0.5615234c-0.3173828,0-0.3515625,0.0195313-0.3515625,0.3222656v1.9580078h0.7128906
		c0.7714844,0,0.859375-0.0585938,0.9814453-0.6884766h0.3466797v1.8505859H91.453125
		c-0.1220703-0.6738281-0.2099609-0.7128906-0.9814453-0.7128906h-0.7128906v1.6308594
		c0,0.4296875,0.0634766,0.6396484,0.234375,0.7324219c0.15625,0.0878906,0.4785156,0.1074219,0.8691406,0.1074219
		c0.5371094,0,0.8398438-0.0585938,1.0400391-0.2880859c0.1708984-0.1904297,0.3271484-0.4833984,0.4785156-0.8837891
		L92.7324219,12.0112305z"/>
	<path class="st2" d="M95.6865234,7.5288086c0.703125,0,1.2011719,0.1025391,1.5820313,0.3710938
		c0.390625,0.2685547,0.6396484,0.7324219,0.6396484,1.328125c0,1.2207031-0.8984375,1.8017578-1.8408203,1.9140625
		c-0.1367188,0.0195313-0.2880859,0.0195313-0.390625,0.0195313l-0.6396484-0.1708984v1.3183594
		c0,0.7714844,0.0830078,0.8203125,0.8935547,0.8789063v0.3320313h-2.6904297v-0.3320313
		c0.6982422-0.0585938,0.7910156-0.1269531,0.7910156-0.8789063V8.7592773c0-0.7910156-0.0927734-0.8398438-0.7324219-0.8886719
		V7.5288086H95.6865234z M95.0371094,10.6196289c0.1220703,0.0488281,0.3417969,0.1025391,0.5810547,0.1025391
		c0.4394531,0,1.1621094-0.2832031,1.1621094-1.4501953c0-1.0107422-0.6201172-1.3720703-1.2402344-1.3720703
		c-0.2001953,0-0.3515625,0.0292969-0.4003906,0.0878906c-0.0683594,0.0634766-0.1025391,0.1611328-0.1025391,0.3515625V10.6196289z
		"/>
</g>
<g>
</g>
<g>
</g>
<g>
</g>
<g>
</g>
<g>
</g>
<g>
</g>
<g>
</g>
<g>
</g>
<g>
</g>
<g>
</g>
<g>
</g>
<g>
</g>
<g>
</g>
<g>
</g>
<g>
</g>
</svg>
