<?xml version="1.0" encoding="utf-8"?>
<!-- Generator: Adobe Illustrator 23.0.3, SVG Export Plug-In . SVG Version: 6.00 Build 0)  -->
<svg version="1.1" id="Layer_1" xmlns="http://www.w3.org/2000/svg" xmlns:xlink="http://www.w3.org/1999/xlink" x="0px" y="0px"
	 viewBox="0 0 150 150" style="enable-background:new 0 0 150 150;" xml:space="preserve">
<style type="text/css">
	.st0{fill:#8B0000;}
	.st1{fill:#FFFFFF;}
</style>
<rect class="st0" width="150" height="150"/>
<g>
	<path class="st1" d="M100.5,45.1l2.5-4.4l-5.5-3.1L95,42c-4.9-2.4-10.2-3.8-15.9-4.2h0.1v-6.3h7.3v-6.3H65.6v6.3h7.3v6.3
		c-5.8,0.4-11.4,2-16.3,4.4L54,37.6l-5.5,3.1l2.6,4.7c-11.3,7.9-18.8,21-18.8,35.9c0,24.1,19.5,43.6,43.6,43.6s43.6-19.5,43.6-43.6
		C119.6,66.2,112,53,100.5,45.1z M76,118.8c-20.7,0-37.6-16.9-37.6-37.6S55.3,43.7,76,43.7s37.6,16.8,37.6,37.6S96.7,118.8,76,118.8
		z"/>
	<path class="st1" d="M76.1,50.7v30.5L59,106.7c4.9,3.2,10.7,5.1,16.9,5.1c16.9,0,30.6-13.7,30.6-30.6
		C106.5,64.4,92.9,50.8,76.1,50.7z"/>
</g>
</svg>
