<?xml version="1.0" encoding="utf-8"?>
<!-- Generator: Adobe Illustrator 23.0.6, SVG Export Plug-In . SVG Version: 6.00 Build 0)  -->
<svg version="1.1" id="Layer_1" xmlns="http://www.w3.org/2000/svg" xmlns:xlink="http://www.w3.org/1999/xlink" x="0px" y="0px"
	 viewBox="0 0 31.452631 18.4421043" style="enable-background:new 0 0 31.452631 18.4421043;" xml:space="preserve">
<style type="text/css">
	.st0{fill:none;}
	.st1{fill:#8A181A;}
	.st2{fill:#354B75;}
</style>
<g>
	<rect x="7.1084623" y="8.4451723" class="st0" width="16.4937267" height="8.2264442"/>
	<path class="st1" d="M7.8181434,8.8087893h3.8881841v1.0092773H9.047636v1.859375h2.4785156v1.0092773H9.047636v2.8583984
		H7.8181434V8.8087893z"/>
	<path class="st1" d="M15.6374798,8.8087893v6.7363281h-1.2294922V8.8087893H15.6374798z"/>
	<path class="st1" d="M19.8376751,9.8380861h-1.9189453V8.8087893h5.0869141v1.0292969H21.066679v5.7070313h-1.2290039V9.8380861z"
		/>
</g>
<g>
	<line class="st0" x1="249.9884491" y1="98.2856522" x2="166.6754761" y2="98.1786194"/>
</g>
<line class="st0" x1="-86.8310471" y1="51.1279411" x2="249.4189453" y2="51.1279411"/>
<g>
</g>
<g>
	
		<ellipse transform="matrix(0.0051988 -0.9999865 0.9999865 0.0051988 -74.8013535 104.1671677)" class="st0" cx="14.9543858" cy="89.6792068" rx="83.0086365" ry="43.6666679"/>
	<path class="st2" d="M1.928495,4.4533205L3.277128,7.3468752c0.5107422,1.09375,0.9824216,1.4394531,1.3251951,1.2792969
		C4.9831824,8.4474611,5.0036902,7.8546877,4.499784,6.7746096L3.1511514,3.8820312l0.3354492-0.15625l1.328613,2.8486331
		c0.6992188,1.5009766,0.5712891,2.3115234,0.015625,2.5712891C4.3054481,9.3908205,3.6418741,9.0041018,2.9353311,7.4884768
		l-1.341797-2.8779297L1.928495,4.4533205z"/>
	<path class="st2" d="M6.1423621,8.4591799L4.327909,3.3791015l0.3759766-0.1337891l1.7734375,2.2646487
		c0.4106445,0.5253906,0.7563477,1.0048828,1.0688477,1.4794922l0.0053711-0.0107422
		c-0.2744141-0.6660156-0.5029297-1.28125-0.7856445-2.0732422L6.0066199,2.7804687l0.324707-0.1162109l1.8149419,5.0800781
		L7.7976356,7.8683596L6.0290809,5.5929689C5.6413856,5.0949221,5.2561316,4.5783205,4.9245887,4.0753908L4.9157996,4.0871096
		C5.1643348,4.7218752,5.390409,5.3292971,5.6921668,6.1730471l0.7753906,2.1708984L6.1423621,8.4591799z"/>
	<path class="st2" d="M10.4167767,6.976758c-0.0986328,0.15625-0.328125,0.3466797-0.6630859,0.4306641
		C8.9787884,7.6037111,8.1579876,6.8224611,7.7224402,5.1095705c-0.4169922-1.6337893-0.1157227-2.8886721,0.7373052-3.105469
		c0.3422852-0.0859375,0.59375-0.0019531,0.7114258,0.0673828l0.0541992,0.5712891
		c-0.1660156-0.0898438-0.3813477-0.1337891-0.609375-0.0761719c-0.64502,0.1640625-0.8740239,1.0537109-0.5244141,2.4248049
		c0.3256836,1.2783203,0.9228516,2.0019531,1.5913086,1.8330078c0.2163086-0.0546875,0.4150391-0.1962891,0.5239258-0.3632813
		L10.4167767,6.976758z"/>
	<path class="st2" d="M12.5324993,4.023633c0.2841797,1.8339844-0.1508789,2.8994141-0.8652344,3.0107422
		c-0.7397461,0.1152344-1.4277344-0.8945313-1.6777344-2.5087891c-0.262207-1.6923831,0.1186523-2.8857424,0.8666992-3.0029299
		C11.6203899,1.402539,12.2873821,2.4416015,12.5324993,4.023633z M10.3738079,4.4494143
		c0.1762695,1.1396484,0.6582031,2.109375,1.2275391,2.0205078c0.5732422-0.0898438,0.7412109-1.1455078,0.5537109-2.3554688
		c-0.1640625-1.0595706-0.6264648-2.121094-1.2285156-2.0283206C10.3279095,2.1798828,10.1921673,3.2785156,10.3738079,4.4494143z"
		/>
	<path class="st2" d="M13.8152142,6.7130861l-1.203125-5.3320313l0.3945313-0.0205078L13.5852337,3.9875
		c0.159668,0.7197268,0.2983398,1.3691409,0.4067383,1.996094l0.0087891-0.0009766
		c0.046875-0.6269531,0.1289063-1.3115234,0.21875-2.0205081l0.3398438-2.6835938l0.3896484-0.0205078l-0.7304688,5.4335938
		L13.8152142,6.7130861z"/>
	<path class="st2" d="M16.8303509,4.179883l-1.1030273-0.0380859l-0.0693359,1.9433594l1.2294922,0.0410156L16.866972,6.7101564
		l-1.5961914-0.0546875l0.1923828-5.3886719l1.5327148,0.0537109l-0.0205078,0.5830078l-1.1665039-0.0400391l-0.0610352,1.703125
		l1.1035156,0.0371094L16.8303509,4.179883z"/>
	<path class="st2" d="M17.7898235,1.4513671c0.1918945-0.0498047,0.4599609-0.0585938,0.7104492-0.0283203
		c0.3881836,0.0458984,0.6235352,0.2109375,0.7641602,0.5332031c0.1142578,0.2548828,0.1508789,0.6308594,0.1025391,1.0429688
		c-0.0820313,0.7080078-0.3710938,1.1484377-0.6899414,1.3046877l-0.0029297,0.0234375
		c0.2006836,0.1689453,0.2856445,0.5654297,0.2875977,1.1289063c0.0048828,0.7578125,0.0117188,1.2822266,0.0458984,1.4951172
		l-0.3759766-0.0439453c-0.0283203-0.15625-0.0371094-0.625-0.0390625-1.3017578
		c0.0029297-0.7480469-0.1152344-1.0439453-0.4423828-1.1064453l-0.3427734-0.0410156l-0.2705078,2.3203125l-0.3632813-0.0429688
		L17.7898235,1.4513671z M17.8689251,3.933789l0.371582,0.0439453c0.3886719,0.0458987,0.6821289-0.3300781,0.753418-0.9423828
		c0.0810547-0.6904297-0.1474609-1.0244141-0.5302734-1.0771484c-0.1757813-0.0214844-0.3046875-0.0039063-0.3671875,0.0205078
		L17.8689251,3.933789z"/>
	<path class="st2" d="M20.4206829,7.2433596l0.5175781-2.2265625l-0.1708984-3.2246096l0.4057617,0.09375L21.2258587,3.425
		c0.0141602,0.421875,0.0219727,0.7597659,0.0229492,1.1464846l0.0083008,0.0019531
		c0.1577148-0.3251953,0.331543-0.6455081,0.5302734-1.0175784l0.7348633-1.3564453l0.4052734,0.09375l-1.6269531,2.7998049
		l-0.5195313,2.234375L20.4206829,7.2433596z"/>
	<path class="st2" d="M24.8230267,5.6750002c-0.5791016,1.7636719-1.4492188,2.5126953-2.1357422,2.2861328
		c-0.7099609-0.234375-0.8647461-1.4482422-0.3554688-2.9990234c0.5341797-1.6259768,1.4145508-2.5146487,2.1328125-2.2783206
		C25.1990032,2.9259765,25.3220501,4.1544924,24.8230267,5.6750002z M22.7077923,5.0695314
		c-0.359375,1.0947266-0.3701172,2.1777344,0.1767578,2.3583984c0.5507813,0.1816406,1.1796875-0.6806641,1.5610352-1.84375
		c0.3344727-1.0185547,0.4047852-2.1748049-0.1738281-2.3662112C23.6970501,3.0285156,23.0774212,3.9445312,22.7077923,5.0695314z"
		/>
	<path class="st2" d="M26.6501751,3.5822265l-1.28125,2.9218752c-0.4853516,1.1064453-0.4326172,1.6875-0.0859375,1.8388672
		c0.3847656,0.1679688,0.84375-0.2080078,1.3222656-1.2978516l1.28125-2.921875l0.3393555,0.1474609l-1.262207,2.8779297
		c-0.6650391,1.515625-1.3579102,1.9550781-1.9199219,1.7099609c-0.5322266-0.2324219-0.6787109-0.9863281-0.0078125-2.5166016
		l1.2753906-2.9082034L26.6501751,3.5822265z"/>
	<path class="st2" d="M28.9680462,4.7257814c0.1977539,0.0244141,0.4506836,0.1162109,0.6733398,0.2353516
		c0.3452148,0.1865234,0.503418,0.4267578,0.515625,0.7783203c0.0126953,0.2802734-0.0917969,0.6416016-0.2885742,1.0078125
		c-0.3374023,0.6269531-0.769043,0.9306641-1.1235352,0.9570313l-0.0117188,0.0214844
		c0.125,0.2314453,0.0585938,0.6318359-0.1474609,1.15625c-0.2749023,0.7070313-0.4619141,1.1972656-0.5078125,1.4082031
		l-0.3349609-0.1806641c0.0317383-0.15625,0.1958008-0.5947266,0.4433594-1.2246094
		c0.2783203-0.6943359,0.2773438-1.0136719-0.0043945-1.1933594l-0.3046875-0.1630859l-1.1069336,2.0566406l-0.3227539-0.1748047
		L28.9680462,4.7257814z M28.1277142,7.0626955l0.3300781,0.1787109c0.3457031,0.1865234,0.7578125-0.0546875,1.0498047-0.5976563
		c0.3295898-0.6132813,0.2397461-1.0068359-0.0976563-1.1982422c-0.15625-0.0839844-0.2832031-0.1162109-0.3500977-0.1152344
		L28.1277142,7.0626955z"/>
</g>
<g>
</g>
<g>
</g>
<g>
</g>
<g>
</g>
<g>
</g>
<g>
</g>
</svg>
