<?xml version="1.0" encoding="utf-8"?>
<!-- Generator: Adobe Illustrator 23.0.6, SVG Export Plug-In . SVG Version: 6.00 Build 0)  -->
<svg version="1.1" id="Layer_1" xmlns="http://www.w3.org/2000/svg" xmlns:xlink="http://www.w3.org/1999/xlink" x="0px" y="0px"
	 viewBox="0 0 235.7417297 141.9414825" style="enable-background:new 0 0 235.7417297 141.9414825;" xml:space="preserve">
<style type="text/css">
	.st0{fill:none;}
	.st1{fill:#8A181A;}
	.st2{fill:#354B75;}
</style>
<g>
	<rect x="6.4001546" y="32.6027527" class="st0" width="240.8415833" height="106.6720581"/>
	<path class="st1" d="M15.9844065,37.4652405h52.5131836v13.6342773H32.5888977v25.109375h33.4785156v13.6342773H32.5888977
		v38.6083984H15.9844065V37.4652405z"/>
	<path class="st1" d="M121.5522766,37.4652405v90.9863281h-16.6044922V37.4652405H121.5522766z"/>
	<path class="st1" d="M178.2514954,51.3695374H152.33255V37.4652405h68.7119141v13.9042969h-26.1889648v77.0820313h-16.6040039
		V51.3695374z"/>
</g>
<g>
	<line class="st0" x1="345.2196655" y1="100.7604599" x2="261.9066772" y2="100.6534348"/>
</g>
<line class="st0" x1="8.4001551" y1="53.6027527" x2="344.6501465" y2="53.6027527"/>
<g>
</g>
<g>
	<rect x="14.7334881" y="10.5645828" class="st0" width="251.1596375" height="22.352417"/>
	<path class="st2" d="M18.8076477,11.4691448v9.972168c0,3.7744141,1.6743164,5.3740234,3.9238281,5.3740234
		c2.4995117,0,4.0991211-1.6499023,4.0991211-5.3740234v-9.972168h2.1992188v9.8222656
		c0,5.1738281-2.7241211,7.2983398-6.3735352,7.2983398c-3.4487305,0-6.0483398-1.9746094-6.0483398-7.1982422v-9.9223633
		H18.8076477z"/>
	<path class="st2" d="M36.5576477,28.3148479V11.4691448h2.3745117l5.3989258,8.5229492
		c1.2495117,1.9741211,2.2241211,3.7490234,3.0239258,5.4736328l0.050293-0.0253906
		c-0.2001953-2.2490234-0.25-4.2988281-0.25-6.9228516v-7.0483398h2.0493164v16.8457031h-2.1992188l-5.3486328-8.5478516
		c-1.1748047-1.8745117-2.2998047-3.7993164-3.1494141-5.6235352l-0.0751953,0.0249023
		c0.125,2.1245117,0.175293,4.1489258,0.175293,6.9482422v7.1982422H36.5576477z"/>
	<path class="st2" d="M68.5298157,27.7650433c-0.7998047,0.3999023-2.3994141,0.7998047-4.4492188,0.7998047
		c-4.7485352,0-8.3227539-2.9995117-8.3227539-8.5229492c0-5.2739258,3.5742188-8.8476563,8.7978516-8.8476563
		c2.0991211,0,3.4238281,0.449707,3.9990234,0.7495117l-0.5249023,1.7749023
		c-0.824707-0.4003906-1.9995117-0.7001953-3.3994141-0.7001953c-3.9487305,0-6.5732422,2.5244141-6.5732422,6.9482422
		c0,4.1240234,2.3745117,6.7734375,6.4736328,6.7734375c1.3242188,0,2.6743164-0.2749023,3.5488281-0.699707L68.5298157,27.7650433z
		"/>
	<path class="st2" d="M88.8784485,19.7167034c0,5.7988281-3.5239258,8.8730469-7.8227539,8.8730469
		c-4.4492188,0-7.5732422-3.4492188-7.5732422-8.5478516c0-5.3486328,3.3242188-8.8476563,7.8227539-8.8476563
		C85.9043274,11.1942425,88.8784485,14.7181683,88.8784485,19.7167034z M75.8066711,19.992094
		c0,3.5991211,1.949707,6.8232422,5.3735352,6.8232422c3.4492188,0,5.3989258-3.1743164,5.3989258-6.9985352
		c0-3.3491211-1.7495117-6.8481445-5.3735352-6.8481445C77.6064758,12.9686565,75.8066711,16.2928753,75.8066711,19.992094z"/>
	<path class="st2" d="M99.1562805,28.3148479l-5.4985352-16.8457031h2.3491211l2.6245117,8.2978516
		c0.7246094,2.2744141,1.3496094,4.3237305,1.7998047,6.2983398h0.0498047
		c0.4746094-1.9492188,1.1748047-4.0737305,1.9243164-6.2734375l2.8496094-8.3227539h2.3242188l-6.0234375,16.8457031H99.1562805z"
		/>
	<path class="st2" d="M121.8804016,20.4168987h-6.5483398v6.0732422h7.2978516v1.824707h-9.4726563V11.4691448h9.0981445v1.8242188
		h-6.9233398v5.3237305h6.5483398V20.4168987z"/>
	<path class="st2" d="M129.2070618,11.6937542c1.1000977-0.2246094,2.6743164-0.3496094,4.1743164-0.3496094
		c2.3242188,0,3.8237305,0.4248047,4.8735352,1.3745117c0.8500977,0.75,1.324707,1.8994141,1.324707,3.1992188
		c0,2.2246094-1.3994141,3.6992188-3.1743164,4.2988281v0.0751953c1.2998047,0.449707,2.074707,1.6494141,2.4746094,3.3989258
		c0.5498047,2.3496094,0.949707,3.9741211,1.2998047,4.6240234h-2.2495117
		c-0.2749023-0.4750977-0.6499023-1.9243164-1.125-4.0239258c-0.5-2.324707-1.3994141-3.1992188-3.3740234-3.2744141h-2.0493164
		v7.2983398h-2.1748047V11.6937542z M131.3818665,19.367094h2.2241211c2.324707,0,3.7993164-1.2749023,3.7993164-3.1992188
		c0-2.1743164-1.574707-3.1245117-3.8740234-3.1494141c-1.0498047,0-1.7998047,0.1000977-2.1494141,0.2001953V19.367094z"/>
	<path class="st2" d="M158.0556946,28.3148479v-7.1484375l-5.3237305-9.6972656h2.4746094l2.3745117,4.6489258
		c0.6499023,1.2744141,1.1494141,2.2993164,1.6743164,3.4741211h0.050293
		c0.4746094-1.1000977,1.0498047-2.199707,1.699707-3.4741211l2.4243164-4.6489258h2.4741211l-5.6484375,9.6723633v7.1733398
		H158.0556946z"/>
	<path class="st2" d="M185.0776672,19.7167034c0,5.7988281-3.5239258,8.8730469-7.8227539,8.8730469
		c-4.4492188,0-7.5732422-3.4492188-7.5732422-8.5478516c0-5.3486328,3.3242188-8.8476563,7.8227539-8.8476563
		C182.1035461,11.1942425,185.0776672,14.7181683,185.0776672,19.7167034z M172.0058899,19.992094
		c0,3.5991211,1.949707,6.8232422,5.3735352,6.8232422c3.4492188,0,5.3989258-3.1743164,5.3989258-6.9985352
		c0-3.3491211-1.7495117-6.8481445-5.3735352-6.8481445C173.8056946,12.9686565,172.0058899,16.2928753,172.0058899,19.992094z"/>
	<path class="st2" d="M193.8310852,11.4691448v9.972168c0,3.7744141,1.6743164,5.3740234,3.9238281,5.3740234
		c2.4995117,0,4.0991211-1.6499023,4.0991211-5.3740234v-9.972168h2.1992188v9.8222656
		c0,5.1738281-2.7241211,7.2983398-6.3735352,7.2983398c-3.4487305,0-6.0483398-1.9746094-6.0483398-7.1982422v-9.9223633
		H193.8310852z"/>
	<path class="st2" d="M211.5810852,11.6937542c1.1000977-0.2246094,2.6743164-0.3496094,4.1743164-0.3496094
		c2.3242188,0,3.8237305,0.4248047,4.8735352,1.3745117c0.8500977,0.75,1.324707,1.8994141,1.324707,3.1992188
		c0,2.2246094-1.3994141,3.6992188-3.1743164,4.2988281v0.0751953c1.2998047,0.449707,2.074707,1.6494141,2.4746094,3.3989258
		c0.5498047,2.3496094,0.949707,3.9741211,1.2998047,4.6240234h-2.2495117
		c-0.2749023-0.4750977-0.6499023-1.9243164-1.125-4.0239258c-0.5-2.324707-1.3994141-3.1992188-3.3740234-3.2744141h-2.0493164
		v7.2983398h-2.1748047V11.6937542z M213.7558899,19.367094h2.2241211c2.324707,0,3.7993164-1.2749023,3.7993164-3.1992188
		c0-2.1743164-1.574707-3.1245117-3.8740234-3.1494141c-1.0498047,0-1.7998047,0.1000977-2.1494141,0.2001953V19.367094z"/>
</g>
<g>
</g>
<g>
</g>
<g>
</g>
<g>
</g>
<g>
</g>
<g>
</g>
</svg>
