<?xml version="1.0" encoding="utf-8"?>
<!-- Generator: Adobe Illustrator 23.0.6, SVG Export Plug-In . SVG Version: 6.00 Build 0)  -->
<svg version="1.1" id="Layer_1" xmlns="http://www.w3.org/2000/svg" xmlns:xlink="http://www.w3.org/1999/xlink" x="0px" y="0px"
	 viewBox="0 0 58.9894753 29.4315796" style="enable-background:new 0 0 58.9894753 29.4315796;" xml:space="preserve">
<style type="text/css">
	.st0{fill:none;}
	.st1{fill:#8A181A;}
	.st2{fill:#354B75;}
</style>
<g>
	<rect x="17.3589039" y="16.9103985" class="st0" width="23.9699097" height="11.6369705"/>
	<path class="st1" d="M18.3533001,17.4093742h5.4487305v1.4145508h-3.7260742v2.6054688h3.4741211v1.4145508h-3.4741211v4.0063477
		h-1.7226563V17.4093742z"/>
	<path class="st1" d="M29.3020306,17.4093742v9.440918h-1.7226563v-9.440918H29.3020306z"/>
	<path class="st1" d="M35.1819115,18.851757h-2.6894531v-1.4423828h7.1298828v1.4423828H36.905056v7.9985352h-1.7231445V18.851757z"
		/>
</g>
<g>
	<line class="st0" x1="261.9884644" y1="98.2856522" x2="178.6754761" y2="98.1786194"/>
</g>
<line class="st0" x1="-74.8310471" y1="51.1279411" x2="261.4189453" y2="51.1279411"/>
<g>
</g>
<g>
	
		<ellipse transform="matrix(0.0051988 -0.9999865 0.9999865 0.0051988 -67.8688507 123.1357956)" class="st0" cx="27.9543858" cy="95.6792068" rx="83.0086365" ry="43.6666679"/>
	<path class="st2" d="M1.872831,13.7501955l4.0375977,4.5263662c1.527832,1.7128906,2.5751958,2.0820313,3.1118169,1.6025391
		c0.5961914-0.5322266,0.3100586-1.6210938-1.1972661-3.3115234l-4.0375977-4.5273428l0.5249021-0.4677734l3.976563,4.4580069
		c2.0947266,2.3486328,2.3046875,3.8935547,1.4335938,4.6708984c-0.8232422,0.734375-2.242188,0.3916016-4.3569341-1.9785156
		l-4.0170898-4.5039053L1.872831,13.7501955z"/>
	<path class="st2" d="M11.8298626,18.6603508l-5.766602-8.4736319l0.6279297-0.4267578l4.3466802,3.3154297
		c1.0068359,0.7685547,1.8720703,1.4863281,2.6738281,2.2089844l0.0048828-0.0214844
		c-0.8227539-1.0947266-1.5380859-2.1171875-2.4360352-3.4375L8.8679485,8.2804689l0.5419922-0.3691406l5.7670898,8.4736319
		l-0.5825195,0.3964844l-4.3417969-3.3378897c-0.9521484-0.7314453-1.9086914-1.4980469-2.757813-2.2617188l-0.0117188,0.0263672
		c0.7607427,1.0458984,1.4663091,2.0556641,2.4248052,3.4628906l2.4638672,3.6210928L11.8298626,18.6603508z"/>
	<path class="st2" d="M19.1340618,14.0470705c-0.1245117,0.3300781-0.4799805,0.7724609-1.0708008,1.0585938
		c-1.3686523,0.6630859-3.1943359-0.4814453-4.6591797-3.5078125c-1.3984375-2.8876953-1.3154297-5.3447266,0.1904297-6.0742188
		c0.6049805-0.2929688,1.1064453-0.2304688,1.3515625-0.1474609l0.3193359,1.0458984
		c-0.34375-0.1044922-0.762207-0.1044922-1.1660156,0.0908203c-1.1381836,0.5517578-1.2255859,2.2998047-0.0522461,4.7236328
		c1.0932617,2.2597656,2.4804688,3.3789063,3.6625977,2.8066406c0.3818359-0.1845703,0.6977539-0.5234375,0.8374023-0.8779297
		L19.1340618,14.0470705z"/>
	<path class="st2" d="M22.5017376,7.9210939c0.984375,3.3886719,0.421875,5.5009766-0.9003906,5.8847656
		c-1.3681641,0.3974609-2.9145508-1.3388672-3.7797852-4.3193359c-0.9077148-3.1269531-0.4794922-5.4697266,0.9042969-5.8710938
		C20.1404095,3.2042968,21.6531048,4.9982424,22.5017376,7.9210939z M18.5281048,9.2492189
		c0.6103516,2.1035156,1.7578125,3.8144531,2.8105469,3.5087891c1.0610352-0.3085938,1.121582-2.3378906,0.4726563-4.5742188
		c-0.5683594-1.9570313-1.7001953-3.8457031-2.8149414-3.5224609C17.8894329,4.9826174,17.9001751,7.0871096,18.5281048,9.2492189z"
		/>
	<path class="st2" d="M25.5964642,12.8185549L22.8679485,2.7804687l0.7490234-0.0722656l1.3173828,4.9472656
		c0.362793,1.3554688,0.6806641,2.578125,0.9384766,3.7607422l0.0161133-0.0009766
		c0.0385742-1.1962891,0.1381836-2.5048828,0.2504883-3.8613281l0.4262695-5.1308594l0.7407227-0.0712891l-0.9448242,10.3925781
		L25.5964642,12.8185549z"/>
	<path class="st2" d="M31.5344524,8.0158205l-2.090332-0.1347656l-0.2412109,3.6875l2.3291016,0.1503906l-0.0722656,1.1083984
		l-3.0239258-0.1953125L29.1062298,2.402539l2.9038067,0.1875l-0.072752,1.1074219l-2.2099609-0.1425781l-0.2114258,3.2333987
		l2.090332,0.1347656L31.5344524,8.0158205z"/>
	<path class="st2" d="M34.1823997,3.0519531c0.3735352-0.0556641,0.8818359-0.0195313,1.3500977,0.0869141
		c0.7260742,0.1640625,1.137207,0.5224609,1.3374023,1.1601565c0.1655273,0.5048828,0.159668,1.2207031-0.0136719,1.9912109
		c-0.2978516,1.3203125-0.9316406,2.0957031-1.5664063,2.3271484L35.280056,8.6613283
		c0.3457031,0.359375,0.4267578,1.125,0.3178711,2.1923828c-0.1425781,1.4326172-0.2348633,2.4238281-0.2124023,2.8339844
		l-0.7021484-0.1582031c-0.0224609-0.3007813,0.0541992-1.1875,0.1865234-2.4667969
		c0.1547852-1.4150391-0.0087891-1.9970703-0.6152344-2.1816406l-0.6401367-0.1445313l-0.9760742,4.3310547l-0.678709-0.1542969
		L34.1823997,3.0519531z M33.8347435,7.758008l0.6948242,0.1572266c0.7260742,0.1640625,1.3569336-0.4882813,1.6137695-1.6298828
		c0.2910156-1.2900391-0.0732422-1.9648438-0.7880859-2.1425781c-0.328125-0.0742188-0.5751953-0.0673828-0.6977539-0.0332031
		L33.8347435,7.758008z"/>
	<path class="st2" d="M37.9782982,14.7316408l1.7797852-3.9707031l0.8574219-6.0839844l0.7231445,0.3232422l-0.4628906,2.8945313
		c-0.1269531,0.7929688-0.2363281,1.4267578-0.375,2.1484375l0.0146484,0.0068359
		c0.4125977-0.5488281,0.8544922-1.0849609,1.3613281-1.7070313l1.8662109-2.265625l0.7236328,0.3242188l-4.0595703,4.6328125
		l-1.7851563,3.9853516L37.9782982,14.7316408z"/>
	<path class="st2" d="M46.9265404,13.8000002c-1.8881836,2.9775381-3.8408203,3.9541006-5.0029297,3.2177725
		c-1.2021484-0.7617188-0.9228516-3.0673819,0.7373047-5.6865225c1.7421875-2.7470703,3.7792969-3.9746094,4.9951172-3.2041016
		C48.8982201,8.9132814,48.5544701,11.2316408,46.9265404,13.8000002z M43.3054466,11.7042971
		c-1.171875,1.8476563-1.6953125,3.8378906-0.7700195,4.4238272c0.9321289,0.5898438,2.4916992-0.7070303,3.7368164-2.6708975
		c1.0908203-1.7197266,1.7578125-3.8164063,0.7783203-4.4375C46.0783958,8.4044924,44.5100365,9.8039064,43.3054466,11.7042971z"/>
	<path class="st2" d="M51.7239037,11.2277346l-3.9389648,4.6201172c-1.4907227,1.7470694-1.7138672,2.83496-1.1660156,3.3027334
		c0.609375,0.5195313,1.6508789,0.0869141,3.121582-1.6376953l3.9389648-4.6191397l0.5361328,0.4570313l-3.8798828,4.5488272
		c-2.0429688,2.3964844-3.5463867,2.8144531-4.4355469,2.0576172c-0.8408203-0.7167969-0.6948242-2.1708984,1.3686523-4.5898428
		l3.9189453-4.5966797L51.7239037,11.2277346z"/>
	<path class="st2" d="M55.5603294,14.8654299c0.3417969,0.1611328,0.7441406,0.4736328,1.074707,0.8222656
		c0.512207,0.538085,0.6552734,1.0644522,0.4677734,1.7050772c-0.1435547,0.5117188-0.5463867,1.1035156-1.1191406,1.6474609
		c-0.9814453,0.9326172-1.940918,1.2255859-2.5961914,1.0654297l-0.0332031,0.03125
		c0.0878906,0.4902344-0.2705078,1.1728516-0.9541016,1.9980469c-0.9150391,1.1113281-1.5439453,1.8857422-1.753418,2.2392578
		l-0.4956055-0.5224609c0.1484375-0.2626953,0.7060547-0.9570313,1.5273438-1.9462891
		c0.9150391-1.0898438,1.1025391-1.6650391,0.7001953-2.1542969l-0.4511719-0.4746094l-3.2197266,3.0576172l-0.4794922-0.5048828
		L55.5603294,14.8654299z M52.655056,18.5851555l0.4902344,0.515625c0.5126953,0.5390625,1.3994141,0.3476563,2.2485352-0.4599609
		c0.9594727-0.9111328,1.03125-1.6728516,0.5356445-2.2167969c-0.2314453-0.2441406-0.440918-0.3759766-0.5625-0.4150391
		L52.655056,18.5851555z"/>
</g>
<g>
</g>
<g>
</g>
<g>
</g>
<g>
</g>
<g>
</g>
<g>
</g>
</svg>
