<?xml version="1.0" encoding="utf-8"?>
<!-- Generator: Adobe Illustrator 23.1.0, SVG Export Plug-In . SVG Version: 6.00 Build 0)  -->
<svg version="1.1" id="Layer_1" xmlns="http://www.w3.org/2000/svg" xmlns:xlink="http://www.w3.org/1999/xlink" x="0px" y="0px"
	 viewBox="0 0 104 20" style="enable-background:new 0 0 104 20;" xml:space="preserve">
<style type="text/css">
	.st0{fill:#8B0000;stroke:#B2892D;stroke-width:0.5;stroke-miterlimit:10;}
	.st1{fill:none;}
	.st2{fill:#FFFFFF;}
</style>
<path class="st0" d="M94.0000076,19H9.9999914C5.324996,19,1.5,15.175004,1.5,10.5000086v-0.0000172
	C1.5,5.824996,5.324996,2,9.9999914,2h84.0000153C98.6750031,2,102.5,5.824996,102.5,10.4999914v0.0000172
	C102.5,15.175004,98.6750031,19,94.0000076,19z"/>
<g>
	<rect x="8.4518566" y="5" class="st1" width="87.096283" height="9.396286"/>
	<path class="st2" d="M14.9995117,7.8706055c-0.5175781,0.0292969-0.7275391,0.1611328-0.7763672,0.5078125
		c-0.0292969,0.2734375-0.0634766,0.6201172-0.0634766,1.3818359v0.8691406c0,1.0302734-0.15625,1.8212891-0.6787109,2.3730469
		c-0.4101563,0.4394531-1.0302734,0.6494141-1.6503906,0.6494141c-0.5712891,0-1.1181641-0.1220703-1.5380859-0.4638672
		c-0.5224609-0.4101563-0.7714844-1.0888672-0.7714844-2.1679688V8.7788086c0-0.8007813-0.078125-0.859375-0.78125-0.9082031
		V7.5288086h2.5927734v0.3417969c-0.6884766,0.0488281-0.7714844,0.1074219-0.7714844,0.9082031v2.0703125
		c0,1.4404297,0.5322266,2.1923828,1.5429688,2.1923828c1.1181641,0,1.5869141-0.8837891,1.5869141-2.421875v-0.859375
		c0-0.7519531-0.0390625-1.1083984-0.078125-1.3916016c-0.0488281-0.3271484-0.2587891-0.4589844-0.9033203-0.4980469V7.5288086
		h2.2900391V7.8706055z"/>
	<path class="st2" d="M21.6791992,7.8608398c-0.4980469,0.0292969-0.6982422,0.1611328-0.7470703,0.5273438
		c-0.0390625,0.2832031-0.0683594,0.7128906-0.0683594,1.5234375v3.6865234h-0.4345703l-3.6865234-4.6289063h-0.0195313v2.1386719
		c0,0.78125,0.0390625,1.2207031,0.0683594,1.4941406c0.0390625,0.4101563,0.2392578,0.546875,0.8691406,0.5761719v0.3417969
		H15.409668v-0.3417969c0.5126953-0.0292969,0.7324219-0.1660156,0.7714844-0.5566406
		c0.0390625-0.2929688,0.078125-0.7324219,0.078125-1.5136719V9.1401367c0-0.6201172-0.0097656-0.7324219-0.1757813-0.9521484
		c-0.1708984-0.2197266-0.390625-0.2880859-0.78125-0.3271484V7.5288086h1.5576172l3.5009766,4.2626953h0.0292969V9.9116211
		c0-0.8105469-0.0390625-1.2402344-0.0683594-1.5136719c-0.0488281-0.3662109-0.2587891-0.4980469-0.8886719-0.5371094V7.5288086
		h2.2460938V7.8608398z"/>
	<path class="st2" d="M27.6704102,11.9819336c-0.1269531,0.4296875-0.3515625,1.1083984-0.4980469,1.4404297
		c-0.2490234,0.0488281-1.0400391,0.2294922-1.6796875,0.2294922c-2.3095703,0-3.2910156-1.5722656-3.2910156-3.0419922
		c0-1.9287109,1.4404297-3.2177734,3.5205078-3.2177734c0.7080078,0,1.3378906,0.1757813,1.5966797,0.2392578
		c0.0830078,0.5078125,0.1416016,0.9082031,0.1904297,1.4697266l-0.3466797,0.0683594
		c-0.2832031-1.0302734-0.8496094-1.3671875-1.6601563-1.3671875c-1.3427734,0-2.0996094,1.2353516-2.0996094,2.6171875
		c0,1.6796875,0.9277344,2.8125,2.1679688,2.8125c0.8007813,0,1.2890625-0.4638672,1.7480469-1.3916016L27.6704102,11.9819336z"/>
	<path class="st2" d="M31.4106445,7.4018555c1.5771484,0,2.9199219,1.2060547,2.9199219,3.0566406
		c0,2.0019531-1.3623047,3.1933594-3.0322266,3.1933594c-1.7089844,0-2.96875-1.3134766-2.96875-3.1005859
		c0-1.6113281,1.0986328-3.1494141,3.0712891-3.1494141H31.4106445z M31.2202148,7.7875977
		c-0.9228516,0-1.6894531,0.9521484-1.6894531,2.5537109c0,1.6210938,0.7568359,2.9101563,1.9384766,2.9101563
		c0.8984375,0,1.6503906-0.8398438,1.6503906-2.5390625c0-1.8603516-0.8203125-2.9248047-1.8896484-2.9248047H31.2202148z"/>
	<path class="st2" d="M40.9370117,7.8706055c-0.5957031,0.0683594-0.7470703,0.1611328-1.1083984,0.9912109
		c-0.2490234,0.6494141-1.1376953,2.8564453-1.8408203,4.7460938h-0.4199219
		c-0.6103516-1.6796875-1.4208984-3.8378906-1.8505859-4.9267578c-0.2587891-0.6494141-0.4101563-0.7617188-0.9570313-0.8105469
		V7.5288086h2.5097656l-0.0097656,0.3417969c-0.6396484,0.0683594-0.6494141,0.1611328-0.5224609,0.5371094
		c0.2636719,0.7226563,0.9423828,2.5732422,1.3720703,3.6914063h0.0195313c0.4882813-1.3085938,1.0009766-2.6806641,1.25-3.4667969
		c0.1904297-0.5810547,0.1611328-0.6835938-0.5712891-0.7617188V7.5288086h2.1289063V7.8706055z"/>
	<path class="st2" d="M46.2202148,12.0112305c-0.0537109,0.3564453-0.2392578,1.2402344-0.3222656,1.5087891H41.347168v-0.3417969
		c0.78125-0.0683594,0.8691406-0.1171875,0.8691406-0.8789063V8.7495117c0-0.78125-0.0878906-0.8300781-0.7568359-0.8789063
		V7.5288086h4.21875c0.0097656,0.1708984,0.0488281,0.8300781,0.0927734,1.3623047L45.409668,8.9399414
		c-0.0830078-0.3515625-0.1904297-0.5908203-0.3222656-0.7714844c-0.1171875-0.1660156-0.3710938-0.2490234-0.9277344-0.2490234
		h-0.5615234c-0.3173828,0-0.3515625,0.0195313-0.3515625,0.3222656v1.9580078h0.7128906
		c0.7714844,0,0.859375-0.0585938,0.9814453-0.6884766h0.3466797v1.8505859H44.940918
		c-0.1220703-0.6738281-0.2099609-0.7128906-0.9814453-0.7128906H43.246582v1.6308594
		c0,0.4296875,0.0634766,0.6396484,0.234375,0.7324219c0.15625,0.0878906,0.4785156,0.1074219,0.8691406,0.1074219
		c0.5371094,0,0.8398438-0.0585938,1.0400391-0.2880859c0.1708984-0.1904297,0.3271484-0.4833984,0.4785156-0.8837891
		L46.2202148,12.0112305z"/>
	<path class="st2" d="M52.2456055,13.5981445c-0.0878906,0-0.2001953-0.0097656-0.3076172-0.0097656
		c-0.9423828-0.0390625-1.3037109-0.2783203-1.6796875-0.8691406c-0.2734375-0.4003906-0.5615234-0.9472656-0.8203125-1.4111328
		c-0.1513672-0.2587891-0.3027344-0.3662109-0.6591797-0.3662109h-0.2539063v1.3574219
		c0,0.7617188,0.0830078,0.8203125,0.78125,0.8789063v0.3417969h-2.5976563v-0.3417969
		c0.7080078-0.0585938,0.8105469-0.1171875,0.8105469-0.8789063V8.7299805c0-0.7519531-0.0927734-0.8105469-0.7714844-0.859375
		V7.5288086h2.4511719c0.7275391,0,1.1767578,0.0830078,1.5380859,0.3222656
		c0.3710938,0.2392578,0.6298828,0.6494141,0.6298828,1.2207031c0,0.8105469-0.4980469,1.2695313-1.1523438,1.5478516
		c0.1513672,0.2685547,0.5029297,0.8886719,0.78125,1.3085938c0.3222656,0.5029297,0.4931641,0.7519531,0.6933594,0.9521484
		c0.2197266,0.2392578,0.4101563,0.3417969,0.6054688,0.4101563L52.2456055,13.5981445z M48.8764648,10.5610352
		c0.4003906,0,0.6884766-0.0732422,0.8984375-0.2490234c0.3417969-0.2636719,0.4833984-0.6298828,0.4833984-1.1035156
		c0-0.9570313-0.6201172-1.3085938-1.2109375-1.3085938c-0.2392578,0-0.3710938,0.0390625-0.4296875,0.1025391
		c-0.0732422,0.0488281-0.0927734,0.1464844-0.0927734,0.3759766v2.1826172H48.8764648z"/>
	<path class="st2" d="M60.0825195,7.8706055c-0.5908203,0.0585938-0.7617188,0.1806641-1.0888672,0.7470703
		c-0.3613281,0.5810547-0.6298828,1.0302734-1.0644531,1.8701172c-0.1269531,0.2539063-0.15625,0.3417969-0.15625,0.6103516
		v1.2011719c0,0.7617188,0.0683594,0.8203125,0.8984375,0.8789063v0.3417969h-2.8076172v-0.3417969
		c0.7861328-0.0585938,0.8691406-0.1074219,0.8691406-0.8789063v-1.0986328c0-0.2197266-0.0292969-0.3125-0.1513672-0.5322266
		c-0.2880859-0.5566406-0.6201172-1.1474609-1.1279297-2.0605469c-0.3417969-0.5761719-0.4833984-0.6787109-0.9912109-0.7373047
		V7.5288086h2.4072266v0.3417969c-0.6103516,0.078125-0.5859375,0.1806641-0.4199219,0.4980469
		c0.3320313,0.6591797,0.7226563,1.3525391,1.09375,2.0117188c0.2685547-0.5322266,0.7373047-1.3818359,0.9667969-1.9482422
		c0.1611328-0.390625,0.1611328-0.4931641-0.5273438-0.5615234V7.5288086h2.0996094V7.8706055z"/>
	<path class="st2" d="M63.3149414,7.4018555c1.5771484,0,2.9199219,1.2060547,2.9199219,3.0566406
		c0,2.0019531-1.3623047,3.1933594-3.0322266,3.1933594c-1.7089844,0-2.96875-1.3134766-2.96875-3.1005859
		c0-1.6113281,1.0986328-3.1494141,3.0712891-3.1494141H63.3149414z M63.1245117,7.7875977
		c-0.9228516,0-1.6894531,0.9521484-1.6894531,2.5537109c0,1.6210938,0.7568359,2.9101563,1.9384766,2.9101563
		c0.8984375,0,1.6503906-0.8398438,1.6503906-2.5390625c0-1.8603516-0.8203125-2.9248047-1.8896484-2.9248047H63.1245117z"/>
	<path class="st2" d="M73.1245117,7.8706055c-0.5175781,0.0292969-0.7275391,0.1611328-0.7763672,0.5078125
		c-0.0292969,0.2734375-0.0634766,0.6201172-0.0634766,1.3818359v0.8691406c0,1.0302734-0.15625,1.8212891-0.6787109,2.3730469
		c-0.4101563,0.4394531-1.0302734,0.6494141-1.6503906,0.6494141c-0.5712891,0-1.1181641-0.1220703-1.5380859-0.4638672
		c-0.5224609-0.4101563-0.7714844-1.0888672-0.7714844-2.1679688V8.7788086c0-0.8007813-0.078125-0.859375-0.78125-0.9082031
		V7.5288086h2.5927734v0.3417969c-0.6884766,0.0488281-0.7714844,0.1074219-0.7714844,0.9082031v2.0703125
		c0,1.4404297,0.5322266,2.1923828,1.5429688,2.1923828c1.1181641,0,1.5869141-0.8837891,1.5869141-2.421875v-0.859375
		c0-0.7519531-0.0390625-1.1083984-0.078125-1.3916016c-0.0488281-0.3271484-0.2587891-0.4589844-0.9033203-0.4980469V7.5288086
		h2.2900391V7.8706055z"/>
	<path class="st2" d="M79.1254883,13.5981445c-0.0878906,0-0.2001953-0.0097656-0.3076172-0.0097656
		c-0.9423828-0.0390625-1.3037109-0.2783203-1.6796875-0.8691406c-0.2734375-0.4003906-0.5615234-0.9472656-0.8203125-1.4111328
		c-0.1513672-0.2587891-0.3027344-0.3662109-0.6591797-0.3662109h-0.2539063v1.3574219
		c0,0.7617188,0.0830078,0.8203125,0.78125,0.8789063v0.3417969h-2.5976563v-0.3417969
		c0.7080078-0.0585938,0.8105469-0.1171875,0.8105469-0.8789063V8.7299805c0-0.7519531-0.0927734-0.8105469-0.7714844-0.859375
		V7.5288086h2.4511719c0.7275391,0,1.1767578,0.0830078,1.5380859,0.3222656
		C77.987793,8.090332,78.246582,8.5004883,78.246582,9.0717773c0,0.8105469-0.4980469,1.2695313-1.1523438,1.5478516
		c0.1513672,0.2685547,0.5029297,0.8886719,0.78125,1.3085938c0.3222656,0.5029297,0.4931641,0.7519531,0.6933594,0.9521484
		c0.2197266,0.2392578,0.4101563,0.3417969,0.6054688,0.4101563L79.1254883,13.5981445z M75.7563477,10.5610352
		c0.4003906,0,0.6884766-0.0732422,0.8984375-0.2490234c0.3417969-0.2636719,0.4833984-0.6298828,0.4833984-1.1035156
		c0-0.9570313-0.6201172-1.3085938-1.2109375-1.3085938c-0.2392578,0-0.3710938,0.0390625-0.4296875,0.1025391
		c-0.0732422,0.0488281-0.0927734,0.1464844-0.0927734,0.3759766v2.1826172H75.7563477z"/>
	<path class="st2" d="M85.512207,8.9692383c-0.0927734-0.3710938-0.1806641-0.5908203-0.3222656-0.7714844
		c-0.1464844-0.2099609-0.3808594-0.2783203-0.9375-0.2783203H83.690918c-0.3076172,0-0.3417969,0.0195313-0.3417969,0.3222656
		v2.0458984h0.8203125c0.8007813,0,0.8740234-0.0683594,0.9716797-0.6591797h0.3515625v1.8310547h-0.3515625
		c-0.0976563-0.6396484-0.1708984-0.7177734-0.9716797-0.7177734h-0.8203125v1.5283203
		c0,0.7910156,0.0830078,0.8398438,0.8935547,0.9082031v0.3417969h-2.7001953v-0.3417969
		c0.6884766-0.0585938,0.78125-0.1171875,0.78125-0.9082031V8.769043c0-0.7910156-0.0927734-0.8496094-0.7714844-0.8984375
		V7.5288086h4.2089844c0.0097656,0.2197266,0.0488281,0.8691406,0.1025391,1.3818359L85.512207,8.9692383z"/>
	<path class="st2" d="M86.5327148,13.5200195v-0.3417969c0.6982422-0.0585938,0.7910156-0.1171875,0.7910156-0.8789063V8.7495117
		c0-0.7714844-0.0927734-0.8300781-0.7910156-0.8789063V7.5288086h2.5976563v0.3417969
		c-0.6982422,0.0488281-0.78125,0.1074219-0.78125,0.8789063v3.5498047c0,0.7714844,0.0830078,0.8203125,0.78125,0.8789063
		v0.3417969H86.5327148z"/>
	<path class="st2" d="M94.652832,9.0522461c-0.1025391-0.4736328-0.1904297-0.7324219-0.3320313-0.8935547
		c-0.1611328-0.1806641-0.3271484-0.2392578-0.8984375-0.2392578H92.909668v4.3798828
		c0,0.7519531,0.0830078,0.8203125,0.9130859,0.8789063v0.3417969h-2.8320313v-0.3417969
		c0.8007813-0.0585938,0.8789063-0.1269531,0.8789063-0.8789063V7.9194336h-0.4394531
		c-0.6787109,0-0.8496094,0.0927734-0.9765625,0.2587891c-0.1318359,0.1513672-0.2099609,0.4541016-0.3222656,0.8740234h-0.3613281
		c0.0390625-0.6298828,0.0927734-1.2744141,0.1123047-1.7626953h0.2392578
		c0.1416016,0.2099609,0.2490234,0.2392578,0.4980469,0.2392578h3.5595703c0.2441406,0,0.3417969-0.0585938,0.4833984-0.2392578
		h0.2490234c0.0097656,0.4003906,0.0585938,1.1621094,0.0878906,1.7285156L94.652832,9.0522461z"/>
</g>
<g>
</g>
<g>
</g>
<g>
</g>
<g>
</g>
<g>
</g>
<g>
</g>
<g>
</g>
<g>
</g>
<g>
</g>
<g>
</g>
<g>
</g>
<g>
</g>
<g>
</g>
<g>
</g>
<g>
</g>
</svg>
