<?xml version="1.0" encoding="utf-8"?>
<!-- Generator: Adobe Illustrator 23.1.0, SVG Export Plug-In . SVG Version: 6.00 Build 0)  -->
<svg version="1.1" id="Layer_1" xmlns="http://www.w3.org/2000/svg" xmlns:xlink="http://www.w3.org/1999/xlink" x="0px" y="0px"
	 viewBox="0 0 106.2315826 49.8947372" style="enable-background:new 0 0 106.2315826 49.8947372;" xml:space="preserve">
<style type="text/css">
	.st0{fill:none;}
	.st1{fill:#8A181A;}
</style>
<g>
	<rect x="28.9969482" y="26.0802345" class="st0" width="48.2376823" height="20.8628769"/>
	<path class="st1" d="M36.3933907,28.0622482c1.6772461,0,3.2719727-0.0551758,5.2519531-0.1376953
		c-0.0825195,0.3300781-0.0825195,0.5771484-0.0825195,0.824707c0,0.3027344,0,0.4677734,0.0825195,0.8251953
		c-1.7597656-0.2202148-6.5717773-0.3574219-7.6713867-0.3574219c0,0.137207-0.0551758,2.722168-0.0551758,3.9316406
		l0.0273438,3.1347656c2.3374023,0,4.784668-0.0551758,7.0942383-0.2749023
		c-0.0273438,0.2475586-0.1098633,0.5224609-0.1098633,0.824707c0,0.2202148,0.0273438,0.3852539,0.1098633,0.8251953
		c-1.7871094-0.1376953-3.2719727-0.2202148-7.0942383-0.2202148v2.6948242c0,1.8696289,0.1103516,4.3442383,0.2202148,6.7641602
		c-0.4677734-0.0825195-0.9077148-0.1376953-1.3476563-0.1376953s-0.824707,0.0273438-1.347168,0.1376953
		c0.1098633-2.4199219,0.2202148-4.8671875,0.2202148-6.7641602v-5.4443359c0-1.8974609-0.1103516-4.3447266-0.2202148-6.7641602
		C33.258625,28.0070724,34.7434883,28.0622482,36.3933907,28.0622482z"/>
	<path class="st1" d="M50.6936836,28.0622482c0.4399414,0,0.9077148-0.0551758,1.3476563-0.1376953
		c-0.1098633,2.4472656-0.2202148,4.8945313-0.2202148,6.7641602v5.4443359c0,1.8696289,0.1103516,4.3442383,0.2202148,6.7641602
		c-0.4677734-0.1103516-0.9077148-0.1376953-1.3476563-0.1376953s-0.824707,0.0273438-1.347168,0.1376953
		c0.1098633-2.4199219,0.2202148-4.8671875,0.2202148-6.7641602v-5.4443359c0-1.8974609-0.1103516-4.3447266-0.2202148-6.7641602
		C49.8689766,28.0070724,50.2537422,28.0622482,50.6936836,28.0622482z"/>
	<path class="st1" d="M66.285965,28.0622482c2.3369141,0,4.5644531-0.0551758,7.09375-0.1376953
		c-0.1098633,0.3574219-0.137207,0.5771484-0.137207,0.8798828c0,0.3022461,0.0551758,0.5771484,0.137207,0.8525391
		c-1.5395508-0.2202148-3.9316406-0.3027344-5.8837891-0.3027344l-0.0551758,2.5297852
		c-0.0273438,1.0170898-0.0273438,1.8969727-0.0273438,2.6669922v5.5541992c0,1.7597656,0.1098633,4.0419922,0.2197266,6.7919922
		c-0.5224609-0.0825195-0.9072266-0.1376953-1.347168-0.1376953s-0.9072266,0.0551758-1.347168,0.1376953
		c0.1098633-2.4472656,0.2197266-4.8945313,0.2197266-6.7641602v-5.5820313c0-0.7973633,0-1.6772461-0.0273438-2.6943359
		l-0.0551758-2.5024414c-2.1997032,0-4.5366173,0.1650391-5.8842735,0.3027344
		c0.0825195-0.2753906,0.1376953-0.5776367,0.1376953-0.8798828c0-0.3027344-0.0551758-0.5224609-0.1376953-0.8525391
		C61.7488594,28.0070724,63.9485664,28.0622482,66.285965,28.0622482z"/>
</g>
<g>
	<line class="st0" x1="406.4621277" y1="305.6646118" x2="323.1491699" y2="305.5575562"/>
</g>
<line class="st0" x1="69.6426315" y1="258.506897" x2="405.8926392" y2="258.506897"/>
<g>
</g>
<g>
	
		<ellipse transform="matrix(0.9954306 -0.0954878 0.0954878 0.9954306 -16.9023609 6.7603903)" class="st0" cx="62.1855278" cy="179.9864349" rx="85.7729416" ry="163.0510254"/>
	<path class="st1" d="M2.8997378,22.5832443c0.1552734-0.1430664,0.2509766-0.2954102,0.3115234-0.4482422
		c0.4375,0.5268555,2.6123047,3.0419922,5.3339849,5.9838867c1.1689453,1.2631836,2.265625,2.4311523,3.3535156,3.2236328
		c1.6845703,1.2363281,2.8525391,1.184082,3.7363281,0.3676758c0.7294922-0.6733398,0.7705078-1.578125,0.3828125-2.6000977
		c-0.3964844-1.0131836-1.2207031-2.3056641-3.5107422-4.7802734l-2.4326172-2.6303711
		c-1.5527344-1.6782227-2.563477-2.7338867-3.0000005-3.1333008c0.1845703-0.0742188,0.3349609-0.1489258,0.4453125-0.25
		c0.1083984-0.1010742,0.1494141-0.2026367,0.2011719-0.3476563c0.9316411,1.0981445,3.5292974,4.0893555,6.4150395,7.2636719
		c3.0302734,3.3305664,3.6728516,5.9785156,2.0693359,7.4599609c-1.7851563,1.6489258-4.0048828,0.8754883-7.2070313-2.5854492
		c-0.7841797-0.8476563-1.7792974-2.0151367-2.5312505-2.828125c-0.8964844-0.9682617-1.5302734-1.6352539-4.1210938-4.3447266
		C2.5677066,22.8264084,2.75423,22.7175217,2.8997378,22.5832443z"/>
	<path class="st1" d="M10.8255196,15.0749435c3.9101563,2.246582,8.6386719,4.8427734,12.4453125,6.8740234l-0.9169922-1.3149414
		c-2.078125-2.9780273-4.8730469-6.9213867-6.2871094-8.8388672c0.1621094-0.0273438,0.3007813-0.0664063,0.4130859-0.1445313
		s0.1972656-0.1943359,0.2578125-0.3237305c0.6640625,1.0605469,3.0341797,4.6967773,4.4785156,6.7661133
		c2.0898438,2.9970703,4.5390625,6.4643555,4.8623047,6.9282227l-0.1318359,0.0917969
		c-3.4072266-2.0224609-7.5976563-4.3891602-12.5966797-7.112793c0.9003906,1.3564453,1.1699219,1.7426758,2.8154297,4.1020508
		c0.4189453,0.5996094,0.9853516,1.4116211,1.6962891,2.4101563l1.9023438,2.640625
		c0.5498047,0.7661133,0.8769531,1.1704102,0.9316406,1.2480469c-0.1660156,0.0004883-0.3017578,0.0664063-0.4238281,0.1513672
		s-0.2304688,0.1894531-0.3095703,0.3588867c-0.3769531-0.7143555-4.3183594-6.6469727-5.5185547-8.3676758l-1.5517578-2.2241211
		c-0.9042969-1.2958984-1.5507813-2.2241211-2.2294922-3.1303711L10.8255196,15.0749435z"/>
	<path class="st1" d="M26.5169258,7.0646896c0.0273438,0.25,0.3671875,1.1865234,0.5839844,1.7626953l-0.0458984,0.0751953
		c-1.1533203-0.9013672-2.2421875-1.2290039-3.0419922-0.8320313c-1.9101563,0.9482422-1.8505859,3.996582,0.2851563,8.3041992
		c2.1357422,4.3071289,4.5273438,6.199707,6.4375,5.2519531c0.7216797-0.3588867,1.1689453-1.1855469,1.3847656-2.871582
		l0.0869141,0.0625l0.5185547,1.2954102c-0.1777344,0.9824219-0.8818359,1.9370117-1.7138672,2.3500977
		c-2.3105469,1.1455078-5.4365234-0.7758789-7.75-5.4423828c-2.3876953-4.8144531-2.1689453-8.4746094,0.3632813-9.7314453
		C24.4700508,6.870842,25.4368477,6.7853928,26.5169258,7.0646896z"/>
	<path class="st1" d="M39.996418,10.3937912c1.5048828,5.0610352,0.6123047,8.6220703-2.0488281,9.4130859
		c-2.6132813,0.7763672-5.3232422-1.6396484-6.8486328-6.7685547c-1.4648438-4.925293-0.6953125-8.5966797,2.0371094-9.4091797
		C35.7971992,2.8386154,38.4905586,5.332756,39.996418,10.3937912z M37.699543,18.9709396
		c2.0429688-0.6074219,2.5039063-3.6210938,1.1328125-8.230957c-1.3779297-4.6318359-3.4042969-6.8813477-5.4589844-6.2709961
		c-2.0078125,0.5966797-2.4941406,3.5693359-1.1103516,8.2236328C33.6350899,17.301506,35.668293,19.5744553,37.699543,18.9709396z"
		/>
	<path class="st1" d="M40.3030586,2.304924c0.1972656-0.0244141,0.3994141-0.0976563,0.625-0.1982422
		c1.0800781,3.4746094,2.6435547,8.0991211,4.5644531,13.4628906c0.3544922-3.4902344,0.8466797-10.5146484,1.0302734-14.1733398
		c0.1572266,0.0507813,0.3105469,0.0791016,0.4697266,0.0585938c0.1601563-0.0200195,0.3017578-0.0859375,0.4404297-0.1748047
		c-0.625,5.6870117-1.0917969,11.0449219-1.4863281,16.5834961c-0.15625-0.0507813-0.2851563-0.0825195-0.4208984-0.0649414
		c-0.1474609,0.0185547-0.2763672,0.0825195-0.390625,0.168457C43.887043,14.2531662,41.605793,7.723381,39.6487617,2.2692795
		C39.8909492,2.3098068,40.1067696,2.3303146,40.3030586,2.304924z"/>
	<path class="st1" d="M52.8030586,1.463127c0.7441406,0.019043,1.4033203-0.012207,2.2109375-0.0620117
		c-0.0439453,0.2822266-0.0498047,0.4941406-0.0556641,0.7065431c-0.0058594,0.2587891,0.0009766,0.4946289,0.0205078,0.7075195
		c-1.1738281-0.2182617-1.5429688-0.3452148-3.2539063-0.3886719c-0.0439453,1.2490234-0.1015625,2.0732422-0.1259766,3.0395508
		l-0.0634766,3.0644531c1.1523438,0.0292969,1.8105469-0.0014648,3.0185547-0.1591797
		c-0.0302734,0.2109375-0.0488281,0.4697266-0.0556641,0.7294922c-0.0068359,0.2592773,0,0.4946289,0.0195313,0.7080078
		c-0.3701172-0.0805664-1.6435547-0.2539063-3.0078125-0.2880859l-0.0908203,3.1347656
		c-0.0166016,0.659668-0.0654297,3.6069336-0.0712891,3.8188477l0.2978516,0.0078125
		c1.5996094,0.0405273,2.5957031-0.0766602,3.0585938-0.2299805c-0.0322266,0.3056641-0.0517578,0.5649414-0.0556641,0.7304688
		c-0.0058594,0.2119141-0.0126953,0.5180664,0.0195313,0.684082c-0.8037109-0.0908203-1.484375-0.1552734-2.2285156-0.1743164
		c-0.7441406-0.0185547-1.4521484,0.0107422-2.2597656,0.0605469c0.1015625-2.0727539,0.2041016-4.1923828,0.2441406-5.8193359
		l0.1171875-4.6669922c0.0283203-1.1308594,0.0644531-2.5693359,0.0449219-5.7773438
		C51.3909492,1.3806075,52.0598946,1.4445723,52.8030586,1.463127z"/>
	<path class="st1" d="M59.6155586,2.0207443c0.4902344,0.0776367,0.9619141,0.0327148,1.4150391,0.1040039
		c1.6787109,0.2651367,2.3613281,1.6625977,1.9785156,4.0839844c-0.3574219,2.2587891-1.5732422,3.8325195-3.2148438,4.0507813
		l0.9492188,3.9208984c0.5693359,2.3574219,0.9599609,3.8510742,1.1513672,4.5498047
		c-0.2666016-0.1381836-0.4716797-0.1938477-0.7167969-0.2324219c-0.2333984-0.0371094-0.5058594-0.0556641-0.7285156,0.0039063
		c-0.5390625-2.7822266-1.3876953-6.4726563-1.9501953-8.2319336l-0.4658203-0.0737305l-0.3164063,2.0019531
		c-0.25,1.5839844-0.5332031,3.6870117-0.8085938,5.7441406c-0.1972656-0.1030273-0.3847656-0.1801758-0.5810547-0.2114258
		c-0.1962891-0.0307617-0.375-0.0112305-0.6191406,0.0214844c0.3730469-2.0415039,0.75-4.105957,1.0039063-5.7124023
		l0.7294922-4.6108398c0.2539063-1.6064453,0.5332031-3.6865234,0.8076172-5.7436523
		C58.7415352,1.8351973,59.1868477,1.9528731,59.6155586,2.0207443z M58.4466133,7.5881271l-0.2578125,1.6298828
		c0.2304688,0.1318359,0.5078125,0.199707,0.7900391,0.2446289c1.4335938,0.2260742,2.5576172-0.9326172,2.9150391-3.190918
		c0.3095703-1.9560547-0.203125-3.159668-1.4775391-3.3608398c-0.3789063-0.0600586-0.6523438-0.0791016-1.1445313-0.0615234
		C59.2200508,3.1750412,58.6341133,6.3996506,58.4466133,7.5881271z"/>
	<path class="st1" d="M73.5081329,5.4655685c0.2070313,0.0844727,0.4316406,0.1254883,0.6757813,0.1499023
		c-0.3828125,2.9262695-0.6494141,5.6708984-0.9150391,8.4418945c1.6201172-1.8579102,3.8027344-4.6318359,5.2636719-6.6572266
		c0.1455078,0.1362305,0.2539063,0.2314453,0.4023438,0.2924805c0.1269531,0.0522461,0.2939453,0.0693359,0.4931641,0.074707
		c-3.3339844,3.7802734-5.1357422,5.9204102-6.3105469,7.4760742c-1.0283203,2.5087891-2.1298828,5.293457-2.5458984,6.4726563
		c-0.1689453-0.1450195-0.3339844-0.2641602-0.5185547-0.3398438c-0.1826172-0.0751953-0.3623047-0.0976563-0.6064453-0.121582
		c0.5849609-1.2631836,1.1474609-2.5366211,2.6318359-6.1567383c0.0566406-0.5629883,0.2236328-2.2783203,0.4560547-5.1645508
		c0.25-2.9306641,0.375-4.5102539,0.3876953-4.8359375C73.1126251,5.2521896,73.2903595,5.3757248,73.5081329,5.4655685z"/>
	<path class="st1" d="M84.891922,20.0021896c-2.5869141,4.6025391-5.7666016,6.4379883-8.1875,5.0766602
		c-2.3779297-1.3364258-2.5292969-4.9638672,0.0927734-9.6269531c2.5175781-4.4794922,5.6904297-6.4804688,8.1767578-5.0830078
		C87.3948517,11.7297287,87.4788361,15.4006271,84.891922,20.0021896z M77.1321564,24.3185959
		c1.8583984,1.0454102,4.3447266-0.7207031,6.7001953-4.9116211c2.3671875-4.2114258,2.5732422-7.2329102,0.703125-8.2841797
		c-1.8261719-1.0263672-4.2998047,0.6923828-6.6796875,4.9243164
		C75.5003204,20.2385178,75.2835236,23.2800217,77.1321564,24.3185959z"/>
	<path class="st1" d="M91.9036407,15.1638107c0.1689453,0.1259766,0.3359375,0.1914063,0.4980469,0.2236328
		c-0.4375,0.5263672-2.5107422,3.1269531-4.9013672,6.3427734c-1.0273438,1.3808594-1.9736328,2.6748047-2.5527344,3.8891602
		c-0.9052734,1.8828125-0.6386719,3.0209961,0.3271484,3.7382813c0.7958984,0.5917969,1.6933594,0.4658203,2.6269531-0.1030273
		c0.9228516-0.5766602,2.0429688-1.6245117,4.0537109-4.3295898l2.1376953-2.8754883
		c1.3652344-1.8349609,2.2167969-3.0224609,2.5283203-3.5244141c0.1074219,0.1669922,0.2089844,0.3017578,0.328125,0.390625
		c0.1201172,0.0883789,0.2275391,0.1098633,0.3789063,0.1342773c-0.9072266,1.1171875-3.3710938,4.2207031-5.9599609,7.6411133
		c-2.7167969,3.5908203-5.203125,4.7099609-6.9541016,3.4082031c-1.9511719-1.4511719-1.5986328-3.7744141,1.2138672-7.5571289
		c0.6894531-0.9267578,1.6533203-2.1196289,2.3144531-3.0087891c0.7880859-1.0595703,1.3271484-1.8037109,3.5136719-4.8491211
		C91.6028595,14.8815842,91.7444611,15.0456467,91.9036407,15.1638107z"/>
	<path class="st1" d="M100.829422,22.226799c0.3691406,0.3320313,0.7890625,0.5517578,1.1308594,0.8579102
		c1.2636719,1.137207,1.0771484,2.6811523-0.5625,4.5043945c-1.5292969,1.7006836-3.40625,2.3588867-4.9023438,1.6474609
		l-1.3369141,3.8071289c-0.8056641,2.2875977-1.2900391,3.7539063-1.5097656,4.4443359
		c-0.1494141-0.2612305-0.2900391-0.4194336-0.4746094-0.5854492c-0.1757813-0.1577148-0.3945313-0.3227539-0.6142578-0.3935547
		c1.0615234-2.628418,2.3583984-6.1865234,2.84375-7.9692383l-0.3505859-0.3149414l-1.3554688,1.5073242
		c-1.0722656,1.1923828-2.4541016,2.8032227-3.8046875,4.3789063c-0.1083984-0.1933594-0.2246094-0.3618164-0.3730469-0.4941406
		c-0.1474609-0.1328125-0.3076172-0.2138672-0.5302734-0.3188477c1.4238281-1.5097656,2.8632813-3.0361328,3.9511719-4.246582
		l3.1210938-3.4707031c1.0878906-1.2094727,2.453125-2.8032227,3.8037109-4.3789063
		C100.1966095,21.5949631,100.5061798,21.9362717,100.829422,22.226799z M96.8186798,26.2609787l-1.1035156,1.2270508
		c0.1210938,0.2363281,0.3173828,0.4443359,0.5292969,0.6357422c1.0800781,0.9707031,2.6542969,0.6108398,4.1845703-1.0893555
		c1.3232422-1.4726563,1.5478516-2.7617188,0.5878906-3.6240234c-0.2861328-0.2573242-0.5048828-0.4223633-0.9277344-0.6757813
		C99.8684845,22.9797287,97.6223907,25.3669357,96.8186798,26.2609787z"/>
</g>
<g>
</g>
<g>
</g>
<g>
</g>
<g>
</g>
<g>
</g>
<g>
</g>
</svg>
