<?xml version="1.0" encoding="utf-8"?>
<!-- Generator: Adobe Illustrator 23.0.6, SVG Export Plug-In . SVG Version: 6.00 Build 0)  -->
<svg version="1.1" id="Layer_1" xmlns="http://www.w3.org/2000/svg" xmlns:xlink="http://www.w3.org/1999/xlink" x="0px" y="0px"
	 viewBox="0 0 49.389473 23.1157894" style="enable-background:new 0 0 49.389473 23.1157894;" xml:space="preserve">
<style type="text/css">
	.st0{fill:none;}
	.st1{fill:#8A181A;}
	.st2{fill:#354B75;}
</style>
<g>
	<rect x="12.5422459" y="13.3787909" class="st0" width="24.5576134" height="10.6212091"/>
	<path class="st1" d="M18.6195526,16.0788345c-0.1298828-0.5195313-0.2529297-0.8271484-0.4511719-1.0800781
		c-0.2050781-0.2939453-0.5332031-0.3896484-1.3125-0.3896484h-0.7861328c-0.430665,0-0.4785166,0.0273438-0.4785166,0.4511719
		v2.8642578h1.1484385c1.1210938,0,1.2236328-0.0957031,1.3603516-0.9228516h0.4921875v2.5634766h-0.4921875
		c-0.1367188-0.8955078-0.2392578-1.0048828-1.3603516-1.0048828h-1.1484385v2.1396484
		c0,1.1074219,0.1162109,1.1757813,1.2509775,1.2714844v0.4785156h-3.7802744v-0.4785156
		c0.9638672-0.0820313,1.09375-0.1640625,1.09375-1.2714844v-4.9013672c0-1.1074219-0.1298828-1.1894531-1.0800781-1.2578125
		V14.062233h5.8925791c0.0136719,0.3076172,0.0683594,1.2167969,0.1435547,1.9345703L18.6195526,16.0788345z"/>
	<path class="st1" d="M22.1483612,22.4499283v-0.4785156c0.9775391-0.0820313,1.1074219-0.1640625,1.1074219-1.2304688v-4.9697266
		c0-1.0800781-0.1298828-1.1621094-1.1074219-1.2304688V14.062233H25.78508v0.4785156
		c-0.9775391,0.0683594-1.09375,0.1503906-1.09375,1.2304688v4.9697266c0,1.0800781,0.1162109,1.1484375,1.09375,1.2304688
		v0.4785156H22.1483612z"/>
	<path class="st1" d="M35.6166229,16.1950455c-0.1435547-0.6630859-0.2666016-1.0253906-0.4648438-1.2509766
		c-0.2255859-0.2529297-0.4580078-0.3349609-1.2578125-0.3349609h-0.7177734v6.1318359
		c0,1.0527344,0.1162109,1.1484375,1.2783203,1.2304688v0.4785156h-3.9648438v-0.4785156
		c1.1210938-0.0820313,1.2304688-0.1777344,1.2304688-1.2304688V14.609108h-0.6152344
		c-0.9501953,0-1.1894531,0.1298828-1.3671875,0.3623047c-0.1845703,0.2119141-0.2939453,0.6357422-0.4511719,1.2236328h-0.5058594
		c0.0546875-0.8818359,0.1298828-1.7841797,0.1572266-2.4677734h0.3349609
		c0.1982422,0.2939453,0.3486328,0.3349609,0.6972656,0.3349609h4.9833984c0.3417969,0,0.4785156-0.0820313,0.6767578-0.3349609
		h0.3486328c0.0136719,0.5605469,0.0820313,1.6269531,0.1230469,2.4199219L35.6166229,16.1950455z"/>
</g>
<g>
	<line class="st0" x1="252.767395" y1="97.0224915" x2="169.4544373" y2="96.9154663"/>
</g>
<line class="st0" x1="-84.0521011" y1="49.8647842" x2="252.1978912" y2="49.8647842"/>
<g>
</g>
<g>
	
		<ellipse transform="matrix(0.0051988 -0.9999865 0.9999865 0.0051988 -67.3418198 114.2550507)" class="st0" cx="23.7543869" cy="90.973938" rx="83.0086365" ry="43.6666679"/>
	<path class="st2" d="M5.0008993,7.3757091C4.7528524,7.6335216,4.7050009,7.8180919,4.9647665,8.180397
		c0.1782227,0.2626953,0.4692383,0.6591797,1.1308594,1.5185547l0.472168,0.6123047
		c0.8300781,1.0771484,1.3261719,1.9082031,1.4648438,2.6376953c0.1162109,0.5986328-0.0610352,1.0244141-0.3603516,1.2548828
		c-0.2587891,0.2001953-0.6123047,0.2802734-1.0541992,0.140625c-0.5766602-0.1992188-1.2260742-0.75-2.0341797-1.7988281
		l-1.687988-2.1914063c-0.5761719-0.7470703-0.6416016-0.7568359-1.0664064-0.53125L1.6219932,9.5534439l1.1762697-0.9082031
		L3.0062706,8.914772C2.675216,9.2516861,2.6708214,9.3219986,3.2538292,10.0788345l1.5346677,1.9912109
		c1.1835938,1.5361328,2.065918,1.9804688,2.609375,1.5615234c0.6455078-0.4980469,0.1162109-1.6728516-1.0712891-3.2148438
		L5.8827353,9.8415298C5.2318563,8.9958267,4.9237509,8.6266861,4.6957235,8.3659439
		C4.4081259,8.0475845,4.2435751,8.0417252,3.8705285,8.2477798L3.6634972,7.9782481l1.1298826-0.8720703L5.0008993,7.3757091z"/>
	<path class="st2" d="M9.1468954,4.8395762C8.8783407,5.0329356,8.8158407,5.2341075,9.0209188,5.6432872
		C9.187911,5.9411387,9.4330282,6.3757091,9.9808798,7.2927012l2.2763672,3.8066411l-0.1591797,0.09375L7.0101767,7.46067
		L6.9994345,7.4665294L8.4203329,9.843483c0.5146484,0.8613281,0.8076172,1.3154297,0.9814453,1.59375
		c0.3261719,0.4677734,0.5083008,0.4960938,0.8662109,0.3378906l0.1777344,0.2978516L9.238204,12.7907486L9.0604696,12.492897
		c0.2768555-0.1914063,0.331543-0.3876953,0.0834961-0.875c-0.1679688-0.3105469-0.4238281-0.7861328-0.9379883-1.6474609
		L6.953536,7.8757091C6.535079,7.1755137,6.5243368,7.1823497,6.2928915,6.9987559
		C6.0511923,6.8288341,5.8954306,6.8327403,5.6273642,6.92942L5.4525595,6.6374278l0.7236328-0.4287109l4.9990234,3.6152349
		l0.0136719-0.0078125L9.7587118,7.4235606C9.2108603,6.5065684,8.9418173,6.0876231,8.7753134,5.8444591
		c-0.293457-0.4121094-0.487793-0.4609375-0.8466797-0.28125L7.7543173,5.2712169l1.2177734-0.7236328L9.1468954,4.8395762z"/>
	<path class="st2" d="M15.194747,7.6501231c0.1464844,0.5302739,0.3344727,1.3486333,0.3867188,1.7080083
		c-0.1279297,0.1386719-0.4726563,0.5361328-0.8769531,0.7109375c-1.2988281,0.5605469-2.6503906-0.9541016-3.3447266-2.5488286
		c-0.9370117-2.1523438-0.6826172-3.9462888,0.4941406-4.4541016c0.4326172-0.1865234,0.8852539-0.1201172,1.0634766-0.1269531
		c0.2939453,0.5742188,0.5087891,0.9667969,0.7734375,1.4892576l-0.1328125,0.1669922
		c-0.5839844-0.9794919-1.0810547-1.332031-1.6894531-1.0703123c-0.9052734,0.3916016-0.7666016,2.0205076-0.0976563,3.5566404
		c0.8291016,1.9062505,1.9960938,2.9257817,2.8056641,2.5761724c0.5400391-0.2324219,0.5849609-0.8642578,0.4013672-2.0410161
		L15.194747,7.6501231z"/>
	<path class="st2" d="M15.9584188,1.6608655c0.9296885-0.2519531,2.1826181,0.9072266,2.7675791,3.0722654
		c0.6289063,2.3291016,0.1572266,3.9687505-0.8740234,4.2480474c-0.9775391,0.265625-2.2089853-0.9902349-2.7705088-3.070313
		c-0.5273438-1.9511716-0.2880859-3.9335935,0.8740234-4.2490234L15.9584188,1.6608655z M15.9359579,2.1227796
		c-0.6142578,0.1669922-0.956543,1.2910156-0.4052734,3.332031c0.5439463,2.0126953,1.5390635,3.2832036,2.3349619,3.0683599
		c0.6376953-0.1738281,0.9589844-1.2919927,0.4003906-3.3613286c-0.6123047-2.2675779-1.5825195-3.2421873-2.3242197-3.0410154
		L15.9359579,2.1227796z"/>
	<path class="st2" d="M22.6840057,1.074928c-0.3945313,0.1376953-0.4541016,0.2207031-0.5664063,1.2275391
		c-0.0708008,0.6845703-0.3896484,3.5986326-0.5732422,5.9023438l-0.171875,0.0185547
		c-0.6074219-1.9580083-1.3652344-4.3242188-1.8623047-5.8779297c-0.2509766-0.7548828-0.3564453-0.8085938-0.7114258-0.8466797
		l-0.0371094-0.3369141l1.3779297-0.1513672l0.0375977,0.3388672c-0.4057617,0.125-0.4165039,0.1972656-0.2734375,0.6474609
		c0.2241211,0.7402344,0.8730469,2.7949216,1.5175781,4.7851563l0.0063477-0.0009766
		c0.1479492-1.4462891,0.3725586-3.8085935,0.425293-4.8203125c0.0424805-0.6289063-0.0043945-0.6884766-0.4946289-0.7412109
		l-0.0371094-0.3369141l1.3256836-0.1445313L22.6840057,1.074928z"/>
	<path class="st2" d="M26.4086151,6.2663341c-0.0405273,0.3388672-0.2001953,1.4189453-0.2646484,1.7568364l-2.8139648-0.0986333
		l0.012207-0.3398438c0.5390625-0.0566406,0.5947266-0.1376953,0.6279297-1.0458984l0.1601563-4.3935547
		c0.0351563-0.9667969-0.0166016-0.9970703-0.4755859-1.0898438l0.012207-0.3398438l2.5981445,0.0908203
		c-0.003418,0.2519531-0.0097656,1.0263672-0.0102539,1.6298828l-0.1899414,0.0400391
		c-0.0341797-0.4814453-0.0756836-0.7119141-0.1464844-0.9609375c-0.0625-0.2421875-0.2075195-0.3242188-0.6235352-0.3378906
		l-0.4995117-0.0185547c-0.1787109-0.0058594-0.1884766,0.0234375-0.2001953,0.3398438L24.50383,4.0007091l0.5761719,0.0195313
		c0.5268555,0.0185547,0.5551758-0.0800779,0.6499023-0.816406l0.1884766,0.0068359l-0.078125,2.1210935l-0.1875-0.0068359
		c-0.0517578-0.7929688-0.0771484-0.8417969-0.5888672-0.859375l-0.5761719-0.0195313l-0.0751953,2.0556641
		c-0.019043,0.5214844,0.0180664,0.7744141,0.1147461,0.9189453c0.1088867,0.1455078,0.309082,0.1523438,0.6137695,0.1621094
		c0.4414063,0.0166016,0.6137695-0.0654297,0.7504883-0.34375c0.105957-0.1884766,0.2338867-0.5664063,0.3242188-1.0205078
		L26.4086151,6.2663341z"/>
	<path class="st2" d="M29.7572479,8.6774673c-0.0820313-0.0146484-0.1513672-0.0253906-0.2207031-0.0605469
		c-0.3496094-0.0878906-0.5546875-0.3535156-0.7177734-1.1230474c-0.1064453-0.5703125-0.2089844-1.3115234-0.2861328-1.8535156
		c-0.0488281-0.3173828-0.1254883-0.4541016-0.4443359-0.5078125l-0.203125-0.0332031l-0.2880859,1.7041016
		c-0.15625,0.9238281-0.1181641,0.9960938,0.3422852,1.1318359l-0.0576172,0.3417974l-1.4897461-0.2480469l0.0576172-0.3408208
		c0.4951172,0.0224609,0.5556641-0.0205078,0.7138672-0.9570313l0.7373047-4.3623047
		c0.1577148-0.9355469,0.109375-0.9619141-0.3334961-1.1123047l0.0571289-0.3359375l1.4072266,0.234375
		c0.3945313,0.0654297,0.6660156,0.2109375,0.8295898,0.5c0.1879883,0.328125,0.2617188,0.8515625,0.1533203,1.4931641
		c-0.1611328,0.9531248-0.559082,1.4990232-1.0541992,1.7910154c0.0385742,0.3808594,0.1582031,1.1484375,0.2460938,1.6621094
		c0.1210938,0.6152344,0.1796875,0.8564453,0.2749023,1.1796875c0.097168,0.3496099,0.2314453,0.5146489,0.3530273,0.5878911
		L29.7572479,8.6774673z M28.2523651,4.7741466c0.3032227,0.0498047,0.5029297-0.0244141,0.6865234-0.2255859
		c0.28125-0.296875,0.4541016-0.6962888,0.5556641-1.2968748c0.1982422-1.1738281-0.1611328-1.6494141-0.6191406-1.7246094
		c-0.1699219-0.0283203-0.2705078-0.0029297-0.3261719,0.046875c-0.0644531,0.0664063-0.1005859,0.1914063-0.1513672,0.4912109
		l-0.4492188,2.6582029L28.2523651,4.7741466z"/>
	<path class="st2" d="M37.6239471,4.1677012c-0.4116211-0.0683594-0.4975586-0.0214844-1.012207,0.578125
		c-0.5415039,0.6396484-0.9750977,1.1650391-1.6142578,1.9619141c-0.1542969,0.1962891-0.21875,0.3037109-0.3217773,0.5517578
		l-0.5737305,1.3876958c-0.3447266,0.8349609-0.3300781,0.9365234,0.1601563,1.2021484l-0.1323242,0.3193359l-1.5063477-0.6210938
		l0.1323242-0.3193359c0.512207,0.1484375,0.5737305,0.1035156,0.9277344-0.7529297l0.5693359-1.3769536
		c0.0737305-0.1787109,0.0922852-0.2792969,0.1323242-0.6503906c0.0800781-0.7910156,0.1523438-1.5292969,0.234375-2.5097654
		c0.0761719-0.78125,0.0615234-0.9150391-0.2416992-1.109375l0.1298828-0.3144531l1.2529297,0.5175781l-0.1298828,0.3134766
		c-0.4360352-0.0654297-0.4682617,0.0605469-0.5004883,0.453125c-0.1025391,0.8847654-0.1787109,1.8173826-0.2539063,2.6943357
		c0.5019531-0.6181641,1.1625977-1.4501953,1.578125-2.0205078c0.3427734-0.4746091,0.355957-0.5390623-0.0351563-0.8017576
		l0.1298828-0.3134766L37.75383,3.8532484L37.6239471,4.1677012z"/>
	<path class="st2" d="M40.1449432,4.9665294c0.8349609,0.4707031,0.9111328,2.1738281-0.1918945,4.125977
		c-1.1865234,2.0996094-2.6694336,2.9375-3.5961914,2.4150391c-0.8779297-0.4960938-0.8710938-2.2519531,0.1894531-4.1269536
		c0.9931641-1.7587891,2.5512695-3.0048828,3.5957031-2.4160156L40.1449432,4.9665294z M39.8050995,5.2790294
		c-0.5512695-0.3105469-1.5820313,0.2509766-2.621582,2.0908203c-1.0249023,1.8144536-1.2104492,3.4169927-0.4956055,3.820313
		c0.5732422,0.3232422,1.5849609-0.25,2.6386719-2.1142578c1.1552734-2.0439458,1.1508789-3.4179692,0.484375-3.7939458
		L39.8050995,5.2790294z"/>
	<path class="st2" d="M45.5585175,9.234108c-0.3164063-0.1679688-0.5073242-0.1630859-0.7851563,0.1865234
		c-0.2036133,0.2431641-0.5063477,0.6318359-1.1518555,1.5039063l-0.4599609,0.6210938
		c-0.8095703,1.09375-1.4731445,1.7978516-2.1376953,2.1318359c-0.5449219,0.2753906-1.0024414,0.2216797-1.3076172-0.0039063
		c-0.2626953-0.1933594-0.4365234-0.5117188-0.4228516-0.9746094c0.0332031-0.609375,0.3847656-1.3847656,1.1728516-2.4501953
		l1.6464844-2.2236328c0.5615234-0.7587895,0.5527344-0.8232427,0.2197266-1.1718755l0.2021484-0.2734375l1.1967773,0.8837891
		l-0.2026367,0.2734375c-0.4145508-0.2265625-0.4833984-0.2109375-1.0517578,0.5566411l-1.496582,2.0214844
		c-1.1542969,1.5605469-1.340332,2.5302734-0.7875977,2.9384766c0.65625,0.484375,1.6435547-0.3466797,2.8012695-1.9121094
		l0.4326172-0.5830078c0.6347656-0.8583984,0.9057617-1.2558594,1.0942383-1.546875
		c0.2275391-0.3632813,0.1884766-0.5234375-0.1123047-0.8251953l0.2021484-0.2734375l1.1499023,0.8476563L45.5585175,9.234108z"/>
	<path class="st2" d="M44.019455,17.2194595c-0.0620117-0.0556641-0.1147461-0.1044922-0.1538086-0.1708984
		c-0.2490234-0.2636719-0.2792969-0.5986328-0.0039063-1.3369141c0.2167969-0.5390625,0.5283203-1.2197266,0.7543945-1.71875
		c0.128418-0.2939453,0.1381836-0.4511719-0.1030273-0.6689453l-0.1533203-0.1386719l-1.1591797,1.28125
		c-0.6289063,0.6943359-0.6357422,0.7753906-0.3193359,1.140625l-0.2314453,0.2568359l-1.1259766-1.0175781l0.2314453-0.2568359
		c0.40625,0.2880859,0.4804688,0.2841797,1.1171875-0.4189453l2.9663086-3.2792969
		c0.6362305-0.7041016,0.609375-0.7519531,0.3164063-1.1201172l0.2280273-0.2519531l1.0639648,0.9619141
		c0.2983398,0.2695313,0.4492188,0.5390625,0.4321289,0.8710938c-0.0175781,0.3789063-0.2363281,0.8603516-0.671875,1.3427734
		c-0.6484375,0.7167969-1.2783203,0.9609375-1.8535156,0.9384766c-0.171875,0.3417969-0.4833984,1.0546875-0.6850586,1.5361328
		c-0.2275391,0.5830078-0.3071289,0.8193359-0.4018555,1.1445313c-0.1054688,0.3466797-0.0800781,0.5585938-0.0170898,0.6865234
		L44.019455,17.2194595z M44.844162,13.1100845c0.2294922,0.2080078,0.4375,0.2539063,0.7011719,0.1835938
		c0.3974609-0.0986328,0.7583008-0.3417969,1.1669922-0.7929688c0.7978516-0.8818359,0.7490234-1.4785156,0.402832-1.7910156
		c-0.128418-0.1152344-0.2270508-0.1494141-0.3007813-0.1367188c-0.0898438,0.0205078-0.1879883,0.1064453-0.3920898,0.3320313
		l-1.8076172,1.9980469L44.844162,13.1100845z"/>
</g>
<g>
</g>
<g>
</g>
<g>
</g>
<g>
</g>
<g>
</g>
<g>
</g>
</svg>
