<?xml version="1.0" encoding="utf-8"?>
<!-- Generator: Adobe Illustrator 23.0.6, SVG Export Plug-In . SVG Version: 6.00 Build 0)  -->
<svg version="1.1" id="Layer_1" xmlns="http://www.w3.org/2000/svg" xmlns:xlink="http://www.w3.org/1999/xlink" x="0px" y="0px"
	 viewBox="0 0 56.9684219 50.1473694" style="enable-background:new 0 0 56.9684219 50.1473694;" xml:space="preserve">
<style type="text/css">
	.st0{fill:none;}
	.st1{fill:#8A181A;}
	.st2{fill:#354B75;}
</style>
<g>
	<rect x="8.8721943" y="17.7946091" class="st0" width="39.1749077" height="19.0053921"/>
	<path class="st1" d="M10.5765114,18.6574211h9.3369141v2.4238281h-6.3847656v4.4648438h5.9526367v2.4238281h-5.9526367v6.8647461
		h-2.9521484V18.6574211z"/>
	<path class="st1" d="M29.3445778,18.6574211v16.1772461h-2.9521484V18.6574211H29.3445778z"/>
	<path class="st1" d="M39.4246559,21.1295891h-4.6083984v-2.472168h12.2172852v2.472168h-4.6567383v13.7050781h-2.9521484
		V21.1295891z"/>
</g>
<g>
	<line class="st0" x1="261.104248" y1="98.2856522" x2="177.791275" y2="98.1786194"/>
</g>
<line class="st0" x1="-75.7152634" y1="51.1279411" x2="260.534729" y2="51.1279411"/>
<g>
</g>
<g>
	<circle class="st0" cx="28.45965" cy="54.5046043" r="43.6666679"/>
	<path class="st2" d="M3.3831518,9.1945314l2.1611326,4.2705078c0.8183594,1.6157227,1.8808594,1.9379883,2.844727,1.4501953
		c1.0703125-0.5419922,1.3974609-1.5947266,0.5908203-3.1894531L6.8177218,7.4557619l0.9414063-0.4765625l2.1289067,4.2060547
		c1.1220703,2.2148438,0.4169922,3.715332-1.1464844,4.5063477c-1.476563,0.7480459-3.0175786,0.4648428-4.1494145-1.7714844
		L2.440769,9.6715822L3.3831518,9.1945314z"/>
	<path class="st2" d="M12.7903786,13.6261721l-2.3740234-7.7348633l1.0898438-0.3344727l3.6796875,3.1523438
		c0.8525391,0.7304688,1.5498047,1.4077148,2.1601563,2.0874023l0.0185547-0.0180664
		c-0.4072266-1.0053711-0.7197266-1.9394531-1.0898438-3.1445313l-0.9931641-3.2363281l0.9414063-0.2885742l2.3740234,7.7348633
		l-1.0097656,0.3100586l-3.6601563-3.1713867c-0.8037109-0.6953125-1.5917969-1.4204102-2.2382813-2.1381836l-0.03125,0.0219727
		c0.3564453,0.9575195,0.6650391,1.8808594,1.0585938,3.1655273l1.015625,3.3051758L12.7903786,13.6261721z"/>
	<path class="st2" d="M25.6194801,10.5431643c-0.3544922,0.2416992-1.0898438,0.5351563-2.0644531,0.6674805
		c-2.2587891,0.3061523-4.1523438-0.8901367-4.5078125-3.5175781c-0.3408203-2.5083008,1.1289063-4.4389648,3.6132813-4.7753906
		c0.9990234-0.1357422,1.6582031-0.0073242,1.9511719,0.0986328L24.4759254,3.89375
		c-0.4179688-0.1367188-0.9960938-0.2036133-1.6611328-0.1132813c-1.8789063,0.2548831-2.9648438,1.6250002-2.6787109,3.7294924
		c0.265625,1.9614258,1.5654297,3.0678711,3.5146484,2.8041992c0.6298828-0.0854492,1.2548828-0.3041992,1.6445313-0.5620117
		L25.6194801,10.5431643z"/>
	<path class="st2" d="M33.4349098,6.8185549c-0.0761719,2.7851563-1.8085938,4.2148438-3.8730469,4.1577148
		c-2.1376953-0.0585938-3.5917969-1.7563477-3.5244141-4.2045898c0.0693359-2.5683594,1.7128906-4.2050781,3.8730469-4.1455078
		C32.1194801,2.687207,33.5003395,4.4186525,33.4349098,6.8185549z M27.1536598,6.7785158
		c-0.046875,1.7280273,0.8466797,3.3017578,2.4912109,3.347168c1.65625,0.0458984,2.6337891-1.453125,2.6845703-3.2890625
		c0.0439453-1.6083984-0.75-3.3110354-2.4902344-3.3593752C28.1106911,3.4298828,27.2024879,5.0021486,27.1536598,6.7785158z"/>
	<path class="st2" d="M36.0843239,11.5006838l-1.0615234-8.4394531l1.1074219,0.2133789l0.4833984,4.1499023
		c0.1347656,1.137207,0.2431641,2.1606445,0.2753906,3.1323242l0.0244141,0.0043945
		c0.4003906-0.8754883,0.9238281-1.8139648,1.4765625-2.7822266l2.0986328-3.6640625l1.0966797,0.2109375l-4.3701172,7.3930664
		L36.0843239,11.5006838z"/>
	<path class="st2" d="M45.8079567,10.2750978L42.8304176,9.261426l-0.9394531,2.7607422l3.3173828,1.1293945l-0.2822266,0.8295898
		l-4.3056641-1.4648438l2.6054688-7.6582031l4.1367188,1.4077148l-0.2832031,0.8295898L43.9329567,6.023633l-0.8232422,2.4204102
		l2.9755859,1.0126953L45.8079567,10.2750978z"/>
	<path class="st2" d="M49.4817848,7.2707033c0.5214844,0.1386719,1.2246094,0.4228516,1.8681641,0.7436523
		c0.9990234,0.4975586,1.5527344,1.0014648,1.7988281,1.6347656c0.2050781,0.5039063,0.1630859,1.0991211-0.1152344,1.6577148
		c-0.4755859,0.9555664-1.3935547,1.2890625-2.2841797,1.1665039l-0.0166016,0.0327148
		c0.4619141,0.4716797,0.5380859,1.152832,0.3349609,1.9902344c-0.2666016,1.1269531-0.4433594,1.9106436-0.4316406,2.2646475
		l-0.9667969-0.4819336c-0.015625-0.262207,0.1337891-0.9658194,0.3798828-1.9692373
		c0.2822266-1.1054688,0.0830078-1.6743164-0.7490234-2.1298828l-0.8808594-0.4379883l-1.5625,3.1347656L45.9231911,14.41084
		L49.4817848,7.2707033z M48.7728004,11.0329103l0.9560547,0.4760742c0.9980469,0.4980469,1.9052734,0.2661133,2.3173828-0.5605469
		c0.4648438-0.934082-0.0078125-1.6791992-0.9902344-2.1826172c-0.4511719-0.2246094-0.7939453-0.3422852-0.9667969-0.3740234
		L48.7728004,11.0329103z"/>
</g>
<g>
	<circle class="st0" cx="26.7929821" cy="4.1279421" r="43.6666679"/>
	<path class="st2" d="M14.523777,46.0436516l0.925293-3.3027344l-1.206543-5.1708984l1.144043,0.3193359l0.4956055,2.4560547
		c0.1357422,0.6728516,0.2333984,1.2119141,0.3251953,1.8222656l0.0224609,0.0068359
		c0.3613281-0.4472656,0.7695313-0.8808594,1.234375-1.3867188l1.7226563-1.8339844l1.1430664,0.3203125l-3.8618164,3.7382813
		l-0.9277344,3.3164063L14.523777,46.0436516z"/>
	<path class="st2" d="M26.8333473,43.8493156c-0.2558594,2.7724609-2.0756836,4.0869141-4.1318359,3.8964844
		c-2.1269531-0.1953125-3.46875-1.9824219-3.2441406-4.4208984c0.2353516-2.5566406,1.9794922-4.0830078,4.1298828-3.8847656
		C25.7864723,39.6422844,27.0540504,41.4586906,26.8333473,43.8493156z M20.5716286,43.4049797
		c-0.1591797,1.7207031,0.6308594,3.3476563,2.2675781,3.4980469c1.6494141,0.1523438,2.7216797-1.2792969,2.890625-3.1074219
		c0.1469727-1.6015625-0.5351563-3.3515625-2.2675781-3.5117188C21.7410622,40.1247063,20.7337379,41.6354485,20.5716286,43.4049797
		z"/>
	<path class="st2" d="M28.9739723,39.6999016l0.5566406,4.7548828c0.2109375,1.7998047,1.0986328,2.46875,2.1713867,2.3427734
		c1.1918945-0.1396484,1.8618164-1.0146484,1.6538086-2.7910156l-0.5566406-4.7558594l1.0488281-0.1220703l0.5483398,4.6835938
		c0.2890625,2.4667969-0.8911133,3.6328125-2.6313477,3.8359375c-1.6445313,0.1923828-2.9941406-0.6035156-3.2861328-3.0947266
		l-0.5541992-4.7314453L28.9739723,39.6999016z"/>
	<path class="st2" d="M35.1321754,38.90205c0.4736328-0.2597656,1.1767578-0.5410156,1.8662109-0.7539063
		c1.0654297-0.3310547,1.8144531-0.3496094,2.4306641-0.0634766c0.496582,0.2226563,0.8779297,0.6835938,1.0620117,1.2792969
		c0.3168945,1.0195313-0.1152344,1.8955078-0.8432617,2.4238281l0.0102539,0.0341797
		c0.659668,0.0205078,1.1860352,0.4619141,1.6181641,1.2070313c0.5864258,0.9990234,1.0004883,1.6875,1.2543945,1.9355469
		l-1.0327148,0.3203125c-0.1928711-0.1787109-0.5717773-0.7910156-1.0874023-1.6855469
		c-0.5605469-0.9951172-1.0976563-1.2685547-2.0136719-1.0224609l-0.9404297,0.2919922l1.0380859,3.3476563l-0.9975586,0.3095703
		L35.1321754,38.90205z M37.2215309,42.112011l1.0209961-0.3164063c1.065918-0.3300781,1.5605469-1.125,1.2871094-2.0078125
		c-0.3095703-0.9970703-1.1669922-1.2089844-2.2246094-0.8925781c-0.4819336,0.1484375-0.8115234,0.3007813-0.9575195,0.3964844
		L37.2215309,42.112011z"/>
</g>
<g>
</g>
<g>
</g>
<g>
</g>
<g>
</g>
<g>
</g>
<g>
</g>
</svg>
