<?xml version="1.0" encoding="utf-8"?>
<!-- Generator: Adobe Illustrator 23.0.6, SVG Export Plug-In . SVG Version: 6.00 Build 0)  -->
<svg version="1.1" id="Layer_1" xmlns="http://www.w3.org/2000/svg" xmlns:xlink="http://www.w3.org/1999/xlink" x="0px" y="0px"
	 viewBox="0 0 95.6210556 46.2315788" style="enable-background:new 0 0 95.6210556 46.2315788;" xml:space="preserve">
<style type="text/css">
	.st0{fill:none;}
	.st1{fill:#8A181A;}
	.st2{fill:#354B75;}
</style>
<g>
	<rect x="23.5198002" y="26.5899925" class="st0" width="48.2376823" height="20.8628769"/>
	<path class="st1" d="M35.4573402,31.8933601c-0.2553711-1.0205078-0.4970703-1.625-0.8867188-2.121582
		c-0.4023438-0.5776367-1.046875-0.7651367-2.578125-0.7651367h-1.5439453c-0.8457031,0-0.9399414,0.0537109-0.9399414,0.8857422
		v5.6264648h2.2558594c2.2021484,0,2.4038086-0.1879883,2.6723633-1.8129883h0.9667969v5.0356445h-0.9667969
		c-0.2685547-1.7592773-0.4702148-1.9741211-2.6723633-1.9741211h-2.2558594v4.203125
		c0,2.175293,0.2280273,2.3095703,2.4575195,2.4975586v0.9399414h-7.4257813v-0.9399414
		c1.8935547-0.1611328,2.1484375-0.3222656,2.1484375-2.4975586v-9.6279297c0-2.1748047-0.2548828-2.3359375-2.121582-2.4707031
		v-0.9394531h11.574707c0.0268555,0.6040039,0.1342773,2.3896484,0.2822266,3.7998047L35.4573402,31.8933601z"/>
	<path class="st1" d="M42.3884926,44.4080086v-0.9399414c1.9204102-0.1611328,2.175293-0.3222656,2.175293-2.4169922v-9.762207
		c0-2.1210938-0.2548828-2.2822266-2.175293-2.4169922v-0.9394531h7.1435547v0.9394531
		c-1.9204102,0.1347656-2.1484375,0.2958984-2.1484375,2.4169922v9.762207c0,2.121582,0.2280273,2.2558594,2.1484375,2.4169922
		v0.9399414H42.3884926z"/>
	<path class="st1" d="M68.8440552,32.1218758c-0.2822266-1.3027344-0.5239258-2.0146484-0.9130859-2.4575195
		c-0.4433594-0.496582-0.8999023-0.6577148-2.4707031-0.6577148h-1.4101563V41.051075
		c0,2.0678711,0.2285156,2.2558594,2.5107422,2.4169922v0.9399414h-7.7880821v-0.9399414
		c2.2021484-0.1611328,2.4169922-0.3491211,2.4169922-2.4169922V29.0066414h-1.2080078
		c-1.8666992,0-2.3369141,0.2548828-2.6855469,0.7114258c-0.362793,0.4165039-0.5776367,1.2485352-0.8867188,2.4038086h-0.9931641
		c0.1074219-1.7324219,0.2548828-3.5048828,0.3085938-4.8476563h0.6582031
		c0.3891602,0.5771484,0.6845703,0.6582031,1.3691406,0.6582031h9.7890587c0.6713867,0,0.9399414-0.1611328,1.3291016-0.6582031
		h0.6850586c0.0268555,1.1010742,0.1611328,3.1958008,0.2416992,4.753418L68.8440552,32.1218758z"/>
</g>
<g>
	<line class="st0" x1="389.8200378" y1="304.6856384" x2="306.5070496" y2="304.5786133"/>
</g>
<line class="st0" x1="53.0005302" y1="257.5279541" x2="389.2505188" y2="257.5279541"/>
<g>
</g>
<g>
	
		<ellipse transform="matrix(0.0051988 -0.9999865 0.9999865 0.0051988 -133.69841 223.6196747)" class="st0" cx="45.5434227" cy="179.0074921" rx="163.0510254" ry="85.7729416"/>
	<path class="st2" d="M9.0164213,14.5769529c-0.4902344,0.5058594-0.5864258,0.8691406-0.0795898,1.5830088
		c0.3486328,0.515625,0.9165039,1.2988281,2.2089844,2.9907227l0.9223633,1.2075195
		c1.6206055,2.121582,2.5883789,3.7578125,2.8540039,5.1928711c0.2211914,1.1782227-0.1318359,2.0136719-0.7236328,2.4667969
		c-0.5097656,0.390625-1.2060547,0.5463867-2.0737305,0.269043c-1.1323242-0.3945313-2.4033203-1.4794922-3.9824219-3.5463867
		l-3.2973628-4.3168945c-1.1250002-1.4726563-1.2534182-1.4902344-2.0913088-1.0512695l-0.4057617-0.5307617l2.3237307-1.7788086
		l0.4052734,0.5302734C4.4226718,18.2542,4.4133945,18.3909187,5.5520663,19.8821297l2.9970698,3.9238281
		c2.3129883,3.0273438,4.0429688,3.9052734,5.1157227,3.0839844c1.2753906-0.9755859,0.246582-3.2905273-2.0727539-6.3266602
		l-0.8666992-1.1342773c-1.2719727-1.6645508-1.8735352-2.3920898-2.3193359-2.90625
		c-0.5629878-0.6269541-0.88623-0.6411142-1.6215816-0.2368164l-0.4057617-0.5307627l2.2324214-1.7084961L9.0164213,14.5769529z"/>
	<path class="st2" d="M17.1829262,9.6418943c-0.5292969,0.3793945-0.6547852,0.7744141-0.2558594,1.5805664
		c0.3242188,0.5839844,0.8007813,1.4379883,1.8662109,3.2397461l4.425293,7.4873056l-0.3129883,0.1850586l-9.9501963-7.3481455
		l-0.0205078,0.012207l2.7626953,4.6748056c1.0009775,1.6928711,1.57129,2.5859375,1.9091806,3.1342773
		c0.6357422,0.9204102,0.9931641,0.9765625,1.6972656,0.6665039l0.3457031,0.5844727l-2.3798828,1.4072266l-0.3457031-0.5844727
		c0.5454102-0.3754883,0.6552734-0.7617188,0.1738281-1.7192383c-0.3251953-0.6098633-0.8217773-1.5458984-1.8227549-3.2392578
		l-2.4355469-4.1196299c-0.8134766-1.3764648-0.8344727-1.3642578-1.2871094-1.7246094
		c-0.4726563-0.3354492-0.7788086-0.328125-1.3061523-0.1367188L9.906558,13.1682615l1.425293-0.8422852l9.7773447,7.114747
		l0.0258789-0.0146484l-2.7802734-4.7041025c-1.0654297-1.8022461-1.5888672-2.628418-1.9130859-3.1054688
		c-0.57129-0.8115234-0.9516611-0.9072266-1.6596689-0.5556641l-0.3393555-0.5742188l2.4008799-1.4194336L17.1829262,9.6418943z"/>
	<path class="st2" d="M29.0105629,15.2136717c0.28125,1.0439463,0.640625,2.6552744,0.7397461,3.3637705
		c-0.2529297,0.2714844-0.934082,1.0507813-1.7299805,1.3916016c-2.5551758,1.0932617-5.1894531-1.8974609-6.5332031-5.0410166
		c-1.8134766-4.2431641-1.2929688-7.7705078,1.0224609-8.7612305c0.8520508-0.3647461,1.7387695-0.230957,2.0893555-0.2431641
		c0.5698242,1.1328125,0.9858398,1.90625,1.4995117,2.9384766l-0.2631836,0.3251953
		C24.7009926,7.2566404,23.7307777,6.55791,22.5340004,7.070117c-1.78125,0.762207-1.5292969,3.9716797-0.2358398,6.9975586
		c1.6054688,3.7568369,3.8833008,5.7739267,5.4750977,5.0927744c1.0634766-0.4545898,1.1586914-1.6967773,0.8129883-4.0151377
		L29.0105629,15.2136717z"/>
	<path class="st2" d="M30.5520668,3.4763672c1.8261719-0.4858398,4.2749023,1.8046873,5.4038086,6.0649414
		c1.2148438,4.5825195,0.2749023,7.7978525-1.75,8.3364267c-1.9194336,0.5102539-4.324707-1.9697275-5.4091797-6.0629892
		c-1.0175781-3.8374023-0.5327148-7.7294922,1.75-8.3369141L30.5520668,3.4763672z M30.5042152,4.382617
		c-1.2060547,0.3203125-1.8867188,2.5258789-0.8227539,6.5415039c1.0498047,3.9599609,2.9921875,6.4677744,4.5551758,6.052247
		c1.2524414-0.3334961,1.8925781-2.527833,0.8129883-6.5986338C33.8679848,5.9167967,31.9729652,3.991504,30.515934,4.379199
		L30.5042152,4.382617z"/>
	<path class="st2" d="M43.8059731,2.3762696c-0.7749023,0.2661133-0.8920898,0.4287109-1.1235352,2.4086912
		c-0.1455078,1.3461914-0.8017578,7.0742188-1.1870117,11.6044931l-0.3374023,0.0351563
		c-1.1679688-3.8598642-2.6259766-8.5234385-3.5830078-11.583497c-0.4833984-1.4892576-0.6889648-1.5957029-1.3842773-1.6738279
		L36.121891,2.5032227l2.7006836-0.2802734l0.0693359,0.6640625c-0.7954102,0.2446289-0.8173828,0.3857422-0.5424805,1.2714841
		c0.4316406,1.4599609,1.6796875,5.5083008,2.9208984,9.4301758l0.0117188-0.0009766
		c0.3066406-2.8442383,0.7709961-7.4873047,0.8857422-9.4785156c0.0908203-1.2363279-0.0004883-1.3540037-0.9599609-1.4628904
		l-0.0693359-0.6640625l2.5981445-0.2700195L43.8059731,2.3762696z"/>
	<path class="st2" d="M51.0965004,12.6550779c-0.0805664,0.6650391-0.4013672,2.7832031-0.53125,3.44629l-5.5292969-0.224122
		l0.0263672-0.6669922c1.0600586-0.1069336,1.1689453-0.2636719,1.2397461-2.0463867l0.3427734-8.6274414
		c0.0751953-1.897949-0.0253906-1.9594724-0.9282227-2.1459959l0.0263672-0.6669922l5.105957,0.206543
		c-0.0073242,0.4951172-0.0253906,2.015625-0.0297852,3.2021482l-0.3735352,0.0766602
		c-0.0654297-0.9472656-0.1445313-1.3999021-0.2827148-1.8891599c-0.1206055-0.4770508-0.4052734-0.6386719-1.2231445-0.671875
		l-0.980957-0.0395508c-0.3510742-0.0141602-0.3720703,0.0424805-0.3964844,0.6635742l-0.1948242,4.9116211l1.1323242,0.0458984
		c1.0361328,0.0419922,1.0922852-0.1513672,1.2827148-1.5952148l0.3696289,0.0146484l-0.1650391,4.1640625l-0.3696289-0.0151367
		c-0.0961914-1.559082-0.1469727-1.6533203-1.1518555-1.6938477L47.3328285,9.05791l-0.1601563,4.0375977
		c-0.0410156,1.0229492,0.0302734,1.5214844,0.2192383,1.8056641c0.2133789,0.2851563,0.6069336,0.3007813,1.2060547,0.3256836
		c0.8666992,0.034668,1.206543-0.1240234,1.4770508-0.6660156c0.2089844-0.3720703,0.4619141-1.1103516,0.6435547-2.0019531
		L51.0965004,12.6550779z"/>
	<path class="st2" d="M57.6760902,17.4587898c-0.1611328-0.0288086-0.2978516-0.0532227-0.4331055-0.1235352
		c-0.6875-0.1796875-1.0864258-0.706543-1.3969727-2.2236338c-0.2016602-1.1230469-0.3930664-2.5830078-0.5375977-3.6499023
		c-0.0927734-0.6245117-0.2416992-0.8964844-0.8671875-1.0068359l-0.3999023-0.0703125l-0.5888672,3.3452148
		c-0.3198242,1.8149414-0.2460938,1.956543,0.6577148,2.2333984l-0.1176758,0.6689463l-2.9267578-0.5170898l0.1176758-0.6694345
		c0.9741211,0.0556641,1.0932617-0.0288086,1.4165039-1.8662109l1.5073242-8.5629883
		c0.3237305-1.8378904,0.2285156-1.8896482-0.6396484-2.1953123l0.1157227-0.6577148l2.7661133,0.4887695
		c0.7744141,0.137207,1.3071289,0.4301758,1.6245117,1.0004883c0.3652344,0.6494138,0.503418,1.679199,0.2817383,2.9384763
		c-0.3295898,1.871582-1.1191406,2.9365234-2.097168,3.5004883c0.0708008,0.7495117,0.2954102,2.2626953,0.4619141,3.2744141
		c0.2294922,1.2099609,0.3422852,1.6860352,0.5244141,2.3261719c0.1865234,0.6879892,0.4482422,1.0151377,0.6870117,1.1621103
		L57.6760902,17.4587898z M54.7673988,9.7522459c0.5961914,0.105957,0.9897461-0.0351563,1.3540039-0.4272461
		c0.5566406-0.5795898,0.902832-1.3608398,1.1108398-2.5405273c0.4052734-2.3022461-0.2954102-3.2446287-1.1958008-3.4042966
		c-0.3334961-0.0585938-0.5322266-0.0117188-0.6416016,0.0859375c-0.1274414,0.1293945-0.2011719,0.3735352-0.3046875,0.9633787
		l-0.9189453,5.2177734L54.7673988,9.7522459z"/>
	<path class="st2" d="M73.2200317,8.7283201c-0.8071289-0.1411133-0.9770508-0.050293-1.9960938,1.1181641
		c-1.0717773,1.246582-1.9311523,2.2705078-3.1977539,3.8217773c-0.3061523,0.3818359-0.4335938,0.5908203-0.6396484,1.078125
		l-1.1469727,2.7128916c-0.6904297,1.6323242-0.6625977,1.8305664,0.2958984,2.359375l-0.2646484,0.625l-2.9477501-1.2416992
		l0.2641602-0.6254883c1.0029259,0.2978516,1.1249962,0.2119141,1.8325157-1.4624023l1.1381836-2.6918955
		c0.1479492-0.3491211,0.1850586-0.5463867,0.269043-1.2719727c0.1699219-1.5512695,0.3217773-2.9980469,0.4985352-4.9213867
		c0.1606445-1.5297852,0.1333008-1.7915039-0.4580078-2.1782227l0.2597656-0.6142578l2.4521484,1.0332031l-0.2602539,0.6142578
		c-0.8549805-0.1352539-0.9204102,0.1118164-0.9897461,0.8818359c-0.2138672,1.7324219-0.3764648,3.5615234-0.5375977,5.2788086
		c0.9941406-1.2036133,2.3037109-2.824707,3.1289063-3.9375c0.6796875-0.9248047,0.706543-1.050293-0.0581055-1.5722656
		l0.2602539-0.6147461l2.3574219,0.9931641L73.2200317,8.7283201z"/>
	<path class="st2" d="M78.1941528,10.3215818c1.637207,0.9418945,1.7661133,4.2939453-0.4277344,8.1162119
		c-2.3598633,4.1118164-5.2875977,5.7338867-7.1035156,4.6894531c-1.7216797-0.9897461-1.6850586-4.4467773,0.4228516-8.1196299
		c1.9765625-3.4428711,5.0566406-5.8657227,7.1030273-4.6889648L78.1941528,10.3215818z M77.5237427,10.9314451
		c-1.081543-0.6220703-3.1152344,0.4648438-5.1835938,4.0678711c-2.0390625,3.5527353-2.4233398,6.703126-1.0219727,7.5092783
		c1.1230469,0.6455078,3.1206055-0.4624023,5.2167969-4.1147461c2.296875-4.0024424,2.3056641-6.7045908,0.9990234-7.4565439
		L77.5237427,10.9314451z"/>
	<path class="st2" d="M88.7346802,18.7634773c-0.6196289-0.3339844-0.9956055-0.3271484-1.5439453,0.3544922
		c-0.4013672,0.4760742-1.0004883,1.2348633-2.2768555,2.9389648l-0.9106445,1.2158203
		c-1.6005859,2.137207-2.9116211,3.5136719-4.2197266,4.159668c-1.0732422,0.5332031-1.972168,0.4213867-2.5688477-0.0249023
		c-0.5136719-0.3842773-0.8530273-1.0117188-0.8217773-1.9223633c0.0717773-1.1967773,0.7705078-2.715332,2.3291016-4.796875
		l3.2563477-4.3476563c1.1108398-1.4829111,1.0932617-1.6108408,0.4433594-2.2983408l0.4003906-0.5336914l2.3413086,1.7509766
		l-0.3999023,0.5341797c-0.8129883-0.4501953-0.9477539-0.4213867-2.0722656,1.0800791l-2.9594727,3.9516602
		c-2.2836914,3.0488281-2.6582031,4.953125-1.5776367,5.7617188c1.2851563,0.9609375,3.2319336-0.6582031,5.5224609-3.7163086
		l0.8554688-1.1425781c1.2558594-1.6762695,1.7919922-2.453125,2.1650391-3.0219727
		c0.4506836-0.7124023,0.3759766-1.0268555-0.2119141-1.6254883l0.3994141-0.5336914l2.2504883,1.6826172L88.7346802,18.7634773z"/>
	<path class="st2" d="M85.6184692,34.4114265c-0.1206055-0.1098633-0.2231445-0.2036133-0.2988281-0.3359375
		c-0.4838867-0.5200195-0.5385742-1.1787109,0.0126953-2.625c0.4321289-1.0566406,1.0532227-2.3920898,1.503418-3.3691406
		c0.2563477-0.5776367,0.2763672-0.8862305-0.1918945-1.3149414l-0.2993164-0.2739258l-2.2905273,2.5087891
		c-1.2426758,1.3608398-1.2568359,1.5200195-0.6425781,2.2373047l-0.4580078,0.5024414l-2.1923828-2.0048828l0.4580078-0.5014648
		c0.7924805,0.5678711,0.9379883,0.5610352,2.1962891-0.8168945l5.862793-6.4213867
		c1.2578125-1.3774414,1.2050781-1.4726563,0.6362305-2.1953125l0.4506836-0.4931641l2.0717773,1.894043
		c0.5805664,0.5307617,0.8725586,1.0629883,0.8344727,1.7148438c-0.0400391,0.7441406-0.4755859,1.6875-1.3374023,2.6313477
		c-1.28125,1.4033203-2.519043,1.8793945-3.6469727,1.831543c-0.3413086,0.6704102-0.9628906,2.0683594-1.3652344,3.0117188
		c-0.4545898,1.144043-0.6147461,1.6064453-0.8041992,2.2446289c-0.2114258,0.6801758-0.1660156,1.097168-0.043457,1.3491211
		L85.6184692,34.4114265z M87.2957153,26.3484383c0.4467773,0.4077148,0.8540039,0.5,1.3710938,0.3637695
		c0.7807617-0.1914063,1.4916992-0.6645508,2.2993164-1.5488281c1.5761719-1.7265625,1.4907227-2.8979492,0.8164063-3.5141602
		c-0.25-0.2285156-0.4423828-0.2954102-0.5874023-0.2714844c-0.1767578,0.0410156-0.3701172,0.2075195-0.7739258,0.6499023
		l-3.5722656,3.9121094L87.2957153,26.3484383z"/>
</g>
<g>
</g>
<g>
</g>
<g>
</g>
<g>
</g>
<g>
</g>
<g>
</g>
</svg>
