<?xml version="1.0" encoding="utf-8"?>
<!-- Generator: Adobe Illustrator 24.1.3, SVG Export Plug-In . SVG Version: 6.00 Build 0)  -->
<svg version="1.1" id="Layer_1" xmlns="http://www.w3.org/2000/svg" xmlns:xlink="http://www.w3.org/1999/xlink" x="0px" y="0px"
	 viewBox="0 0 1395.663208 165.9789429" style="enable-background:new 0 0 1395.663208 165.9789429;" xml:space="preserve">
<style type="text/css">
	.st0{fill:none;stroke:#354C75;stroke-width:0.25;stroke-miterlimit:10;}
	.st1{fill:none;stroke:url(#SVGID_1_);stroke-miterlimit:10;}
	.st2{fill:none;stroke:url(#SVGID_2_);stroke-miterlimit:10;}
	.st3{fill:none;stroke:url(#SVGID_3_);stroke-miterlimit:10;}
	.st4{fill:none;}
	.st5{fill:#8A181A;}
</style>
<path class="st0" d="M992.0178833-65.6241608"/>
<linearGradient id="SVGID_1_" gradientUnits="userSpaceOnUse" x1="1008.666687" y1="-134.6912231" x2="1008.666687" y2="-134.6912231">
	<stop  offset="0" style="stop-color:#415375"/>
	<stop  offset="0.1308022" style="stop-color:#48597B;stop-opacity:0.9215187"/>
	<stop  offset="0.3326127" style="stop-color:#5D6D8D;stop-opacity:0.8004324"/>
	<stop  offset="0.5802509" style="stop-color:#8692AD;stop-opacity:0.6518494"/>
	<stop  offset="0.8616464" style="stop-color:#CACFDD;stop-opacity:0.4830121"/>
	<stop  offset="1" style="stop-color:#FFFFFF;stop-opacity:0.4"/>
</linearGradient>
<path class="st1" d="M1008.666687-134.6912231"/>
<linearGradient id="SVGID_2_" gradientUnits="userSpaceOnUse" x1="979.2860718" y1="-123.377243" x2="979.2860718" y2="-123.377243">
	<stop  offset="0" style="stop-color:#415375"/>
	<stop  offset="0.1308022" style="stop-color:#48597B;stop-opacity:0.9215187"/>
	<stop  offset="0.3326127" style="stop-color:#5D6D8D;stop-opacity:0.8004324"/>
	<stop  offset="0.5802509" style="stop-color:#8692AD;stop-opacity:0.6518494"/>
	<stop  offset="0.8616464" style="stop-color:#CACFDD;stop-opacity:0.4830121"/>
	<stop  offset="1" style="stop-color:#FFFFFF;stop-opacity:0.4"/>
</linearGradient>
<path class="st2" d="M979.2860718-123.377243"/>
<linearGradient id="SVGID_3_" gradientUnits="userSpaceOnUse" x1="981.0454102" y1="-127.6726379" x2="981.0454102" y2="-127.6726379">
	<stop  offset="0" style="stop-color:#415375"/>
	<stop  offset="0.1308022" style="stop-color:#48597B;stop-opacity:0.9215187"/>
	<stop  offset="0.3326127" style="stop-color:#5D6D8D;stop-opacity:0.8004324"/>
	<stop  offset="0.5802509" style="stop-color:#8692AD;stop-opacity:0.6518494"/>
	<stop  offset="0.8616464" style="stop-color:#CACFDD;stop-opacity:0.4830121"/>
	<stop  offset="1" style="stop-color:#FFFFFF;stop-opacity:0.4"/>
</linearGradient>
<path class="st3" d="M981.0454102-127.6726379"/>
<g>
	<rect y="28.6421051" class="st4" width="1395.663208" height="137.3368378"/>
	<path class="st5" d="M205.6386719,39.0122223c2.4482422,0,4.4638672-0.2880859,6.1918945-0.7197266
		c-0.4316406,4.1757813-1.7280273,24.4794922-1.7280273,48.9589844c0,10.5117188,0.144043,20.3037109,3.1679688,28.3671875
		c4.6079102,12.5273438,14.9760742,17.1357422,28.9433594,17.1357422c11.5200195,0,19.0078125-3.8876953,23.7597656-10.0800781
		c4.6079102-6.1914063,7.7758789-15.4072266,7.7758789-35.9990234V64.7876129
		c0-13.9677734-0.2880859-22.8955078-0.8637695-26.4951172c2.159668,0.4316406,4.0317383,0.7197266,5.7597656,0.7197266
		s2.8798828-0.2880859,4.4638672-0.7197266c-0.7202148,8.7832031-2.1601563,32.9746094-2.5917969,59.1826172
		c-0.4321289,27.5029297-15.8398438,42.046875-41.1835938,42.046875c-28.2231445,0-41.0390625-12.671875-41.0390625-41.4707031
		c0-7.0566406,0.7202148-16.4160156,0.7202148-23.1835938c0-8.0644531-0.144043-13.6796875-0.8642578-36.5751953
		C200.8867188,38.7241364,203.3349609,39.0122223,205.6386719,39.0122223z"/>
	<path class="st5" d="M365.7661133,92.8667145c0,7.6318359-0.5761719,15.984375-0.5761719,26.9277344
		c0,12.671875,0.2880859,15.2636719,0.2880859,17.8554688c-2.4477539-0.5761719-4.1757813-0.7197266-6.0478516-0.7197266
		s-3.6000977,0.1435547-5.9038086,0.7197266c0-8.2080078,1.0078125-21.1669922,1.0078125-30.5273438V96.0346832
		c0-11.9511719-5.3276367-21.1669922-15.8393555-21.1669922c-12.671875,0-19.2958984,8.0634766-19.2958984,23.0390625v17.2802734
		c0,6.1914063,0.4321289,15.9833984,1.1518555,22.4628906c-2.3037109-0.4316406-4.3198242-0.7197266-6.4794922-0.7197266
		c-2.1601563,0-4.1762695,0.2880859-6.4799805,0.7197266c1.1518555-9.0712891,1.1518555-19.5830078,1.1518555-25.3427734V92.8667145
		c0-8.6396484-0.4321289-16.5595703-1.1518555-24.046875c2.4477539,0.5751953,4.6079102,0.7197266,6.4799805,0.7197266
		c1.4399414,0,3.3115234-0.2880859,5.7597656-0.7197266c-0.144043,2.4472656-0.4321289,8.0634766-0.4321289,11.5195313h0.2880859
		c5.328125-8.2080078,12.527832-12.9599609,22.8955078-12.9599609
		C356.9824219,67.3794098,365.7661133,75.5874176,365.7661133,92.8667145z"/>
	<path class="st5" d="M442.6621094,73.7153473c-1.2958984,3.3115234-2.4477539,6.0478516-3.1679688,9.5039063h-1.1518555
		c-4.1757813-7.0556641-11.0878906-11.2314453-18.5756836-11.2314453c-15.6958008,0-24.3354492,11.375-24.3354492,31.1035156
		c0,20.1591797,8.7836914,29.9511719,24.9116211,29.9511719c6.7675781,0,15.9833984-3.7441406,21.5996094-10.2236328
		l0.7197266,0.4316406c-0.4321289,2.3037109-0.7197266,4.1757813-0.8637695,7.0556641
		c-7.3442383,5.6162109-16.2719727,8.7841797-23.9038086,8.7841797c-20.4472656,0-35.1352539-13.3916016-35.1352539-35.8554688
		c0-23.6152344,16.8476563-35.8554688,36.7192383-35.8554688C429.1264648,67.3794098,438.7744141,70.2592926,442.6621094,73.7153473
		z"/>
	<path class="st5" d="M523.7338867,103.2348785c0,23.7597656-15.6958008,35.8554688-34.847168,35.8554688
		c-20.159668,0-35.1352539-12.9599609-35.1352539-34.9912109c0-29.3759766,20.3032227-36.7197266,34.847168-36.7197266
		C508.7583008,67.3794098,523.7338867,80.1948395,523.7338867,103.2348785z M488.7426758,134.4819489
		c14.543457,0,22.3193359-11.0878906,22.3193359-31.2470703c0-20.015625-7.487793-31.2470703-22.4633789-31.2470703
		c-14.3999023,0-22.1757813,10.9433594-22.1757813,31.2470703
		C466.4228516,123.3940582,474.3427734,134.4819489,488.7426758,134.4819489z"/>
	<path class="st5" d="M537.2719727,69.539566c2.1601563,0,4.0322266-0.2880859,6.3359375-0.7197266
		c5.9038086,18.8632813,12.815918,37.0068359,21.4555664,56.1582031
		c5.0400391-10.5117188,8.4960938-19.1513672,22.0317383-56.1582031c1.4399414,0.4316406,2.8798828,0.7197266,4.4638672,0.7197266
		c1.7280273,0,2.8798828-0.2880859,4.4638672-0.7197266l-14.9755859,33.8388672
		c-5.184082,11.9521484-9.7919922,23.4716797-13.9677734,34.9912109c-1.4399414-0.4316406-2.8798828-0.7197266-4.4638672-0.7197266
		c-1.7280273,0-2.4482422,0.1435547-4.6079102,0.7197266c-9.2158203-23.6152344-17.4238281-45.6464844-27.9355469-68.8300781
		C533.0961914,69.3950348,535.1123047,69.539566,537.2719727,69.539566z"/>
	<path class="st5" d="M665.144043,96.898941v2.4482422l-0.2880859,3.0234375
		c-8.6396484-0.1435547-17.9995117-0.4316406-28.2236328-0.4316406c-6.9116211,0-14.1113281,0.2880859-21.4555664,0.4316406
		c-0.144043,0.7207031-0.144043,2.7363281-0.144043,3.1679688c0,17.8554688,10.3681641,27.5039063,24.7675781,27.5039063
		c7.3442383,0,16.1279297-4.0322266,21.7436523-10.2236328l0.7202148,0.4316406l-0.8642578,7.0556641
		c-7.487793,5.7597656-16.5595703,8.7841797-24.1914063,8.7841797c-20.015625,0-34.847168-14.2558594-34.847168-33.9833984
		c0-23.6152344,12.0957031-37.7275391,32.9750977-37.7275391C653.7680664,67.3794098,665.144043,79.0434723,665.144043,96.898941z
		 M634.1845703,97.3305817c5.0400391,0,13.5356445-0.4316406,19.1518555-0.4316406
		c-0.144043-16.5595703-6.0483398-24.9111328-17.7119141-24.9111328c-11.0878906,0-18.5756836,9.359375-20.159668,24.9111328
		C621.0810547,96.898941,631.8808594,97.3305817,634.1845703,97.3305817z"/>
	<path class="st5" d="M715.2563477,68.2436676c-0.4321289,1.0078125-1.0078125,3.4560547-1.0078125,9.6474609v2.0166016
		l-1.0083008,0.7197266c-1.5839844-1.5839844-4.6079102-2.3037109-7.0556641-2.3037109
		c-9.2158203,0-14.6875,8.6396484-14.6875,19.7275391v19.5830078c0,8.6396484,0.1435547,15.2636719,0.5756836,20.015625
		c-2.159668-0.4316406-4.0317383-0.7197266-5.7597656-0.7197266c-1.8720703,0-3.7441406,0.2880859-6.0478516,0.7197266
		c0.4321289-3.8876953,0.5756836-8.6396484,0.5756836-15.4072266V90.1313629c0-6.1923828-0.1435547-16.9921875-0.5756836-21.3115234
		c2.7358398,0.5751953,4.3198242,0.7197266,6.0478516,0.7197266s3.6000977-0.2880859,5.7597656-0.7197266l-0.5756836,7.1992188
		c-0.144043,1.5839844-0.144043,3.8886719-0.144043,6.7685547l0.2875977,0.1435547
		c5.6162109-10.3681641,12.2402344-15.5517578,19.1518555-15.5517578
		C712.5205078,67.3794098,713.5283203,67.6674957,715.2563477,68.2436676z"/>
	<path class="st5" d="M755.1455078,39.0122223c2.5917969,0,5.1835938-0.2880859,7.9199219-0.7197266
		c8.7836914,17.4228516,17.9995117,33.5507813,27.359375,49.8222656
		c9.2158203-14.2548828,20.4472656-34.9912109,27.215332-49.8222656c2.1601563,0.4316406,3.7441406,0.7197266,5.6157227,0.7197266
		c1.5839844,0,3.4560547-0.2880859,5.6162109-0.7197266c-19.1518555,29.0869141-29.0874023,45.3583984-34.8476563,56.8789063
		c0,16.5595703,0.4321289,34.8466797,1.1523438,42.4785156c-2.4482422-0.4316406-4.7519531-0.7197266-7.0561523-0.7197266
		c-2.3037109,0-4.3198242,0.2880859-7.0556641,0.7197266c0.7197266-8.4951172,1.1518555-16.9912109,1.1518555-40.8945313
		c-1.8720703-3.3125-7.6318359-13.3925781-17.8554688-30.2402344
		c-10.2241211-17.1347656-15.8398438-26.3515625-17.1357422-28.2226563
		C749.9614258,38.7241364,752.409668,39.0122223,755.1455078,39.0122223z"/>
	<path class="st5" d="M888.4873047,103.2348785c0,23.7597656-15.6958008,35.8554688-34.847168,35.8554688
		c-20.159668,0-35.1352539-12.9599609-35.1352539-34.9912109c0-29.3759766,20.3037109-36.7197266,34.847168-36.7197266
		C873.5117188,67.3794098,888.4873047,80.1948395,888.4873047,103.2348785z M853.4960938,134.4819489
		c14.543457,0,22.3193359-11.0878906,22.3193359-31.2470703c0-20.015625-7.487793-31.2470703-22.4633789-31.2470703
		c-14.3999023,0-22.1757813,10.9433594-22.1757813,31.2470703
		C831.1762695,123.3940582,839.0961914,134.4819489,853.4960938,134.4819489z"/>
	<path class="st5" d="M904.6162109,68.8198395c2.4477539,0.4316406,4.4638672,0.7197266,6.0478516,0.7197266
		c1.7280273,0,3.5996094-0.2880859,5.9038086-0.7197266c-1.0078125,12.0957031-1.4399414,26.7832031-1.4399414,40.03125
		c0,3.5996094,0,12.5273438,4.1757813,16.9912109c2.7358398,3.3125,7.0561523,5.7597656,12.671875,5.7597656
		c7.9199219,0,12.527832-3.4560547,15.2636719-7.9199219c3.4560547-5.7597656,3.7441406-10.0791016,3.7441406-25.6308594
		c0-14.5439453-0.144043-26.2080078-0.2880859-29.2314453c2.4477539,0.5751953,4.1757813,0.7197266,6.0478516,0.7197266
		c2.159668,0,3.7436523-0.1445313,5.9038086-0.7197266c-0.5761719,9.2158203-1.0078125,23.4716797-1.0078125,43.1992188
		c0,11.0878906,0.144043,18.8632813,0.5756836,25.6308594c-2.159668-0.4316406-4.0317383-0.7197266-5.6157227-0.7197266
		s-3.4560547,0.2880859-5.6157227,0.7197266c0.1435547-1.8720703,0.2875977-5.0400391,0.2875977-7.1992188v-5.1845703h-0.2875977
		c-5.0400391,9.2158203-13.2480469,13.8242188-22.4638672,13.8242188c-14.9755859,0-24.0473633-8.0644531-24.0473633-24.1914063
		c0-5.9042969,0.4321289-19.1523438,0.4321289-23.7597656C904.9042969,83.6508942,904.7602539,76.3071442,904.6162109,68.8198395z"
		/>
	<path class="st5" d="M1019.5273438,68.2436676c-0.4326172,1.0078125-1.0087891,3.4560547-1.0087891,9.6474609v2.0166016
		l-1.0078125,0.7197266c-1.5839844-1.5839844-4.6074219-2.3037109-7.0556641-2.3037109
		c-9.2158203,0-14.6875,8.6396484-14.6875,19.7275391v19.5830078c0,8.6396484,0.1435547,15.2636719,0.5761719,20.015625
		c-2.1601563-0.4316406-4.0322266-0.7197266-5.7607422-0.7197266c-1.8710938,0-3.7431641,0.2880859-6.0478516,0.7197266
		c0.4326172-3.8876953,0.5761719-8.6396484,0.5761719-15.4072266V90.1313629c0-6.1923828-0.1435547-16.9921875-0.5761719-21.3115234
		c2.7363281,0.5751953,4.3203125,0.7197266,6.0478516,0.7197266c1.7285156,0,3.6005859-0.2880859,5.7607422-0.7197266
		l-0.5761719,7.1992188c-0.1445313,1.5839844-0.1445313,3.8886719-0.1445313,6.7685547l0.2880859,0.1435547
		c5.6162109-10.3681641,12.2402344-15.5517578,19.1513672-15.5517578
		C1016.7910156,67.3794098,1017.7988281,67.6674957,1019.5273438,68.2436676z"/>
	<path class="st5" d="M1100.3105469,39.0122223c8.7841797,0,17.1357422-0.2880859,27.5029297-0.7197266
		c-0.4316406,1.7275391-0.4316406,3.0234375-0.4316406,4.3193359c0,1.5839844,0,2.4482422,0.4316406,4.3203125
		c-9.2158203-1.1523438-34.4150391-1.8720703-40.1748047-1.8720703c0,0.7197266-0.2880859,14.2558594-0.2880859,20.5917969
		l0.1445313,16.4150391c12.2392578,0,25.0546875-0.2880859,37.1503906-1.4394531
		c-0.1435547,1.2958984-0.5751953,2.7353516-0.5751953,4.3193359c0,1.1523438,0.1435547,2.0166016,0.5751953,4.3203125
		c-9.359375-0.7197266-17.1347656-1.1523438-37.1503906-1.1523438v14.1123047
		c0,9.7919922,0.5751953,22.7509766,1.1513672,35.4228516c-2.4482422-0.4316406-4.7519531-0.7197266-7.0556641-0.7197266
		s-4.3203125,0.1435547-7.0556641,0.7197266c0.5761719-12.671875,1.1513672-25.4873047,1.1513672-35.4228516V73.7153473
		c0-9.9355469-0.5751953-22.7519531-1.1513672-35.4228516C1083.8945313,38.7241364,1091.6708984,39.0122223,1100.3105469,39.0122223
		z"/>
	<path class="st5" d="M1158.34375,43.7641754c0,4.0322266-3.3115234,7.34375-7.34375,7.34375s-7.34375-3.3115234-7.34375-7.34375
		c0-4.1757813,3.4560547-7.34375,7.34375-7.34375S1158.34375,39.5883942,1158.34375,43.7641754z M1151,69.539566
		c2.1601563,0,4.0322266-0.1445313,6.4794922-0.7197266c-0.7197266,6.4794922-1.1513672,19.2949219-1.1513672,25.4873047v17.8554688
		c0,9.7919922,0.4316406,18.1435547,1.1513672,25.4873047c-2.4472656-0.4316406-4.6074219-0.7197266-6.4794922-0.7197266
		c-2.1601563,0-4.1757813,0.2880859-6.4794922,0.7197266c1.1513672-9.0712891,1.1513672-19.5830078,1.1513672-25.3427734V92.8667145
		c0-8.6396484-0.4316406-16.5595703-1.1513672-24.046875C1146.9677734,69.3950348,1149.1279297,69.539566,1151,69.539566z"/>
	<path class="st5" d="M1194.3447266,49.523941h0.7207031c-0.5761719,7.4882813-0.7207031,13.2480469-1.1523438,21.3115234
		c3.8876953,0,11.0878906-0.4316406,15.2636719-0.4316406c-0.1435547,0.5751953-0.1435547,3.1679688-0.1435547,3.5996094
		c0,1.2958984,0,2.015625,0.1435547,2.4482422c-3.3115234-0.1445313-8.3515625-0.2880859-10.2236328-0.2880859h-5.0400391
		c-0.4316406,4.03125-1.0078125,28.0791016-1.0078125,37.0068359c0,10.9443359,0.7197266,21.3115234,11.5195313,21.3115234
		c2.1601563,0,4.8964844-0.4316406,6.6240234-1.0078125v3.4560547c-3.5996094,1.2958984-7.6318359,2.1601563-11.0878906,2.1601563
		c-11.8076172,0-17.7119141-6.0478516-17.7119141-18.2880859c0-6.4794922,0.8642578-23.1835938,1.0087891-44.6386719
		c-5.0400391,0-8.2080078,0.1435547-9.7919922,0.2880859c0.4316406-1.5839844,0.2880859-2.1601563,0.2880859-3.3125
		c0-1.0078125-0.1445313-1.8720703-0.2880859-2.8798828c5.1835938,0.4326172,7.9199219,0.4326172,9.5039063,0.4326172
		l-0.5761719-16.1279297L1194.3447266,49.523941z"/>
</g>
<g>
</g>
<g>
</g>
<g>
</g>
<g>
</g>
<g>
</g>
<g>
</g>
</svg>
