<?xml version="1.0" encoding="UTF-8"?><svg id="Layer_1" xmlns="http://www.w3.org/2000/svg" viewBox="0 0 700.28 506.49"><defs><style>.cls-1{font-size:116.32px;}.cls-1,.cls-2{fill:#8b0000;font-family:OptimaLTPro-Roman, 'Optima LT Pro';}.cls-2{font-size:171px;letter-spacing:.1em;}</style></defs><text class="cls-1" transform="translate(81.38 225.31) rotate(-51.32) scale(.72 1)"><tspan x="0" y="0">U</tspan></text><text class="cls-1" transform="translate(119 177.84) rotate(-36.23) scale(.72 1)"><tspan x="0" y="0">N</tspan></text><text class="cls-1" transform="translate(168.84 141.65) rotate(-24.82) scale(.72 1)"><tspan x="0" y="0">C</tspan></text><text class="cls-1" transform="translate(216.39 118.77) rotate(-14.6) scale(.72 1)"><tspan x="0" y="0">O</tspan></text><text class="cls-1" transform="translate(278.31 102.77) rotate(-5.77) scale(.72 1)"><tspan x="0" y="0">V</tspan></text><text class="cls-1" transform="translate(331.74 97.67) rotate(1.07) scale(.72 1)"><tspan x="0" y="0">E</tspan></text><text class="cls-1" transform="translate(371.6 98) rotate(7.66) scale(.72 1)"><tspan x="0" y="0">R</tspan></text><text class="cls-1" transform="translate(420.54 105.15) rotate(13.18) scale(.72 1)"><tspan x="0" y="0"> </tspan></text><text class="cls-1" transform="translate(442.22 109.4) rotate(19.1) scale(.72 1)"><tspan x="0" y="0">Y</tspan></text><text class="cls-1" transform="translate(483.96 122.24) rotate(28.67) scale(.72 1)"><tspan x="0" y="0">O</tspan></text><text class="cls-1" transform="translate(541.82 153.27) rotate(42.41) scale(.72 1)"><tspan x="0" y="0">U</tspan></text><text class="cls-1" transform="translate(586.54 194.16) rotate(57.16) scale(.72 1)"><tspan x="0" y="0">R</tspan></text><text class="cls-2" transform="translate(211.8 271.12)"><tspan x="0" y="0">FIT</tspan></text></svg>