<?xml version="1.0" encoding="utf-8"?>
<!-- Generator: Adobe Illustrator 28.0.0, SVG Export Plug-In . SVG Version: 6.00 Build 0)  -->
<svg version="1.1" id="Layer_1" xmlns="http://www.w3.org/2000/svg" xmlns:xlink="http://www.w3.org/1999/xlink" x="0px" y="0px"
	 viewBox="0 0 1000 484" style="enable-background:new 0 0 1000 484;" xml:space="preserve">
<style type="text/css">
	.st0{fill:none;}
	.st1{fill:#8B0000;}
</style>
<g>
	<circle class="st0" cx="489" cy="520" r="468"/>
	<path class="st1" d="M17.9545898,287.4335938c1.4321289-2.4121094,2.3276367-4.5668945,2.9130859-6.5219727
		c3.8618164,2.8686523,23.1079102,16.0239258,47.2270508,30.3452148
		c10.3569336,6.1499023,20.0888672,11.7363281,29.8027344,13.4746094
		c15.0390625,2.7895508,25.6450195-4.7299805,33.8164062-18.4916992c6.7397461-11.3500977,7.2895508-21.0024414,3.96875-29.3066406
		c-3.4047852-8.1625977-10.6313477-16.6757812-30.9194336-28.7226562l-21.5654297-12.8046875
		c-13.762207-8.171875-22.7265625-13.1113281-26.6108398-14.6499023c1.6894531-1.8754883,3.0683594-3.5512695,4.0791016-5.2539062
		c1.0112305-1.7021484,1.4013672-3.0058594,1.9023438-4.8193359c8.2333984,5.8486328,31.2260742,21.4199219,56.7949219,37.1782227
		c26.8457031,16.5161133,32.1611328,40.2055664,17.3339844,65.1757812
		c-16.5117188,27.8076172-36.4946289,33.0209961-64.8696289,16.1723633
		c-6.9521484-4.1279297-15.7529297-10.3129883-22.4208984-14.2724609c-7.9453125-4.7177734-13.5625-7.8613281-36.5419922-20.546875
		C14.890625,291.9467773,16.6069336,289.7036133,17.9545898,287.4335938z"/>
	<path class="st1" d="M192.934082,163.7978516c6.0595703,6.3046875,12.215332,13.6616211,20.9047852,22.7021484
		c10.0615234,10.4682617,12.3574219,12.3808594,14.4155273,14.5219727
		c-2.4799805,1.4682617-4.0214844,2.7211914-5.5678711,4.2075195c-1.546875,1.4863281-2.8598633,2.9770508-4.3056641,5.2822266
		c-6.5170898-6.7802734-15.9746094-18.2871094-23.40625-26.019043l-8.8037109-9.159668
		c-9.4897461-9.8735352-21.2084961-13.2563477-29.8925781-4.9101562
		c-10.4682617,10.0615234-9.5375977,21.9824219,2.3530273,34.3540039l13.7202148,14.2749023
		c4.9165039,5.1152344,13.0478516,12.8613281,18.7880859,17.6425781c-2.246582,1.4726562-4.140625,2.8354492-5.9248047,4.550293
		c-1.784668,1.7148438-3.2211914,3.5537109-4.7817383,5.7397461c-6.2514648-8.4086914-14.5976562-17.0927734-19.1708984-21.8510742
		l-15.4350586-16.059082c-6.8603516-7.1376953-13.5053711-13.3374023-20.0454102-18.9511719
		c2.4794922-1.4682617,4.3779297-3.0639648,5.9243164-4.550293c1.1899414-1.1435547,2.5078125-2.8676758,4.1870117-5.168457
		c1.824707,2.1367188,6.0458984,7.0048828,8.7895508,9.8598633l0.2382812-0.2290039
		c-2.1157227-11.0107422,0.059082-20.652832,8.6240234-28.8852539
		C165.4404297,149.7167969,179.2138672,149.5229492,192.934082,163.7978516z"/>
	<path class="st1" d="M267.7993164,88.1162109c0.6977539,4.0151367,1.1943359,7.3803711,2.5415039,11.1943359l-1.128418,0.684082
		c-8.2836914-4.4331055-17.5371094-4.4189453-24.8740234,0.0292969
		c-15.3793945,9.3237305-17.0878906,25.6030273-5.3686523,44.9335938
		c11.9755859,19.7539062,26.3994141,24.1303711,42.2021484,14.5498047
		c6.6318359-4.0205078,13.4379883-13.1635742,15.0913086-22.8491211l0.9624023-0.0043945
		c0.9453125,2.5141602,1.7749023,4.5195312,3.3447266,7.4272461c-3.8598633,9.8652344-10.7260742,18.2729492-18.2041016,22.8066406
		c-20.0361328,12.1469727-42.3833008,7.75-55.7275391-14.2617188
		c-14.0288086-23.1396484-4.7915039-45.1416016,14.6801758-56.9462891
		C250.7724609,89.9487305,261.9370117,87.0395508,267.7993164,88.1162109z"/>
	<path class="st1" d="M384.2407227,80.3066406c8.6308594,25.8212891-4.0332031,44.668457-24.847168,51.6254883
		c-21.9091797,7.3227539-42.8920898-1.3217773-50.8950195-25.2651367
		c-10.6704102-31.9248047,8.7275391-47.28125,24.5332031-52.5644531
		C354.940918,46.7792969,375.871582,55.2675781,384.2407227,80.3066406z M357.5634766,126.9765625
		c15.8056641-5.2832031,20.2290039-20.1577148,12.9057617-42.0668945
		c-7.2705078-21.7529297-19.4882812-31.2392578-35.7636719-25.7993164
		C319.0561523,64.3408203,314.5810547,79.059082,321.9560547,101.125
		C329.2792969,123.0341797,341.9140625,132.2070312,357.5634766,126.9765625z"/>
	<path class="st1" d="M408.1479492,37.0478516c2.4614258-0.2578125,4.5605469-0.8095703,7.1347656-1.5766602
		c8.9790039,20.7939453,19.0214844,40.6469727,31.152832,61.4423828c4.4897461-12.581543,7.3974609-22.840332,18.4077148-66.6313477
		c1.6928711,0.3208008,3.3681641,0.4770508,5.1733398,0.2880859c1.9692383-0.2060547,3.2480469-0.671875,5.0014648-1.3530273
		l-13.0292969,40.3520508c-4.4819336,14.2397461-8.3588867,27.9179688-11.7436523,41.5449219
		c-1.6923828-0.3203125-3.3681641-0.4765625-5.1733398-0.2875977c-1.9692383,0.2060547-2.7724609,0.4560547-5.1655273,1.3701172
		c-13.3208008-25.8139648-25.3037109-49.9433594-40.0498047-75.1103516
		C403.371582,37.3818359,405.6865234,37.3056641,408.1479492,37.0478516z"/>
	<path class="st1" d="M571.7421875,68.6293945l-0.28125,2.7910156l-0.6757812,3.4145508
		c-9.8339844-1.1577148-20.4716797-2.5620117-32.1279297-3.737793c-7.8798828-0.7944336-16.1220703-1.2939453-24.5107422-1.9741211
		c-0.2470703,0.8041992-0.4785156,3.1025391-0.5283203,3.5952148c-2.0527344,20.3569336,8.6582031,32.5483398,25.0751953,34.2036133
		c8.3720703,0.8447266,18.8496094-2.7421875,25.9648438-9.1557617l0.7705078,0.5751953l-1.7958984,7.9448242
		c-9.1992188,5.7060547-19.8896484,8.1103516-28.5898438,7.2329102
		c-22.8203125-2.3012695-38.0908203-20.2592773-35.8222656-42.7504883
		c2.7148438-26.9238281,18.1279297-41.621582,41.9326172-39.2207031
		C562.1669922,33.6669922,573.7949219,48.2724609,571.7421875,68.6293945z M536.3964844,65.5625
		c5.7451172,0.5795898,15.4814453,1.0634766,21.8837891,1.7094727c1.7402344-18.8959961-4.03125-29.0966797-17.3291016-30.4379883
		c-12.640625-1.2744141-22.2539062,8.5356445-25.8476562,26.0834961
		C521.5068359,63.5634766,533.7695312,65.2973633,536.3964844,65.5625z"/>
	<path class="st1" d="M650.4306641,56.3305664c-0.7988281,0.9702148-2.2167969,3.4790039-4.2001953,10.2910156l-0.6455078,2.2177734
		l-1.3398438,0.4692383c-1.234375-2.25-4.3310547-4.0107422-7.0244141-4.7949219
		c-10.1386719-2.9521484-18.9257812,4.7998047-22.4775391,16.9980469l-6.2734375,21.5449219
		c-2.7675781,9.5048828-4.7314453,16.8378906-5.7783203,22.2041016c-2.2373047-1.1669922-4.2050781-2.0834961-6.1054688-2.637207
		c-2.0595703-0.5996094-4.2109375-0.8823242-6.8847656-1.1450195c1.7207031-4.1391602,3.4013672-9.3208008,5.5693359-16.7661133
		l10.2871094-35.3271484c1.9833984-6.8120117,5.2841797-18.7392578,6.1923828-23.6298828
		c2.8261719,1.5097656,4.5224609,2.1757812,6.4238281,2.7294922c1.9003906,0.5532227,4.0517578,0.8359375,6.5664062,1.0527344
		l-2.9394531,7.7363281c-0.6660156,1.6962891-1.4042969,4.230957-2.3261719,7.3994141l0.2705078,0.2509766
		c9.4990234-9.6074219,18.4472656-13.1884766,26.0507812-10.9741211
		C647.6972656,54.503418,648.7138672,55.1430664,650.4306641,56.3305664z"/>
	<path class="st1" d="M747.3798828,62.8374023c2.4736328,1.6450195,5.1289062,3.015625,8.0126953,4.3398438
		c-2.6787109,22.1977539-4.1240234,43.4335938-5.5224609,64.8979492
		c17.8398438-7.7504883,41.7167969-20.4033203,57.5878906-30.2573242c1.7861328,1.7832031,3.1152344,3.0634766,4.9003906,4.2514648
		c1.5117188,1.0053711,3.4804688,1.9189453,5.8144531,2.8779297c-36.7333984,15.5932617-56.5400391,24.8100586-69.3476562,32.144043
		c-10.5107422,15.7983398-21.7060547,33.519043-25.8632812,41.2568359c-2.0615234-1.9658203-4.0771484-3.703125-6.2744141-5.1655273
		c-2.1982422-1.4624023-4.3046875-2.4672852-7.1884766-3.7915039c6.0791016-7.6479492,11.8837891-15.4790039,27.0566406-38.2832031
		c0.3164062-4.3481445,1.21875-17.6201172,2.1591797-40.1826172c1.1230469-22.8369141,1.6152344-35.1933594,1.5664062-37.8017578
		C742.6171875,59.2719727,744.7705078,61.1005859,747.3798828,62.8374023z"/>
	<path class="st1" d="M834.5390625,228.8037109c-19.1796875,19.3212891-41.7070312,16.4868164-57.28125,1.0268555
		c-16.3925781-16.2739258-18.109375-38.9018555-0.3242188-56.8173828
		c23.7128906-23.8876953,46.1523438-13.4692383,57.9785156-1.7290039
		C851.3056641,187.5581055,853.1376953,210.0683594,834.5390625,228.8037109z M780.8603516,225.9672852
		c11.8271484,11.7402344,27.1005859,9.0009766,43.375-7.3925781c16.1572266-16.2763672,19.1347656-31.4545898,6.9570312-43.543457
		c-11.7099609-11.6240234-26.8671875-9.0019531-43.2568359,7.5087891
		C771.6611328,198.9331055,769.1513672,214.3427734,780.8603516,225.9672852z"/>
	<path class="st1" d="M886.7890625,232.7001953c1.0673828,2.640625,2.0126953,4.7744141,2.9746094,6.3134766
		c1.0498047,1.6787109,2.4667969,3.3227539,4.2861328,5.2988281c-12.3642578,6.3691406-26.8974609,14.8720703-39.7685547,22.9199219
		c-3.4980469,2.1870117-12.1728516,7.6108398-13.9726562,14.3798828
		c-1.5556641,4.6704102-1.3095703,10.3544922,2.1015625,15.8110352c4.8115234,7.6948242,10.96875,10.0727539,16.9677734,10.019043
		c7.6962891-0.1416016,12.0683594-2.4858398,27.1777344-11.9335938
		c14.1308594-8.8354492,25.3759766-16.0610352,28.2265625-18.0380859c0.9277344,2.7285156,1.8378906,4.4946289,2.9746094,6.3134766
		c1.3125,2.0986328,2.4140625,3.550293,4.2861328,5.2988281c-9.3037109,5.0390625-23.4169922,13.2797852-42.5849609,25.2641602
		c-10.7724609,6.7358398-18.2402344,11.5996094-24.5537109,16.1308594
		c-0.8916016-2.3608398-1.7490234-4.3544922-2.7119141-5.8935547c-0.9619141-1.5390625-2.3789062-3.1831055-4.1113281-5.019043
		c1.90625-0.9975586,5.0722656-2.7822266,7.1708984-4.0942383l5.0361328-3.1494141l-0.1748047-0.2797852
		c-12.015625,0.7021484-21.4785156-4.4736328-27.078125-13.4277344c-9.0976562-14.550293-6.7734375-28.2631836,8.8964844-38.0610352
		c5.7353516-3.5864258,18.8701172-11.2148438,23.3466797-14.0141602
		C872.5537109,241.9902344,879.6015625,237.3891602,886.7890625,232.7001953z"/>
	<path class="st1" d="M955.8710938,368.0664062c-1.2558594-0.0483398-4.1113281,0.3393555-10.7363281,2.8793945
		l-2.1572266,0.8266602l-1.1835938-0.7832031c1.0449219-2.3442383,0.5751953-5.875-0.4287109-8.4941406
		c-3.7802734-9.8603516-15.2695312-12.1708984-27.1328125-7.6230469l-20.953125,8.0332031
		c-9.2441406,3.5439453-16.2714844,6.4150391-21.1787109,8.8266602c-0.4238281-2.4882812-0.8837891-4.609375-1.5927734-6.4580078
		c-0.7675781-2.0029297-1.84375-3.8876953-3.2509766-6.1757812c4.3369141-1.1323242,9.4804688-2.9277344,16.7216797-5.7036133
		l34.3574219-13.171875c6.625-2.5400391,18.1201172-7.1240234,22.5654297-9.3583984
		c0.5058594,3.1635742,1.0019531,4.9174805,1.7099609,6.7661133c0.7089844,1.8491211,1.7851562,3.7338867,3.1337891,5.8676758
		l-7.9404297,2.3369141c-1.7529297,0.4956055-4.21875,1.440918-7.2998047,2.6220703l-0.0361328,0.3671875
		c13.3964844,1.7558594,21.6601562,6.7167969,24.4951172,14.1118164
		C955.6728516,364.784668,955.7783203,365.9814453,955.8710938,368.0664062z"/>
</g>
<g>
	<rect x="292.5" y="229.0294189" class="st0" width="393" height="210.9705811"/>
	<path class="st1" d="M367.8198242,249.1894531c17.0795898,0,33.3198242-0.5595703,53.4794922-1.3999023
		c-0.8398438,3.3603516-0.8398438,5.8803711-0.8398438,8.3999023c0,3.0800781,0,4.7602539,0.8398438,8.4003906
		c-17.9199219-2.2402344-66.9194336-3.6401367-78.1196289-3.6401367c0,1.3999023-0.5600586,27.7197266-0.5600586,40.0395508
		l0.2802734,31.9199219c23.7998047,0,48.7197266-0.5595703,72.2397461-2.7998047
		c-0.2802734,2.5195312-1.1201172,5.3203125-1.1201172,8.4003906c0,2.2392578,0.2797852,3.9199219,1.1201172,8.3994141
		c-18.2001953-1.3994141-33.3198242-2.2402344-72.2397461-2.2402344v27.4404297
		c0,19.0400391,1.1196289,44.2392578,2.2397461,68.8798828c-4.7597656-0.8408203-9.2397461-1.4003906-13.7197266-1.4003906
		s-8.3999023,0.2802734-13.7202148,1.4003906c1.1201172-24.640625,2.2402344-49.5605469,2.2402344-68.8798828v-55.4404297
		c0-19.3193359-1.1201172-44.2392578-2.2402344-68.8793945
		C335.8999023,248.6298828,351.0195312,249.1894531,367.8198242,249.1894531z"/>
	<path class="st1" d="M525.4628906,258.4296875c0,7.8398438-6.4404297,14.2797852-14.2802734,14.2797852
		s-14.2802734-6.4399414-14.2802734-14.2797852c0-8.1201172,6.7207031-14.2797852,14.2802734-14.2797852
		C518.7431641,244.1499023,525.4628906,250.3095703,525.4628906,258.4296875z M511.1826172,308.5493164
		c4.2001953,0,7.8398438-0.2797852,12.5996094-1.3999023c-1.3994141,12.5996094-2.2392578,37.5195312-2.2392578,49.5595703
		v34.7197266c0,19.0400391,0.8398438,35.2802734,2.2392578,49.5605469
		c-4.7597656-0.8408203-8.9599609-1.4003906-12.5996094-1.4003906c-4.2001953,0-8.1201172,0.5595703-12.5996094,1.4003906
		c2.2402344-17.640625,2.2402344-38.0800781,2.2402344-49.2802734v-37.7998047
		c0-16.7998047-0.8408203-32.2001953-2.2402344-46.7597656
		C503.3427734,308.2695312,507.5429688,308.5493164,511.1826172,308.5493164z"/>
	<path class="st1" d="M640.2626953,269.6293945h1.4003906c-1.1201172,14.5600586-1.4003906,25.7602539-2.2402344,41.4399414
		c7.5595703,0,21.5595703-0.8398438,29.6796875-0.8398438c-0.2802734,1.1201172-0.2802734,6.1601562-0.2802734,7
		c0,2.5195312,0,3.9199219,0.2802734,4.7597656c-6.4394531-0.2802734-16.2392578-0.5595703-19.8798828-0.5595703h-9.7998047
		c-0.8398438,7.8398438-1.9599609,54.5996094-1.9599609,71.9589844c0,21.2802734,1.4003906,41.4404297,22.3994141,41.4404297
		c4.2001953,0,9.5205078-0.8398438,12.8808594-1.9599609v6.7197266c-7,2.5195312-14.8408203,4.2001953-21.5605469,4.2001953
		c-22.9599609,0-34.4394531-11.7597656-34.4394531-35.5605469c0-12.5996094,1.6796875-45.0791016,1.9599609-86.7988281
		c-9.7998047,0-15.9599609,0.2792969-19.0400391,0.5595703c0.8398438-3.0800781,0.5595703-4.2001953,0.5595703-6.4399414
		c0-1.9599609-0.2792969-3.6401367-0.5595703-5.6000977c10.0800781,0.840332,15.3994141,0.840332,18.4794922,0.840332
		l-1.1191406-31.3598633L640.2626953,269.6293945z"/>
</g>
<g>
</g>
<g>
</g>
<g>
</g>
<g>
</g>
<g>
</g>
<g>
</g>
<g>
</g>
<g>
</g>
<g>
</g>
<g>
</g>
<g>
</g>
<g>
</g>
<g>
</g>
<g>
</g>
<g>
</g>
</svg>
