<?xml version="1.0" encoding="utf-8"?>
<!-- Generator: Adobe Illustrator 28.0.0, SVG Export Plug-In . SVG Version: 6.00 Build 0)  -->
<svg version="1.1" id="Layer_1" xmlns="http://www.w3.org/2000/svg" xmlns:xlink="http://www.w3.org/1999/xlink" x="0px" y="0px"
	 viewBox="0 0 715 307" style="enable-background:new 0 0 715 307;" xml:space="preserve">
<style type="text/css">
	.st0{fill:none;}
	.st1{fill:#8B0000;}
</style>
<g>
	<ellipse class="st0" cx="344" cy="315" rx="281.5" ry="204.25"/>
	<path class="st1" d="M25.902832,179.0688477c0.8925781-1.1147461,1.4458008-2.1782227,1.8032227-3.1831055
		c2.4755859,2.3046875,14.8071289,13.1445312,30.2436523,25.5024414c6.6289062,5.3066406,12.855957,10.184082,19.043457,12.8774414
		c9.5795898,4.2255859,16.2646484,1.8300781,21.3564453-4.53125c4.1992188-5.246582,4.4770508-10.6196289,2.3046875-15.909668
		c-2.2250977-5.2246094-6.8818359-11.3198242-19.8671875-21.7148438l-13.8022461-11.0493164
		c-8.8081055-7.0512695-14.5429688-11.4267578-17.0229492-12.9819336c1.0595703-0.765625,1.9238281-1.4726562,2.5537109-2.2597656
		s0.8681641-1.4570312,1.1728516-2.3964844c5.2768555,4.762207,20.0073242,17.6303711,36.3764648,31.0571289
		c17.1860352,14.0810547,20.7407227,28.4404297,11.5024414,39.9829102
		c-10.2880859,12.8540039-22.9501953,12.2939453-41.1113281-2.2446289
		c-4.449707-3.5620117-10.0893555-8.6147461-14.3574219-12.03125c-5.0849609-4.0708008-8.6787109-6.840332-23.3793945-18.0708008
		C23.9892578,181.0878906,25.0629883,180.1181641,25.902832,179.0688477z"/>
	<path class="st1" d="M78.015625,118.9584961c22.3959961,8.5356445,49.5664062,18.1870117,71.4780273,25.6357422
		l-4.675293-6.3798828c-10.5883789-14.4492188-24.8867188-33.534668-32.1699219-42.7631836
		c1.019043-0.3139648,1.9018555-0.6728516,2.6474609-1.21875c0.7451172-0.5463867,1.3525391-1.2802734,1.8237305-2.0581055
		c3.3056641,5.2211914,15.2114258,23.03125,22.5683594,33.0708008
		c10.6572266,14.5429688,23.1689453,31.3325195,24.8188477,33.5839844l-0.8808594,0.6455078
		c-19.4624023-7.8012695-43.4951172-16.7236328-72.2353516-26.8115234
		c4.5410156,6.6230469,5.9160156,8.4995117,14.3046875,19.9462891c2.1313477,2.9086914,5.019043,6.8496094,8.6621094,11.6787109
		l9.7592773,12.7495117c2.8178711,3.703125,4.5336914,5.6186523,4.809082,5.9936523
		c-1.0205078,0.1708984-1.9023438,0.6728516-2.715332,1.269043c-0.8129883,0.5957031-1.5571289,1.2851562-2.1625977,2.3061523
		c-1.7958984-3.5874023-21.6796875-32.5683594-27.7988281-40.9189453l-7.9067383-10.7900391
		c-4.6069336-6.2861328-7.9072266-10.7900391-11.4106445-15.1445312L78.015625,118.9584961z"/>
	<path class="st1" d="M183.9794922,63.2041016c-0.0454102,1.3022461,1.3193359,6.0541992,2.2075195,8.9750977l-0.3598633,0.4228516
		c-6.6230469-4.1137695-13.3432617-5.2353516-18.8330078-2.6962891
		c-13.1147461,6.0654297-15.4077148,22.1201172-5.4467773,43.6577148s23.6796875,30.1870117,36.7944336,24.1220703
		c4.9560547-2.2924805,8.5605469-6.9067383,11.4257812-15.9213867l0.5,0.28125l2.1948242,6.5463867
		c-1.9995117,5.2822266-7.3579102,10.7080078-13.0761719,13.3525391
		c-15.8598633,7.3344727-34.2758789-1.0649414-45.0668945-24.3969727
		c-11.1328125-24.0712891-6.5161133-43.5078125,10.8681641-51.5478516
		C170.9824219,63.3193359,177.2807617,62.3291016,183.9794922,63.2041016z"/>
	<path class="st1" d="M269.3530273,76.5092773c6.565918,25.2143555-1.7797852,43.4941406-19.9873047,48.2348633
		c-17.8828125,4.6557617-34.2402344-6.8305664-40.894043-32.3828125
		c-6.3901367-24.5390625,1.2109375-43.3457031,19.90625-48.2133789
		C246.5854492,39.4072266,262.7871094,51.2949219,269.3530273,76.5092773z M248.2807617,120.5791016
		c13.980957-3.6401367,19.0864258-19.0322266,13.1064453-41.9956055
		c-6.0087891-23.0756836-17.9438477-33.9106445-32.0058594-30.2495117
		c-13.7368164,3.5766602-18.9819336,18.7651367-12.9438477,41.953125
		C222.4169922,113.2504883,234.3813477,124.1982422,248.2807617,120.5791016z"/>
	<path class="st1" d="M274.7329102,36.2573242c1.3374023-0.1352539,2.734375-0.5102539,4.2871094-1.0180664
		c6.0415039,17.1586914,14.9355469,39.9912109,25.9711914,66.4648438
		c3.6518555-17.3208008,9.4990234-52.1660156,12.0541992-70.3110352c1.0380859,0.2456055,2.0644531,0.3754883,3.1508789,0.265625
		s2.065918-0.4423828,3.0336914-0.8911133c-6.2636719,28.2236328-11.3427734,54.8071289-15.9936523,82.2832031
		c-1.0375977-0.2456055-1.8969727-0.3925781-2.8164062-0.2998047c-1.0024414,0.1015625-1.8984375,0.4257812-2.6992188,0.8574219
		c-7.0888672-18.3383789-20.1425781-50.5703125-31.3920898-77.4897461
		C271.9516602,36.3051758,273.3959961,36.3925781,274.7329102,36.2573242z"/>
	<path class="st1" d="M354.4199219,31.7607422c5.0390625,0.0932617,9.4941406-0.0566406,14.9599609-0.3046875
		c-0.2783203,1.3911133-0.2978516,2.4379883-0.3173828,3.484375c-0.0234375,1.2792969,0.0390625,2.4443359,0.1875,3.4941406
		c-7.9619141-1.0786133-10.4697266-1.706543-22.0595703-1.9213867c-0.1992188,6.1625977-0.5273438,10.2285156-0.6162109,14.996582
		l-0.1972656,15.1210938c7.8105469,0.1445312,12.265625-0.0053711,20.4296875-0.784668
		c-0.1875,1.043457-0.2949219,2.3212891-0.3193359,3.6005859c-0.0234375,1.2792969,0.0390625,2.4438477,0.1875,3.4936523
		c-2.5136719-0.3955078-11.1503906-1.2539062-20.3886719-1.4248047l-0.3720703,15.4667969
		c-0.0605469,3.2563477-0.1640625,17.7973633-0.1835938,18.84375l2.015625,0.0375977
		c10.8339844,0.2006836,17.5664062-0.3725586,20.6884766-1.1293945c-0.1962891,1.5087891-0.3037109,2.7866211-0.3193359,3.6010742
		c-0.0195312,1.0463867-0.0478516,2.5585938,0.1894531,3.3774414c-5.4521484-0.4501953-10.0673828-0.7685547-15.1064453-0.8618164
		s-9.8305664,0.050293-15.2958984,0.2983398c0.5263672-10.2285156,1.0576172-20.6894531,1.2070312-28.7143555l0.4287109-23.027832
		c0.1044922-5.5825195,0.2363281-12.6772461-0.140625-28.5068359
		C344.8496094,31.3505859,349.3808594,31.6674805,354.4199219,31.7607422z"/>
	<path class="st1" d="M397.6894531,34.6425781c3.3300781,0.4477539,6.4882812,0.2856445,9.5683594,0.7001953
		c11.40625,1.5341797,16.5615234,8.565918,14.9482422,20.5551758c-1.5058594,11.1821289-9.0644531,18.8505859-20.0302734,19.722168
		l7.9541016,19.6142578c4.7695312,11.7919922,8.0009766,19.2685547,9.5644531,22.7651367
		c-1.8525391-0.71875-3.2519531-1.0244141-4.9169922-1.2480469c-1.5820312-0.2128906-3.4287109-0.3442383-4.90625-0.0732422
		c-4.7402344-13.9003906-11.9189453-32.3540039-16.4101562-41.1738281l-3.1640625-0.4257812l-1.3339844,9.9140625
		c-1.0556641,7.8393555-2.1191406,18.2592773-3.1513672,28.4487305c-1.3691406-0.5361328-2.6699219-0.9462891-4.0019531-1.1254883
		s-2.5292969-0.1054688-4.1572266,0.027832c1.6982422-10.1000977,3.4130859-20.3149414,4.4833984-28.2695312l3.0722656-22.8251953
		c1.0712891-7.9545898,2.1191406-18.2592773,3.1523438-28.4487305
		C391.7265625,33.6054688,394.7763672,34.2504883,397.6894531,34.6425781z M392.0351562,62.1674805l-1.0859375,8.0693359
		c1.6025391,0.6850586,3.5019531,1.0581055,5.4169922,1.315918c9.7402344,1.3100586,16.8535156-4.3056641,18.3583984-15.487793
		c1.3037109-9.6835938-2.6289062-15.7290039-11.2871094-16.8935547c-2.5810547-0.347168-4.4287109-0.4785156-7.7373047-0.4541016
		C395.4833984,40.3310547,392.8261719,56.2880859,392.0351562,62.1674805z"/>
	<path class="st1" d="M472.8193359,49.527832c1.4287109,0.4946289,2.9335938,0.7695312,4.5566406,0.9614258
		c0.2373047,14.9775391,1.0546875,29.0478516,1.9140625,43.2553711c8.8476562-9.1235352,20.5185547-22.809082,28.1689453-32.8398438
		c1.0771484,0.7421875,1.8740234,1.2641602,2.9052734,1.621582c0.8740234,0.3022461,1.9814453,0.4394531,3.2861328,0.5219727
		c-18.2441406,18.5498047-28.0214844,29.0751953-34.2402344,36.7695312
		c-4.3769531,12.6416016-8.9716797,26.684082-10.5917969,32.6474609c-1.2353516-0.796875-2.4287109-1.4560547-3.6992188-1.8959961
		c-1.2695312-0.4394531-2.4570312-0.6044922-4.0800781-0.796875c2.6425781-6.3481445,5.1259766-12.7514648,11.4433594-30.9985352
		c-0.1572266-2.8857422-0.6679688-11.6796875-1.8515625-26.4916992
		c-1.1064453-15.0322266-1.7666016-23.1391602-1.9863281-24.8154297
		C470.0380859,48.3183594,471.3115234,49.0053711,472.8193359,49.527832z"/>
	<path class="st1" d="M559.8730469,132.2011719c-12.5029297,22.859375-31.1113281,30.4467773-47.6201172,21.4165039
		c-16.2138672-8.8691406-20.2519531-28.4458008-7.5810547-51.6113281
		c12.1679688-22.2470703,30.5947266-30.7290039,47.5458984-21.4570312
		C568.7265625,89.5795898,572.3759766,109.3417969,559.8730469,132.2011719z M514.3183594,149.8417969
		c12.6767578,6.934082,26.9453125-0.7729492,38.3320312-21.5913086
		c11.4423828-20.9204102,10.1787109-36.9912109-2.5712891-43.9658203
		c-12.4550781-6.8129883-26.6865234,0.6499023-38.1845703,21.6723633
		C500.5078125,126.7753906,501.7158203,142.9482422,514.3183594,149.8417969z"/>
	<path class="st1" d="M602.8417969,115.9082031c1.0537109,0.9628906,2.0791016,1.5844727,3.0585938,2.0068359
		c-2.4609375,2.3203125-14.0820312,13.9189453-27.4208984,28.5180664
		c-5.7275391,6.269043-11.0009766,12.1650391-14.0927734,18.1640625
		c-4.8417969,9.2841797-2.8876953,16.1113281,3.1279297,21.6069336c4.9609375,4.5327148,10.3037109,5.1601562,15.7246094,3.3369141
		c5.3574219-1.8798828,11.7431641-6.1293945,22.9628906-18.409668l11.9267578-13.0532227
		c7.6103516-8.3300781,12.3505859-13.7675781,14.0644531-16.1411133c0.6943359,1.1074219,1.34375,2.015625,2.0878906,2.6953125
		c0.7441406,0.6801758,1.3974609,0.9614258,2.3144531,1.3271484c-5.0957031,4.9550781-18.8974609,18.815918-33.3632812,34.2753906
		c-15.171875,16.2324219-29.7314453,18.84375-40.6455078,8.8725586
		c-12.1542969-11.1044922-10.7685547-23.7041016,4.9228516-40.8793945
		c3.8447266-4.2080078,9.2548828-9.5068359,12.9423828-13.5429688c4.3935547-4.809082,7.3916016-8.2148438,19.5566406-22.1523438
		C600.9521484,113.8666992,601.8496094,115.0014648,602.8417969,115.9082031z"/>
	<path class="st1" d="M660.8574219,178.3491211c1.8222656,2.8232422,3.9960938,5.1186523,5.6816406,7.7299805
		c6.2392578,9.668457,4.2412109,18.1557617-5.9228516,24.7163086c-9.4794922,6.1186523-20.2197266,5.3525391-28.0039062-2.4189453
		l-9.7480469,18.7880859c-5.8691406,11.2851562-9.4550781,18.5986328-11.0986328,22.0585938
		c-0.6572266-1.8754883-1.3330078-3.1381836-2.2441406-4.5498047c-0.8652344-1.3408203-1.9658203-2.8300781-3.1308594-3.777832
		c7.4912109-12.6323242,16.8613281-30.0766602,20.6503906-39.2207031l-1.7304688-2.6816406l-8.4052734,5.4248047
		c-6.6455078,4.2895508-15.2597656,10.2490234-23.6777344,16.0825195c-0.4814453-1.3891602-1.0146484-2.6445312-1.7431641-3.7734375
		c-0.7285156-1.1293945-1.5615234-1.9912109-2.7207031-3.1425781c8.7832031-5.269043,17.6630859-10.6005859,24.4072266-14.953125
		l19.3505859-12.4897461c6.7431641-4.3525391,15.2597656-10.2490234,23.6777344-16.0825195
		C657.7734375,173.1420898,659.2636719,175.8793945,660.8574219,178.3491211z M636.2568359,191.9282227l-6.8417969,4.4155273
		c0.5205078,1.6640625,1.4697266,3.3500977,2.5175781,4.9731445c5.3291016,8.2573242,14.2177734,10.0175781,23.6982422,3.8989258
		c8.2099609-5.2988281,10.2519531-12.2158203,5.515625-19.5551758c-1.4121094-2.1875-2.5117188-3.6772461-4.6796875-6.1772461
		C655.0986328,180.3666992,641.2412109,188.7114258,636.2568359,191.9282227z"/>
</g>
<g>
	<rect x="210.4117584" y="155.2941132" class="st0" width="267.1764832" height="129.7058868"/>
	<path class="st1" d="M256.4125977,167.6020508c10.4311523,0,20.3496094-0.3417969,32.6621094-0.8549805
		c-0.5131836,2.0522461-0.5131836,3.5913086-0.5131836,5.1303711c0,1.8808594,0,2.9067383,0.5131836,5.1298828
		c-10.9443359-1.3676758-40.8706055-2.2231445-47.7104492-2.2231445c0,0.8554688-0.3422852,16.9296875-0.3422852,24.4541016
		l0.1708984,19.4941406c14.5356445,0,29.7548828-0.3417969,44.1196289-1.7099609
		c-0.1708984,1.5390625-0.684082,3.2490234-0.684082,5.1308594c0,1.3671875,0.1708984,2.3935547,0.684082,5.1298828
		c-11.1152344-0.8554688-20.3496094-1.3681641-44.1196289-1.3681641v16.7587891
		c0,11.6279297,0.684082,27.0185547,1.3681641,42.0673828c-2.9072266-0.5136719-5.6430664-0.8554688-8.3793945-0.8554688
		c-2.7358398,0-5.1298828,0.1708984-8.3789062,0.8554688c0.684082-15.0488281,1.3676758-30.2685547,1.3676758-42.0673828v-33.859375
		c0-11.7993164-0.6835938-27.019043-1.3676758-42.0673828C236.9179688,167.2602539,246.1523438,167.6020508,256.4125977,167.6020508
		z"/>
	<path class="st1" d="M336.7817383,167.6020508c2.7363281,0,5.6435547-0.3417969,8.3793945-0.8549805
		c-0.684082,15.2197266-1.3681641,30.4389648-1.3681641,42.0673828v33.859375
		c0,11.6279297,0.684082,27.0185547,1.3681641,42.0673828c-2.9072266-0.6845703-5.6430664-0.8554688-8.3793945-0.8554688
		c-2.7358398,0-5.1298828,0.1708984-8.3789062,0.8554688c0.684082-15.0488281,1.3676758-30.2685547,1.3676758-42.0673828v-33.859375
		c0-11.7993164-0.6835938-27.019043-1.3676758-42.0673828C331.6518555,167.2602539,334.0458984,167.6020508,336.7817383,167.6020508
		z"/>
	<path class="st1" d="M425.1894531,167.6020508c14.5351562,0,28.3867188-0.3417969,44.1191406-0.8549805
		c-0.6835938,2.2231445-0.8544922,3.5913086-0.8544922,5.472168c0,1.8813477,0.3417969,3.5913086,0.8544922,5.3012695
		c-9.5761719-1.3681641-24.4541016-1.8808594-36.5947266-1.8808594l-0.3427734,15.7324219
		c-0.1708984,6.3271484-0.1708984,11.7993164-0.1708984,16.5869141v34.5439453
		c0,10.9443359,0.6845703,25.1376953,1.3681641,42.2382812c-3.2490234-0.5136719-5.6425781-0.8554688-8.3789062-0.8554688
		s-5.6435547,0.3417969-8.3789062,0.8554688c0.6835938-15.2197266,1.3671875-30.4394531,1.3671875-42.0673828v-34.7148438
		c0-4.9584961,0-10.4306641-0.1708984-16.7583008l-0.3417969-15.5610352c-13.6806641,0-28.2158203,1.0258789-36.5947266,1.8808594
		c0.5126953-1.7099609,0.8544922-3.5913086,0.8544922-5.472168s-0.3417969-3.2490234-0.8544922-5.3012695
		C396.9736328,167.2602539,410.6542969,167.6020508,425.1894531,167.6020508z"/>
</g>
<g>
</g>
<g>
</g>
<g>
</g>
<g>
</g>
<g>
</g>
<g>
</g>
<g>
</g>
<g>
</g>
<g>
</g>
<g>
</g>
<g>
</g>
<g>
</g>
<g>
</g>
<g>
</g>
<g>
</g>
</svg>
