<?xml version="1.0" encoding="utf-8"?>
<!-- Generator: Adobe Illustrator 28.0.0, SVG Export Plug-In . SVG Version: 6.00 Build 0)  -->
<svg version="1.1" id="Layer_1" xmlns="http://www.w3.org/2000/svg" xmlns:xlink="http://www.w3.org/1999/xlink" x="0px" y="0px"
	 viewBox="0 0 1107 600" style="enable-background:new 0 0 1107 600;" xml:space="preserve">
<style type="text/css">
	.st0{fill:none;}
	.st1{fill:#8B0000;}
</style>
<g>
	<circle class="st0" cx="545" cy="561" r="468"/>
	<path class="st1" d="M22.9106445,503.3466797c0.5170898-2.7573242,0.6186523-5.0883789,0.4970703-7.1254883
		c4.6113281,1.3681641,27.2036133,7.1157227,54.7729492,12.2856445c11.8383789,2.2197266,22.8964844,4.1254883,32.6162109,2.4228516
		c15.0820312-2.543457,22.4614258-13.246582,25.4111328-28.9770508c2.4326172-12.9736328-0.3642578-22.2275391-6.3339844-28.8867188
		c-6.0004883-6.4975586-15.7104492-12.0112305-38.9008789-16.3603516l-24.6499023-4.6220703
		c-15.7304688-2.9501953-25.8457031-4.5112305-30.0214844-4.6225586c0.9423828-2.3413086,1.6621094-4.3886719,2.0273438-6.3349609
		c0.3647461-1.9458008,0.2836914-3.3041992,0.1318359-5.1791992c9.7402344,2.6660156,36.6806641,9.3964844,66.1044922,15.4179688
		c30.8833008,6.2949219,44.0087891,26.71875,38.65625,55.2607422
		c-5.9604492,31.7851562-22.9379883,43.5419922-55.3720703,37.4599609
		c-7.9462891-1.4902344-18.3354492-4.277832-25.9575195-5.7070312c-9.081543-1.7026367-15.4365234-2.7265625-41.3735352-6.7509766
		C21.5830078,508.637207,22.4243164,505.9414062,22.9106445,503.3466797z"/>
	<path class="st1" d="M60.9082031,348.7060547c37.2856445-8.875,82.2021484-20.7441406,118.2734375-30.8408203l-9.8632812-5.3486328
		c-22.3378906-12.1137695-52.309082-27.8037109-67.3525391-35.0229492c1.3793945-1.5048828,2.534668-2.9428711,3.3999023-4.5385742
		c0.8652344-1.5952148,1.4404297-3.3481445,1.7919922-5.034668c7.2944336,4.894043,33.1181641,20.9628906,48.6386719,29.3793945
		c22.4824219,12.1923828,48.7490234,26.0605469,52.2299805,27.9487305l-1.0224609,1.8852539
		c-32.5756836,7.1118164-72.4794922,17.0073242-119.9355469,29.7519531
		c9.7724609,5.862793,12.6733398,7.4360352,30.3696289,17.0322266c4.496582,2.4384766,10.5888672,5.7421875,18.2099609,9.6875
		l20.331543,10.2744141c5.8808594,3.0014648,9.3076172,4.296875,9.8876953,4.6113281
		c-1.4453125,1.28125-2.5341797,2.9428711-3.4780273,4.6835938s-1.7426758,3.5600586-2.1850586,5.7602539
		c-4.3027344-3.8349609-47.0849609-29.4755859-59.9946289-36.4760742l-16.6806641-9.0458984
		c-9.7182617-5.2700195-16.6806641-9.0458984-23.8793945-12.3862305L60.9082031,348.7060547z"/>
	<path class="st1" d="M213.2548828,158.7119141c0.3486328,1.9833984,4.1953125,7.9365234,6.6435547,11.5546875l-0.4672852,0.9331055
		c-12.4838867-0.5908203-24.1538086,3.3696289-32.5595703,11.7651367
		c-20.0800781,20.0566406-18.6953125,45.9594727,5.0927734,69.7753906
		c23.7880859,23.8164062,49.6894531,25.2314453,69.7695312,5.1748047
		c7.5883789-7.5791016,12.1445312-17.4941406,14.0205078-33.3608398l0.9335938,0.0004883l5.8291016,7.9375
		c-1.6391602,9.5664062-8.8803711,22.1630859-17.6362305,30.9086914
		c-24.2832031,24.2543945-58.0043945,27.1513672-83.7744141,1.3505859
		c-26.5869141-26.6176758-25.1669922-59.5195312,1.4506836-86.105957
		C191.4296875,169.7832031,201.7011719,163.0219727,213.2548828,158.7119141z"/>
	<path class="st1" d="M381.5063477,118.4287109c17.2675781,32.6791992,5.5683594,63.8686523-27.1108398,81.1362305
		c-32.0957031,16.9594727-64.6611328,9.7192383-82.1601562-23.3974609
		c-16.8046875-31.8041992-6.5888672-63.3291016,26.965332-81.059082
		C331.8798828,77.8408203,364.2387695,85.7495117,381.5063477,118.4287109z M351.5429688,194.1669922
		c25.0932617-13.2587891,31.3920898-38.4223633,15.6665039-68.1835938
		c-15.8027344-29.9072266-40.0634766-38.7363281-65.3022461-25.4003906
		c-24.6552734,13.027832-31.2543945,37.9765625-15.3745117,68.0297852
		C302.2583008,198.3740234,326.5961914,207.3491211,351.5429688,194.1669922z"/>
	<path class="st1" d="M398.9257812,56.0722656c2.5888672-0.5180664,5.2744141-1.3920898,8.2514648-2.4926758
		c13.1728516,22.9404297,32.3652344,53.2578125,56.0239258,88.2348633
		c5.6591797-25.5317383,14.1308594-76.5302734,17.5898438-102.9672852c2.0385742,0.0966797,4.0449219,0.0317383,6.1479492-0.3891602
		c2.1035156-0.4208984,3.9799805-1.1333008,5.8242188-2.0073242c-9.831543,41.6791992-17.4956055,80.7373047-24.253418,120.9599609
		c-2.0385742-0.097168-3.7211914-0.0966797-5.5009766,0.2592773c-1.9414062,0.3886719-3.65625,1.0683594-5.1772461,1.8774414
		c-15.3085938-24.3637695-43.3686523-67.0415039-67.4804688-102.6005859
		C393.5219727,56.8168945,396.3374023,56.590332,398.9257812,56.0722656z"/>
	<path class="st1" d="M570.2529297,37.9047852c9.8916016,0.4121094,18.6425781,0.4462891,29.3789062,0.3979492
		c-0.5771484,1.9575195-0.6396484,3.4414062-0.7011719,4.9248047c-0.0751953,1.8134766,0.0205078,3.4692383,0.2890625,4.9663086
		c-15.6064453-1.9711914-20.5175781-3.0014648-43.2685547-3.9487305
		c-0.5283203,8.7304688-1.2636719,14.4794922-1.5449219,21.2387695l-0.7275391,21.4379883
		c15.3310547,0.6386719,24.0830078,0.6728516,40.1289062,0.0200195c-0.3916016,1.4702148-0.6318359,3.2768555-0.7080078,5.090332
		c-0.0751953,1.8129883,0.0205078,3.46875,0.2890625,4.9658203c-4.9257812-0.7001953-21.8642578-2.3964844-39.9980469-3.1518555
		l-1.078125,21.9189453c-0.1923828,4.6157227-0.7216797,25.2368164-0.7832031,26.7202148l3.9570312,0.1650391
		c21.265625,0.8857422,34.4960938,0.4458008,40.6435547-0.4541016c-0.4189453,2.1293945-0.6591797,3.9360352-0.7070312,5.0898438
		c-0.0625,1.4838867-0.1513672,3.6269531,0.2949219,4.8012695c-10.6953125-0.940918-19.7480469-1.6479492-29.6396484-2.0600586
		s-19.3017578-0.4736328-30.0380859-0.425293c1.2636719-14.4799805,2.5410156-29.2895508,3.0146484-40.6645508l1.3598633-32.6416016
		c0.3295898-7.9130859,0.7485352-17.9692383,0.3632812-40.4443359
		C551.4726562,36.7919922,560.3613281,37.4926758,570.2529297,37.9047852z"/>
	<path class="st1" d="M670.1240234,52.0869141c6.3554688,1.7788086,12.4570312,2.6293945,18.3359375,4.2749023
		c21.7675781,6.0913086,30.8066406,17.8730469,26.1826172,34.3974609
		c-4.3134766,15.4121094-19.8378906,23.7460938-41.0654297,21.2329102l12.8359375,30.6625977
		c7.6923828,18.4291992,12.9697266,30.1855469,15.5380859,35.7016602c-3.4765625-1.6582031-6.1337891-2.5727539-9.3115234-3.4624023
		c-3.0185547-0.8447266-6.5585938-1.6640625-9.4375-1.7841797c-7.3691406-21.4228516-18.8574219-50.1665039-26.390625-64.2675781
		l-6.0380859-1.6899414l-3.8232422,13.6645508c-3.0244141,10.8046875-6.390625,25.2827148-9.6669922,39.4428711
		c-2.5683594-1.2324219-5.0214844-2.2617188-7.5634766-2.9731445c-2.5429688-0.7114258-4.8554688-1.0161133-8.0078125-1.3842773
		c4.5478516-13.8046875,9.140625-27.7680664,12.2089844-38.7314453l8.8037109-31.4599609
		c3.0683594-10.9633789,6.3896484-25.2827148,9.6669922-39.4428711
		C658.7724609,48.5678711,664.5625,50.5307617,670.1240234,52.0869141z M655.7539062,89.3569336l-3.1123047,11.1220703
		c3,1.5249023,6.609375,2.706543,10.2636719,3.7290039c18.5908203,5.2026367,32.9970703-0.3603516,37.3105469-15.7729492
		c3.734375-13.3466797-3.0732422-23.3041992-19.5976562-27.9287109c-4.9257812-1.378418-8.4658203-2.1977539-14.8408203-3.2963867
		C665.1552734,59.4345703,658.0214844,81.253418,655.7539062,89.3569336z"/>
	<path class="st1" d="M820.8339844,114.1767578c2.4072266,1.7392578,5.0078125,3.2109375,7.8388672,4.6459961
		c-3.5341797,22.0776367-5.7978516,43.2412109-8.0244141,64.6357422
		c18.1259766-7.0561523,42.4736328-18.777832,58.7128906-28.0117188c1.7158203,1.8510742,2.9941406,3.1811523,4.7324219,4.4375
		c1.4716797,1.0629883,3.4033203,2.0517578,5.6992188,3.1000977
		c-37.3076172,14.1640625-57.4550781,22.6088867-70.5361328,29.4433594
		c-11.1123047,15.3803711-22.984375,32.6557617-27.4365234,40.2270508c-1.984375-2.0439453-3.9306641-3.8574219-6.0703125-5.4038086
		c-2.140625-1.5458984-4.2060547-2.6313477-7.0371094-4.0664062c6.3701172-7.4072266,12.4726562-15.0083008,28.5136719-37.2099609
		c0.484375-4.3320312,1.8994141-17.5595703,3.7089844-40.0683594c2.0039062-22.7768555,2.9726562-35.1049805,3.0253906-37.7133789
		C816.2119141,110.4301758,818.2919922,112.340332,820.8339844,114.1767578z"/>
	<path class="st1" d="M948.5800781,316.800293c-28.8271484,23.1293945-61.6640625,17.5327148-84.7939453-11.2944336
		c-22.7158203-28.3120117-21.7587891-61.6572266,7.4541016-85.0966797
		c28.0556641-22.5097656,60.9414062-18.434082,84.6904297,11.1655273
		C979.0595703,260.4018555,977.4072266,293.6708984,948.5800781,316.800293z M868.5478516,301.6855469
		c17.7607422,22.1352539,43.6591797,23.5668945,69.9130859,2.5024414
		c26.3818359-21.1674805,30.4677734-46.6577148,12.6044922-68.9213867
		c-17.4501953-21.7490234-43.1953125-23.5161133-69.7060547-2.2456055
		C855.1064453,254.0854492,850.8916016,279.6791992,868.5478516,301.6855469z"/>
	<path class="st1" d="M1021.9189453,340.6835938c0.9794922,2.6289062,2.0947266,4.6782227,3.25,6.3613281
		c-4.6572266,1.2060547-26.9794922,7.934082-53.2666016,17.7236328
		c-11.2880859,4.2041016-21.7451172,8.2744141-29.1953125,14.746582
		c-11.6103516,9.9584961-12.4121094,22.9345703-6.8271484,37.934082
		c4.6074219,12.3706055,11.7773438,18.8564453,20.3261719,21.4833984c8.4921875,2.4716797,19.6552734,2.1879883,41.7685547-6.046875
		l23.5039062-8.7529297c14.9990234-5.5859375,24.4716797-9.4658203,28.1064453-11.5239258
		c0.4003906,2.4921875,0.8398438,4.6176758,1.5302734,6.4731445c0.6914062,1.855957,1.4609375,2.9775391,2.5585938,4.5058594
		c-9.7207031,2.7397461-36.2744141,10.8676758-64.5908203,20.8847656
		c-29.7070312,10.5351562-51.4873047-0.1943359-61.6220703-27.409668
		c-11.2871094-30.3081055-2.8046875-49.1376953,28.1220703-60.6552734
		c7.5771484-2.8217773,17.9160156-5.7915039,25.1835938-8.4980469c8.6591797-3.2250977,14.6328125-5.6254883,38.9316406-15.5551758
		C1020.328125,335.465332,1020.9980469,338.2094727,1021.9189453,340.6835938z"/>
	<path class="st1" d="M1065.9208984,504.2661133c0.4960938,6.581543,1.7783203,12.6074219,2.2373047,18.6953125
		c1.6992188,22.5415039-6.2929688,35.0576172-23.4042969,36.3476562
		c-15.9599609,1.2036133-29.0908203-10.5478516-33.9697266-31.3603516l-24.4453125,22.5273438
		c-14.7001953,13.5180664-23.9521484,22.4897461-28.2617188,26.7856445c0.3730469-3.8339844,0.3261719-6.6435547,0.078125-9.9335938
		c-0.2353516-3.1269531-0.6728516-6.7338867-1.5419922-9.4814453c17.625-14.2353516,40.7265625-34.8408203,51.4130859-46.7333984
		l-0.4716797-6.2519531l-14.1503906,1.0664062c-11.1884766,0.84375-25.9462891,2.6186523-40.3759766,4.3681641
		c0.2822266-2.8344727,0.4130859-5.4916992,0.2148438-8.1240234c-0.1992188-2.6328125-0.7011719-4.9116211-1.4306641-8.0004883
		c14.5283203-0.4335938,29.2216797-0.8793945,40.5751953-1.7353516l32.578125-2.4560547
		c11.3525391-0.855957,25.9462891-2.6181641,40.3759766-4.3681641
		C1065.3564453,492.3950195,1065.4863281,498.5078125,1065.9208984,504.2661133z M1025.9824219,503.4716797l-11.5175781,0.8681641
		c-0.4101562,3.340332-0.2890625,7.137207-0.0039062,10.9213867c1.4521484,19.2509766,11.5957031,30.8964844,27.5556641,29.6928711
		c13.8212891-1.0419922,20.859375-10.8388672,19.5693359-27.9506836c-0.3837891-5.1005859-0.8212891-8.7080078-1.9638672-15.0751953
		C1057.3183594,502.1020508,1034.3740234,502.8388672,1025.9824219,503.4716797z"/>
</g>
<g>
	<rect x="348.5" y="270.0294189" class="st0" width="482.5" height="210.9705811"/>
	<path class="st1" d="M423.8198242,290.1894531c17.0795898,0,33.3198242-0.5595703,53.4794922-1.3999023
		c-0.8398438,3.3603516-0.8398438,5.8803711-0.8398438,8.3999023c0,3.0800781,0,4.7602539,0.8398438,8.4003906
		c-17.9199219-2.2402344-66.9194336-3.6401367-78.1196289-3.6401367c0,1.3999023-0.5600586,27.7197266-0.5600586,40.0395508
		l0.2802734,31.9199219c23.7998047,0,48.7197266-0.5595703,72.2397461-2.7998047
		c-0.2802734,2.5195312-1.1201172,5.3203125-1.1201172,8.4003906c0,2.2392578,0.2797852,3.9199219,1.1201172,8.3994141
		c-18.2001953-1.3994141-33.3198242-2.2402344-72.2397461-2.2402344v27.4404297
		c0,19.0400391,1.1196289,44.2392578,2.2397461,68.8798828c-4.7597656-0.8408203-9.2397461-1.4003906-13.7197266-1.4003906
		s-8.3999023,0.2802734-13.7202148,1.4003906c1.1201172-24.640625,2.2402344-49.5605469,2.2402344-68.8798828v-55.4404297
		c0-19.3193359-1.1201172-44.2392578-2.2402344-68.8793945
		C391.8999023,289.6298828,407.0195312,290.1894531,423.8198242,290.1894531z"/>
	<path class="st1" d="M572.2197266,290.1894531c4.4804688,0,9.2402344-0.5595703,13.7197266-1.3999023
		c-1.1201172,24.9199219-2.2392578,49.8398438-2.2392578,68.8793945v55.4404297
		c0,19.0400391,1.1191406,44.2392578,2.2392578,68.8798828c-4.7597656-1.1201172-9.2392578-1.4003906-13.7197266-1.4003906
		c-4.4794922,0-8.3994141,0.2802734-13.7197266,1.4003906c1.1201172-24.640625,2.2402344-49.5605469,2.2402344-68.8798828
		v-55.4404297c0-19.3193359-1.1201172-44.2392578-2.2402344-68.8793945
		C563.8203125,289.6298828,567.7402344,290.1894531,572.2197266,290.1894531z"/>
	<path class="st1" d="M733.7802734,290.1894531c23.7998047,0,46.4794922-0.5595703,72.2392578-1.3999023
		c-1.1201172,3.6401367-1.4003906,5.8803711-1.4003906,8.9599609c0,3.0800781,0.5605469,5.8803711,1.4003906,8.6801758
		c-15.6796875-2.2402344-40.0400391-3.0800781-59.9199219-3.0800781l-0.5595703,25.7597656
		c-0.2802734,10.3603516-0.2802734,19.3203125-0.2802734,27.1601562v56.5595703
		c0,17.9199219,1.1201172,41.1601562,2.2402344,69.1601562c-5.3203125-0.8408203-9.2402344-1.4003906-13.7197266-1.4003906
		c-4.4804688,0-9.2402344,0.5595703-13.7207031,1.4003906c1.1201172-24.9199219,2.2402344-49.8398438,2.2402344-68.8798828
		v-56.8398438c0-8.1201172,0-17.0800781-0.2802734-27.4399414l-0.5595703-25.4799805
		c-22.4003906,0-46.2001953,1.6801758-59.9199219,3.0800781c0.8398438-2.7998047,1.4003906-5.8798828,1.4003906-8.9599609
		s-0.5605469-5.3198242-1.4003906-8.6801758C687.5800781,289.6298828,709.9794922,290.1894531,733.7802734,290.1894531z"/>
</g>
<g>
</g>
<g>
</g>
<g>
</g>
<g>
</g>
<g>
</g>
<g>
</g>
<g>
</g>
<g>
</g>
<g>
</g>
<g>
</g>
<g>
</g>
<g>
</g>
<g>
</g>
<g>
</g>
<g>
</g>
</svg>
