<?xml version="1.0" encoding="utf-8"?>
<!-- Generator: Adobe Illustrator 23.1.0, SVG Export Plug-In . SVG Version: 6.00 Build 0)  -->
<svg version="1.1" id="Layer_1" xmlns="http://www.w3.org/2000/svg" xmlns:xlink="http://www.w3.org/1999/xlink" x="0px" y="0px"
	 viewBox="0 0 81 20" style="enable-background:new 0 0 81 20;" xml:space="preserve">
<style type="text/css">
	.st0{fill:#8B0000;stroke:#B2892D;stroke-width:0.5;stroke-miterlimit:10;}
	.st1{fill:none;}
	.st2{fill:#FFFFFF;}
</style>
<path class="st0" d="M71.0000076,19H9.9999914C5.324996,19,1.5,15.175004,1.5,10.5000086v-0.0000172
	C1.5,5.824996,5.324996,2,9.9999914,2h61.0000153C75.6750031,2,79.5,5.824996,79.5,10.4999914v0.0000172
	C79.5,15.175004,75.6750031,19,71.0000076,19z"/>
<g>
	<rect x="6.9375" y="5" class="st1" width="69.7249985" height="9.396286"/>
	<path class="st2" d="M13.2851563,7.8706055c-0.5957031,0.0683594-0.7470703,0.1611328-1.1083984,0.9912109
		c-0.2490234,0.6494141-1.1376953,2.8564453-1.8408203,4.7460938H9.9160156
		c-0.6103516-1.6796875-1.4208984-3.8378906-1.8505859-4.9267578C7.8066406,8.0317383,7.6552734,7.9194336,7.1083984,7.8706055
		V7.5288086h2.5097656L9.6083984,7.8706055C8.96875,7.9389648,8.9589844,8.0317383,9.0859375,8.4077148
		c0.2636719,0.7226563,0.9423828,2.5732422,1.3720703,3.6914063h0.0195313c0.4882813-1.3085938,1.0009766-2.6806641,1.25-3.4667969
		c0.1904297-0.5810547,0.1611328-0.6835938-0.5712891-0.7617188V7.5288086h2.1289063V7.8706055z"/>
	<path class="st2" d="M13.7880859,13.5200195v-0.3417969c0.6982422-0.0585938,0.7910156-0.1171875,0.7910156-0.8789063V8.7495117
		c0-0.7714844-0.0927734-0.8300781-0.7910156-0.8789063V7.5288086h2.5976563v0.3417969
		c-0.6982422,0.0488281-0.78125,0.1074219-0.78125,0.8789063v3.5498047c0,0.7714844,0.0830078,0.8203125,0.78125,0.8789063
		v0.3417969H13.7880859z"/>
	<path class="st2" d="M21.8984375,12.0112305c-0.0537109,0.3564453-0.2392578,1.2402344-0.3222656,1.5087891h-4.5507813v-0.3417969
		c0.78125-0.0683594,0.8691406-0.1171875,0.8691406-0.8789063V8.7495117c0-0.78125-0.0878906-0.8300781-0.7568359-0.8789063
		V7.5288086h4.21875c0.0097656,0.1708984,0.0488281,0.8300781,0.0927734,1.3623047l-0.3613281,0.0488281
		c-0.0830078-0.3515625-0.1904297-0.5908203-0.3222656-0.7714844c-0.1171875-0.1660156-0.3710938-0.2490234-0.9277344-0.2490234
		h-0.5615234c-0.3173828,0-0.3515625,0.0195313-0.3515625,0.3222656v1.9580078h0.7128906
		c0.7714844,0,0.859375-0.0585938,0.9814453-0.6884766h0.3466797v1.8505859h-0.3466797
		c-0.1220703-0.6738281-0.2099609-0.7128906-0.9814453-0.7128906h-0.7128906v1.6308594
		c0,0.4296875,0.0634766,0.6396484,0.234375,0.7324219c0.15625,0.0878906,0.4785156,0.1074219,0.8691406,0.1074219
		c0.5371094,0,0.8398438-0.0585938,1.0400391-0.2880859c0.1708984-0.1904297,0.3271484-0.4833984,0.4785156-0.8837891
		L21.8984375,12.0112305z"/>
	<path class="st2" d="M30.765625,7.8706055c-0.6103516,0.078125-0.7275391,0.1708984-0.9814453,0.8984375
		c-0.2099609,0.6396484-0.7470703,2.2607422-1.4990234,4.8388672h-0.4394531
		c-0.4785156-1.3964844-0.9912109-2.8564453-1.4794922-4.2675781h-0.0195313
		c-0.4785156,1.4794922-0.9619141,2.8808594-1.4013672,4.2675781H24.515625
		c-0.4882813-1.6455078-0.9570313-3.2275391-1.4599609-4.8681641c-0.2197266-0.7080078-0.3710938-0.8105469-0.8984375-0.8691406
		V7.5288086h2.4804688v0.3417969C23.96875,7.9389648,23.9541016,8.0317383,24.0761719,8.480957
		c0.3222656,1.1474609,0.6396484,2.2607422,0.9814453,3.4082031h0.0195313
		c0.4492188-1.4306641,0.9179688-2.8710938,1.3574219-4.296875h0.4101563
		c0.4931641,1.4355469,1.0009766,2.8564453,1.5039063,4.3164063h0.0292969
		c0.3466797-1.1572266,0.7763672-2.7001953,0.9179688-3.3203125c0.1220703-0.5371094,0.078125-0.6591797-0.6396484-0.7177734
		V7.5288086h2.109375V7.8706055z"/>
	<path class="st2" d="M41.7324219,7.8706055c-0.6103516,0.078125-0.7275391,0.1708984-0.9814453,0.8984375
		c-0.2099609,0.6396484-0.7470703,2.2607422-1.4990234,4.8388672H38.8125
		c-0.4785156-1.3964844-0.9912109-2.8564453-1.4794922-4.2675781h-0.0195313
		c-0.4785156,1.4794922-0.9619141,2.8808594-1.4013672,4.2675781h-0.4296875
		c-0.4882813-1.6455078-0.9570313-3.2275391-1.4599609-4.8681641c-0.2197266-0.7080078-0.3710938-0.8105469-0.8984375-0.8691406
		V7.5288086h2.4804688v0.3417969c-0.6689453,0.0683594-0.6835938,0.1611328-0.5615234,0.6103516
		c0.3222656,1.1474609,0.6396484,2.2607422,0.9814453,3.4082031h0.0195313
		c0.4492188-1.4306641,0.9179688-2.8710938,1.3574219-4.296875h0.4101563
		c0.4931641,1.4355469,1.0009766,2.8564453,1.5039063,4.3164063h0.0292969
		c0.3466797-1.1572266,0.7763672-2.7001953,0.9179688-3.3203125c0.1220703-0.5371094,0.078125-0.6591797-0.6396484-0.7177734
		V7.5288086h2.109375V7.8706055z"/>
	<path class="st2" d="M47.0351563,12.0112305c-0.0537109,0.3564453-0.2392578,1.2402344-0.3222656,1.5087891h-4.5507813v-0.3417969
		c0.78125-0.0683594,0.8691406-0.1171875,0.8691406-0.8789063V8.7495117c0-0.78125-0.0878906-0.8300781-0.7568359-0.8789063
		V7.5288086h4.21875c0.0097656,0.1708984,0.0488281,0.8300781,0.0927734,1.3623047l-0.3613281,0.0488281
		c-0.0830078-0.3515625-0.1904297-0.5908203-0.3222656-0.7714844c-0.1171875-0.1660156-0.3710938-0.2490234-0.9277344-0.2490234
		h-0.5615234c-0.3173828,0-0.3515625,0.0195313-0.3515625,0.3222656v1.9580078h0.7128906
		c0.7714844,0,0.859375-0.0585938,0.9814453-0.6884766h0.3466797v1.8505859h-0.3466797
		c-0.1220703-0.6738281-0.2099609-0.7128906-0.9814453-0.7128906h-0.7128906v1.6308594
		c0,0.4296875,0.0634766,0.6396484,0.234375,0.7324219c0.15625,0.0878906,0.4785156,0.1074219,0.8691406,0.1074219
		c0.5371094,0,0.8398438-0.0585938,1.0400391-0.2880859c0.1708984-0.1904297,0.3271484-0.4833984,0.4785156-0.8837891
		L47.0351563,12.0112305z"/>
	<path class="st2" d="M50.7998047,10.277832c0.9423828,0.1416016,1.640625,0.5615234,1.640625,1.4501953
		c0,0.6201172-0.3369141,1.1132813-0.8789063,1.4013672c-0.4589844,0.2685547-1.1181641,0.390625-1.8505859,0.390625h-2.1972656
		v-0.3417969c0.7373047-0.0683594,0.8056641-0.1171875,0.8056641-0.8789063V8.7397461
		c0-0.7519531-0.0585938-0.8203125-0.7373047-0.8691406V7.5288086h2.5292969c0.6787109,0,1.1181641,0.0927734,1.4501953,0.3125
		s0.5224609,0.6103516,0.5224609,1.0498047c0,0.8691406-0.7324219,1.2402344-1.2841797,1.3574219V10.277832z M49.671875,10.1411133
		c0.8886719,0,1.3085938-0.3417969,1.3085938-1.1132813c0-0.7275391-0.4199219-1.1181641-1.0791016-1.1181641
		c-0.2197266,0-0.390625,0.0390625-0.4492188,0.1025391c-0.078125,0.0585938-0.1123047,0.1757813-0.1123047,0.4101563v1.71875
		H49.671875z M49.3398438,12.2993164c0,0.6396484,0.1611328,0.8300781,0.703125,0.8203125
		c0.6201172,0,1.2402344-0.3710938,1.2402344-1.2890625c0-0.8886719-0.6005859-1.2988281-1.640625-1.2988281h-0.3027344V12.2993164z
		"/>
	<path class="st2" d="M53.1923828,13.5200195v-0.3417969c0.6982422-0.0585938,0.7910156-0.1171875,0.7910156-0.8789063V8.7495117
		c0-0.7714844-0.0927734-0.8300781-0.7910156-0.8789063V7.5288086h2.5976563v0.3417969
		c-0.6982422,0.0488281-0.78125,0.1074219-0.78125,0.8789063v3.5498047c0,0.7714844,0.0830078,0.8203125,0.78125,0.8789063
		v0.3417969H53.1923828z"/>
	<path class="st2" d="M62.71875,7.8608398c-0.4980469,0.0292969-0.6982422,0.1611328-0.7470703,0.5273438
		c-0.0390625,0.2832031-0.0683594,0.7128906-0.0683594,1.5234375v3.6865234H61.46875l-3.6865234-4.6289063h-0.0195313v2.1386719
		c0,0.78125,0.0390625,1.2207031,0.0683594,1.4941406c0.0390625,0.4101563,0.2392578,0.546875,0.8691406,0.5761719v0.3417969
		h-2.2509766v-0.3417969c0.5126953-0.0292969,0.7324219-0.1660156,0.7714844-0.5566406
		c0.0390625-0.2929688,0.078125-0.7324219,0.078125-1.5136719V9.1401367c0-0.6201172-0.0097656-0.7324219-0.1757813-0.9521484
		c-0.1708984-0.2197266-0.390625-0.2880859-0.78125-0.3271484V7.5288086h1.5576172l3.5009766,4.2626953h0.0292969V9.9116211
		c0-0.8105469-0.0390625-1.2402344-0.0683594-1.5136719C61.3125,8.0317383,61.1025391,7.8999023,60.4726563,7.8608398V7.5288086
		H62.71875V7.8608398z"/>
	<path class="st2" d="M66.2685547,13.5200195v-0.3417969c0.5419922-0.078125,0.6005859-0.15625,0.4785156-0.5371094
		c-0.1074219-0.2929688-0.2490234-0.7128906-0.4003906-1.1230469h-1.8164063
		c-0.1123047,0.2929688-0.2294922,0.6201172-0.3320313,0.9912109C64.046875,13.0024414,64.0908203,13.1000977,64.75,13.1782227
		v0.3417969h-2.0507813v-0.3417969c0.6005859-0.078125,0.7177734-0.1464844,1.0205078-0.9277344l1.8408203-4.7509766
		l0.4296875-0.1074219c0.5566406,1.5576172,1.1474609,3.2861328,1.7285156,4.8388672
		c0.2783203,0.7910156,0.4003906,0.8789063,1.0009766,0.9472656v0.3417969H66.2685547z M65.4677734,8.8911133h-0.0292969
		c-0.2587891,0.7177734-0.5078125,1.4404297-0.7617188,2.1386719h1.5136719L65.4677734,8.8911133z"/>
	<path class="st2" d="M74.7792969,13.5981445c-0.0878906,0-0.2001953-0.0097656-0.3076172-0.0097656
		c-0.9423828-0.0390625-1.3037109-0.2783203-1.6796875-0.8691406c-0.2734375-0.4003906-0.5615234-0.9472656-0.8203125-1.4111328
		c-0.1513672-0.2587891-0.3027344-0.3662109-0.6591797-0.3662109h-0.2539063v1.3574219
		c0,0.7617188,0.0830078,0.8203125,0.78125,0.8789063v0.3417969h-2.5976563v-0.3417969
		c0.7080078-0.0585938,0.8105469-0.1171875,0.8105469-0.8789063V8.7299805c0-0.7519531-0.0927734-0.8105469-0.7714844-0.859375
		V7.5288086h2.4511719c0.7275391,0,1.1767578,0.0830078,1.5380859,0.3222656
		c0.3710938,0.2392578,0.6298828,0.6494141,0.6298828,1.2207031c0,0.8105469-0.4980469,1.2695313-1.1523438,1.5478516
		c0.1513672,0.2685547,0.5029297,0.8886719,0.78125,1.3085938c0.3222656,0.5029297,0.4931641,0.7519531,0.6933594,0.9521484
		c0.2197266,0.2392578,0.4101563,0.3417969,0.6054688,0.4101563L74.7792969,13.5981445z M71.4101563,10.5610352
		c0.4003906,0,0.6884766-0.0732422,0.8984375-0.2490234c0.3417969-0.2636719,0.4833984-0.6298828,0.4833984-1.1035156
		c0-0.9570313-0.6201172-1.3085938-1.2109375-1.3085938c-0.2392578,0-0.3710938,0.0390625-0.4296875,0.1025391
		c-0.0732422,0.0488281-0.0927734,0.1464844-0.0927734,0.3759766v2.1826172H71.4101563z"/>
</g>
<g>
</g>
<g>
</g>
<g>
</g>
<g>
</g>
<g>
</g>
<g>
</g>
<g>
</g>
<g>
</g>
<g>
</g>
<g>
</g>
<g>
</g>
<g>
</g>
<g>
</g>
<g>
</g>
<g>
</g>
</svg>
